<?xml version="1.0" encoding="iso-8859-1"?>
<!-- Generator: Adobe Illustrator 19.0.0, SVG Export Plug-In . SVG Version: 6.00 Build 0)  -->
<svg xmlns="http://www.w3.org/2000/svg" xmlns:xlink="http://www.w3.org/1999/xlink" version="1.1" id="Layer_1" x="0px" y="0px" viewBox="0 0 512.001 512.001" style="enable-background:new 0 0 512.001 512.001;" xml:space="preserve">
<g>
	<g>
		<path d="M311.008,281.253c-10.546-10.548-23.673-18.204-37.962-22.139l-4.162,15.11c11.677,3.217,22.411,9.479,31.042,18.111    c13.323,13.323,20.661,31.033,20.661,49.87v83.592c0,38.891-31.639,70.531-70.531,70.531c-18.835,0-36.546-7.337-49.87-20.661    c-13.324-13.324-20.661-31.034-20.661-49.87v-15.412h-15.673v15.412c0,23.022,8.968,44.669,25.252,60.952    c16.283,16.285,37.93,25.252,60.952,25.252c47.533,0,86.204-38.671,86.204-86.204v-83.592    C336.26,319.183,327.291,297.536,311.008,281.253z"/>
	</g>
</g>
<g>
	<g>
		<path d="M339.395,0v55.38c0,7.203-5.859,13.061-13.061,13.061H175.218c-15.844,0-28.735,12.89-28.735,28.735v51.548    c0,15.845,12.891,28.735,28.735,28.735h37.419v-15.673h-37.419c-7.203,0-13.061-5.859-13.061-13.061V97.176    c0-7.203,5.859-13.061,13.061-13.061h151.116c15.845,0,28.735-12.89,28.735-28.735V0H339.395z"/>
	</g>
</g>
<g>
	<g>
		<path d="M336.782,161.785h-71.378v15.673h71.379c7.203,0,13.061,5.859,13.061,13.061v4.877c0,7.202-5.859,13.061-13.061,13.061    h-65.829c-15.845,0-28.735,12.89-28.735,28.735v19.18c-43.872,3.975-78.367,40.942-78.367,85.832v15.412h15.673v-15.412    c0-36.241,27.479-66.172,62.694-70.084v31.153c-9.707,3.279-16.718,12.466-16.718,23.266c0,13.54,11.015,24.555,24.555,24.555    c13.54,0,24.555-11.015,24.555-24.555c0-10.799-7.011-19.986-16.718-23.266v-66.08c0-7.202,5.859-13.061,13.061-13.061h65.829    c15.845,0,28.735-12.89,28.735-28.735v-4.877C365.517,174.676,352.627,161.785,336.782,161.785z M258.937,326.537    c0,4.897-3.984,8.882-8.882,8.882c-4.897,0-8.882-3.984-8.882-8.882c0-4.897,3.984-8.882,8.882-8.882    S258.937,321.639,258.937,326.537z"/>
	</g>
</g>
<g>
	<g>
		<rect x="163.85" y="375.9" width="15.673" height="15.673"/>
	</g>
</g>
<g>
	<g>
		<rect x="230.92" y="161.78" width="15.674" height="15.673"/>
	</g>
</g>
<g>
</g>
<g>
</g>
<g>
</g>
<g>
</g>
<g>
</g>
<g>
</g>
<g>
</g>
<g>
</g>
<g>
</g>
<g>
</g>
<g>
</g>
<g>
</g>
<g>
</g>
<g>
</g>
<g>
</g>
</svg>
