<?xml version="1.0" encoding="iso-8859-1"?>
<!-- Generator: Adobe Illustrator 19.0.0, SVG Export Plug-In . SVG Version: 6.00 Build 0)  -->
<svg xmlns="http://www.w3.org/2000/svg" xmlns:xlink="http://www.w3.org/1999/xlink" version="1.1" id="Layer_1" x="0px" y="0px" viewBox="0 0 512 512" style="enable-background:new 0 0 512 512;" xml:space="preserve">
<g>
	<g>
		<path d="M449.719,119.968l-13.995,6.976c13.898,27.879,20.945,57.944,20.945,89.362c0,110.65-90.02,200.669-200.669,200.669    c-14.492,0-29.013-1.573-43.16-4.676l-3.783-0.83l-70.118,59.529l16.197-81.112l-4.614-2.856    c-28.549-17.678-52.418-42.432-69.025-71.588c-17.119-30.056-26.168-64.336-26.168-99.135c0-110.65,90.02-200.669,200.669-200.669    c54.373,0,105.27,21.387,143.316,60.221l11.17-10.943C369.474,23.054,314.609,0,256,0C136.728,0,39.694,97.034,39.694,216.306    c0,37.507,9.757,74.463,28.218,106.874c16.997,29.842,41.05,55.403,69.782,74.215L114.806,512l98.5-83.627    c14.035,2.814,28.377,4.239,42.694,4.239c119.272,0,216.306-97.034,216.306-216.306    C472.306,182.446,464.707,150.033,449.719,119.968z"/>
	</g>
</g>
<g>
	<g>
		<path d="M427.01,83.839l-12.359,9.578c4.005,5.168,7.77,10.539,11.189,15.965l13.229-8.336    C435.381,95.194,431.324,89.406,427.01,83.839z"/>
	</g>
</g>
<g>
	<g>
		<path d="M318.882,256.882l-40.336,18.852l-52.782-113.452L266.1,143.43l-31.558-67.833l-69.411,32.442l-0.167,4.784    c-1.596,45.768,7.766,91.897,27.074,133.399c19.308,41.503,48.547,78.344,84.556,106.54l3.781,2.959l69.399-32.435    L318.882,256.882z M180.467,118.132l46.505-21.736l18.367,39.478l-40.336,18.853l65.974,141.806l40.336-18.852l17.702,38.05    l-46.517,21.741C216.827,284.168,178.988,202.821,180.467,118.132z"/>
	</g>
</g>
<g>
	<g>
		<path d="M76.179,216.302h15.637c0-90.532,73.652-164.184,164.184-164.184V36.481C156.846,36.481,76.179,117.148,76.179,216.302z"/>
	</g>
</g>
<g>
</g>
<g>
</g>
<g>
</g>
<g>
</g>
<g>
</g>
<g>
</g>
<g>
</g>
<g>
</g>
<g>
</g>
<g>
</g>
<g>
</g>
<g>
</g>
<g>
</g>
<g>
</g>
<g>
</g>
</svg>
