<?xml version="1.0" encoding="iso-8859-1"?>
<!-- Generator: Adobe Illustrator 19.0.0, SVG Export Plug-In . SVG Version: 6.00 Build 0)  -->
<svg xmlns="http://www.w3.org/2000/svg" xmlns:xlink="http://www.w3.org/1999/xlink" version="1.1" id="Layer_1" x="0px" y="0px" viewBox="0 0 512 512" style="enable-background:new 0 0 512 512;" xml:space="preserve">
<g>
	<g>
		<rect x="169.79" y="194.27" width="15.675" height="15.675"/>
	</g>
</g>
<g>
	<g>
		<rect x="169.79" y="228.76" width="15.675" height="15.675"/>
	</g>
</g>
<g>
	<g>
		<path d="M313.478,130.563H198.524c-15.847,0-28.738,12.893-28.738,28.738v16.681h15.675v-16.681    c0-7.203,5.859-13.063,13.063-13.063h114.954c7.203,0,13.063,5.859,13.063,13.063v258.646h-141.08v-17.852h83.572V384.42h-83.572    v-121.7h-15.675v170.902h39.189V512h94.053v-78.377h39.189V159.302C342.216,143.456,329.324,130.563,313.478,130.563z     M287.352,496.325H224.65v-62.702h62.702V496.325z"/>
	</g>
</g>
<g>
	<g>
		<rect x="265.41" y="457.14" width="15.675" height="15.675"/>
	</g>
</g>
<g>
	<g>
		<rect x="230.92" y="457.14" width="15.675" height="15.675"/>
	</g>
</g>
<g>
	<g>
		<path d="M158.09,40.49l11.084,11.085c47.876-47.877,125.776-47.877,173.653,0L353.91,40.49    C299.924-13.497,212.077-13.497,158.09,40.49z"/>
	</g>
</g>
<g>
	<g>
		<path d="M256.001,39.124c-26.519,0-51.449,10.327-70.2,29.077l11.084,11.085c15.79-15.79,36.785-24.487,59.115-24.487    c22.33,0,43.326,8.696,59.115,24.487l11.086-11.085C307.45,49.451,282.52,39.124,256.001,39.124z"/>
	</g>
</g>
<g>
	<g>
		<path d="M213.511,95.911l11.084,11.085c17.317-17.318,45.493-17.318,62.811,0l11.085-11.085    C275.061,72.483,236.94,72.483,213.511,95.911z"/>
	</g>
</g>
<g>
	<g>
		<rect x="287.58" y="384.42" width="15.46" height="15.675"/>
	</g>
</g>
<g>
</g>
<g>
</g>
<g>
</g>
<g>
</g>
<g>
</g>
<g>
</g>
<g>
</g>
<g>
</g>
<g>
</g>
<g>
</g>
<g>
</g>
<g>
</g>
<g>
</g>
<g>
</g>
<g>
</g>
</svg>
