<?xml version="1.0" encoding="iso-8859-1"?>
<!-- Generator: Adobe Illustrator 19.0.0, SVG Export Plug-In . SVG Version: 6.00 Build 0)  -->
<svg xmlns="http://www.w3.org/2000/svg" xmlns:xlink="http://www.w3.org/1999/xlink" version="1.1" id="Layer_1" x="0px" y="0px" viewBox="0 0 512.003 512.003" style="enable-background:new 0 0 512.003 512.003;" xml:space="preserve">
<g>
	<g>
		<rect x="198.53" y="363.101" width="114.94" height="15.673"/>
	</g>
</g>
<g>
	<g>
		<rect x="198.53" y="396.021" width="114.94" height="15.674"/>
	</g>
</g>
<g>
	<g>
		<rect x="298.01" y="330.191" width="15.458" height="15.673"/>
	</g>
</g>
<g>
	<g>
		<rect x="198.53" y="330.191" width="80.927" height="15.673"/>
	</g>
</g>
<g>
	<g>
		<path d="M451.918,441.47V140.941l-86.083-86.083H60.082V441.47H33.959v15.673h444.082V441.47H451.918z M195.918,70.532h120.163    v88.816H195.918V70.532z M75.755,441.47V70.532h104.49v104.49h151.51V70.532h27.588l76.901,76.901V441.47H75.755z"/>
	</g>
</g>
<g>
	<g>
		<path d="M339.592,284.736H172.408c-15.844,0-28.735,12.891-28.735,28.735v114.925h15.673V313.47    c0-7.202,5.859-13.061,13.061-13.061h167.184c7.202,0,13.061,5.859,13.061,13.061v114.925h15.673V313.47    C368.327,297.627,355.436,284.736,339.592,284.736z"/>
	</g>
</g>
<g>
	<g>
		<rect x="496.33" y="441.471" width="15.673" height="15.673"/>
	</g>
</g>
<g>
	<g>
		<rect y="441.471" width="15.673" height="15.673"/>
	</g>
</g>
<g>
</g>
<g>
</g>
<g>
</g>
<g>
</g>
<g>
</g>
<g>
</g>
<g>
</g>
<g>
</g>
<g>
</g>
<g>
</g>
<g>
</g>
<g>
</g>
<g>
</g>
<g>
</g>
<g>
</g>
</svg>
