<?xml version="1.0" encoding="iso-8859-1"?>
<!-- Generator: Adobe Illustrator 19.0.0, SVG Export Plug-In . SVG Version: 6.00 Build 0)  -->
<svg xmlns="http://www.w3.org/2000/svg" xmlns:xlink="http://www.w3.org/1999/xlink" version="1.1" id="Layer_1" x="0px" y="0px" viewBox="0 0 512.003 512.003" style="enable-background:new 0 0 512.003 512.003;" xml:space="preserve">
<g>
	<g>
		<path d="M512,403.051v-99.265h-90.032V171.825c9.12-3.236,15.67-11.946,15.67-22.161c0-12.964-10.546-23.51-23.51-23.51    c-12.964,0-23.51,10.546-23.51,23.51c0,10.218,6.554,18.929,15.677,22.163v131.959H142.411v15.673h353.915v67.918H15.673v-67.918    h40.011v-15.673H0v99.265h53.464v15.673H33.959v15.673h191.68v-15.673h-83.36v-15.673h227.44v15.673h-53.582v15.673h161.904    v-15.673h-19.505v-15.673H512z M414.128,157.5c-4.322,0-7.837-3.515-7.837-7.837c0-4.322,3.516-7.837,7.837-7.837    c4.322,0,7.837,3.515,7.837,7.837C421.965,153.985,418.449,157.5,414.128,157.5z M126.606,418.725H69.137v-15.673h57.469V418.725z     M442.862,418.725h-57.469v-15.673h57.469V418.725z"/>
	</g>
</g>
<g>
	<g>
		<rect x="427.06" y="345.582" width="15.667" height="15.673"/>
	</g>
</g>
<g>
	<g>
		<rect x="367.43" y="345.582" width="15.667" height="15.673"/>
	</g>
</g>
<g>
	<g>
		<rect x="307.8" y="345.582" width="15.667" height="15.673"/>
	</g>
</g>
<g>
	<g>
		<rect x="248.16" y="345.582" width="15.666" height="15.673"/>
	</g>
</g>
<g>
	<g>
		<path d="M358.713,100.523l11.082,11.082c24.446-24.444,64.219-24.443,88.664,0l11.082-11.082    C438.987,69.967,389.268,69.966,358.713,100.523z"/>
	</g>
</g>
<g>
	<g>
		<path d="M414.129,101.08c-14.654,0-28.43,5.706-38.791,16.067l11.083,11.082c7.401-7.401,17.241-11.476,27.708-11.476    c10.467,0,20.307,4.075,27.708,11.476l11.082-11.082C442.557,106.786,428.781,101.08,414.129,101.08z"/>
	</g>
</g>
<g>
	<g>
		<rect x="73.969" y="303.782" width="15.673" height="15.673"/>
	</g>
</g>
<g>
	<g>
		<rect x="108.45" y="303.782" width="15.673" height="15.673"/>
	</g>
</g>
<g>
	<g>
		<rect y="418.722" width="15.673" height="15.673"/>
	</g>
</g>
<g>
	<g>
		<rect x="496.33" y="418.722" width="15.673" height="15.673"/>
	</g>
</g>
<g>
	<g>
		<rect x="247.69" y="418.722" width="15.673" height="15.673"/>
	</g>
</g>
<g>
	<g>
		<rect x="282.18" y="418.722" width="15.673" height="15.673"/>
	</g>
</g>
<g>
</g>
<g>
</g>
<g>
</g>
<g>
</g>
<g>
</g>
<g>
</g>
<g>
</g>
<g>
</g>
<g>
</g>
<g>
</g>
<g>
</g>
<g>
</g>
<g>
</g>
<g>
</g>
<g>
</g>
</svg>
