<?xml version="1.0" encoding="iso-8859-1"?>
<!-- Generator: Adobe Illustrator 19.0.0, SVG Export Plug-In . SVG Version: 6.00 Build 0)  -->
<svg xmlns="http://www.w3.org/2000/svg" xmlns:xlink="http://www.w3.org/1999/xlink" version="1.1" id="Layer_1" x="0px" y="0px" viewBox="0 0 512 512" style="enable-background:new 0 0 512 512;" xml:space="preserve">
<g>
	<g>
		<path d="M331.377,218.892c-4.429-10.367-10.421-19.057-17.97-26.066c-7.554-7.008-16.231-12.337-26.036-15.988    c-9.802-3.648-20.008-5.476-30.608-5.476c-10.892,0-21.349,1.828-31.373,5.476c-10.022,3.651-18.845,8.946-26.469,15.879    c-7.625,6.937-13.69,15.478-18.191,25.625c-4.505,10.151-6.755,21.721-6.755,34.716c0,12.265,2.071,23.473,6.21,33.621    c4.14,10.15,9.802,18.836,16.993,26.064c7.189,7.229,15.576,12.813,25.162,16.755s19.826,5.914,30.718,5.914    c6.391,0,12.779-0.732,19.171-2.19c6.391-1.461,12.637-3.652,18.737-6.57l-3.487-11.389c-5.521,2.482-10.821,4.49-15.903,6.023    c-5.086,1.533-11.111,2.3-18.083,2.3c-10.167,0-19.39-1.861-27.669-5.585c-8.279-3.723-15.358-8.76-21.24-15.112    c-5.884-6.352-10.425-13.799-13.618-22.34c-3.195-8.542-4.792-17.703-4.792-27.488c0-10.075,1.704-19.384,5.12-27.926    c3.411-8.542,8.203-15.913,14.378-22.122c6.172-6.205,13.508-11.06,22.003-14.565c8.497-3.505,17.899-5.257,28.213-5.257    c10.456,0,19.967,1.79,28.54,5.366c8.568,3.58,15.903,8.542,22.003,14.894c6.101,6.352,10.855,13.873,14.27,22.559    c3.409,8.688,5.12,18.145,5.12,28.364c0,3.067-0.218,6.865-0.654,11.389c-0.436,4.528-1.345,8.871-2.723,13.032    c-1.381,4.162-3.268,7.704-5.665,10.623c-2.395,2.923-5.556,4.38-9.476,4.38c-2.613,0-4.65-0.691-6.101-2.08    c-1.452-1.387-2.543-3.21-3.268-5.476c-0.727-2.262-1.197-4.89-1.415-7.885c-0.219-2.99-0.328-6.095-0.328-9.308v-21.026    c0-4.962-0.292-10.147-0.871-15.55c-0.581-5.4-2.143-10.329-4.684-14.784c-2.543-4.452-6.464-8.139-11.763-11.06    c-5.304-2.919-12.674-4.38-22.113-4.38c-13.944,0-26.435,3.652-37.471,10.952l5.663,15.55c3.487-2.918,7.698-5.257,12.637-7.009    c4.936-1.752,10.382-2.629,16.339-2.629c4.935,0,9.004,0.657,12.201,1.971c3.193,1.314,5.735,3.142,7.625,5.476    c1.886,2.337,3.193,5.184,3.923,8.542c0.723,3.36,1.088,7.009,1.088,10.952c-2.179-1.02-5.375-2.08-9.586-3.175    c-4.214-1.095-9.225-1.643-15.032-1.643c-4.939,0-9.841,0.548-14.706,1.643c-4.869,1.095-9.225,2.885-13.073,5.366    c-3.849,2.485-6.972,5.77-9.366,9.857c-2.397,4.09-3.597,9.127-3.597,15.112c0,9.055,2.833,16.427,8.497,22.122    c5.665,5.695,13.944,8.542,24.836,8.542c7.407,0,14.305-1.348,20.697-4.052c6.388-2.7,11.837-6.314,16.339-10.842    c0.289,2.047,0.796,4.127,1.526,6.242c0.725,2.118,1.852,4.052,3.377,5.804c1.523,1.752,3.556,3.175,6.099,4.27    c2.541,1.095,5.774,1.643,9.695,1.643c5.23,0,9.696-0.985,13.399-2.957c3.704-1.971,6.788-4.562,9.26-7.775    c2.468-3.21,4.429-6.79,5.882-10.732c1.45-3.942,2.539-7.81,3.268-11.608c0.725-3.795,1.197-7.409,1.416-10.842    c0.216-3.429,0.326-6.167,0.326-8.213C338.02,241.232,335.804,229.261,331.377,218.892z M275.935,277.369    c-1.743,2.775-4.575,5.114-8.496,7.009c-2.762,1.462-5.882,2.557-9.369,3.286c-3.485,0.732-6.682,1.095-9.586,1.095    c-5.521,0-9.841-1.458-12.963-4.38c-3.124-2.919-4.682-6.861-4.682-11.827c0-6.277,2.178-10.732,6.534-13.361    c4.358-2.628,9.948-3.942,16.776-3.942c5.517,0,10.457,0.586,14.815,1.752c4.356,1.171,7.549,2.118,9.586,2.848v8.32h0.001    C278.55,271.53,277.678,274.597,275.935,277.369z"/>
	</g>
</g>
<g>
	<g>
		<path d="M472.816,365.715V122.772c0-15.844-12.891-28.734-28.735-28.734H67.918c-15.845,0-28.735,12.89-28.735,28.734v242.943H0    v52.242h338.103v-15.673H15.673v-20.895h480.653v20.895h-71.497v15.673H512v-52.242H472.816z M54.857,365.715V122.772    c0-7.201,5.859-13.06,13.061-13.06h376.163c7.203,0,13.061,5.859,13.061,13.06v242.943H54.857z"/>
	</g>
</g>
<g>
	<g>
		<rect x="356.38" y="402.288" width="15.673" height="15.673"/>
	</g>
</g>
<g>
	<g>
		<rect x="390.87" y="402.288" width="15.673" height="15.673"/>
	</g>
</g>
<g>
	<g>
		<polygon points="70.531,125.386 70.531,318.632 86.204,318.632 86.204,141.058 425.796,141.058 425.796,352.642 441.469,352.642     441.469,125.386   "/>
	</g>
</g>
<g>
	<g>
		<rect x="70.53" y="337.188" width="15.673" height="15.458"/>
	</g>
</g>
<g>
</g>
<g>
</g>
<g>
</g>
<g>
</g>
<g>
</g>
<g>
</g>
<g>
</g>
<g>
</g>
<g>
</g>
<g>
</g>
<g>
</g>
<g>
</g>
<g>
</g>
<g>
</g>
<g>
</g>
</svg>
