<?xml version="1.0" encoding="iso-8859-1"?>
<!-- Generator: Adobe Illustrator 19.0.0, SVG Export Plug-In . SVG Version: 6.00 Build 0)  -->
<svg xmlns="http://www.w3.org/2000/svg" xmlns:xlink="http://www.w3.org/1999/xlink" version="1.1" id="Layer_1" x="0px" y="0px" viewBox="0 0 512 512" style="enable-background:new 0 0 512 512;" xml:space="preserve">
<g>
	<g>
		<path d="M456.147,95.012c-10.766-10.768-25.085-16.697-40.32-16.697H263.838V58.512c12.631-3.45,21.946-15.019,21.946-28.729    C285.783,13.361,272.423,0,256,0c-16.423,0-29.783,13.361-29.783,29.783c0,13.71,9.314,25.279,21.945,28.729v19.802H133.063    c-51.78,0-93.906,42.127-93.906,93.906V402h34.402v-15.675H54.833V172.22c0-43.137,35.094-78.231,78.231-78.231h12.288    c22.795,0,41.34,18.545,41.34,41.341c0,22.795-18.545,41.34-41.34,41.34v0.001h-41.34v-33.503h67.909v-15.675H88.336v100.15    h15.675v-35.295H407.99v231.745l-61.148,61.148v-50.063h46.376v-15.675h-62.052v76.824H104.011V321.412H88.336V512H342.25    l81.415-81.415V191.796c27.741-3.833,49.178-27.686,49.178-56.465C472.843,120.096,466.913,105.778,456.147,95.012z     M241.892,29.783c0-7.779,6.329-14.108,14.108-14.108s14.108,6.329,14.108,14.108S263.779,43.891,256,43.891    S241.892,37.562,241.892,29.783z M415.826,176.673H184.554c10.958-10.397,17.814-25.08,17.814-41.342    c0-16.262-6.854-30.943-17.812-41.341h231.272c11.048,0,21.431,4.298,29.237,12.106c7.805,7.805,12.105,18.188,12.105,29.236    C457.167,158.126,438.622,176.673,415.826,176.673z"/>
	</g>
</g>
<g>
	<g>
		<path d="M311.961,227.509v60.865h60.865v-60.865H311.961z M357.151,272.7h-29.515v-29.515h29.515V272.7z"/>
	</g>
</g>
<g>
	<g>
		<path d="M139.174,400.296v60.865h60.865v-60.865H139.174z M184.365,445.486L184.365,445.486H154.85v-29.515h29.515V445.486z"/>
	</g>
</g>
<g>
	<g>
		<path d="M225.568,227.509v60.865h60.865v-60.865H225.568z M270.758,272.7h-29.515v-29.515h29.515V272.7z"/>
	</g>
</g>
<g>
	<g>
		<path d="M225.568,400.296v60.865h60.865v-60.865H225.568z M270.758,445.486h-29.515v-29.515h29.515V445.486z"/>
	</g>
</g>
<g>
	<g>
		<path d="M225.568,313.903v60.865h60.865v-60.865H225.568z M270.758,359.093h-29.515v-29.515h29.515V359.093z"/>
	</g>
</g>
<g>
	<g>
		<path d="M139.174,313.903v60.865h60.865v-60.865H139.174z M184.365,359.093L184.365,359.093H154.85v-29.515h29.515V359.093z"/>
	</g>
</g>
<g>
	<g>
		<path d="M311.961,313.903v60.865h60.865v-60.865H311.961z M357.151,359.093h-29.515v-29.515h29.515V359.093z"/>
	</g>
</g>
<g>
	<g>
		<rect x="88.34" y="247.41" width="15.675" height="16.946"/>
	</g>
</g>
<g>
	<g>
		<rect x="88.34" y="284.7" width="15.675" height="16.946"/>
	</g>
</g>
<g>
</g>
<g>
</g>
<g>
</g>
<g>
</g>
<g>
</g>
<g>
</g>
<g>
</g>
<g>
</g>
<g>
</g>
<g>
</g>
<g>
</g>
<g>
</g>
<g>
</g>
<g>
</g>
<g>
</g>
</svg>
