<?xml version="1.0" encoding="iso-8859-1"?>
<!-- Generator: Adobe Illustrator 19.0.0, SVG Export Plug-In . SVG Version: 6.00 Build 0)  -->
<svg xmlns="http://www.w3.org/2000/svg" xmlns:xlink="http://www.w3.org/1999/xlink" version="1.1" id="Layer_1" x="0px" y="0px" viewBox="0 0 512 512" style="enable-background:new 0 0 512 512;" xml:space="preserve">
<g>
	<g>
		<path d="M246.271,315.213c-6.329-7.845-14.775-12.649-25.344-14.413c4.962-0.638,9.406-2.121,13.332-4.445    c3.923-2.32,7.244-5.203,9.969-8.648c2.721-3.442,4.805-7.364,6.246-11.771c1.441-4.403,2.161-9.008,2.161-13.814    c0-6.403-1.242-12.251-3.723-17.537c-2.485-5.285-5.968-9.808-10.45-13.573c-4.486-3.761-9.813-6.685-15.975-8.769    c-6.167-2.079-12.935-3.123-20.298-3.123c-5.765,0-11.373,0.683-16.816,2.042c-5.447,1.363-10.412,3.243-14.895,5.646    c-4.485,2.402-8.491,5.326-12.011,8.768c-3.524,3.446-6.245,7.248-8.167,11.411l10.57,10.09    c3.52-7.207,8.768-12.851,15.734-16.936c6.966-4.085,15.014-6.126,24.143-6.126c4.962,0,9.567,0.643,13.813,1.923    c4.242,1.284,7.928,3.164,11.051,5.646c3.123,2.486,5.563,5.566,7.328,9.248c1.761,3.685,2.641,7.928,2.641,12.732    c0,9.128-3.284,16.539-9.849,22.222c-6.568,5.686-16.017,8.527-28.346,8.527H190.9v13.934h6.005    c13.61,0,24.022,3.205,31.229,9.609c7.208,6.407,10.81,15.134,10.81,26.185c0,10.892-3.446,19.255-10.33,25.104    c-6.888,5.844-16.335,8.768-28.346,8.768c-10.412,0-19.061-2.083-25.945-6.246c-6.888-4.166-12.011-9.77-15.375-16.816    l-11.29,10.33c4.643,8.649,11.53,15.412,20.66,20.299c9.128,4.884,19.778,7.327,31.95,7.327c8.325,0,15.893-1.164,22.701-3.484    c6.804-2.324,12.648-5.608,17.535-9.849c4.884-4.245,8.649-9.369,11.291-15.374c2.643-6.006,3.963-12.612,3.963-19.819    C255.76,332.749,252.596,323.062,246.271,315.213z"/>
	</g>
</g>
<g>
	<g>
		<path d="M333.835,342.6V220.323h-16.817c-0.323,0.804-1.843,2.402-4.564,4.804c-2.725,2.402-6.047,4.965-9.969,7.687    c-3.926,2.725-8.089,5.127-12.492,7.207c-4.406,2.084-8.449,3.123-12.131,3.123v15.855c3.041,0,6.565-0.638,10.57-1.923    c4.001-1.28,7.887-2.883,11.652-4.804c3.761-1.922,7.207-4.001,10.329-6.245c3.123-2.24,5.323-4.324,6.607-6.245V342.6h-34.112    v14.894h81.436V342.6H333.835z"/>
	</g>
</g>
<g>
	<g>
		<rect x="427.06" y="100.279" width="15.667" height="15.673"/>
	</g>
</g>
<g>
	<g>
		<rect x="367.43" y="100.279" width="15.667" height="15.673"/>
	</g>
</g>
<g>
	<g>
		<rect x="307.8" y="100.279" width="15.667" height="15.673"/>
	</g>
</g>
<g>
	<g>
		<rect x="248.16" y="100.279" width="15.667" height="15.673"/>
	</g>
</g>
<g>
	<g>
		<rect x="188.53" y="100.279" width="15.667" height="15.673"/>
	</g>
</g>
<g>
	<g>
		<rect x="128.9" y="100.279" width="15.667" height="15.673"/>
	</g>
</g>
<g>
	<g>
		<rect x="69.27" y="100.279" width="15.667" height="15.673"/>
	</g>
</g>
<g>
	<g>
		<path d="M489.007,468.895l0.005-416.594h-76.094V27.428h-15.673v24.874h-43.959V27.428h-15.673v24.874h-43.96V27.428H277.98    v24.874h-43.959V27.428h-15.674v24.874h-43.96V27.428h-15.673v24.874h-43.959V27.428H99.081v24.874H22.988l0.005,416.594H0v15.673    h108.081v-15.673H38.666l-0.004-325.863h434.675l-0.003,221.125L368.598,468.895h-173.79v15.673H512v-15.673H489.007z     M473.334,468.895h-82.571l82.572-82.572L473.334,468.895z M38.662,127.358l-0.001-59.383h60.42v19.24h15.673v-19.24h43.959v19.24    h15.673v-19.24h43.96v19.24h15.673v-19.24h43.959v19.24h15.673v-19.24h43.96v19.24h15.674v-19.24h43.959v19.24h15.673v-19.24    h60.42l0.001,59.383H38.662z"/>
	</g>
</g>
<g>
	<g>
		<rect x="126.37" y="468.899" width="15.673" height="15.673"/>
	</g>
</g>
<g>
	<g>
		<rect x="160.85" y="468.899" width="15.673" height="15.673"/>
	</g>
</g>
<g>
</g>
<g>
</g>
<g>
</g>
<g>
</g>
<g>
</g>
<g>
</g>
<g>
</g>
<g>
</g>
<g>
</g>
<g>
</g>
<g>
</g>
<g>
</g>
<g>
</g>
<g>
</g>
<g>
</g>
</svg>
