<?xml version="1.0" encoding="iso-8859-1"?>
<!-- Generator: Adobe Illustrator 19.0.0, SVG Export Plug-In . SVG Version: 6.00 Build 0)  -->
<svg xmlns="http://www.w3.org/2000/svg" xmlns:xlink="http://www.w3.org/1999/xlink" version="1.1" id="Layer_1" x="0px" y="0px" viewBox="0 0 512 512" style="enable-background:new 0 0 512 512;" xml:space="preserve">
<g>
	<g>
		<circle cx="166.33" cy="351.46" r="11.783"/>
	</g>
</g>
<g>
	<g>
		<circle cx="207.34" cy="351.46" r="11.783"/>
	</g>
</g>
<g>
	<g>
		<circle cx="248.35" cy="351.46" r="11.783"/>
	</g>
</g>
<g>
	<g>
		<rect x="229.99" y="172.899" width="20.02" height="15.368"/>
	</g>
</g>
<g>
	<g>
		<rect x="273.37" y="172.899" width="105.97" height="15.368"/>
	</g>
</g>
<g>
	<g>
		<rect x="229.99" y="132.81" width="149.35" height="15.369"/>
	</g>
</g>
<g>
	<g>
		<polygon points="45.983,266.933 45.983,316.362 0,351.461 45.983,386.56 45.983,435.987 227.364,435.987 227.364,420.618     61.351,420.618 61.351,378.956 25.33,351.461 61.351,323.964 61.351,282.302 353.333,282.302 353.333,420.618 312.403,420.618     312.403,435.987 368.702,435.987 368.702,266.933   "/>
	</g>
</g>
<g>
	<g>
		<polygon points="466.017,125.44 466.017,76.012 143.297,76.012 143.297,134.669 158.666,134.669 158.666,91.38 450.649,91.38     450.649,133.044 486.67,160.539 450.649,188.034 450.649,229.697 158.666,229.697 158.666,186.409 143.297,186.409     143.297,245.065 466.017,245.065 466.017,195.638 512,160.539   "/>
	</g>
</g>
<g>
	<g>
		<rect x="245.29" y="420.62" width="15.369" height="15.369"/>
	</g>
</g>
<g>
	<g>
		<rect x="279.1" y="420.62" width="15.369" height="15.369"/>
	</g>
</g>
<g>
	<g>
		<rect x="143.3" y="153.109" width="15.369" height="15.369"/>
	</g>
</g>
<g>
</g>
<g>
</g>
<g>
</g>
<g>
</g>
<g>
</g>
<g>
</g>
<g>
</g>
<g>
</g>
<g>
</g>
<g>
</g>
<g>
</g>
<g>
</g>
<g>
</g>
<g>
</g>
<g>
</g>
</svg>
