<?xml version="1.0" encoding="iso-8859-1"?>
<!-- Generator: Adobe Illustrator 19.0.0, SVG Export Plug-In . SVG Version: 6.00 Build 0)  -->
<svg xmlns="http://www.w3.org/2000/svg" xmlns:xlink="http://www.w3.org/1999/xlink" version="1.1" id="Layer_1" x="0px" y="0px" viewBox="0 0 512 512" style="enable-background:new 0 0 512 512;" xml:space="preserve">
<g>
	<g>
		<polygon points="432.802,349.58 432.802,365.308 496.272,365.308 496.272,396.763 332.658,396.763 332.658,412.491 512,412.491     512,349.58   "/>
	</g>
</g>
<g>
	<g>
		<path d="M228.287,201.896c-19.583,0-35.516,15.932-35.516,35.515c0,19.583,15.932,35.515,35.516,35.515    c19.583,0,35.515-15.932,35.515-35.515C263.802,217.828,247.87,201.896,228.287,201.896z M228.287,257.199    c-10.911,0-19.789-8.877-19.789-19.788s8.877-19.788,19.789-19.788c10.911,0,19.788,8.877,19.788,19.788    C248.075,248.323,239.198,257.199,228.287,257.199z"/>
	</g>
</g>
<g>
	<g>
		<path d="M200.857,286.302c-19.583,0-35.515,15.932-35.515,35.515s15.932,35.515,35.515,35.515s35.515-15.932,35.515-35.515    S220.44,286.302,200.857,286.302z M200.857,341.605c-10.911,0-19.788-8.877-19.788-19.788c0-10.911,8.877-19.788,19.788-19.788    s19.788,8.877,19.788,19.788C220.645,332.728,211.768,341.605,200.857,341.605z"/>
	</g>
</g>
<g>
	<g>
		<path d="M112.098,286.302c-19.583,0-35.515,15.932-35.515,35.515s15.932,35.515,35.515,35.515s35.515-15.932,35.515-35.515    S131.681,286.302,112.098,286.302z M112.098,341.605c-10.911,0-19.788-8.877-19.788-19.788c0-10.911,8.877-19.788,19.788-19.788    s19.788,8.877,19.788,19.788C131.886,332.728,123.009,341.605,112.098,341.605z"/>
	</g>
</g>
<g>
	<g>
		<path d="M84.687,201.9c-19.583,0-35.515,15.932-35.515,35.515s15.932,35.515,35.515,35.515s35.515-15.931,35.515-35.515    C120.202,217.832,104.27,201.9,84.687,201.9z M84.687,257.203c-10.912,0-19.788-8.876-19.788-19.788    c0-10.911,8.877-19.788,19.788-19.788s19.788,8.877,19.788,19.788C104.474,248.326,95.597,257.203,84.687,257.203z"/>
	</g>
</g>
<g>
	<g>
		<path d="M156.485,149.734c-19.583,0-35.515,15.932-35.515,35.515c0,19.583,15.932,35.515,35.515,35.515    c19.583,0,35.515-15.932,35.515-35.515S176.068,149.734,156.485,149.734z M156.485,205.037c-10.911,0-19.788-8.877-19.788-19.788    c0-10.911,8.877-19.788,19.788-19.788c10.911,0,19.788,8.877,19.788,19.788C176.272,196.16,167.396,205.037,156.485,205.037z"/>
	</g>
</g>
<g>
	<g>
		<path d="M268.362,365.308h111.495V349.58h-98.01c19.548-26.119,31.136-58.521,31.136-93.58    c0-86.29-70.201-156.491-156.491-156.491S0,169.71,0,256s70.201,156.491,156.491,156.491h123.216v-15.728h-54.884    C241.115,388.823,255.825,378.133,268.362,365.308z M156.491,396.763c-77.617,0-140.763-63.147-140.763-140.763    c0-77.617,63.146-140.763,140.763-140.763S297.254,178.383,297.254,256S234.109,396.763,156.491,396.763z"/>
	</g>
</g>
<g>
	<g>
		<path d="M156.483,237.151c-13.009,0-23.592,10.583-23.592,23.592c0,13.009,10.583,23.592,23.592,23.592    c13.009,0,23.592-10.583,23.592-23.592C180.074,247.733,169.492,237.151,156.483,237.151z M156.483,268.606    c-4.337,0-7.864-3.527-7.864-7.864c0-4.337,3.527-7.864,7.864-7.864c4.337,0,7.864,3.527,7.864,7.864    C164.347,265.079,160.819,268.606,156.483,268.606z"/>
	</g>
</g>
<g>
	<g>
		<rect x="272.78" y="373.17" width="15.728" height="15.728"/>
	</g>
</g>
<g>
	<g>
		<rect x="322.45" y="373.17" width="15.728" height="15.728"/>
	</g>
</g>
<g>
	<g>
		<rect x="372.11" y="373.17" width="15.728" height="15.728"/>
	</g>
</g>
<g>
	<g>
		<rect x="421.78" y="373.17" width="15.728" height="15.728"/>
	</g>
</g>
<g>
	<g>
		<rect x="471.44" y="373.17" width="15.728" height="15.728"/>
	</g>
</g>
<g>
	<g>
		<rect x="398.21" y="349.57" width="15.728" height="15.728"/>
	</g>
</g>
<g>
	<g>
		<rect x="298.05" y="396.76" width="15.728" height="15.728"/>
	</g>
</g>
<g>
</g>
<g>
</g>
<g>
</g>
<g>
</g>
<g>
</g>
<g>
</g>
<g>
</g>
<g>
</g>
<g>
</g>
<g>
</g>
<g>
</g>
<g>
</g>
<g>
</g>
<g>
</g>
<g>
</g>
</svg>
