<?xml version="1.0" encoding="iso-8859-1"?>
<!-- Generator: Adobe Illustrator 19.0.0, SVG Export Plug-In . SVG Version: 6.00 Build 0)  -->
<svg xmlns="http://www.w3.org/2000/svg" xmlns:xlink="http://www.w3.org/1999/xlink" version="1.1" id="Layer_1" x="0px" y="0px" viewBox="0 0 512 512" style="enable-background:new 0 0 512 512;" xml:space="preserve">
<g>
	<g>
		<polygon points="404.897,482.32 404.897,496.327 107.101,496.327 107.101,67.918 156.72,67.918 156.72,52.245 91.428,52.245     91.428,512 420.57,512 420.57,482.32   "/>
	</g>
</g>
<g>
	<g>
		<polygon points="355.278,52.245 355.278,67.918 404.897,67.918 404.897,429.552 420.57,429.552 420.57,52.245   "/>
	</g>
</g>
<g>
	<g>
		<path d="M289.036,26.122C285.487,11.165,272.027,0,255.999,0s-29.488,11.165-33.037,26.122h-53.168V94.04h172.408V26.122H289.036z     M255.999,15.673c7.276,0,13.554,4.282,16.496,10.449h-32.993C242.445,19.955,248.723,15.673,255.999,15.673z M185.468,78.367    V41.796h141.061v36.571H185.468z"/>
	</g>
</g>
<g>
	<g>
		<rect x="404.899" y="448.37" width="15.673" height="15.673"/>
	</g>
</g>
<g>
	<g>
		<rect x="185.989" y="360.93" width="174.5" height="15.673"/>
	</g>
</g>
<g>
	<g>
		<rect x="151.509" y="360.93" width="15.673" height="15.673"/>
	</g>
</g>
<g>
	<g>
		<rect x="185.989" y="404.46" width="174.5" height="15.673"/>
	</g>
</g>
<g>
	<g>
		<rect x="151.509" y="404.46" width="15.673" height="15.673"/>
	</g>
</g>
<g>
	<g>
		<rect x="185.989" y="317.39" width="174.5" height="15.673"/>
	</g>
</g>
<g>
	<g>
		<rect x="151.509" y="317.39" width="15.673" height="15.673"/>
	</g>
</g>
<g>
	<g>
		<rect x="185.989" y="273.85" width="174.5" height="15.673"/>
	</g>
</g>
<g>
	<g>
		<rect x="151.509" y="273.85" width="15.673" height="15.673"/>
	</g>
</g>
<g>
	<g>
		<rect x="185.989" y="230.32" width="174.5" height="15.673"/>
	</g>
</g>
<g>
	<g>
		<rect x="151.509" y="230.32" width="15.673" height="15.673"/>
	</g>
</g>
<g>
	<g>
		<path d="M303.019,144.109v57.469h57.469v-57.469H303.019z M344.815,185.905h-26.122v-26.122h26.122V185.905z"/>
	</g>
</g>
<g>
</g>
<g>
</g>
<g>
</g>
<g>
</g>
<g>
</g>
<g>
</g>
<g>
</g>
<g>
</g>
<g>
</g>
<g>
</g>
<g>
</g>
<g>
</g>
<g>
</g>
<g>
</g>
<g>
</g>
</svg>
