<?xml version="1.0" encoding="iso-8859-1"?>
<!-- Generator: Adobe Illustrator 19.0.0, SVG Export Plug-In . SVG Version: 6.00 Build 0)  -->
<svg xmlns="http://www.w3.org/2000/svg" xmlns:xlink="http://www.w3.org/1999/xlink" version="1.1" id="Layer_1" x="0px" y="0px" viewBox="0 0 512 512" style="enable-background:new 0 0 512 512;" xml:space="preserve">
<g>
	<g>
		<polygon points="0,101.878 0,410.122 359.014,410.122 359.014,394.448 15.673,394.448 15.673,176.065 47.02,176.065     47.02,148.898 97.626,148.898 97.626,133.224 31.347,133.224 31.347,160.391 15.673,160.391 15.673,117.551 496.327,117.551     496.327,160.391 480.653,160.391 480.653,133.224 150.393,133.224 150.393,148.898 464.98,148.898 464.98,176.065     496.327,176.065 496.327,394.448 445.741,394.448 445.741,410.122 512,410.122 512,101.878   "/>
	</g>
</g>
<g>
	<g>
		<rect x="377.3" y="394.45" width="15.673" height="15.673"/>
	</g>
</g>
<g>
	<g>
		<rect x="411.78" y="394.45" width="15.673" height="15.673"/>
	</g>
</g>
<g>
	<g>
		<rect x="115.91" y="133.219" width="15.673" height="15.673"/>
	</g>
</g>
<g>
	<g>
		<path d="M450.808,199.773l-2.295-2.288H360.49v148.375h88.023l2.296-2.288c19.245-19.204,29.844-44.739,29.844-71.899    S470.054,218.977,450.808,199.773z M376.163,296.599c10.599-3.328,18.286-13.226,18.286-24.925    c0-11.701-7.686-21.598-18.286-24.927v-18.776c20.76,3.714,36.571,21.89,36.571,43.702s-15.811,39.988-36.571,43.702V296.599z     M441.95,330.188h-60.041c26.606-6.175,46.499-30.057,46.499-58.514c0-28.457-19.893-52.339-46.499-58.514h60.041    c14.876,15.956,23.03,36.609,23.03,58.514C464.98,293.578,456.826,314.232,441.95,330.188z"/>
	</g>
</g>
<g>
	<g>
		<path d="M313.469,198.531H198.531c-15.844,0-28.735,12.891-28.735,28.735v118.596h172.408V227.265    C342.204,211.422,329.313,198.531,313.469,198.531z M185.469,330.188V227.265c0-7.203,5.859-13.061,13.061-13.061h114.939    c7.203,0,13.061,5.859,13.061,13.061v102.923H185.469z"/>
	</g>
</g>
<g>
	<g>
		<rect x="198.53" y="264.359" width="114.94" height="15.673"/>
	</g>
</g>
<g>
	<g>
		<rect x="198.53" y="297.269" width="114.94" height="15.673"/>
	</g>
</g>
<g>
	<g>
		<path d="M63.487,197.485l-2.295,2.288c-19.246,19.204-29.845,44.739-29.845,71.899s10.599,52.695,29.845,71.899l2.295,2.288    h88.023V197.485H63.487z M70.05,330.188c-14.876-15.956-23.03-36.609-23.03-58.514c0-21.905,8.153-42.559,23.03-58.514h60.041    c-26.606,6.175-46.499,30.057-46.499,58.514c0,28.457,19.893,52.339,46.499,58.514H70.05z M135.837,246.747    c-10.599,3.328-18.286,13.226-18.286,24.926s7.686,21.597,18.286,24.925v18.776c-20.76-3.713-36.571-21.888-36.571-43.701    s15.811-39.988,36.571-43.702V246.747z"/>
	</g>
</g>
<g>
	<g>
		<rect x="298.01" y="231.44" width="15.458" height="15.673"/>
	</g>
</g>
<g>
	<g>
		<rect x="198.53" y="231.44" width="80.927" height="15.673"/>
	</g>
</g>
<g>
</g>
<g>
</g>
<g>
</g>
<g>
</g>
<g>
</g>
<g>
</g>
<g>
</g>
<g>
</g>
<g>
</g>
<g>
</g>
<g>
</g>
<g>
</g>
<g>
</g>
<g>
</g>
<g>
</g>
</svg>
