<?xml version="1.0" encoding="iso-8859-1"?>
<!-- Generator: Adobe Illustrator 19.0.0, SVG Export Plug-In . SVG Version: 6.00 Build 0)  -->
<svg xmlns="http://www.w3.org/2000/svg" xmlns:xlink="http://www.w3.org/1999/xlink" version="1.1" id="Layer_1" x="0px" y="0px" viewBox="0 0 512 512" style="enable-background:new 0 0 512 512;" xml:space="preserve">
<g>
	<g>
		<polygon points="119.523,0 119.523,354.606 135.21,354.606 135.21,15.687 376.783,15.687 376.783,66.315 392.47,66.315 392.47,0       "/>
	</g>
</g>
<g>
	<g>
		<polygon points="376.783,119.126 376.783,478.334 255.996,376.869 135.21,478.334 135.21,407.417 119.523,407.417 119.523,512     255.996,397.355 392.47,512 392.47,119.126   "/>
	</g>
</g>
<g>
	<g>
		<path d="M360.678,178.667l-72.327-10.524l-32.356-65.655l-32.356,65.655l-72.327,10.524l52.335,51.085l-12.357,72.149    l64.706-34.065l64.706,34.065l-12.359-72.149L360.678,178.667z M255.996,250.108l-43.879,23.099l8.381-48.927l-35.51-34.663    l49.073-7.141l21.934-44.505l21.934,44.505l49.073,7.141l-35.51,34.663l8.381,48.927L255.996,250.108z"/>
	</g>
</g>
<g>
	<g>
		<rect x="376.79" y="84.62" width="15.687" height="15.687"/>
	</g>
</g>
<g>
	<g>
		<rect x="119.53" y="372.9" width="15.687" height="15.687"/>
	</g>
</g>
<g>
</g>
<g>
</g>
<g>
</g>
<g>
</g>
<g>
</g>
<g>
</g>
<g>
</g>
<g>
</g>
<g>
</g>
<g>
</g>
<g>
</g>
<g>
</g>
<g>
</g>
<g>
</g>
<g>
</g>
</svg>
