<?xml version="1.0" encoding="iso-8859-1"?>
<!-- Generator: Adobe Illustrator 19.0.0, SVG Export Plug-In . SVG Version: 6.00 Build 0)  -->
<svg xmlns="http://www.w3.org/2000/svg" xmlns:xlink="http://www.w3.org/1999/xlink" version="1.1" id="Layer_1" x="0px" y="0px" viewBox="0 0 512.002 512.002" style="enable-background:new 0 0 512.002 512.002;" xml:space="preserve">
<g>
	<g>
		<path d="M449.306,197.502h-36.571v-20.874h-91.743l44.519-44.475h16.471c3.419,12.035,14.5,20.878,27.617,20.878h73.692    c15.83,0,28.711-12.879,28.711-28.712c0-15.83-12.879-28.711-28.711-28.711h-73.692c-13.112,0-24.193,8.839-27.614,20.87h-22.961    l-49.128,49.081v-30.678H176.081v15.673h118.14v41.748h102.84v140.88h-20.898v-73.093H360.49v73.093H57.469V150.554h31.885    v-15.673H41.796v213.975h73.143v7.516c0,15.83,12.891,28.711,28.735,28.711h30.302v31.311h110.759v-31.311h26.122    c15.844,0,28.735-12.879,28.735-28.711v-7.516h73.143v-20.874h36.571v-15.868L512,336.888V188.597l-62.694,24.775V197.502z     M409.597,111.284h73.693c7.189,0,13.037,5.848,13.037,13.037c0,7.189-5.848,13.038-13.037,13.038h-73.693    c-7.189,0-13.038-5.849-13.038-13.038C396.56,117.132,402.408,111.284,409.597,111.284z M269.061,400.72h-79.412v-15.638h79.412    V400.72z M323.918,356.373c0,7.189-5.859,13.037-13.061,13.037H143.673c-7.202,0-13.061-5.848-13.061-13.037v-7.516h193.306    V356.373z M433.633,312.309h-20.898v-99.134h20.898V312.309z M449.307,230.224l47.02-18.58v102.197l-47.02-18.58V230.224z"/>
	</g>
</g>
<g>
	<g>
		<polygon points="28.721,176.646 28.721,160.973 0,160.973 0,322.765 28.721,322.765 28.721,307.091 15.673,307.091     15.673,176.646   "/>
	</g>
</g>
<g>
	<g>
		<path d="M88.055,181.847V301.89h172.408V181.847H88.055z M244.789,286.216H103.728V197.52h141.061V286.216z"/>
	</g>
</g>
<g>
	<g>
		<rect x="107.64" y="134.881" width="15.673" height="15.673"/>
	</g>
</g>
<g>
	<g>
		<rect x="142.12" y="134.881" width="15.673" height="15.673"/>
	</g>
</g>
<g>
	<g>
		<rect x="360.49" y="226.071" width="15.673" height="15.459"/>
	</g>
</g>
<g>
</g>
<g>
</g>
<g>
</g>
<g>
</g>
<g>
</g>
<g>
</g>
<g>
</g>
<g>
</g>
<g>
</g>
<g>
</g>
<g>
</g>
<g>
</g>
<g>
</g>
<g>
</g>
<g>
</g>
</svg>
