<?xml version="1.0" encoding="iso-8859-1"?>
<!-- Generator: Adobe Illustrator 19.0.0, SVG Export Plug-In . SVG Version: 6.00 Build 0)  -->
<svg xmlns="http://www.w3.org/2000/svg" xmlns:xlink="http://www.w3.org/1999/xlink" version="1.1" id="Layer_1" x="0px" y="0px" viewBox="0 0 512 512" style="enable-background:new 0 0 512 512;" xml:space="preserve">
<g>
	<g>
		<rect x="361.801" y="282.35" width="15.673" height="15.459"/>
	</g>
</g>
<g>
	<g>
		<path d="M71.838,206.483h198.537V190.81H71.838c-15.845,0-28.735,12.891-28.735,28.735V365.83    c0,15.844,12.89,28.735,28.735,28.735h164.578v-15.673H71.838c-7.202,0-13.061-5.859-13.061-13.061V219.545    C58.777,212.342,64.635,206.483,71.838,206.483z"/>
	</g>
</g>
<g>
	<g>
		<path d="M440.166,483.265c0,7.202-5.859,13.061-13.061,13.061H312.164c-7.203,0-13.061-5.859-13.061-13.061V352.769h-20.892    V232.606h20.892v-63.564c7.581,7.662,16.398,14.097,26.122,18.983v122.749c0,24.45,19.921,44.341,44.408,44.341    s44.408-19.891,44.408-44.341V188.025c9.725-4.886,18.542-11.321,26.122-18.983v29.216h15.673V148.44    c8.307-14.506,13.061-31.296,13.061-49.176C468.899,44.53,424.369,0,369.634,0c-54.735,0-99.265,44.53-99.265,99.265    c0,17.88,4.754,34.67,13.061,49.176v68.492h-20.892v151.51h20.892v114.822c0,15.844,12.89,28.735,28.735,28.735h114.939    c15.845,0,28.735-12.891,28.735-28.735V284.984h-15.673V483.265z M369.633,339.442c-15.845,0-28.735-12.861-28.735-28.668v-116.49    c6.697,2.029,13.69,3.372,20.898,3.938V263.8h15.673v-65.578c7.208-0.566,14.201-1.909,20.898-3.938v116.49h0.001    C398.368,326.581,385.478,339.442,369.633,339.442z M369.634,15.673c46.093,0,83.592,37.499,83.592,83.592    c0,46.093-37.5,83.592-83.592,83.592c-46.093,0-83.592-37.499-83.592-83.592C286.042,53.172,323.541,15.673,369.634,15.673z"/>
	</g>
</g>
<g>
	<g>
		<path d="M369.634,44.408c-30.249,0-54.857,24.609-54.857,54.857c0,30.248,24.608,54.857,54.857,54.857    c30.249,0,54.857-24.609,54.857-54.857C424.491,69.017,399.882,44.408,369.634,44.408z M369.634,138.449    c-21.606,0-39.184-17.577-39.184-39.184s17.577-39.184,39.184-39.184c21.606,0,39.184,17.577,39.184,39.184    S391.24,138.449,369.634,138.449z"/>
	</g>
</g>
<g>
	<g>
		<path d="M96.044,222.157c-12.964,0-23.51,10.547-23.51,23.51v94.041c0,12.963,10.546,23.51,23.51,23.51    c12.964,0,23.51-10.547,23.51-23.51v-94.041C119.554,232.704,109.008,222.157,96.044,222.157z M103.881,339.708    c0,4.322-3.515,7.837-7.837,7.837c-4.322,0-7.837-3.515-7.837-7.837v-94.041c0-4.322,3.515-7.837,7.837-7.837    c4.322,0,7.837,3.516,7.837,7.837V339.708z"/>
	</g>
</g>
<g>
	<g>
		<rect x="254.701" y="378.89" width="15.673" height="15.673"/>
	</g>
</g>
<g>
	<g>
		<rect x="440.161" y="216.54" width="15.673" height="15.673"/>
	</g>
</g>
<g>
	<g>
		<rect x="440.161" y="251.03" width="15.673" height="15.673"/>
	</g>
</g>
<g>
</g>
<g>
</g>
<g>
</g>
<g>
</g>
<g>
</g>
<g>
</g>
<g>
</g>
<g>
</g>
<g>
</g>
<g>
</g>
<g>
</g>
<g>
</g>
<g>
</g>
<g>
</g>
<g>
</g>
</svg>
