<?xml version="1.0" encoding="iso-8859-1"?>
<!-- Generator: Adobe Illustrator 19.0.0, SVG Export Plug-In . SVG Version: 6.00 Build 0)  -->
<svg xmlns="http://www.w3.org/2000/svg" xmlns:xlink="http://www.w3.org/1999/xlink" version="1.1" id="Layer_1" x="0px" y="0px" viewBox="0 0 512 512" style="enable-background:new 0 0 512 512;" xml:space="preserve">
<g>
	<g>
		<circle cx="127.08" cy="376.16" r="10.449"/>
	</g>
</g>
<g>
	<g>
		<circle cx="158.45" cy="376.159" r="6.792"/>
	</g>
</g>
<g>
	<g>
		<circle cx="384.92" cy="376.16" r="10.449"/>
	</g>
</g>
<g>
	<g>
		<circle cx="353.55" cy="376.159" r="6.792"/>
	</g>
</g>
<g>
	<g>
		<path d="M0,101.877v308.245h512V101.877H0z M84.72,394.448l14.638-36.571h313.283l14.638,36.571H84.72z M496.327,394.448h-52.164    l-20.912-52.245H88.749l-20.91,52.245H15.673V169.796h343.341v-15.673H15.673v-36.571h480.653v36.57h-50.585v15.673h50.586    V394.448z"/>
	</g>
</g>
<g>
	<g>
		<path d="M365.714,190.693H146.286c-36.009,0-65.306,29.296-65.306,65.306s29.297,65.306,65.306,65.306    c36.009,0,65.306-29.296,65.306-65.306c0-19.849-8.913-37.646-22.932-49.633h134.682c-14.02,11.987-22.933,29.784-22.933,49.633    s8.913,37.646,22.932,49.633h-80.313v15.674h122.687c36.01,0,65.306-29.296,65.306-65.306S401.725,190.693,365.714,190.693z     M195.918,256c0,27.367-22.266,49.633-49.633,49.633c-27.367,0-49.633-22.266-49.633-49.633s22.266-49.633,49.633-49.633    C173.653,206.367,195.918,228.633,195.918,256z M365.714,305.633c-27.367,0-49.633-22.266-49.633-49.633    s22.266-49.633,49.633-49.633s49.633,22.266,49.633,49.633S393.081,305.633,365.714,305.633z"/>
	</g>
</g>
<g>
	<g>
		<path d="M146.286,219.429c-20.165,0-36.571,16.406-36.571,36.571c0,20.166,16.406,36.571,36.571,36.571    c20.166,0,36.571-16.406,36.571-36.571S166.451,219.429,146.286,219.429z M146.286,276.898c-11.523,0-20.898-9.375-20.898-20.898    s9.375-20.898,20.898-20.898s20.898,9.375,20.898,20.898S157.809,276.898,146.286,276.898z"/>
	</g>
</g>
<g>
	<g>
		<path d="M365.714,219.429c-20.166,0-36.571,16.406-36.571,36.571c0,20.166,16.406,36.571,36.571,36.571    c20.165,0,36.571-16.406,36.571-36.571C402.286,235.835,385.88,219.429,365.714,219.429z M365.714,276.898    c-11.523,0-20.898-9.375-20.898-20.898s9.375-20.898,20.898-20.898s20.898,9.375,20.898,20.898S377.237,276.898,365.714,276.898z"/>
	</g>
</g>
<g>
	<g>
		<rect x="377.3" y="154.12" width="15.673" height="15.673"/>
	</g>
</g>
<g>
	<g>
		<rect x="411.78" y="154.12" width="15.673" height="15.673"/>
	</g>
</g>
<g>
	<g>
		<rect x="209.02" y="305.63" width="15.458" height="15.674"/>
	</g>
</g>
<g>
</g>
<g>
</g>
<g>
</g>
<g>
</g>
<g>
</g>
<g>
</g>
<g>
</g>
<g>
</g>
<g>
</g>
<g>
</g>
<g>
</g>
<g>
</g>
<g>
</g>
<g>
</g>
<g>
</g>
</svg>
