<?xml version="1.0" encoding="iso-8859-1"?>
<!-- Generator: Adobe Illustrator 19.0.0, SVG Export Plug-In . SVG Version: 6.00 Build 0)  -->
<svg xmlns="http://www.w3.org/2000/svg" xmlns:xlink="http://www.w3.org/1999/xlink" version="1.1" id="Layer_1" x="0px" y="0px" viewBox="0 0 512 512" style="enable-background:new 0 0 512 512;" xml:space="preserve">
<g>
	<g>
		<circle cx="324.59" cy="353.68" r="10.449"/>
	</g>
</g>
<g>
	<g>
		<path d="M324.584,319.719c-14.099,0-26.215,8.638-31.344,20.898h-36.576v5.224H147.03c-7.203,0-13.061-5.859-13.061-13.061    v-21.918c0-15.844-12.891-28.735-28.735-28.735H91.429c-7.203,0-13.061-5.859-13.061-13.061v-31.333H62.694v31.333    c0,15.844,12.891,28.735,28.735,28.735h13.805c7.203,0,13.061,5.859,13.061,13.061v21.918c0,15.844,12.891,28.735,28.735,28.735    h109.636v5.224h36.575c5.128,12.261,17.244,20.898,31.344,20.898c18.726,0,33.959-15.234,33.959-33.959    S343.31,319.719,324.584,319.719z M324.584,371.964c-10.082,0-18.286-8.203-18.286-18.286s8.203-18.286,18.286-18.286    c10.082,0,18.286,8.203,18.286,18.286S334.666,371.964,324.584,371.964z"/>
	</g>
</g>
<g>
	<g>
		<circle cx="408.23" cy="426.83" r="10.449"/>
	</g>
</g>
<g>
	<g>
		<path d="M441.469,83.602H242.072c-18.782-19.931-45.405-32.396-74.888-32.396c-29.483,0-56.106,12.465-74.888,32.396H70.531    c-18.845,0-36.558,7.335-49.878,20.657C7.334,117.589,0,135.301,0,154.133c0,38.891,31.64,70.531,70.531,70.531h21.774    c18.781,19.926,45.401,32.388,74.879,32.388c29.479,0,56.099-12.461,74.88-32.388h61.531V208.99h-49.368    c10.052-15.891,15.879-34.707,15.879-54.861c0-20.151-5.825-38.964-15.874-54.853H441.47c30.248,0,54.857,24.609,54.857,54.857    c0,14.652-5.705,28.424-16.064,38.784c-10.364,10.365-24.141,16.074-38.793,16.074h-51.148v15.673h51.148    c18.839,0,36.552-7.338,49.875-20.664C504.664,190.68,512,172.971,512,154.133C512,115.242,480.36,83.602,441.469,83.602z     M70.531,208.99c-30.248,0-54.857-24.609-54.857-54.857c0-14.648,5.706-28.425,16.064-38.794    c10.358-10.358,24.135-16.063,38.793-16.063h9.605c-10.049,15.889-15.874,34.702-15.874,54.853    c0,20.154,5.827,38.969,15.879,54.861H70.531z M254.433,154.129c0,48.109-39.14,87.249-87.249,87.249s-87.249-39.14-87.249-87.249    c0-48.109,39.14-87.249,87.249-87.249S254.433,106.021,254.433,154.129z"/>
	</g>
</g>
<g>
	<g>
		<rect x="321.89" y="208.99" width="15.674" height="15.673"/>
	</g>
</g>
<g>
	<g>
		<rect x="356.37" y="208.99" width="15.673" height="15.673"/>
	</g>
</g>
<g>
	<g>
		<path d="M434.28,114.946h-94.245c-21.55,0-39.081,17.531-39.081,39.081v0.204c0,21.55,17.531,39.081,39.081,39.081h94.245    c21.55,0,39.081-17.532,39.081-39.081v-0.204C473.362,132.477,455.831,114.946,434.28,114.946z M457.687,154.232    c0,12.908-10.501,23.408-23.408,23.408h-94.245c-12.907,0-23.408-10.501-23.408-23.408v-0.204    c0-12.908,10.501-23.408,23.408-23.408h94.245c12.908,0,23.408,10.501,23.408,23.408V154.232z"/>
	</g>
</g>
<g>
	<g>
		<path d="M145.768,113.867v80.523l64.419-40.26L145.768,113.867z M161.442,142.146l19.173,11.984l-19.173,11.983V142.146z"/>
	</g>
</g>
<g>
	<g>
		<path d="M167.184,86.211c-37.45,0-67.918,30.468-67.918,67.918c0,37.45,30.468,67.918,67.918,67.918s67.918-30.468,67.918-67.918    S204.634,86.211,167.184,86.211z M167.184,206.374c-28.808,0-52.245-23.437-52.245-52.245c0-28.808,23.437-52.245,52.245-52.245    s52.245,23.437,52.245,52.245C219.429,182.938,195.992,206.374,167.184,206.374z"/>
	</g>
</g>
<g>
	<g>
		<path d="M408.227,392.875c-14.099,0-26.215,8.638-31.343,20.898H340.31v5.224H230.675c-7.202,0-13.061-5.859-13.061-13.061    v-32.372H201.94v32.372c0,15.844,12.891,28.735,28.735,28.735H340.31v5.224h36.575c5.128,12.261,17.244,20.898,31.344,20.898    c18.726,0,33.959-15.234,33.959-33.959S426.953,392.875,408.227,392.875z M408.227,445.12c-10.082,0-18.286-8.203-18.286-18.286    s8.203-18.286,18.286-18.286s18.286,8.203,18.286,18.286C426.513,436.918,418.31,445.12,408.227,445.12z"/>
	</g>
</g>
<g>
</g>
<g>
</g>
<g>
</g>
<g>
</g>
<g>
</g>
<g>
</g>
<g>
</g>
<g>
</g>
<g>
</g>
<g>
</g>
<g>
</g>
<g>
</g>
<g>
</g>
<g>
</g>
<g>
</g>
</svg>
