<?xml version="1.0" encoding="iso-8859-1"?>
<!-- Generator: Adobe Illustrator 19.0.0, SVG Export Plug-In . SVG Version: 6.00 Build 0)  -->
<svg xmlns="http://www.w3.org/2000/svg" xmlns:xlink="http://www.w3.org/1999/xlink" version="1.1" id="Layer_1" x="0px" y="0px" viewBox="0 0 512 512" style="enable-background:new 0 0 512 512;" xml:space="preserve">
<g>
	<g>
		<circle cx="461.97" cy="188.08" r="10.449"/>
	</g>
</g>
<g>
	<g>
		<circle cx="50.02" cy="188.08" r="10.449"/>
	</g>
</g>
<g>
	<g>
		<path d="M169.404,276.898c-14.404,0-26.122,11.719-26.122,26.122c0,14.404,11.719,26.122,26.122,26.122    c14.404,0,26.122-11.719,26.122-26.122C195.527,288.617,183.808,276.898,169.404,276.898z M169.404,313.469    c-5.762,0-10.449-4.687-10.449-10.449c0-5.762,4.687-10.449,10.449-10.449c5.762,0,10.449,4.687,10.449,10.449    C179.853,308.782,175.166,313.469,169.404,313.469z"/>
	</g>
</g>
<g>
	<g>
		<path d="M346.514,276.898c-14.404,0-26.122,11.719-26.122,26.122c0,14.404,11.719,26.122,26.122,26.122    s26.122-11.719,26.122-26.122C372.637,288.617,360.918,276.898,346.514,276.898z M346.514,313.469    c-5.762,0-10.449-4.687-10.449-10.449c0-5.762,4.687-10.449,10.449-10.449c5.762,0,10.449,4.687,10.449,10.449    C356.963,308.782,352.276,313.469,346.514,313.469z"/>
	</g>
</g>
<g>
	<g>
		<polygon points="111.673,0 111.673,114.344 127.347,114.344 127.347,15.673 388.572,15.673 388.572,496.327 127.347,496.327     127.347,167.112 111.673,167.112 111.673,512 404.245,512 404.245,0   "/>
	</g>
</g>
<g>
	<g>
		<path d="M143.02,31.347v229.878h229.878V31.347H143.02z M357.225,245.551h-0.001h-198.53V47.02h198.531V245.551z"/>
	</g>
</g>
<g>
	<g>
		<path d="M235.498,346.74v80.524l64.419-40.261L235.498,346.74z M251.171,375.02l19.173,11.983l-19.173,11.983V375.02z"/>
	</g>
</g>
<g>
	<g>
		<path d="M257.96,302.366c-46.669,0-84.637,37.967-84.637,84.637c0,46.668,37.967,84.637,84.637,84.637    c46.668,0,84.637-37.967,84.637-84.637C342.596,340.334,304.627,302.366,257.96,302.366z M257.96,455.966    c-38.027,0-68.963-30.936-68.963-68.963c0-38.027,30.936-68.963,68.963-68.963c38.027,0,68.963,30.936,68.963,68.963    C326.922,425.03,295.986,455.966,257.96,455.966z"/>
	</g>
</g>
<g>
	<g>
		<path d="M461.976,154.122c-18.726,0-33.959,15.235-33.959,33.959c0,14.099,8.638,26.215,20.898,31.344V256h5.224v256h15.673V256    h5.224v-36.575c12.26-5.128,20.898-17.245,20.898-31.344C495.935,169.357,480.701,154.122,461.976,154.122z M461.976,206.367    c-10.082,0-18.286-8.203-18.286-18.286c0-10.082,8.203-18.286,18.286-18.286s18.286,8.203,18.286,18.286    C480.261,198.164,472.059,206.367,461.976,206.367z"/>
	</g>
</g>
<g>
	<g>
		<path d="M50.024,154.122c-18.725,0-33.959,15.235-33.959,33.959c0,14.099,8.638,26.215,20.898,31.344V256h5.224v256h15.674V256    h5.224v-36.575c12.26-5.128,20.898-17.245,20.898-31.344C83.984,169.357,68.749,154.122,50.024,154.122z M50.024,206.367    c-10.082,0-18.286-8.203-18.286-18.286c0-10.082,8.203-18.286,18.286-18.286c10.082,0,18.286,8.203,18.286,18.286    S60.107,206.367,50.024,206.367z"/>
	</g>
</g>
<g>
	<g>
		<rect x="111.67" y="132.63" width="15.673" height="15.673"/>
	</g>
</g>
<g>
	<g>
		<rect x="219.3" y="181.81" width="111.79" height="15.673"/>
	</g>
</g>
<g>
	<g>
		<rect x="184.81" y="181.81" width="15.673" height="15.673"/>
	</g>
</g>
<g>
	<g>
		<rect x="219.3" y="138.45" width="111.79" height="15.673"/>
	</g>
</g>
<g>
	<g>
		<rect x="184.81" y="138.45" width="15.673" height="15.673"/>
	</g>
</g>
<g>
	<g>
		<rect x="219.3" y="95.09" width="111.79" height="15.673"/>
	</g>
</g>
<g>
	<g>
		<rect x="184.81" y="95.09" width="15.673" height="15.673"/>
	</g>
</g>
<g>
</g>
<g>
</g>
<g>
</g>
<g>
</g>
<g>
</g>
<g>
</g>
<g>
</g>
<g>
</g>
<g>
</g>
<g>
</g>
<g>
</g>
<g>
</g>
<g>
</g>
<g>
</g>
<g>
</g>
</svg>
