<?xml version="1.0" encoding="iso-8859-1"?>
<!-- Generator: Adobe Illustrator 19.0.0, SVG Export Plug-In . SVG Version: 6.00 Build 0)  -->
<svg xmlns="http://www.w3.org/2000/svg" xmlns:xlink="http://www.w3.org/1999/xlink" version="1.1" id="Layer_1" x="0px" y="0px" viewBox="0 0 512 512" style="enable-background:new 0 0 512 512;" xml:space="preserve">
<g>
	<g>
		<path d="M401.694,202.172h-65.437v15.382h55.933l20.593,41.162h-39.359c-19.508,0-35.379,15.871-35.379,35.379v39.68    c0,11.026-8.97,19.997-19.997,19.997h-57.541v15.382h57.541c19.508,0,35.379-15.871,35.379-35.379v-39.68    c0-11.026,8.971-19.997,19.997-19.997h47.054l66.627,133.17H24.896l94.914-189.714h55.934v-15.382h-65.437L0,422.651h512    L401.694,202.172z"/>
	</g>
</g>
<g>
	<g>
		<path d="M256,89.349c-43.822,0-79.475,35.653-79.475,79.475c0,17.815,12.425,48.266,36.931,90.51    c17.891,30.841,36.034,57.167,36.216,57.429l6.328,9.162l6.328-9.162c0.182-0.263,18.325-26.588,36.216-57.429    c24.505-42.243,36.931-72.695,36.931-90.51C335.475,125.002,299.822,89.349,256,89.349z M256,298.664    c-22.422-33.746-64.092-102.175-64.092-129.839c0-35.341,28.751-64.093,64.093-64.093c35.34,0,64.093,28.751,64.093,64.093    C320.093,196.476,278.422,264.913,256,298.664z"/>
	</g>
</g>
<g>
	<g>
		<path d="M256,125.241c-24.032,0-43.583,19.551-43.583,43.583c0,24.032,19.551,43.583,43.583,43.583    c24.032,0,43.583-19.551,43.583-43.583C299.583,144.792,280.033,125.241,256,125.241z M256,197.025    c-15.55,0-28.201-12.651-28.201-28.201s12.65-28.201,28.201-28.201c15.55,0,28.201,12.651,28.201,28.201    S271.551,197.025,256,197.025z"/>
	</g>
</g>
<g>
	<g>
		<path d="M199.086,353.773c-11.027,0-19.997-8.972-19.997-19.997c0-19.508-15.871-35.379-35.379-35.379H87.441v15.382h56.269    c11.026,0,19.997,8.971,19.997,19.997c0,19.508,15.871,35.379,35.379,35.379h10.768v-15.382H199.086z"/>
	</g>
</g>
<g>
	<g>
		<rect x="227.13" y="353.77" width="15.171" height="15.382"/>
	</g>
</g>
<g>
</g>
<g>
</g>
<g>
</g>
<g>
</g>
<g>
</g>
<g>
</g>
<g>
</g>
<g>
</g>
<g>
</g>
<g>
</g>
<g>
</g>
<g>
</g>
<g>
</g>
<g>
</g>
<g>
</g>
</svg>
