<?xml version="1.0" encoding="iso-8859-1"?>
<!-- Generator: Adobe Illustrator 19.0.0, SVG Export Plug-In . SVG Version: 6.00 Build 0)  -->
<svg xmlns="http://www.w3.org/2000/svg" xmlns:xlink="http://www.w3.org/1999/xlink" version="1.1" id="Layer_1" x="0px" y="0px" viewBox="0 0 512 512" style="enable-background:new 0 0 512 512;" xml:space="preserve">
<g>
	<g>
		<circle cx="57.45" cy="269.06" r="10.449"/>
	</g>
</g>
<g>
	<g>
		<circle cx="91.41" cy="269.06" r="10.449"/>
	</g>
</g>
<g>
	<g>
		<circle cx="125.37" cy="269.06" r="10.449"/>
	</g>
</g>
<g>
	<g>
		<circle cx="159.33" cy="269.06" r="10.449"/>
	</g>
</g>
<g>
	<g>
		<circle cx="57.45" cy="303.02" r="10.449"/>
	</g>
</g>
<g>
	<g>
		<circle cx="57.45" cy="336.98" r="10.449"/>
	</g>
</g>
<g>
	<g>
		<circle cx="57.45" cy="370.94" r="10.449"/>
	</g>
</g>
<g>
	<g>
		<circle cx="91.41" cy="303.02" r="10.449"/>
	</g>
</g>
<g>
	<g>
		<circle cx="91.41" cy="336.98" r="10.449"/>
	</g>
</g>
<g>
	<g>
		<circle cx="91.41" cy="370.94" r="10.449"/>
	</g>
</g>
<g>
	<g>
		<circle cx="125.37" cy="303.02" r="10.449"/>
	</g>
</g>
<g>
	<g>
		<circle cx="125.37" cy="336.98" r="10.449"/>
	</g>
</g>
<g>
	<g>
		<circle cx="125.37" cy="370.94" r="10.449"/>
	</g>
</g>
<g>
	<g>
		<circle cx="159.33" cy="303.02" r="10.449"/>
	</g>
</g>
<g>
	<g>
		<circle cx="159.33" cy="336.98" r="10.449"/>
	</g>
</g>
<g>
	<g>
		<circle cx="159.33" cy="370.94" r="10.449"/>
	</g>
</g>
<g>
	<g>
		<path d="M198.879,117.551V86.204h-47.02v31.347h-5.224V86.204h-47.02v31.347h-5.224V86.204h-47.02v31.347H0v308.245h359.014    v-15.673H15.673V133.225h480.653v20.898H76.278v15.673h174.498v128c0,15.844,12.89,28.735,28.735,28.735h167.184    c15.845,0,28.735-12.891,28.735-28.735v-128h20.898v240.327h-50.586v15.673H512V117.551H198.879z M78.715,117.551H63.042v-15.673    h15.673V117.551z M130.961,117.551h-15.673v-15.673h15.673V117.551z M183.205,117.551h-15.673v-15.673h15.673V117.551z     M459.755,297.796c0,7.203-5.859,13.061-13.061,13.061H279.51c-7.202,0-13.061-5.859-13.061-13.061v-128h193.306V297.796z"/>
	</g>
</g>
<g>
	<g>
		<rect x="377.3" y="410.12" width="15.673" height="15.673"/>
	</g>
</g>
<g>
	<g>
		<rect x="411.78" y="410.12" width="15.673" height="15.673"/>
	</g>
</g>
<g>
	<g>
		<path d="M402.286,180.245h-78.367c-25.927,0-47.02,21.092-47.02,47.02c0,25.928,21.093,47.02,47.02,47.02h78.367    c25.927,0,47.02-21.092,47.02-47.02C449.306,201.337,428.213,180.245,402.286,180.245z M402.286,258.612h-78.367    c-17.285,0-31.347-14.062-31.347-31.347c0-17.285,14.062-31.347,31.347-31.347h78.367c17.285,0,31.347,14.062,31.347,31.347    C433.633,244.55,419.57,258.612,402.286,258.612z"/>
	</g>
</g>
<g>
	<g>
		<path d="M397.058,201.143c-14.404,0-26.122,11.719-26.122,26.122c0,3.715,0.784,7.247,2.188,10.449h-20.042    c1.403-3.202,2.188-6.734,2.188-10.449c0-14.404-11.719-26.122-26.122-26.122s-26.122,11.719-26.122,26.122    c0,14.403,11.717,26.122,26.121,26.122h67.912c14.404,0,26.122-11.719,26.122-26.122    C423.181,212.862,411.462,201.143,397.058,201.143z M329.146,237.714c-5.762,0-10.449-4.687-10.449-10.449    c0-5.762,4.687-10.449,10.449-10.449c5.762,0,10.449,4.687,10.449,10.449C339.595,233.027,334.908,237.714,329.146,237.714z     M397.058,237.714c-5.762,0-10.449-4.687-10.449-10.449c0-5.762,4.687-10.449,10.449-10.449c5.762,0,10.449,4.687,10.449,10.449    C407.507,233.027,402.82,237.714,397.058,237.714z"/>
	</g>
</g>
<g>
	<g>
		<rect x="41.796" y="154.12" width="15.673" height="15.673"/>
	</g>
</g>
<g>
</g>
<g>
</g>
<g>
</g>
<g>
</g>
<g>
</g>
<g>
</g>
<g>
</g>
<g>
</g>
<g>
</g>
<g>
</g>
<g>
</g>
<g>
</g>
<g>
</g>
<g>
</g>
<g>
</g>
</svg>
