<?xml version="1.0" encoding="iso-8859-1"?>
<!-- Generator: Adobe Illustrator 19.0.0, SVG Export Plug-In . SVG Version: 6.00 Build 0)  -->
<svg xmlns="http://www.w3.org/2000/svg" xmlns:xlink="http://www.w3.org/1999/xlink" version="1.1" id="Layer_1" x="0px" y="0px" viewBox="0 0 512 512" style="enable-background:new 0 0 512 512;" xml:space="preserve">
<g>
	<g>
		<path d="M483.265,24.315H134.269c-15.845,0-28.735,12.891-28.735,28.735V245.97h15.673V53.049c0-7.203,5.859-13.061,13.061-13.061    h348.996c7.202,0,13.061,5.859,13.061,13.061v348.996c0,7.202-5.859,13.061-13.061,13.061H261.776v15.673h221.489    c15.845,0,28.735-12.891,28.735-28.735V53.049C512,37.206,499.109,24.315,483.265,24.315z"/>
	</g>
</g>
<g>
	<g>
		<path d="M451.897,55.681h-62.642v15.673h62.642c7.201,0,13.061,5.859,13.061,13.061v54.183h15.673V84.417    C480.632,68.573,467.742,55.681,451.897,55.681z"/>
	</g>
</g>
<g>
	<g>
		<rect x="464.96" y="157.4" width="15.673" height="15.673"/>
	</g>
</g>
<g>
	<g>
		<path d="M280.033,105.816v57.176h57.469v-57.176H280.033z M321.829,147.319h-26.122V121.49h26.122V147.319z"/>
	</g>
</g>
<g>
	<g>
		<path d="M177.309,383.339c-3.116-3.113-6.861-5.22-10.829-6.342c0.758-2.405,1.157-4.937,1.159-7.531    c0.004-6.685-2.597-12.966-7.325-17.69c-3.117-3.114-6.862-5.221-10.83-6.343c0.758-2.405,1.157-4.936,1.159-7.529    c0.004-6.684-2.597-12.966-7.325-17.69c-2.333-2.331-5.022-4.088-7.888-5.303l22.495-22.473c4.73-4.725,7.337-11.007,7.343-17.686    c0.004-6.683-2.597-12.965-7.326-17.69c-9.753-9.744-25.627-9.736-35.39,0.018l-54.586,54.552l0.004-6.023    c0.004-6.683-2.598-12.964-7.327-17.69c-4.724-4.72-11.001-7.317-17.681-7.317c-0.005,0-0.012,0-0.017,0    c-13.788,0.01-25.019,11.233-25.036,25.02l-0.033,56.032l-9.449,9.439C2.992,376.523,0,383.742,0,391.422    c0,7.681,2.992,14.9,8.426,20.328l67.61,67.544c5.6,5.594,12.953,8.392,20.309,8.391c7.354,0,14.71-2.797,20.309-8.391    l60.639-60.58c4.73-4.725,7.337-11.007,7.342-17.686C184.639,394.345,182.038,388.064,177.309,383.339z M33.581,305.638    c0.007-5.159,4.212-9.357,9.374-9.361c0.002,0,0.004,0,0.006,0c2.494,0,4.839,0.971,6.602,2.731    c1.764,1.762,2.733,4.102,2.731,6.592l-0.015,21.707l-18.723,18.711L33.581,305.638z M166.215,407.628l-60.639,60.58    c-5.09,5.086-13.373,5.086-18.462,0l-67.611-67.544c-2.469-2.467-3.83-5.749-3.83-9.241s1.36-6.773,3.83-9.241l9.166-9.158    l0.019,0.018l104.941-104.875c3.654-3.65,9.59-3.656,13.234-0.017c1.763,1.761,2.731,4.101,2.729,6.591    c-0.001,2.494-0.977,4.841-2.746,6.609l-63.108,63.047l11.078,11.087l24.197-24.173c3.654-3.641,9.585-3.647,13.227-0.009    c1.762,1.761,2.73,4.1,2.728,6.591c-0.001,2.495-0.976,4.842-2.745,6.609l-7.298,7.29l-0.001,0.001l-16.892,16.875l11.078,11.087    l16.902-16.886c3.654-3.639,9.583-3.643,13.223-0.006c1.762,1.761,2.73,4.1,2.728,6.591c-0.001,2.495-0.976,4.842-2.745,6.609    l-16.892,16.875l11.078,11.087l9.598-9.589c3.654-3.642,9.586-3.651,13.228-0.01c1.762,1.76,2.731,4.101,2.729,6.591    C168.96,403.513,167.984,405.86,166.215,407.628z"/>
	</g>
</g>
<g>
	<g>
		<rect x="193.34" y="415.11" width="15.673" height="15.673"/>
	</g>
</g>
<g>
	<g>
		<rect x="227.3" y="415.11" width="15.674" height="15.673"/>
	</g>
</g>
<g>
	<g>
		<path d="M280.033,170.096v179.181h57.469V170.096H280.033z M321.829,333.604h-26.122V185.771h26.122V333.604z"/>
	</g>
</g>
<g>
</g>
<g>
</g>
<g>
</g>
<g>
</g>
<g>
</g>
<g>
</g>
<g>
</g>
<g>
</g>
<g>
</g>
<g>
</g>
<g>
</g>
<g>
</g>
<g>
</g>
<g>
</g>
<g>
</g>
</svg>
