<?xml version="1.0" encoding="iso-8859-1"?>
<!-- Generator: Adobe Illustrator 19.0.0, SVG Export Plug-In . SVG Version: 6.00 Build 0)  -->
<svg xmlns="http://www.w3.org/2000/svg" xmlns:xlink="http://www.w3.org/1999/xlink" version="1.1" id="Layer_1" x="0px" y="0px" viewBox="0 0 512 512" style="enable-background:new 0 0 512 512;" xml:space="preserve">
<g>
	<g>
		<path d="M230.358,224.653V0h-47.02v224.653h-26.119v62.694h26.119V512h47.02V287.347h26.126v-62.694H230.358z M199.011,15.673    h15.673v208.98h-15.673V15.673z M214.685,496.327h-15.673v-208.98h15.673V496.327z M240.81,271.673h-67.918v-31.347h67.918    V271.673z"/>
	</g>
</g>
<g>
	<g>
		<path d="M132.065,313.495V0h-47.02v170.809h15.673V15.673h15.673v297.822h-15.673v-89.919H85.044v89.92H58.921v62.694h26.123V512    h47.02V376.189h26.121v-62.694H132.065z M116.391,496.327h-15.673V376.189h15.673V496.327z M74.594,360.516v-31.347h67.918v31.347    H74.594z"/>
	</g>
</g>
<g>
	<g>
		<path d="M328.662,135.811V0h-47.02v135.811h-26.126v62.694h26.126V512h47.02v-65.337h-15.673v49.664h-15.674V198.505h15.674    v161.431h15.673V198.505h26.119v-62.694H328.662z M297.315,15.673h15.674V135.81h-15.674V15.673z M339.108,182.831H271.19v-31.347    h67.918V182.831z"/>
	</g>
</g>
<g>
	<g>
		<rect x="312.99" y="378.23" width="15.673" height="15.673"/>
	</g>
</g>
<g>
	<g>
		<rect x="312.99" y="412.71" width="15.673" height="15.673"/>
	</g>
</g>
<g>
	<g>
		<path d="M426.956,355.318V0h-47.02v355.319h-26.121v62.694h26.121V512h47.02v-93.988h26.123v-62.694H426.956z M395.609,15.673    h15.673v339.645h-15.673V15.673z M411.282,496.327h-15.673v-78.314h15.673V496.327z M437.406,402.339h-67.918v-31.347h67.918    V402.339z"/>
	</g>
</g>
<g>
	<g>
		<rect x="85.04" y="189.09" width="15.673" height="15.673"/>
	</g>
</g>
<g>
</g>
<g>
</g>
<g>
</g>
<g>
</g>
<g>
</g>
<g>
</g>
<g>
</g>
<g>
</g>
<g>
</g>
<g>
</g>
<g>
</g>
<g>
</g>
<g>
</g>
<g>
</g>
<g>
</g>
</svg>
