<?xml version="1.0" encoding="iso-8859-1"?>
<!-- Generator: Adobe Illustrator 19.0.0, SVG Export Plug-In . SVG Version: 6.00 Build 0)  -->
<svg xmlns="http://www.w3.org/2000/svg" xmlns:xlink="http://www.w3.org/1999/xlink" version="1.1" id="Layer_1" x="0px" y="0px" viewBox="0 0 512 512" style="enable-background:new 0 0 512 512;" xml:space="preserve">
<g>
	<g>
		<rect x="110.781" y="475.73" width="15.673" height="36.26"/>
	</g>
</g>
<g>
	<g>
		<path d="M256.477,31.347c-58.395,0-113.458,28.582-147.294,76.456l12.8,9.047c30.903-43.726,81.181-69.829,134.494-69.829    c53.314,0,103.592,26.104,134.494,69.829l12.8-9.047C369.936,59.929,314.873,31.347,256.477,31.347z"/>
	</g>
</g>
<g>
	<g>
		<path d="M467.801,222.118c0.171-3.475,0.269-6.994,0.269-10.526C468.07,94.92,373.15,0,256.478,0S44.886,94.92,44.886,211.592    c0,3.302,0.088,6.629,0.245,9.947c-10.511,4.277-17.943,14.596-17.943,26.624c0,15.59,12.481,28.311,27.976,28.715    c4.24,13.103,9.769,25.794,16.487,37.804l13.679-7.651c-6.057-10.829-11.061-22.26-14.944-34.055    c6.336-3.707,11.128-9.769,13.176-16.976h27.217v18.286v7.837v140.846h15.673V282.122h15.674v26.122h57.469V188.082h-57.469    v26.122h-31.347v26.122H83.561c-2.993-10.539-11.859-18.626-22.823-20.485c-0.116-2.754-0.18-5.51-0.18-8.249    c0-108.03,87.888-195.918,195.918-195.918s195.918,87.888,195.918,195.918c0,2.777-0.062,5.545-0.176,8.284    c-11.403,1.539-20.701,9.788-23.78,20.631H401.22v-26.303h-31.347v-26.122h-57.469v120.163h57.469v-26.122h15.673V512h15.673    V282.122v-7.837V256.18h27.218c2.127,7.492,7.218,13.75,13.926,17.409c-3.849,11.561-8.783,22.786-14.741,33.443l13.681,7.649    c6.699-11.982,12.214-24.623,16.444-37.655c15.07-0.868,27.065-13.399,27.065-28.683    C484.814,236.674,477.817,226.613,467.801,222.118z M157.799,282.122v-67.918v-10.449h26.122v88.816h-26.122V282.122z     M126.452,229.878h15.673v36.571h-15.673V229.878z M68.983,248.163c0,7.203-5.859,13.061-13.061,13.061    c-7.202,0-13.061-5.859-13.061-13.061c0-7.202,5.859-13.061,13.061-13.061C63.124,235.102,68.983,240.961,68.983,248.163z     M354.202,214.204v67.918v10.449H328.08v-88.816h26.122V214.204z M385.549,266.449h-15.673v-36.571h15.673V266.449z     M456.08,261.405c-7.203,0-13.061-5.859-13.061-13.061c0-7.203,5.859-13.061,13.061-13.061c7.202,0,13.061,5.859,13.061,13.061    C469.141,255.545,463.282,261.405,456.08,261.405z"/>
	</g>
</g>
<g>
	<g>
		<rect x="110.781" y="441.25" width="15.673" height="15.674"/>
	</g>
</g>
<g>
</g>
<g>
</g>
<g>
</g>
<g>
</g>
<g>
</g>
<g>
</g>
<g>
</g>
<g>
</g>
<g>
</g>
<g>
</g>
<g>
</g>
<g>
</g>
<g>
</g>
<g>
</g>
<g>
</g>
</svg>
