<?xml version="1.0" encoding="iso-8859-1"?>
<!-- Generator: Adobe Illustrator 19.0.0, SVG Export Plug-In . SVG Version: 6.00 Build 0)  -->
<svg xmlns="http://www.w3.org/2000/svg" xmlns:xlink="http://www.w3.org/1999/xlink" version="1.1" id="Layer_1" x="0px" y="0px" viewBox="0 0 512 512" style="enable-background:new 0 0 512 512;" xml:space="preserve">
<g>
	<g>
		<path d="M461.857,127.125l-11.537,10.609c3.417,3.716,6.733,7.66,9.858,11.723l12.425-9.556    C469.2,135.476,465.585,131.177,461.857,127.125z"/>
	</g>
</g>
<g>
	<g>
		<path d="M482.343,153.824l-13.225,8.411c17.801,27.99,27.209,60.414,27.209,93.767c0,96.507-78.514,175.02-175.02,175.02    s-175.021-78.513-175.021-175.02s78.514-175.02,175.02-175.02c42.745,0,83.895,15.571,115.873,43.845l10.382-11.742    c-34.845-30.81-79.683-47.777-126.255-47.777c-79.248,0-147.352,48.597-176.099,117.551H34.482v15.673h104.987    c-2.857,9.02-5.061,18.328-6.555,27.867H34.482v15.673h96.642c-0.333,4.601-0.511,9.244-0.511,13.928    c0,4.684,0.178,9.328,0.511,13.928H0v15.673h132.913c1.493,9.54,3.698,18.848,6.555,27.867H68.441v15.674h76.767    c28.747,68.954,96.851,117.551,176.099,117.551C426.455,446.695,512,361.151,512,256.002    C512,219.664,501.744,184.332,482.343,153.824z"/>
	</g>
</g>
<g>
	<g>
		<path d="M159.485,256.002h15.673c0-80.587,65.562-146.148,146.148-146.148V94.181C232.077,94.181,159.485,166.773,159.485,256.002    z"/>
	</g>
</g>
<g>
	<g>
		<path d="M321.306,201.145c-30.249,0-54.857,24.608-54.857,54.857c0,30.249,24.608,54.857,54.857,54.857    c30.249,0,54.857-24.608,54.857-54.857C376.163,225.753,351.555,201.145,321.306,201.145z M321.306,295.185    c-21.606,0-39.184-17.577-39.184-39.184s17.577-39.184,39.184-39.184c21.606,0,39.184,17.577,39.184,39.184    S342.913,295.185,321.306,295.185z"/>
	</g>
</g>
<g>
	<g>
		<path d="M321.306,232.492c-12.964,0-23.51,10.546-23.51,23.51s10.546,23.51,23.51,23.51c12.964,0,23.51-10.546,23.51-23.51    C344.816,243.037,334.27,232.492,321.306,232.492z M321.306,263.839c-4.322,0-7.837-3.515-7.837-7.837    c0-4.322,3.515-7.837,7.837-7.837c4.322,0,7.837,3.515,7.837,7.837S325.628,263.839,321.306,263.839z"/>
	</g>
</g>
<g>
	<g>
		<path d="M286.729,315.905c-10.496-6.073-19.254-14.831-25.327-25.327l-3.922-6.776l-80.26,46.338l3.929,6.79    c14.202,24.546,34.683,45.027,59.228,59.229l6.79,3.929l46.338-80.261L286.729,315.905z M241.543,378.481    c-17.028-11.114-31.603-25.689-42.716-42.716l53.245-30.741c5.548,7.821,12.391,14.665,20.213,20.212L241.543,378.481z"/>
	</g>
</g>
<g>
	<g>
		<path d="M461.462,175.075c-14.202-24.546-34.683-45.026-59.229-59.229l-6.79-3.929l-46.338,80.261l6.776,3.92    c10.496,6.073,19.253,14.83,25.327,25.327l3.922,6.777l80.261-46.338L461.462,175.075z M390.54,206.981    c-5.548-7.821-12.391-14.665-20.213-20.214l30.741-53.244c17.028,11.114,31.603,25.689,42.716,42.716L390.54,206.981z"/>
	</g>
</g>
<g>
	<g>
		<rect y="182.862" width="15.673" height="15.673"/>
	</g>
</g>
<g>
	<g>
		<rect x="34.482" y="313.471" width="15.673" height="15.674"/>
	</g>
</g>
<g>
	<g>
		<rect y="313.471" width="15.673" height="15.674"/>
	</g>
</g>
<g>
</g>
<g>
</g>
<g>
</g>
<g>
</g>
<g>
</g>
<g>
</g>
<g>
</g>
<g>
</g>
<g>
</g>
<g>
</g>
<g>
</g>
<g>
</g>
<g>
</g>
<g>
</g>
<g>
</g>
</svg>
