<?xml version="1.0" encoding="iso-8859-1"?>
<!-- Generator: Adobe Illustrator 19.0.0, SVG Export Plug-In . SVG Version: 6.00 Build 0)  -->
<svg xmlns="http://www.w3.org/2000/svg" xmlns:xlink="http://www.w3.org/1999/xlink" version="1.1" id="Layer_1" x="0px" y="0px" viewBox="0 0 512 512" style="enable-background:new 0 0 512 512;" xml:space="preserve">
<g>
	<g>
		<path d="M0,83.589v344.816h355.878v-15.673H15.673V99.263h480.653V360.5H129.762c-3.548-14.958-17.009-26.122-33.037-26.122    c-18.726,0-33.959,15.235-33.959,33.959c0,18.725,15.234,33.959,33.959,33.959c16.028,0,29.488-11.165,33.037-26.122h366.565    v36.558h-53.722v15.673H512V83.589H0z M96.725,386.623c-10.082,0-18.286-8.204-18.286-18.286c0-10.082,8.203-18.286,18.286-18.286    c10.083,0,18.286,8.204,18.286,18.286C115.011,378.419,106.808,386.623,96.725,386.623z"/>
	</g>
</g>
<g>
	<g>
		<polygon points="352.653,203.497 352.653,156.738 159.347,156.738 159.347,303.024 352.653,303.024 352.653,256.266     336.98,256.266 336.98,287.35 175.02,287.35 175.02,172.411 336.98,172.411 336.98,203.497   "/>
	</g>
</g>
<g>
	<g>
		<path d="M227.265,189.62v80.523l64.419-40.262L227.265,189.62z M242.939,217.898l19.173,11.983l-19.173,11.984V217.898z"/>
	</g>
</g>
<g>
	<g>
		<rect x="336.98" y="221.787" width="15.673" height="15.673"/>
	</g>
</g>
<g>
	<g>
		<rect x="374.17" y="412.737" width="15.674" height="15.673"/>
	</g>
</g>
<g>
	<g>
		<rect x="408.65" y="412.737" width="15.674" height="15.673"/>
	</g>
</g>
<g>
</g>
<g>
</g>
<g>
</g>
<g>
</g>
<g>
</g>
<g>
</g>
<g>
</g>
<g>
</g>
<g>
</g>
<g>
</g>
<g>
</g>
<g>
</g>
<g>
</g>
<g>
</g>
<g>
</g>
</svg>
