<?xml version="1.0" encoding="iso-8859-1"?>
<!-- Generator: Adobe Illustrator 19.0.0, SVG Export Plug-In . SVG Version: 6.00 Build 0)  -->
<svg xmlns="http://www.w3.org/2000/svg" xmlns:xlink="http://www.w3.org/1999/xlink" version="1.1" id="Layer_1" x="0px" y="0px" viewBox="0 0 512 512" style="enable-background:new 0 0 512 512;" xml:space="preserve">
<g>
	<g>
		<polygon points="368.264,258.945 368.264,194.463 208.688,310.133 368.264,425.802 368.264,361.322 405.911,361.322     405.911,345.648 352.59,345.648 352.59,395.083 235.394,310.133 352.59,225.182 352.59,274.618 496.327,274.618 496.327,345.648     458.679,345.648 458.679,361.322 512,361.322 512,258.945   "/>
	</g>
</g>
<g>
	<g>
		<rect x="424.72" y="345.65" width="15.673" height="15.673"/>
	</g>
</g>
<g>
	<g>
		<polygon points="303.312,201.867 143.736,86.198 143.736,150.678 106.089,150.678 106.089,166.352 159.41,166.352 159.41,116.917     276.606,201.867 159.41,286.818 159.41,237.382 15.673,237.382 15.673,166.352 53.321,166.352 53.321,150.678 0,150.678     0,253.055 143.736,253.055 143.736,317.537   "/>
	</g>
</g>
<g>
	<g>
		<rect x="71.61" y="150.67" width="15.673" height="15.673"/>
	</g>
</g>
<g>
</g>
<g>
</g>
<g>
</g>
<g>
</g>
<g>
</g>
<g>
</g>
<g>
</g>
<g>
</g>
<g>
</g>
<g>
</g>
<g>
</g>
<g>
</g>
<g>
</g>
<g>
</g>
<g>
</g>
</svg>
