<?xml version="1.0" encoding="iso-8859-1"?>
<!-- Generator: Adobe Illustrator 19.0.0, SVG Export Plug-In . SVG Version: 6.00 Build 0)  -->
<svg xmlns="http://www.w3.org/2000/svg" xmlns:xlink="http://www.w3.org/1999/xlink" version="1.1" id="Layer_1" x="0px" y="0px" viewBox="0 0 512 512" style="enable-background:new 0 0 512 512;" xml:space="preserve">
<g>
	<g>
		<circle cx="126.23" cy="409.8" r="10.449"/>
	</g>
</g>
<g>
	<g>
		<circle cx="368.32" cy="409.8" r="10.449"/>
	</g>
</g>
<g>
	<g>
		<path d="M352.243,223.843h-75.352v78.367h114.562L352.243,223.843z M292.566,239.517h49.994l23.526,47.02h-73.52V239.517z"/>
	</g>
</g>
<g>
	<g>
		<path d="M169.851,401.476L169.851,401.476c-3.908-20.522-21.972-36.087-43.614-36.087c-24.487,0-44.408,19.921-44.408,44.408    s19.921,44.408,44.408,44.408c21.982,0,40.273-16.057,43.789-37.056h140.819v-15.673H169.851z M126.237,438.532    c-15.844,0-28.735-12.891-28.735-28.735s12.891-28.735,28.735-28.735s28.735,12.891,28.735,28.735    S142.081,438.532,126.237,438.532z"/>
	</g>
</g>
<g>
	<g>
		<path d="M228.567,143.844c-10.484-9.928-25.218-19.844-42.015-28.341l5.037-10.804c0.743,0.071,1.487,0.112,2.228,0.112    c8.86,0,17.359-5.029,21.343-13.572c5.479-11.749,0.377-25.764-11.371-31.242c-11.748-5.479-25.764-0.378-31.243,11.371    c-4.318,9.259-2.061,19.923,4.839,26.711l-19.337,41.469l14.204,6.625l7.674-16.456c36.388,18.477,51.261,38.42,49.149,42.948    c-2.244,4.812-30.134,6.136-71.655-13.224c-41.522-19.362-58.435-41.578-56.189-46.39c1.585-3.398,19.079-6.636,52.968,5.525    l5.293-14.753c-29.508-10.587-64.042-15.462-72.467,2.604c-0.11,0.235-0.214,0.477-0.316,0.722    c-9.425,20.691-10.351,43.809-2.565,65.2c2.641,7.253,6.193,14,10.511,20.153H0v224.653h68.763v-15.673H57.469V208.171h51.396    c5.928,5.093,12.575,9.422,19.852,12.815c11.591,5.405,23.964,8.123,36.382,8.123c9.941,0,19.913-1.742,29.531-5.243    c21.409-7.791,38.537-23.381,48.323-43.927c0.102-0.197,0.201-0.394,0.294-0.589c0.009-0.022,0.021-0.041,0.03-0.062v-0.001    C246.453,172.478,246.477,160.804,228.567,143.844z M186.749,77.991c1.828-3.915,6.5-5.616,10.416-3.791    c3.916,1.826,5.616,6.498,3.791,10.414c-1.827,3.915-6.501,5.617-10.415,3.791C186.624,86.579,184.923,81.907,186.749,77.991z     M15.673,401.477V208.171h26.122v193.306H15.673z M189.271,209.138c-17.7,6.441-36.854,5.605-53.928-2.356    c-17.075-7.962-30.026-22.095-36.47-39.798c-3.803-10.447-5.05-21.395-3.814-32.128c1.883,2.231,4.085,4.567,6.672,7.018    c11.925,11.295,29.35,22.577,49.063,31.77c19.714,9.192,39.557,15.287,55.875,17.162c3.538,0.406,6.745,0.595,9.663,0.604    C208.905,199.253,199.717,205.336,189.271,209.138z"/>
	</g>
</g>
<g>
	<g>
		<rect x="249.82" y="192.5" width="15.673" height="15.674"/>
	</g>
</g>
<g>
	<g>
		<path d="M496.327,370.128v-73.141h-70.913l-52.276-104.49h-89.354v15.673h79.67l52.276,104.49h64.924v57.469h-44.328v15.673    h44.328h7.917h7.756v15.673h-84.391c-3.907-20.522-21.973-36.088-43.615-36.088c-24.487,0-44.408,19.921-44.408,44.408    s19.921,44.408,44.408,44.408c21.982,0,40.272-16.057,43.789-37.055H512v-47.02H496.327z M368.32,438.532    c-15.844,0-28.735-12.891-28.735-28.735s12.891-28.735,28.735-28.735s28.735,12.891,28.735,28.735S384.164,438.532,368.32,438.532    z"/>
	</g>
</g>
<g>
</g>
<g>
</g>
<g>
</g>
<g>
</g>
<g>
</g>
<g>
</g>
<g>
</g>
<g>
</g>
<g>
</g>
<g>
</g>
<g>
</g>
<g>
</g>
<g>
</g>
<g>
</g>
<g>
</g>
</svg>
