<?xml version="1.0" encoding="iso-8859-1"?>
<!-- Generator: Adobe Illustrator 19.0.0, SVG Export Plug-In . SVG Version: 6.00 Build 0)  -->
<svg xmlns="http://www.w3.org/2000/svg" xmlns:xlink="http://www.w3.org/1999/xlink" version="1.1" id="Layer_1" x="0px" y="0px" viewBox="0 0 512 512" style="enable-background:new 0 0 512 512;" xml:space="preserve">
<g>
	<g>
		<path d="M336.606,197.994c-4.434-10.366-10.425-19.055-17.973-26.064c-7.554-7.009-16.231-12.337-26.036-15.989    c-9.802-3.648-20.008-5.475-30.608-5.475c-10.892,0-21.349,1.828-31.372,5.475c-10.022,3.652-18.845,8.946-26.469,15.879    c-7.625,6.937-13.69,15.479-18.191,25.626c-4.505,10.15-6.755,21.721-6.755,34.715c0,12.266,2.071,23.474,6.21,33.621    c4.14,10.15,9.802,18.836,16.993,26.064c7.189,7.229,15.576,12.813,25.162,16.756c9.586,3.942,19.826,5.914,30.718,5.914    c6.391,0,12.779-0.732,19.171-2.19c6.391-1.462,12.637-3.652,18.737-6.571l-3.487-11.389c-5.521,2.481-10.821,4.49-15.903,6.023    c-5.086,1.534-11.111,2.3-18.083,2.3c-10.167,0-19.39-1.861-27.669-5.585s-15.358-8.761-21.24-15.112    c-5.884-6.352-10.425-13.799-13.618-22.341c-3.195-8.542-4.792-17.703-4.792-27.488c0-10.075,1.704-19.383,5.12-27.926    c3.411-8.542,8.203-15.913,14.378-22.12c6.171-6.205,13.508-11.06,22.003-14.565c8.498-3.505,17.899-5.256,28.213-5.256    c10.457,0,19.968,1.789,28.54,5.366c8.568,3.58,15.903,8.542,22.003,14.893c6.101,6.352,10.855,13.874,14.27,22.559    c3.41,8.689,5.12,18.145,5.12,28.364c0,3.066-0.218,6.865-0.654,11.388c-0.436,4.528-1.345,8.871-2.723,13.032    c-1.381,4.161-3.268,7.703-5.665,10.622c-2.395,2.923-5.556,4.38-9.476,4.38c-2.613,0-4.65-0.692-6.101-2.08    c-1.452-1.387-2.543-3.211-3.268-5.476c-0.727-2.262-1.197-4.89-1.414-7.885c-0.219-2.991-0.328-6.095-0.328-9.308v-21.026    c0-4.962-0.292-10.147-0.871-15.55c-0.581-5.4-2.143-10.328-4.684-14.784c-2.543-4.452-6.464-8.138-11.763-11.06    c-5.304-2.919-12.674-4.38-22.113-4.38c-13.944,0-26.435,3.651-37.471,10.951l5.663,15.55c3.487-2.919,7.698-5.257,12.637-7.009    c4.936-1.752,10.382-2.629,16.339-2.629c4.936,0,9.004,0.657,12.201,1.972c3.193,1.315,5.736,3.142,7.625,5.475    c1.886,2.337,3.193,5.185,3.923,8.542c0.723,3.36,1.088,7.009,1.088,10.951c-2.179-1.02-5.375-2.08-9.586-3.175    c-4.214-1.095-9.225-1.643-15.032-1.643c-4.94,0-9.841,0.547-14.706,1.643c-4.869,1.095-9.224,2.885-13.073,5.367    c-3.849,2.485-6.971,5.77-9.366,9.857c-2.397,4.09-3.596,9.127-3.596,15.112c0,9.056,2.833,16.427,8.497,22.122    c5.665,5.695,13.944,8.542,24.836,8.542c7.407,0,14.305-1.348,20.697-4.052c6.388-2.7,11.837-6.314,16.339-10.841    c0.289,2.046,0.796,4.127,1.526,6.242c0.725,2.118,1.852,4.051,3.377,5.804c1.523,1.752,3.556,3.175,6.098,4.271    c2.541,1.095,5.774,1.643,9.695,1.643c5.23,0,9.696-0.986,13.399-2.957c3.704-1.972,6.788-4.562,9.26-7.775    c2.468-3.21,4.429-6.791,5.882-10.732c1.45-3.942,2.539-7.81,3.268-11.609c0.725-3.795,1.197-7.409,1.416-10.842    c0.216-3.429,0.326-6.167,0.326-8.213C343.249,220.333,341.033,208.363,336.606,197.994z M283.776,247.273L283.776,247.273h-0.002    c0,3.361-0.871,6.427-2.615,9.199c-1.743,2.775-4.575,5.113-8.495,7.009c-2.762,1.461-5.882,2.556-9.369,3.286    c-3.485,0.732-6.682,1.095-9.586,1.095c-5.521,0-9.841-1.459-12.963-4.38c-3.124-2.919-4.682-6.862-4.682-11.827    c0-6.277,2.179-10.732,6.534-13.361c4.358-2.629,9.948-3.942,16.777-3.942c5.517,0,10.457,0.586,14.815,1.752    c4.356,1.17,7.549,2.118,9.586,2.847V247.273z"/>
	</g>
</g>
<g>
	<g>
		<path d="M404.898,64.397V15.673h13.072V0H83.592C67.747,0,54.857,12.89,54.857,28.735v451.918    c0,17.285,14.062,31.347,31.347,31.347H417.97v-15.673h-33.982V464.98h33.982v-15.674h-13.072v-97.522h52.245v-67.918h-52.245    v-5.237h52.245V210.71h-52.245v-5.238h52.245v-67.918h-52.245v-5.238h52.245v-0.001V64.397H404.898z M368.313,496.327    L368.313,496.327H86.204c-8.642,0-15.673-7.031-15.673-15.673c0-4.187,1.631-8.123,4.59-11.082    c2.961-2.96,6.896-4.591,11.083-4.591h282.109V496.327z M389.225,449.306H86.204c-5.593,0-10.96,1.462-15.673,4.193V28.735    c0-7.202,5.859-13.061,13.061-13.061h305.633V449.306z M441.469,299.539v36.571h-36.571v-36.571H441.469z M441.469,226.382v36.571    h-36.571v-36.571H441.469z M441.469,153.227v36.571h-36.571v-36.571H441.469z M441.469,116.642h-36.571V80.071h36.571V116.642z"/>
	</g>
</g>
<g>
	<g>
		<rect x="117.55" y="39.18" width="15.673" height="318.17"/>
	</g>
</g>
<g>
	<g>
		<rect x="117.55" y="375.64" width="15.673" height="15.673"/>
	</g>
</g>
<g>
	<g>
		<rect x="117.55" y="410.12" width="15.673" height="15.673"/>
	</g>
</g>
<g>
</g>
<g>
</g>
<g>
</g>
<g>
</g>
<g>
</g>
<g>
</g>
<g>
</g>
<g>
</g>
<g>
</g>
<g>
</g>
<g>
</g>
<g>
</g>
<g>
</g>
<g>
</g>
<g>
</g>
</svg>
