<?xml version="1.0" encoding="iso-8859-1"?>
<!-- Generator: Adobe Illustrator 19.0.0, SVG Export Plug-In . SVG Version: 6.00 Build 0)  -->
<svg xmlns="http://www.w3.org/2000/svg" xmlns:xlink="http://www.w3.org/1999/xlink" version="1.1" id="Layer_1" x="0px" y="0px" viewBox="0 0 512 512" style="enable-background:new 0 0 512 512;" xml:space="preserve">
<g>
	<g>
		<path d="M240.327,96.653v109.714h235.102V96.653H240.327z M459.755,190.694H256v-78.367h203.755V190.694z"/>
	</g>
</g>
<g>
	<g>
		<polygon points="190.707,60.082 190.707,75.755 496.327,75.755 496.327,436.245 453.532,436.245 453.532,451.918 512,451.918     512,60.082   "/>
	</g>
</g>
<g>
	<g>
		<path d="M177.633,436.245v-384c0-15.844-12.89-28.735-28.735-28.735H65.306c-15.845,0-28.735,12.891-28.735,28.735v7.837H0    v391.837h23.497v-15.673h-7.823V75.755h20.898v384c0,15.844,12.89,28.735,28.735,28.735h83.592    c15.845,0,28.735-12.891,28.735-28.735v-7.837h189.173v-15.673H177.633z M161.959,459.755L161.959,459.755    c0,7.202-5.859,13.061-13.061,13.061H65.306c-7.203,0-13.061-5.859-13.061-13.061V52.245c0-7.203,5.859-13.061,13.061-13.061    h83.592c7.203,0,13.061,5.859,13.061,13.061V459.755z"/>
	</g>
</g>
<g>
	<g>
		<path d="M122.775,49.633H91.429v15.673h31.347c7.203,0,13.061,5.859,13.061,13.061v57.943h15.673V78.367    C151.51,62.524,138.62,49.633,122.775,49.633z"/>
	</g>
</g>
<g>
	<g>
		<rect x="135.84" y="154.86" width="15.673" height="15.459"/>
	</g>
</g>
<g>
	<g>
		<rect x="385.09" y="436.25" width="15.673" height="15.673"/>
	</g>
</g>
<g>
	<g>
		<rect x="419.57" y="436.25" width="15.673" height="15.673"/>
	</g>
</g>
<g>
	<g>
		<rect x="409.67" y="143.67" width="15.667" height="15.673"/>
	</g>
</g>
<g>
	<g>
		<rect x="350.04" y="143.67" width="15.666" height="15.673"/>
	</g>
</g>
<g>
	<g>
		<rect x="290.41" y="143.67" width="15.667" height="15.673"/>
	</g>
</g>
<g>
	<g>
		<path d="M407.51,241.098v47.02h67.918v-47.02H407.51z M459.755,272.445h-36.571v-15.674h36.571V272.445z"/>
	</g>
</g>
<g>
	<g>
		<path d="M407.51,303.792v47.02h67.918v-47.02H407.51z M459.755,335.138h-36.571v-15.673h36.571V335.138z"/>
	</g>
</g>
<g>
	<g>
		<path d="M407.51,366.485v47.02h67.918v-47.02H407.51z M459.755,397.832h-36.571v-15.673h36.571V397.832z"/>
	</g>
</g>
<g>
	<g>
		<path d="M240.327,242.939v47.02h67.918v-47.02H240.327z M256,274.286v-15.673h36.571v15.673H256z"/>
	</g>
</g>
<g>
	<g>
		<path d="M323.918,242.939v47.02h67.918v-47.02H323.918z M339.592,274.286v-15.673h36.571v15.673H339.592z"/>
	</g>
</g>
<g>
	<g>
		<path d="M240.327,305.633v47.02h67.918v-47.02H240.327z M256,336.98v-15.673h36.571v15.673H256z"/>
	</g>
</g>
<g>
	<g>
		<path d="M323.918,305.633v47.02h67.918v-47.02H323.918z M339.592,336.98v-15.673h36.571v15.673H339.592z"/>
	</g>
</g>
<g>
	<g>
		<path d="M240.327,368.327v47.02h67.918v-47.02H240.327z M256,399.673V384h36.571v15.673H256z"/>
	</g>
</g>
<g>
	<g>
		<path d="M323.918,368.327v47.02h67.918v-47.02H323.918z M339.592,399.673V384h36.571v15.673H339.592z"/>
	</g>
</g>
<g>
</g>
<g>
</g>
<g>
</g>
<g>
</g>
<g>
</g>
<g>
</g>
<g>
</g>
<g>
</g>
<g>
</g>
<g>
</g>
<g>
</g>
<g>
</g>
<g>
</g>
<g>
</g>
<g>
</g>
</svg>
