<?xml version="1.0" encoding="iso-8859-1"?>
<!-- Generator: Adobe Illustrator 19.0.0, SVG Export Plug-In . SVG Version: 6.00 Build 0)  -->
<svg xmlns="http://www.w3.org/2000/svg" xmlns:xlink="http://www.w3.org/1999/xlink" version="1.1" id="Layer_1" x="0px" y="0px" viewBox="0 0 512 512" style="enable-background:new 0 0 512 512;" xml:space="preserve">
<g>
	<g>
		<path d="M70.531,164.57H28.748v15.674H70.53c7.202,0,13.061,5.859,13.061,13.061V360.49c0,7.202-5.859,13.061-13.061,13.061    H28.748v15.673H70.53c15.844,0,28.735-12.891,28.735-28.735V193.305C99.265,177.461,86.374,164.57,70.531,164.57z"/>
	</g>
</g>
<g>
	<g>
		<path d="M360.12,112.327l-20.91-41.796H214.614l-20.911,41.796h-52.1V128h354.723v297.796H15.673v-78.367h44.408v-15.673H15.673    v-26.122h44.408V289.96H15.673v-26.122h44.408v-15.673H15.673v-26.122h44.408V206.37H15.673V128h39.204v-15.673H0v329.143h512    V112.327H360.12z M211.227,112.327l13.07-26.122h105.229l13.07,26.122H211.227z"/>
	</g>
</g>
<g>
	<g>
		<path d="M276.912,138.448c-76.341,0-138.449,62.108-138.449,138.449s62.108,138.449,138.449,138.449    c76.34,0,138.449-62.109,138.449-138.449S353.252,138.448,276.912,138.448z M276.912,399.672    c-67.699,0-122.776-55.077-122.776-122.776s55.077-122.775,122.776-122.775s122.776,55.077,122.776,122.775    C399.687,344.596,344.61,399.672,276.912,399.672z"/>
	</g>
</g>
<g>
	<g>
		<path d="M428.422,138.448c-15.844,0-28.735,12.891-28.735,28.735s12.891,28.735,28.735,28.735s28.735-12.891,28.735-28.735    C457.156,151.339,444.266,138.448,428.422,138.448z M428.422,180.245c-7.203,0-13.061-5.859-13.061-13.061    c0-7.202,5.859-13.061,13.061-13.061c7.202,0,13.061,5.859,13.061,13.061C441.483,174.385,435.624,180.245,428.422,180.245z"/>
	</g>
</g>
<g>
	<g>
		<path d="M276.912,242.938c-18.726,0-33.959,15.234-33.959,33.959c0,18.726,15.234,33.959,33.959,33.959    c18.725,0,33.959-15.234,33.959-33.959C310.871,258.172,295.637,242.938,276.912,242.938z M276.912,295.183    c-10.082,0-18.286-8.203-18.286-18.286s8.203-18.286,18.286-18.286s18.286,8.203,18.286,18.286S286.994,295.183,276.912,295.183z"/>
	</g>
</g>
<g>
	<g>
		<path d="M276.912,190.693c-47.532,0-86.204,38.672-86.204,86.204c0,47.532,38.672,86.204,86.204,86.204    c47.532,0,86.204-38.672,86.204-86.204C363.116,229.365,324.444,190.693,276.912,190.693z M276.912,347.428    c-38.891,0-70.531-31.64-70.531-70.531c0-38.891,31.64-70.531,70.531-70.531s70.531,31.639,70.531,70.531    C347.443,315.789,315.802,347.428,276.912,347.428z"/>
	</g>
</g>
<g>
	<g>
		<rect x="73.16" y="112.33" width="15.673" height="15.673"/>
	</g>
</g>
<g>
	<g>
		<rect x="107.64" y="112.33" width="15.673" height="15.673"/>
	</g>
</g>
<g>
</g>
<g>
</g>
<g>
</g>
<g>
</g>
<g>
</g>
<g>
</g>
<g>
</g>
<g>
</g>
<g>
</g>
<g>
</g>
<g>
</g>
<g>
</g>
<g>
</g>
<g>
</g>
<g>
</g>
</svg>
