<?xml version="1.0" encoding="iso-8859-1"?>
<!-- Generator: Adobe Illustrator 19.0.0, SVG Export Plug-In . SVG Version: 6.00 Build 0)  -->
<svg xmlns="http://www.w3.org/2000/svg" xmlns:xlink="http://www.w3.org/1999/xlink" version="1.1" id="Layer_1" x="0px" y="0px" viewBox="0 0 512.003 512.003" style="enable-background:new 0 0 512.003 512.003;" xml:space="preserve">
<g>
	<g>
		<rect x="112.83" y="209.001" width="60.6" height="15.673"/>
	</g>
</g>
<g>
	<g>
		<path d="M182.31,169.876h-78.367V138.53h26.4l20.173,20.173l48.026-48.026l-62.803-62.803L87.713,95.9l26.956,26.956h-26.4v62.694    h109.714v-44.402H182.31V169.876z M164.625,98.926l-14.686-2.447l-2.447-14.686L164.625,98.926z M109.879,95.898l20.635-20.635    l5.805,34.835l34.83,5.804l-20.633,20.633L109.879,95.898z"/>
	</g>
</g>
<g>
	<g>
		<path d="M455.076,470.189v-70.498h-0.002V112.345c0-23.021-8.967-44.668-25.252-60.953C413.538,35.108,391.891,26.14,368.87,26.14    H143.13c-47.533,0-86.204,38.672-86.204,86.204v287.347h-0.002v70.498H33.959v15.673H285.78v-15.673h-45.997v-62.661h178.721    v62.661h-45.997v15.673h105.534v-15.673H455.076z M77.822,470.189h-5.224v-62.661h5.224V470.189z M93.495,470.189v-62.661h109.716    v62.661H93.495z M224.11,470.189h-5.224v-62.661h5.224V470.189z M72.6,391.856V112.345c0-38.891,31.639-70.531,70.531-70.531    c18.834,0,36.545,7.338,49.87,20.662c13.323,13.323,20.661,31.033,20.661,49.87v218.906h15.673V112.345    c0-23.021-8.967-44.668-25.252-60.953c-3.555-3.554-7.377-6.737-11.401-9.578H368.87c18.834,0,36.545,7.338,49.87,20.662    c13.323,13.323,20.661,31.033,20.661,49.87v279.51H72.6z M439.403,470.189h-5.224v-62.661h5.224V470.189z"/>
	</g>
</g>
<g>
	<g>
		<rect x="496.33" y="470.181" width="15.673" height="15.673"/>
	</g>
</g>
<g>
	<g>
		<rect y="470.181" width="15.673" height="15.673"/>
	</g>
</g>
<g>
	<g>
		<rect x="304.06" y="470.181" width="15.673" height="15.673"/>
	</g>
</g>
<g>
	<g>
		<rect x="338.55" y="470.181" width="15.673" height="15.673"/>
	</g>
</g>
<g>
	<g>
		<rect x="213.66" y="350.061" width="15.673" height="15.673"/>
	</g>
</g>
<g>
</g>
<g>
</g>
<g>
</g>
<g>
</g>
<g>
</g>
<g>
</g>
<g>
</g>
<g>
</g>
<g>
</g>
<g>
</g>
<g>
</g>
<g>
</g>
<g>
</g>
<g>
</g>
<g>
</g>
</svg>
