<?xml version="1.0" encoding="iso-8859-1"?>
<!-- Generator: Adobe Illustrator 19.0.0, SVG Export Plug-In . SVG Version: 6.00 Build 0)  -->
<svg xmlns="http://www.w3.org/2000/svg" xmlns:xlink="http://www.w3.org/1999/xlink" version="1.1" id="Layer_1" x="0px" y="0px" viewBox="0 0 512 512" style="enable-background:new 0 0 512 512;" xml:space="preserve">
<g>
	<g>
		<path d="M364.408,98.22h-25.673v15.673h25.673c30.969,0,56.163,25.195,56.163,56.163v96.392H271.673v-96.392    c0-19.188-7.472-37.229-21.041-50.796c-1.917-1.916-3.932-3.698-6.018-5.368h65.371v44.044    c-10.587,3.335-18.286,13.245-18.286,24.92c0,14.404,11.719,26.122,26.122,26.122s26.122-11.719,26.122-26.122    c0-11.675-7.699-21.583-18.286-24.92V57.469h73.143V0h-88.816v49.633v7.837v40.75H199.837c-18.014,0-35.244,6.697-48.517,18.858    c-11.404,10.45-19.046,24.15-21.972,39.14H75.754v88.816h120.163v-88.816h-50.51c2.668-10.531,8.353-20.117,16.501-27.584    c10.374-9.505,23.844-14.74,37.928-14.74c15.001,0,29.106,5.842,39.713,16.451c10.608,10.607,16.45,24.711,16.45,39.712v96.392    H143.673v-8.335h-15.673v24.009h135.837h0.014V512h52.245v-37.59h-15.673v21.917h-20.898V282.122h20.898v105.561h15.673V282.122    h120.15V170.057C436.244,130.446,404.019,98.22,364.408,98.22z M325.66,15.673h57.469v26.122H325.66V15.673z M317.822,172.408    c5.762,0,10.449,4.687,10.449,10.449s-4.687,10.449-10.449,10.449c-5.762,0-10.449-4.687-10.449-10.449    C307.374,177.096,312.061,172.408,317.822,172.408z M180.244,229.361H91.429v-50.254l44.408,31.086l44.408-31.085V229.361z     M163.22,171.892l-27.385,19.169l-27.384-19.169H163.22z"/>
	</g>
</g>
<g>
	<g>
		<rect x="300.42" y="405.96" width="15.673" height="15.673"/>
	</g>
</g>
<g>
	<g>
		<rect x="300.42" y="440.44" width="15.673" height="15.673"/>
	</g>
</g>
<g>
</g>
<g>
</g>
<g>
</g>
<g>
</g>
<g>
</g>
<g>
</g>
<g>
</g>
<g>
</g>
<g>
</g>
<g>
</g>
<g>
</g>
<g>
</g>
<g>
</g>
<g>
</g>
<g>
</g>
</svg>
