<?xml version="1.0" encoding="iso-8859-1"?>
<!-- Generator: Adobe Illustrator 19.0.0, SVG Export Plug-In . SVG Version: 6.00 Build 0)  -->
<svg xmlns="http://www.w3.org/2000/svg" xmlns:xlink="http://www.w3.org/1999/xlink" version="1.1" id="Layer_1" x="0px" y="0px" viewBox="0 0 512 512" style="enable-background:new 0 0 512 512;" xml:space="preserve">
<g>
	<g>
		<polygon points="341.211,176.267 330.127,187.35 359.111,216.334 252.272,216.334 252.272,232.008 359.111,232.008     330.127,260.99 341.211,272.073 389.113,224.17   "/>
	</g>
</g>
<g>
	<g>
		<rect x="218.31" y="216.331" width="15.673" height="15.673"/>
	</g>
</g>
<g>
	<g>
		<path d="M451.918,78.407H167.372v15.673h255.766v213.146h15.673V94.081h13.107c24.487,0,44.408,19.921,44.408,44.408v171.363    c0,24.487-19.921,44.408-44.408,44.408h-122.4v15.674h122.4c33.13,0,60.082-26.952,60.082-60.082V138.49    C512,105.359,485.048,78.407,451.918,78.407z"/>
	</g>
</g>
<g>
	<g>
		<path d="M467.569,184.987c-11.812,0-21.42,9.609-21.42,21.42v35.527c0,11.81,9.609,21.42,21.42,21.42    c11.811,0,21.42-9.609,21.42-21.42v-35.527C488.989,194.596,479.38,184.987,467.569,184.987z M473.316,241.935    c0,3.168-2.579,5.747-5.747,5.747c-3.168,0-5.747-2.579-5.747-5.747v-35.527c0-3.168,2.579-5.747,5.747-5.747    c3.168,0,5.747,2.579,5.747,5.747V241.935z"/>
	</g>
</g>
<g>
	<g>
		<rect x="132.89" y="78.401" width="15.673" height="15.673"/>
	</g>
</g>
<g>
	<g>
		<rect x="423.14" y="325.51" width="15.673" height="15.673"/>
	</g>
</g>
<g>
	<g>
		<rect x="36.592" y="255.73" width="15.673" height="15.458"/>
	</g>
</g>
<g>
	<g>
		<rect x="36.592" y="177.15" width="15.673" height="60.03"/>
	</g>
</g>
<g>
	<g>
		<path d="M298.695,301.419c-4.721-4.726-10.998-7.328-17.679-7.328c-0.004,0-0.008,0-0.011,0    c-4.405,0.002-8.546,1.155-12.145,3.168c-1.167-2.24-2.678-4.314-4.515-6.15c-4.719-4.72-10.99-7.317-17.662-7.317    c-0.004,0-0.009,0-0.014,0c-4.405,0.002-8.547,1.155-12.147,3.167c-1.164-2.235-2.672-4.305-4.502-6.139    c-4.721-4.726-10.997-7.329-17.674-7.329c-0.004,0-0.009,0-0.014,0c-3.297,0.001-6.443,0.651-9.328,1.817l0.016-31.786    c0.004-6.686-2.593-12.971-7.313-17.698c-4.721-4.726-10.998-7.329-17.679-7.329c-0.004,0-0.008,0-0.011,0    c-13.783,0.007-25.004,11.239-25.012,25.038l-0.024,77.172l-4.256-4.262c-4.721-4.726-10.998-7.328-17.678-7.328    c-0.003,0-0.008,0-0.013,0c-6.682,0.003-12.963,2.61-17.686,7.339c-9.744,9.756-9.751,25.632-0.013,35.395l2.406,2.41h-26.88    V94.078h25.742V78.405H60.082C26.952,78.405,0,105.357,0,138.487V309.85c0,33.13,26.952,60.082,60.082,60.082h71.317    l21.535,21.561l-0.006,13.356c-0.004,7.681,2.985,14.901,8.417,20.333c5.427,5.427,12.643,8.417,20.319,8.417    c0.004,0,0.009,0,0.014,0l95.568-0.047c15.829-0.008,28.713-12.893,28.72-28.72l0.043-85.716    C306.012,312.43,303.414,306.145,298.695,301.419z M73.189,354.26H60.082c-24.487,0-44.408-19.922-44.408-44.408V138.49    c0-24.487,19.921-44.408,44.408-44.408h13.107V354.26z M152.967,369.346l-28.536-28.569c-3.643-3.652-3.638-9.594,0.01-13.248    c1.764-1.766,4.109-2.74,6.603-2.741c0.001,0,0.003,0,0.004,0c2.49,0,4.83,0.97,6.588,2.729l15.339,15.36L152.967,369.346z     M290.291,404.826c-0.003,7.194-5.86,13.05-13.055,13.054l-95.567,0.047c-0.002,0-0.004,0-0.006,0c-3.49,0-6.77-1.359-9.237-3.825    c-2.469-2.469-3.827-5.751-3.825-9.242l0.006-12.958h0.025l0.047-148.361c0.003-5.164,4.195-9.367,9.344-9.371    c0.002,0,0.003,0,0.004,0c2.49,0,4.83,0.97,6.588,2.73c1.763,1.764,2.731,4.113,2.73,6.614l-0.026,55.008v0.004l-0.017,34.194    l15.673,0.008l0.017-34.196c0.004-5.163,4.195-9.365,9.346-9.367c0.002,0,0.003,0,0.005,0c2.488,0,4.826,0.97,6.585,2.73    c1.764,1.765,2.733,4.115,2.732,6.614l-0.018,34.193l15.673,0.008l0.013-23.878c0.002-5.163,4.195-9.366,9.346-9.369    c0.002,0,0.003,0,0.005,0c2.486,0,4.822,0.969,6.581,2.726c1.765,1.765,2.737,4.116,2.736,6.618l-0.005,10.307c0,0,0,0.007,0,0.01    l-0.006,13.56l15.673,0.008l0.006-13.565c0.005-5.162,4.197-9.362,9.346-9.365c0.002,0,0.003,0,0.004,0    c2.49,0,4.828,0.97,6.587,2.73c1.763,1.764,2.732,4.115,2.731,6.614L290.291,404.826z"/>
	</g>
</g>
<g>
</g>
<g>
</g>
<g>
</g>
<g>
</g>
<g>
</g>
<g>
</g>
<g>
</g>
<g>
</g>
<g>
</g>
<g>
</g>
<g>
</g>
<g>
</g>
<g>
</g>
<g>
</g>
<g>
</g>
</svg>
