<?xml version="1.0" encoding="iso-8859-1"?>
<!-- Generator: Adobe Illustrator 19.0.0, SVG Export Plug-In . SVG Version: 6.00 Build 0)  -->
<svg xmlns="http://www.w3.org/2000/svg" xmlns:xlink="http://www.w3.org/1999/xlink" version="1.1" id="Layer_1" x="0px" y="0px" viewBox="0 0 512.001 512.001" style="enable-background:new 0 0 512.001 512.001;" xml:space="preserve">
<g>
	<g>
		<polygon points="161.176,219.951 140.173,277.628 130.769,253.909 143.413,220.159 130.038,220.159 121.678,244.714     113.319,220.159 100.049,220.159 112.483,253.909 103.288,277.628 82.181,219.951 66.717,219.951 96.705,294.138 108.826,294.138     121.678,263 134.532,294.138 146.651,294.138 176.849,219.951   "/>
	</g>
</g>
<g>
	<g>
		<rect x="183.12" y="239.39" width="14" height="54.753"/>
	</g>
</g>
<g>
	<g>
		<rect x="183.12" y="217.859" width="14" height="13.897"/>
	</g>
</g>
<g>
	<g>
		<polygon points="393.613,232.594 393.613,219.951 343.771,219.951 343.771,294.138 358.191,294.138 358.191,263.419     387.657,263.419 387.657,251.716 358.191,251.716 358.191,232.594   "/>
	</g>
</g>
<g>
	<g>
		<rect x="402.39" y="239.39" width="14" height="54.753"/>
	</g>
</g>
<g>
	<g>
		<rect x="402.39" y="217.859" width="14" height="13.897"/>
	</g>
</g>
<g>
	<g>
		<path d="M483.265,138.448h-47.98v15.673h47.98c7.202,0,13.061,5.859,13.061,13.061v177.633c0,7.202-5.859,13.061-13.061,13.061    H250.782c8.094-8.726,13.055-20.396,13.055-33.207V187.328c0-18.31,14.897-33.207,33.207-33.207h51.516v-15.673H28.735    C12.891,138.448,0,151.339,0,167.184v177.633c0,15.844,12.891,28.735,28.735,28.735h54.504v-15.673H28.735    c-7.202,0-13.061-5.859-13.061-13.061V167.184c0-7.202,5.859-13.061,13.061-13.061h232.484    c-8.094,8.726-13.055,20.396-13.055,33.207v137.341c0,18.31-14.897,33.207-33.207,33.207h-78.95v15.673h347.259    c15.844,0,28.735-12.891,28.735-28.735V167.184C512,151.339,499.109,138.448,483.265,138.448z"/>
	</g>
</g>
<g>
	<g>
		<rect x="366.84" y="138.45" width="15.673" height="15.673"/>
	</g>
</g>
<g>
	<g>
		<rect x="401.32" y="138.45" width="15.673" height="15.673"/>
	</g>
</g>
<g>
	<g>
		<rect x="101.52" y="357.88" width="15.673" height="15.673"/>
	</g>
</g>
<g>
</g>
<g>
</g>
<g>
</g>
<g>
</g>
<g>
</g>
<g>
</g>
<g>
</g>
<g>
</g>
<g>
</g>
<g>
</g>
<g>
</g>
<g>
</g>
<g>
</g>
<g>
</g>
<g>
</g>
</svg>
