<?xml version="1.0" encoding="iso-8859-1"?>
<!-- Generator: Adobe Illustrator 19.0.0, SVG Export Plug-In . SVG Version: 6.00 Build 0)  -->
<svg xmlns="http://www.w3.org/2000/svg" xmlns:xlink="http://www.w3.org/1999/xlink" version="1.1" id="Layer_1" x="0px" y="0px" viewBox="0 0 512.003 512.003" style="enable-background:new 0 0 512.003 512.003;" xml:space="preserve">
<g>
	<g>
		<rect x="34.482" y="425.802" width="15.673" height="15.673"/>
	</g>
</g>
<g>
	<g>
		<rect y="425.802" width="15.673" height="15.673"/>
	</g>
</g>
<g>
	<g>
		<rect x="461.85" y="425.802" width="15.673" height="15.673"/>
	</g>
</g>
<g>
	<g>
		<rect x="496.33" y="425.802" width="15.673" height="15.673"/>
	</g>
</g>
<g>
	<g>
		<path d="M342.204,425.798v-26.122H169.796v26.122H68.441v15.673h101.355v26.122h172.408v-26.122h101.355v-15.673H342.204z     M185.469,451.92v-36.571H326.53v36.571H185.469z"/>
	</g>
</g>
<g>
	<g>
		<polygon points="314.796,44.41 314.796,60.084 342.204,60.084 342.204,305.635 169.796,305.635 169.796,60.084 262.029,60.084     262.029,44.41 154.122,44.41 154.122,321.308 248.163,321.308 248.163,386.601 263.837,386.601 263.837,321.308 357.878,321.308     357.878,44.41   "/>
	</g>
</g>
<g>
	<g>
		<path d="M190.694,86.206V195.92h130.612V86.206H190.694z M305.633,180.247h-99.265v-15.674h99.265V180.247z M305.633,148.9    h-99.265v-15.673h99.265V148.9z M305.633,117.553h-99.265V101.88h99.265V117.553z"/>
	</g>
</g>
<g>
	<g>
		<path d="M256,222.043c-15.844,0-28.735,12.891-28.735,28.735s12.891,28.735,28.735,28.735s28.735-12.891,28.735-28.735    S271.844,222.043,256,222.043z M256,263.839c-7.202,0-13.061-5.859-13.061-13.061c0-7.202,5.859-13.061,13.061-13.061    c7.203,0,13.061,5.859,13.061,13.061S263.203,263.839,256,263.839z"/>
	</g>
</g>
<g>
	<g>
		<rect x="280.84" y="44.412" width="15.673" height="15.673"/>
	</g>
</g>
<g>
</g>
<g>
</g>
<g>
</g>
<g>
</g>
<g>
</g>
<g>
</g>
<g>
</g>
<g>
</g>
<g>
</g>
<g>
</g>
<g>
</g>
<g>
</g>
<g>
</g>
<g>
</g>
<g>
</g>
</svg>
