<?xml version="1.0" encoding="iso-8859-1"?>
<!-- Generator: Adobe Illustrator 19.0.0, SVG Export Plug-In . SVG Version: 6.00 Build 0)  -->
<svg xmlns="http://www.w3.org/2000/svg" xmlns:xlink="http://www.w3.org/1999/xlink" version="1.1" id="Layer_1" x="0px" y="0px" viewBox="0 0 512 512" style="enable-background:new 0 0 512 512;" xml:space="preserve">
<g>
	<g>
		<ellipse cx="314.69" cy="172.37" rx="15.511" ry="15.454"/>
	</g>
</g>
<g>
	<g>
		<ellipse cx="368.68" cy="172.37" rx="15.511" ry="15.454"/>
	</g>
</g>
<g>
	<g>
		<ellipse cx="422.66" cy="172.37" rx="15.511" ry="15.454"/>
	</g>
</g>
<g>
	<g>
		<path d="M202.234,324.149l-28.587,34.13L77.869,277.77l28.588-34.13l-57.261-48.136L0,254.234l1.871,4.406    c17.894,42.152,45.872,79.999,80.906,109.45c35.036,29.452,77.104,50.482,121.652,60.818l4.677,1.085l49.184-58.722    L202.234,324.149z M203.317,412.555C121.276,392.002,52.611,334.273,18.163,256.9l32.959-39.35l33.327,28.015l-28.588,34.13    l119.713,100.629l28.587-34.13l32.121,27.001L203.317,412.555z"/>
	</g>
</g>
<g>
	<g>
		<polygon points="225.354,82.007 225.354,262.75 256.071,262.75 256.071,335.888 329.44,262.75 371.937,262.75 371.937,247.115     322.977,247.115 271.706,298.225 271.706,247.115 240.989,247.115 240.989,97.643 496.365,97.643 496.365,247.115     458.452,247.115 458.452,262.75 512,262.75 512,82.007   "/>
	</g>
</g>
<g>
	<g>
		<rect x="390.18" y="247.11" width="15.635" height="15.635"/>
	</g>
</g>
<g>
	<g>
		<rect x="424.58" y="247.11" width="15.635" height="15.635"/>
	</g>
</g>
<g>
</g>
<g>
</g>
<g>
</g>
<g>
</g>
<g>
</g>
<g>
</g>
<g>
</g>
<g>
</g>
<g>
</g>
<g>
</g>
<g>
</g>
<g>
</g>
<g>
</g>
<g>
</g>
<g>
</g>
</svg>
