<?xml version="1.0" encoding="iso-8859-1"?>
<!-- Generator: Adobe Illustrator 19.0.0, SVG Export Plug-In . SVG Version: 6.00 Build 0)  -->
<svg xmlns="http://www.w3.org/2000/svg" xmlns:xlink="http://www.w3.org/1999/xlink" version="1.1" id="Layer_1" x="0px" y="0px" viewBox="0 0 512 512" style="enable-background:new 0 0 512 512;" xml:space="preserve">
<g>
	<g>
		<polygon points="178.845,435.281 178.845,462.309 169.314,456.568 159.796,462.305 159.796,435.281 144.123,435.281     144.123,490.049 169.316,474.866 194.518,490.045 194.518,435.281   "/>
	</g>
</g>
<g>
	<g>
		<path d="M351.219,94.887L460.12,46.161V58.3h15.674V21.978L274.18,112.187h-37.409L36.206,21.951v36.35h15.673V46.19    l107.549,48.387L0,57.901v229.068h15.673V77.59l211.578,48.672v297.386L15.673,374.976v-35.24H0v47.717l234.199,53.876h43.603    L512,387.453V57.901L351.219,94.887z M496.327,374.976L283.69,423.892v-120.75h-15.673v122.514h-25.091V127.86h25.091v122.514    h15.673V126.506L496.327,77.59V374.976z"/>
	</g>
</g>
<g>
	<g>
		<rect x="268.02" y="268.66" width="15.673" height="15.673"/>
	</g>
</g>
<g>
	<g>
		<rect y="305.26" width="15.673" height="15.673"/>
	</g>
</g>
<g>
</g>
<g>
</g>
<g>
</g>
<g>
</g>
<g>
</g>
<g>
</g>
<g>
</g>
<g>
</g>
<g>
</g>
<g>
</g>
<g>
</g>
<g>
</g>
<g>
</g>
<g>
</g>
<g>
</g>
</svg>
