<?xml version="1.0" encoding="iso-8859-1"?>
<!-- Generator: Adobe Illustrator 19.0.0, SVG Export Plug-In . SVG Version: 6.00 Build 0)  -->
<svg xmlns="http://www.w3.org/2000/svg" xmlns:xlink="http://www.w3.org/1999/xlink" version="1.1" id="Layer_1" x="0px" y="0px" viewBox="0 0 512 512" style="enable-background:new 0 0 512 512;" xml:space="preserve">
<g>
	<g>
		<circle cx="256" cy="291.09" r="7.837"/>
	</g>
</g>
<g>
	<g>
		<circle cx="256" cy="332.9" r="7.837"/>
	</g>
</g>
<g>
	<g>
		<circle cx="91.43" cy="301.78" r="12.539"/>
	</g>
</g>
<g>
	<g>
		<circle cx="420.57" cy="301.78" r="12.539"/>
	</g>
</g>
<g>
	<g>
		<rect x="214.9" y="241.42" width="83.59" height="15.673"/>
	</g>
</g>
<g>
	<g>
		<path d="M91.429,163.992c-18.437,0-33.437,15-33.437,33.437c0,18.437,15,33.437,33.437,33.437s33.437-15,33.437-33.437    C124.865,178.991,109.866,163.992,91.429,163.992z M91.429,215.192c-9.795,0-17.763-7.968-17.763-17.763    c0-9.795,7.968-17.763,17.763-17.763s17.763,7.968,17.763,17.763C109.192,207.224,101.223,215.192,91.429,215.192z"/>
	</g>
</g>
<g>
	<g>
		<path d="M91.429,255.796c-25.351,0-45.976,20.624-45.976,45.975c0,25.35,20.624,45.976,45.976,45.976s45.976-20.624,45.976-45.976    C137.404,276.42,116.78,255.796,91.429,255.796z M91.429,332.074c-16.709,0-30.302-13.594-30.302-30.302    S74.72,271.47,91.429,271.47s30.302,13.594,30.302,30.302S108.138,332.074,91.429,332.074z"/>
	</g>
</g>
<g>
	<g>
		<rect y="183.85" width="15.673" height="15.673"/>
	</g>
</g>
<g>
	<g>
		<polygon points="329.143,120.163 329.143,190.171 234.123,190.171 234.123,205.845 329.143,205.845 329.143,376.163     182.857,376.163 182.857,120.163 0,120.163 0,165.568 15.673,165.568 15.673,135.837 167.184,135.837 167.184,376.163     15.673,376.163 15.673,218.336 0,218.336 0,391.837 376.79,391.837 376.79,376.163 344.816,376.163 344.816,135.837     496.327,135.837 496.327,376.163 463.516,376.163 463.516,391.837 512,391.837 512,120.163   "/>
	</g>
</g>
<g>
	<g>
		<path d="M420.571,163.992c-18.437,0-33.437,15-33.437,33.437c0,18.437,15,33.437,33.437,33.437s33.437-15,33.437-33.437    C454.008,178.991,439.009,163.992,420.571,163.992z M420.571,215.192c-9.795,0-17.763-7.968-17.763-17.763    c0-9.795,7.968-17.763,17.763-17.763c9.795,0,17.763,7.968,17.763,17.763C438.334,207.224,430.366,215.192,420.571,215.192z"/>
	</g>
</g>
<g>
	<g>
		<path d="M420.571,255.796c-25.351,0-45.975,20.624-45.975,45.975s20.624,45.976,45.975,45.976s45.976-20.624,45.976-45.976    C466.547,276.42,445.923,255.796,420.571,255.796z M420.571,332.074c-16.708,0-30.302-13.594-30.302-30.302    s13.594-30.302,30.302-30.302s30.302,13.594,30.302,30.302C450.873,318.48,437.279,332.074,420.571,332.074z"/>
	</g>
</g>
<g>
	<g>
		<rect x="395.08" y="376.16" width="15.673" height="15.673"/>
	</g>
</g>
<g>
	<g>
		<rect x="429.56" y="376.16" width="15.673" height="15.673"/>
	</g>
</g>
<g>
	<g>
		<rect x="200.11" y="190.17" width="15.459" height="15.673"/>
	</g>
</g>
<g>
</g>
<g>
</g>
<g>
</g>
<g>
</g>
<g>
</g>
<g>
</g>
<g>
</g>
<g>
</g>
<g>
</g>
<g>
</g>
<g>
</g>
<g>
</g>
<g>
</g>
<g>
</g>
<g>
</g>
</svg>
