<?xml version="1.0" encoding="iso-8859-1"?>
<!-- Generator: Adobe Illustrator 19.0.0, SVG Export Plug-In . SVG Version: 6.00 Build 0)  -->
<svg xmlns="http://www.w3.org/2000/svg" xmlns:xlink="http://www.w3.org/1999/xlink" version="1.1" id="Layer_1" x="0px" y="0px" viewBox="0 0 512 512" style="enable-background:new 0 0 512 512;" xml:space="preserve">
<g>
	<g>
		<path d="M327.746,443.702c-12.963,0-23.51,10.546-23.51,23.51c0,12.963,10.547,23.51,23.51,23.51s23.51-10.546,23.51-23.51    C351.257,454.248,340.71,443.702,327.746,443.702z M327.746,475.049c-4.322,0-7.837-3.515-7.837-7.837    c0-4.322,3.515-7.837,7.837-7.837c4.322,0,7.837,3.515,7.837,7.837C335.584,471.534,332.069,475.049,327.746,475.049z"/>
	</g>
</g>
<g>
	<g>
		<rect x="280.72" y="36.518" width="15.458" height="15.674"/>
	</g>
</g>
<g>
	<g>
		<rect x="314.73" y="36.518" width="60.03" height="15.674"/>
	</g>
</g>
<g>
	<g>
		<path d="M175.755,0v124.616h15.673V15.673h272.635v58.228H248.957v15.673h215.106v332.85H191.429v-35.041h-15.673V512h303.982V0    H175.755z M464.064,496.327H191.428v-58.228h272.635V496.327z"/>
	</g>
</g>
<g>
	<g>
		<polygon points="282.252,204.812 282.252,220.485 319.9,220.485 319.9,291.515 176.164,291.515 176.164,340.95 58.968,256     176.164,171.05 176.164,220.485 229.486,220.485 229.486,204.812 191.837,204.812 191.837,140.33 32.262,256 191.837,371.67     191.837,307.189 335.574,307.189 335.574,204.812   "/>
	</g>
</g>
<g>
	<g>
		<rect x="248.289" y="204.81" width="15.673" height="15.674"/>
	</g>
</g>
<g>
	<g>
		<rect x="214.949" y="73.906" width="15.458" height="15.673"/>
	</g>
</g>
<g>
</g>
<g>
</g>
<g>
</g>
<g>
</g>
<g>
</g>
<g>
</g>
<g>
</g>
<g>
</g>
<g>
</g>
<g>
</g>
<g>
</g>
<g>
</g>
<g>
</g>
<g>
</g>
<g>
</g>
</svg>
