<?xml version="1.0" encoding="iso-8859-1"?>
<!-- Generator: Adobe Illustrator 19.0.0, SVG Export Plug-In . SVG Version: 6.00 Build 0)  -->
<svg xmlns="http://www.w3.org/2000/svg" xmlns:xlink="http://www.w3.org/1999/xlink" version="1.1" id="Layer_1" x="0px" y="0px" viewBox="0 0 512 512" style="enable-background:new 0 0 512 512;" xml:space="preserve">
<g>
	<g>
		<path d="M184.253,443.702c-12.964,0-23.51,10.546-23.51,23.51c0,12.964,10.546,23.51,23.51,23.51s23.51-10.546,23.51-23.51    C207.763,454.248,197.217,443.702,184.253,443.702z M184.253,475.049c-4.322,0-7.837-3.515-7.837-7.837    c0-4.322,3.515-7.837,7.837-7.837c4.322,0,7.837,3.515,7.837,7.837C192.09,471.533,188.575,475.049,184.253,475.049z"/>
	</g>
</g>
<g>
	<g>
		<rect x="137.24" y="36.518" width="15.459" height="15.674"/>
	</g>
</g>
<g>
	<g>
		<rect x="171.24" y="36.518" width="60.03" height="15.674"/>
	</g>
</g>
<g>
	<g>
		<path d="M32.262,0v512h303.981V387.384h-15.674v35.041H47.936V89.575h215.101V73.901H47.936V15.673H320.57v108.942h15.673V0    H32.262z M320.569,438.099v58.228H47.936v-58.228H320.569z"/>
	</g>
</g>
<g>
	<g>
		<rect x="281.59" y="73.906" width="15.459" height="15.673"/>
	</g>
</g>
<g>
	<g>
		<polygon points="479.738,256 320.162,140.33 320.162,204.812 282.514,204.812 282.514,220.485 335.835,220.485 335.835,171.05     453.031,256 335.835,340.95 335.835,291.515 192.099,291.515 192.099,220.485 229.747,220.485 229.747,204.812 176.426,204.812     176.426,307.189 320.162,307.189 320.162,371.67   "/>
	</g>
</g>
<g>
	<g>
		<rect x="248.03" y="204.81" width="15.673" height="15.674"/>
	</g>
</g>
<g>
</g>
<g>
</g>
<g>
</g>
<g>
</g>
<g>
</g>
<g>
</g>
<g>
</g>
<g>
</g>
<g>
</g>
<g>
</g>
<g>
</g>
<g>
</g>
<g>
</g>
<g>
</g>
<g>
</g>
</svg>
