<?xml version="1.0" encoding="iso-8859-1"?>
<!-- Generator: Adobe Illustrator 19.0.0, SVG Export Plug-In . SVG Version: 6.00 Build 0)  -->
<svg xmlns="http://www.w3.org/2000/svg" xmlns:xlink="http://www.w3.org/1999/xlink" version="1.1" id="Layer_1" x="0px" y="0px" viewBox="0 0 512 512" style="enable-background:new 0 0 512 512;" xml:space="preserve">
<g>
	<g>
		<circle cx="345.172" cy="86.204" r="7.837"/>
	</g>
</g>
<g>
	<g>
		<path d="M472.816,402.288V159.346c0-15.844-12.891-28.734-28.735-28.734h-50.33v-15.673h7.837    c15.844,0,28.735-12.891,28.735-28.735s-12.891-28.735-28.735-28.735h-62.694c-15.844,0-28.735,12.891-28.735,28.735    s12.891,28.735,28.735,28.735h7.837v15.673H67.918c-15.844,0-28.735,12.89-28.735,28.734v242.942H0v52.243h338.103v-15.673H15.673    v-20.896h480.653v20.896h-71.497v15.673H512v-52.243H472.816z M338.895,99.265c-7.203,0-13.061-5.859-13.061-13.061    c0-7.203,5.859-13.061,13.061-13.061h62.694c7.203,0,13.061,5.859,13.061,13.061c0,7.202-5.859,13.061-13.061,13.061H338.895z     M378.079,114.939v15.673h-15.673v-15.673H378.079z M457.143,402.288H54.857V159.346c0-7.201,5.859-13.06,13.061-13.06h376.163    c7.203,0,13.061,5.859,13.061,13.06V402.288z"/>
	</g>
</g>
<g>
	<g>
		<rect x="356.383" y="438.857" width="15.673" height="15.673"/>
	</g>
</g>
<g>
	<g>
		<rect x="390.865" y="438.857" width="15.673" height="15.673"/>
	</g>
</g>
<g>
	<g>
		<path d="M296.287,305.252c-4.664-0.868-8.803-3.163-11.969-6.638c-1.899-2.085-2.01-5.269-0.264-7.572    c7.446-9.821,11.716-22.803,11.716-35.617c0-25.096-16.717-43.31-39.75-43.31h-0.039c-23.033,0-39.75,18.215-39.75,43.31    c0,12.815,4.271,25.795,11.716,35.617c1.746,2.303,1.634,5.488-0.265,7.572c-3.165,3.474-7.304,5.769-11.969,6.638    c-17.524,3.264-30.242,18.438-30.242,36.082v26.469h141.061v-26.469C326.531,323.691,313.812,308.517,296.287,305.252z     M310.857,352.131H201.143v-10.796c0-10.097,7.334-18.791,17.437-20.674c8.049-1.498,15.202-5.47,20.686-11.489    c6.988-7.668,7.48-19.275,1.17-27.599c-5.343-7.047-8.533-16.822-8.533-26.148c0-16.272,9.9-27.636,24.077-27.636h0.039    c14.175,0,24.077,11.364,24.077,27.636c0,9.327-3.19,19.101-8.533,26.148c-6.31,8.324-5.818,19.93,1.169,27.599    c5.485,6.019,12.638,9.991,20.686,11.489c10.105,1.883,17.439,10.578,17.439,20.674V352.131z"/>
	</g>
</g>
<g>
	<g>
		<polygon points="70.531,161.957 70.531,355.206 86.204,355.206 86.204,177.631 425.796,177.631 425.796,389.215 441.469,389.215     441.469,161.957   "/>
	</g>
</g>
<g>
	<g>
		<rect x="70.531" y="373.76" width="15.673" height="15.459"/>
	</g>
</g>
<g>
</g>
<g>
</g>
<g>
</g>
<g>
</g>
<g>
</g>
<g>
</g>
<g>
</g>
<g>
</g>
<g>
</g>
<g>
</g>
<g>
</g>
<g>
</g>
<g>
</g>
<g>
</g>
<g>
</g>
</svg>
