<?xml version="1.0" encoding="iso-8859-1"?>
<!-- Generator: Adobe Illustrator 19.0.0, SVG Export Plug-In . SVG Version: 6.00 Build 0)  -->
<svg xmlns="http://www.w3.org/2000/svg" xmlns:xlink="http://www.w3.org/1999/xlink" version="1.1" id="Layer_1" x="0px" y="0px" viewBox="0 0 512 512" style="enable-background:new 0 0 512 512;" xml:space="preserve">
<g>
	<g>
		<path d="M450.198,151.634l-13.091,8.616c2.558,3.887,5.003,7.867,7.265,11.826l13.608-7.777    C455.556,160.055,452.937,155.794,450.198,151.634z"/>
	</g>
</g>
<g>
	<g>
		<path d="M465.268,178.117l-14.098,6.847c14.363,29.573,21.646,61.383,21.646,94.545c0,119.553-97.263,216.816-216.816,216.816    S39.184,399.063,39.184,279.51S136.447,62.694,256,62.694c34.208,0,66.934,7.733,97.267,22.987    c28.933,14.549,54.711,35.838,74.546,61.565l12.412-9.569c-21.261-27.577-48.895-50.4-79.917-65.999    c-18.209-9.156-37.22-15.782-56.86-19.847V40.918h41.743V25.245h-41.743V0H208.55v25.245h-41.743v15.673h41.743v10.934    c-44.002,9.078-84.44,30.758-116.946,63.262C47.694,159.027,23.51,217.41,23.51,279.51s24.184,120.483,68.095,164.395    C135.517,487.816,193.9,512,256,512s120.483-24.184,164.395-68.095c43.911-43.912,68.095-102.294,68.095-164.395    C488.49,243.955,480.677,209.842,465.268,178.117z M224.225,15.673h63.551v33.495C277.334,47.752,266.737,47.02,256,47.02    c-10.723,0-21.329,0.739-31.775,2.157V15.673z"/>
	</g>
</g>
<g>
	<g>
		<path d="M256,96.653c-100.827,0-182.857,82.03-182.857,182.857S155.173,462.367,256,462.367s182.857-82.03,182.857-182.857    S356.827,96.653,256,96.653z M379.573,392l-12.745-12.745l-11.083,11.083l12.745,12.745    c-27.917,25.435-64.453,41.557-104.653,43.422v-18.097h-15.673v18.097c-40.199-1.865-76.736-17.987-104.653-43.422l12.745-12.745    l-11.083-11.083L132.427,392c-25.435-27.916-41.558-64.453-43.422-104.653h18.097v-15.673H89.005    c1.864-40.199,17.987-76.736,43.422-104.653l12.745,12.745l11.083-11.083l-12.745-12.745    c27.917-25.435,64.453-41.557,104.653-43.422v18.097h15.673v-18.097c40.199,1.864,76.736,17.986,104.653,43.422l-12.745,12.745    l11.083,11.083l12.745-12.745c25.435,27.917,41.557,64.453,43.422,104.653h-18.097v15.673h18.097    C421.13,327.546,405.008,364.084,379.573,392z"/>
	</g>
</g>
<g>
	<g>
		<path d="M237.021,254.404l44.084,44.084L353.53,181.98L237.021,254.404z M278.223,273.439l-16.152-16.152l42.686-26.534    L278.223,273.439z"/>
	</g>
</g>
<g>
	<g>
		<path d="M230.894,260.532L158.47,377.04l116.508-72.424L230.894,260.532z M233.777,285.58l16.152,16.153l-42.686,26.533    L233.777,285.58z"/>
	</g>
</g>
<g>
	<g>
		<rect x="363.74" y="25.25" width="15.46" height="15.673"/>
	</g>
</g>
<g>
	<g>
		<rect x="132.8" y="25.25" width="15.46" height="15.673"/>
	</g>
</g>
<g>
</g>
<g>
</g>
<g>
</g>
<g>
</g>
<g>
</g>
<g>
</g>
<g>
</g>
<g>
</g>
<g>
</g>
<g>
</g>
<g>
</g>
<g>
</g>
<g>
</g>
<g>
</g>
<g>
</g>
</svg>
