<?xml version="1.0" encoding="iso-8859-1"?>
<!-- Generator: Adobe Illustrator 19.0.0, SVG Export Plug-In . SVG Version: 6.00 Build 0)  -->
<svg xmlns="http://www.w3.org/2000/svg" xmlns:xlink="http://www.w3.org/1999/xlink" version="1.1" id="Layer_1" x="0px" y="0px" viewBox="0 0 512 512" style="enable-background:new 0 0 512 512;" xml:space="preserve">
<g>
	<g>
		<path d="M188.086,109.725v63.539L256,221.194l67.914-47.931v-63.538H188.086z M256.001,202.01l-52.241-36.869v-39.743h104.48    v39.743h0.001L256.001,202.01z"/>
	</g>
</g>
<g>
	<g>
		<path d="M143.673,454.531V328.106h0.001c0-4.238,2.068-8.228,5.53-10.672l53.783-37.958c7.618-5.377,12.166-14.153,12.166-23.477    c0-9.324-4.547-18.1-12.166-23.477l-53.783-37.957c-3.463-2.445-5.531-6.434-5.531-10.673v-31.861H128v31.861    c0,9.324,4.548,18.1,12.166,23.478l53.783,37.958c3.514,2.479,5.53,6.37,5.53,10.67c0,4.301-2.016,8.191-5.53,10.671    l-53.783,37.959C132.547,310.006,128,318.783,128,328.106V454.53H91.428V512h329.143v-57.469H143.673z M404.899,496.327    L404.899,496.327H107.103v-26.122h297.796V496.327z"/>
	</g>
</g>
<g>
	<g>
		<path d="M256.001,290.806l-67.918,47.931v94.886h135.837v-94.886L256.001,290.806z M308.245,417.949h-104.49v-71.09L256,309.99    l52.245,36.869V417.949z"/>
	</g>
</g>
<g>
	<g>
		<path d="M91.429,0v57.469h276.898v126.424c0,4.238-2.067,8.228-5.531,10.672l-53.783,37.958    c-7.618,5.377-12.166,14.153-12.166,23.477s4.547,18.1,12.166,23.477l53.783,37.957c3.463,2.445,5.531,6.434,5.531,10.673v65.82    H384v-65.82c0-9.324-4.548-18.1-12.166-23.478l-53.783-37.958c-3.514-2.48-5.53-6.37-5.53-10.671c0-4.301,2.016-8.191,5.53-10.67    l53.783-37.959c7.618-5.377,12.166-14.153,12.166-23.477V57.469h36.571V0H91.429z M404.899,41.796L404.899,41.796H107.103V15.673    h297.796V41.796z"/>
	</g>
</g>
<g>
	<g>
		<rect x="368.33" y="412.74" width="15.673" height="15.673"/>
	</g>
</g>
<g>
	<g>
		<rect x="128" y="83.59" width="15.673" height="15.673"/>
	</g>
</g>
<g>
	<g>
		<rect x="128" y="118.07" width="15.673" height="15.673"/>
	</g>
</g>
<g>
</g>
<g>
</g>
<g>
</g>
<g>
</g>
<g>
</g>
<g>
</g>
<g>
</g>
<g>
</g>
<g>
</g>
<g>
</g>
<g>
</g>
<g>
</g>
<g>
</g>
<g>
</g>
<g>
</g>
</svg>
