<?xml version="1.0" encoding="iso-8859-1"?>
<!-- Generator: Adobe Illustrator 19.0.0, SVG Export Plug-In . SVG Version: 6.00 Build 0)  -->
<svg xmlns="http://www.w3.org/2000/svg" xmlns:xlink="http://www.w3.org/1999/xlink" version="1.1" id="Layer_1" x="0px" y="0px" viewBox="0 0 512 512" style="enable-background:new 0 0 512 512;" xml:space="preserve">
<g>
	<g>
		<polygon points="263.837,253.391 263.837,216.269 248.163,216.269 248.163,253.391 111.679,253.391 111.679,295.734     127.352,295.734 127.352,269.064 384.648,269.064 384.648,295.734 400.321,295.734 400.321,253.391   "/>
	</g>
</g>
<g>
	<g>
		<rect x="300.99" y="483.83" width="15.673" height="15.674"/>
	</g>
</g>
<g>
	<g>
		<rect x="468.31" y="483.83" width="15.673" height="15.674"/>
	</g>
</g>
<g>
	<g>
		<path d="M512,475.996v-167.19H272.98v167.19h83.461v7.837h-21.356v15.673h114.939v-15.673h-21.486v-7.837H512z M412.865,483.833    h-40.751v-7.837h40.751V483.833z M288.653,460.322V442.03h139.391v-15.673H288.653V324.479h207.673v101.878h-15.515v15.673h15.515    v18.292H288.653z"/>
	</g>
</g>
<g>
	<g>
		<rect x="446.85" y="426.36" width="15.673" height="15.673"/>
	</g>
</g>
<g>
	<g>
		<path d="M136.49,12.494v167.19h83.461v7.837h-21.356v15.673h114.939V187.52h-21.485v-7.837h83.461V12.494H136.49z M276.375,187.52    h-40.751v-7.837h40.751V187.52z M359.836,130.044h-15.515v15.673h15.515v18.292H152.163v-18.291h139.391v-15.673H152.163V28.167    h207.673V130.044z"/>
	</g>
</g>
<g>
	<g>
		<rect x="310.37" y="130.05" width="15.673" height="15.673"/>
	</g>
</g>
<g>
	<g>
		<rect x="164.5" y="187.52" width="15.673" height="15.673"/>
	</g>
</g>
<g>
	<g>
		<rect x="331.83" y="187.52" width="15.673" height="15.673"/>
	</g>
</g>
<g>
	<g>
		<path d="M239.02,475.996v-167.19H0v167.19h83.461v7.837H61.165v15.673h114.939v-15.673h-20.545v-7.837H239.02z M139.886,483.833    H99.135v-7.837h40.751V483.833z M15.673,460.322V442.03h139.391v-15.673H15.673V324.479h207.673v101.878h-15.515v15.673h15.515    v18.292H15.673z"/>
	</g>
</g>
<g>
	<g>
		<rect x="173.87" y="426.36" width="15.673" height="15.673"/>
	</g>
</g>
<g>
	<g>
		<rect x="27.07" y="483.83" width="15.673" height="15.674"/>
	</g>
</g>
<g>
	<g>
		<rect x="194.39" y="483.83" width="15.673" height="15.674"/>
	</g>
</g>
<g>
</g>
<g>
</g>
<g>
</g>
<g>
</g>
<g>
</g>
<g>
</g>
<g>
</g>
<g>
</g>
<g>
</g>
<g>
</g>
<g>
</g>
<g>
</g>
<g>
</g>
<g>
</g>
<g>
</g>
</svg>
