<?xml version="1.0" encoding="iso-8859-1"?>
<!-- Generator: Adobe Illustrator 19.0.0, SVG Export Plug-In . SVG Version: 6.00 Build 0)  -->
<svg xmlns="http://www.w3.org/2000/svg" xmlns:xlink="http://www.w3.org/1999/xlink" version="1.1" id="Layer_1" x="0px" y="0px" viewBox="0 0 512 512" style="enable-background:new 0 0 512 512;" xml:space="preserve">
<g>
	<g>
		<rect x="137.14" y="39.18" width="15.673" height="318.17"/>
	</g>
</g>
<g>
	<g>
		<path d="M361.814,293.066c0-20.121-14.388-37.431-34.21-41.162c-5.72-1.076-10.797-3.924-14.685-8.234    c-2.639-2.926-2.807-7.561-0.388-10.783c8.505-11.335,13.384-26.321,13.384-41.117c0-28.776-18.959-49.664-45.08-49.664h-0.046    c-26.121,0-45.08,20.886-45.08,49.664c0,14.796,4.879,29.782,13.385,41.118c2.418,3.221,2.251,7.857-0.389,10.783    c-3.888,4.31-8.966,7.158-14.685,8.234c-19.823,3.73-34.21,21.041-34.21,41.162v29.807h162.005v-29.808H361.814z M346.141,307.2    h-0.001H215.482v-14.134c0-12.588,9.015-23.421,21.436-25.759c9.12-1.717,17.22-6.26,23.425-13.14    c7.692-8.527,8.232-21.434,1.286-30.689c-6.417-8.551-10.247-20.405-10.247-31.709c0-20.013,12.093-33.991,29.407-33.991h0.046    c17.314,0,29.407,13.978,29.407,33.991c0,11.305-3.831,23.159-10.247,31.709c-6.946,9.255-6.405,22.161,1.286,30.689    c6.205,6.88,14.305,11.424,23.424,13.14c12.421,2.337,21.436,13.171,21.436,25.759V307.2z"/>
	</g>
</g>
<g>
	<g>
		<path d="M437.557,464.98v-15.674h-13.072V15.673h13.071V0H103.177C87.333,0,74.444,12.89,74.444,28.735v451.918    c0,17.285,14.062,31.347,31.347,31.347h331.766v-15.673h-33.983V464.98H437.557z M387.9,496.327H105.791    c-8.642,0-15.673-7.031-15.673-15.673c0-4.187,1.63-8.123,4.59-11.082c2.961-2.96,6.897-4.591,11.083-4.591H387.9V496.327z     M105.791,449.306c-5.593,0-10.959,1.462-15.673,4.193V28.735c0-7.202,5.859-13.061,13.061-13.061h305.633v433.632h-0.001H105.791    z"/>
	</g>
</g>
<g>
	<g>
		<rect x="137.14" y="375.64" width="15.673" height="15.673"/>
	</g>
</g>
<g>
	<g>
		<rect x="137.14" y="410.12" width="15.673" height="15.673"/>
	</g>
</g>
<g>
</g>
<g>
</g>
<g>
</g>
<g>
</g>
<g>
</g>
<g>
</g>
<g>
</g>
<g>
</g>
<g>
</g>
<g>
</g>
<g>
</g>
<g>
</g>
<g>
</g>
<g>
</g>
<g>
</g>
</svg>
