<?xml version="1.0" encoding="iso-8859-1"?>
<!-- Generator: Adobe Illustrator 19.0.0, SVG Export Plug-In . SVG Version: 6.00 Build 0)  -->
<svg xmlns="http://www.w3.org/2000/svg" xmlns:xlink="http://www.w3.org/1999/xlink" version="1.1" id="Layer_1" x="0px" y="0px" viewBox="0 0 512 512" style="enable-background:new 0 0 512 512;" xml:space="preserve">
<g>
	<g>
		
			<rect x="289.826" y="309.485" transform="matrix(0.7071 -0.7071 0.7071 0.7071 -137.1971 303.4219)" width="15.676" height="15.676"/>
	</g>
</g>
<g>
	<g>
		<path d="M245.157,70.621c-48.12-48.12-126.417-48.12-174.537,0c-23.311,23.311-36.148,54.303-36.148,87.269    s12.837,63.958,36.148,87.268c24.06,24.06,55.665,36.09,87.268,36.09c31.603,0,63.208-12.03,87.268-36.09    C293.278,197.039,293.278,118.742,245.157,70.621z M234.074,234.074c-42.008,42.009-110.36,42.008-152.368,0    c-20.35-20.349-31.556-47.406-31.556-76.184c0-28.778,11.207-55.835,31.556-76.184C102.713,60.699,130.297,50.2,157.89,50.2    c27.587,0,55.183,10.505,76.184,31.506C276.08,123.714,276.08,192.065,234.074,234.074z"/>
	</g>
</g>
<g>
	<g>
		<path d="M104.529,104.53L93.445,93.446c-17.214,17.213-26.694,40.1-26.694,64.443s9.48,47.23,26.694,64.443l11.084-11.084    c-14.253-14.253-22.102-33.203-22.102-53.359C82.427,137.732,90.277,118.782,104.529,104.53z"/>
	</g>
</g>
<g>
	<g>
		<path d="M501.929,453.303l-35.102-35.102l-11.084,11.084l35.102,35.102c3.533,3.533,5.48,8.232,5.48,13.229    s-1.946,9.695-5.48,13.229c-3.533,3.533-8.232,5.48-13.229,5.48s-9.696-1.946-13.229-5.48L343.635,370.094l26.459-26.459    l48.331,48.331l11.084-11.084l-59.415-59.415l-8.95,8.95L283.9,253.173c20.725-27.292,31.952-60.423,31.952-95.283    c0-42.194-16.431-81.862-46.266-111.697c-61.589-61.589-161.803-61.59-223.393,0s-61.59,161.804,0,223.393    c29.835,29.835,69.503,46.266,111.697,46.266c34.861,0,67.992-11.227,95.283-31.952l20.487,20.488l11.084-11.084l-19.527-19.527    c1.476-1.369,2.937-2.76,4.368-4.191c1.432-1.432,2.822-2.892,4.191-4.367l76.283,76.282l-8.559,8.559l-19.439-19.439    l-11.084,11.084l19.439,19.439l-8.95,8.95l131.835,131.835C459.795,508.423,468.43,512,477.615,512s17.819-3.577,24.313-10.071    c6.496-6.493,10.073-15.128,10.073-24.312C512,468.432,508.423,459.797,501.929,453.303z M258.501,258.502    c-26.874,26.875-62.606,41.676-100.612,41.676c-38.005,0-73.738-14.801-100.612-41.676S15.603,195.896,15.603,157.89    c0-38.006,14.8-73.738,41.673-100.612c26.873-26.873,62.606-41.674,100.612-41.674c38.006,0,73.738,14.801,100.612,41.674    c26.874,26.874,41.675,62.606,41.675,100.612C300.175,195.896,285.375,231.628,258.501,258.502z"/>
	</g>
</g>
<g>
	<g>
		
			<rect x="434.604" y="397.054" transform="matrix(0.7071 -0.7071 0.7071 0.7071 -156.7138 431.4454)" width="15.676" height="15.676"/>
	</g>
</g>
<g>
</g>
<g>
</g>
<g>
</g>
<g>
</g>
<g>
</g>
<g>
</g>
<g>
</g>
<g>
</g>
<g>
</g>
<g>
</g>
<g>
</g>
<g>
</g>
<g>
</g>
<g>
</g>
<g>
</g>
</svg>
