<?xml version="1.0" encoding="iso-8859-1"?>
<!-- Generator: Adobe Illustrator 19.0.0, SVG Export Plug-In . SVG Version: 6.00 Build 0)  -->
<svg xmlns="http://www.w3.org/2000/svg" xmlns:xlink="http://www.w3.org/1999/xlink" version="1.1" id="Layer_1" x="0px" y="0px" viewBox="0 0 512 512" style="enable-background:new 0 0 512 512;" xml:space="preserve">
<g>
	<g>
		<rect x="208.98" y="35.27" width="15.458" height="15.673"/>
	</g>
</g>
<g>
	<g>
		<rect x="242.99" y="35.27" width="60.03" height="15.673"/>
	</g>
</g>
<g>
	<g>
		<rect x="431.02" y="132.89" width="15.673" height="15.673"/>
	</g>
</g>
<g>
	<g>
		<path d="M446.694,114.594V28.735C446.694,12.89,433.803,0,417.959,0H94.041C78.197,0,65.306,12.89,65.306,28.735v454.531    C65.306,499.11,78.197,512,94.041,512h323.918c15.844,0,28.735-12.89,28.735-28.735V167.372H431.02v315.894    c0,7.202-5.859,13.061-13.061,13.061H94.041c-7.202,0-13.061-5.859-13.061-13.061V28.735c0-7.202,5.859-13.061,13.061-13.061    h323.918c7.203,0,13.061,5.859,13.061,13.061v85.859H446.694z"/>
	</g>
</g>
<g>
	<g>
		<rect x="159.35" y="161.09" width="193.31" height="15.673"/>
	</g>
</g>
<g>
	<g>
		<rect x="159.35" y="248.16" width="193.31" height="15.673"/>
	</g>
</g>
<g>
	<g>
		<rect x="159.35" y="291.7" width="193.31" height="15.673"/>
	</g>
</g>
<g>
	<g>
		<rect x="159.35" y="335.24" width="124.86" height="15.673"/>
	</g>
</g>
<g>
	<g>
		<rect x="193.83" y="204.62" width="158.82" height="15.673"/>
	</g>
</g>
<g>
	<g>
		<rect x="159.35" y="204.62" width="15.673" height="15.673"/>
	</g>
</g>
<g>
	<g>
		<rect x="302.5" y="335.24" width="15.673" height="15.673"/>
	</g>
</g>
<g>
	<g>
		<rect x="336.98" y="335.24" width="15.673" height="15.673"/>
	</g>
</g>
<g>
	<g>
		<polygon points="96.653,70.531 96.653,441.469 125.398,441.469 125.398,425.796 112.327,425.796 112.327,86.204 399.673,86.204     399.673,425.796 180.276,425.796 180.276,441.469 415.347,441.469 415.347,70.531   "/>
	</g>
</g>
<g>
	<g>
		<rect x="146.32" y="425.8" width="15.673" height="15.673"/>
	</g>
</g>
<g>
	<g>
		<path d="M256,445.388c-12.963,0-23.51,10.546-23.51,23.51c0,12.964,10.547,23.51,23.51,23.51s23.51-10.546,23.51-23.51    C279.51,455.934,268.963,445.388,256,445.388z M256,476.735c-4.322,0-7.837-3.515-7.837-7.837c0-4.322,3.515-7.837,7.837-7.837    s7.837,3.515,7.837,7.837C263.837,473.22,260.322,476.735,256,476.735z"/>
	</g>
</g>
<g>
</g>
<g>
</g>
<g>
</g>
<g>
</g>
<g>
</g>
<g>
</g>
<g>
</g>
<g>
</g>
<g>
</g>
<g>
</g>
<g>
</g>
<g>
</g>
<g>
</g>
<g>
</g>
<g>
</g>
</svg>
