<?xml version="1.0" encoding="iso-8859-1"?>
<!-- Generator: Adobe Illustrator 19.0.0, SVG Export Plug-In . SVG Version: 6.00 Build 0)  -->
<svg xmlns="http://www.w3.org/2000/svg" xmlns:xlink="http://www.w3.org/1999/xlink" version="1.1" id="Layer_1" x="0px" y="0px" viewBox="0 0 512 512" style="enable-background:new 0 0 512 512;" xml:space="preserve">
<g>
	<g>
		<polygon points="423.186,62.736 423.186,78.409 436.264,78.409 436.264,496.327 423.186,496.327 423.186,512 451.939,512     451.939,62.736   "/>
	</g>
</g>
<g>
	<g>
		<path d="M141.168,0L60.071,81.099v149.824h15.673V92.182h76.508V15.673h242.185v480.653H75.743V317.649H60.071V512h350.041V0    H141.168z M136.577,76.508H86.825l49.752-49.752V76.508z"/>
	</g>
</g>
<g>
	<g>
		<rect x="244.241" y="249.54" width="112.33" height="15.673"/>
	</g>
</g>
<g>
	<g>
		<rect x="244.241" y="336.61" width="112.33" height="15.673"/>
	</g>
</g>
<g>
	<g>
		<rect x="244.241" y="380.15" width="112.33" height="15.673"/>
	</g>
</g>
<g>
	<g>
		<rect x="244.241" y="423.7" width="112.33" height="15.673"/>
	</g>
</g>
<g>
	<g>
		<rect x="244.241" y="293.08" width="77.84" height="15.673"/>
	</g>
</g>
<g>
	<g>
		<rect x="340.892" y="293.08" width="15.673" height="15.673"/>
	</g>
</g>
<g>
	<g>
		<rect x="113.611" y="249.54" width="112.33" height="15.673"/>
	</g>
</g>
<g>
	<g>
		<rect x="113.611" y="293.08" width="112.33" height="15.673"/>
	</g>
</g>
<g>
	<g>
		<path d="M113.618,336.618v102.748h112.327V336.618H113.618z M210.272,423.692h-80.98v-71.401h80.98V423.692z"/>
	</g>
</g>
<g>
	<g>
		<path d="M113.618,122.414v102.749h242.945V122.414H113.618z M340.889,209.488H129.291v-71.402h211.598V209.488z"/>
	</g>
</g>
<g>
	<g>
		<rect x="60.061" y="249.21" width="15.673" height="15.673"/>
	</g>
</g>
<g>
	<g>
		<rect x="60.061" y="283.69" width="15.673" height="15.673"/>
	</g>
</g>
<g>
</g>
<g>
</g>
<g>
</g>
<g>
</g>
<g>
</g>
<g>
</g>
<g>
</g>
<g>
</g>
<g>
</g>
<g>
</g>
<g>
</g>
<g>
</g>
<g>
</g>
<g>
</g>
<g>
</g>
</svg>
