<?xml version="1.0" encoding="iso-8859-1"?>
<!-- Generator: Adobe Illustrator 19.0.0, SVG Export Plug-In . SVG Version: 6.00 Build 0)  -->
<svg xmlns="http://www.w3.org/2000/svg" xmlns:xlink="http://www.w3.org/1999/xlink" version="1.1" id="Layer_1" x="0px" y="0px" viewBox="0 0 512.003 512.003" style="enable-background:new 0 0 512.003 512.003;" xml:space="preserve">
<g>
	<g>
		<path d="M445.472,410.237V363.5c0-44.388-31.735-82.581-75.459-90.815c-16.718-3.147-31.564-11.478-42.934-24.09    c-10.373-11.508-11.058-28.984-1.63-41.557c19.638-26.182,30.9-60.863,30.9-95.149c0-32.574-10.089-60.649-29.176-81.189    c-18.301-19.697-43.558-30.544-71.116-30.544h-0.114c-27.558,0-52.814,10.847-71.117,30.543    c-19.087,20.541-29.176,48.615-29.176,81.189c0,34.286,11.262,68.967,30.9,95.149c9.429,12.572,8.744,30.049-1.63,41.557    c-11.37,12.612-26.215,20.943-42.934,24.091c-43.725,8.233-75.459,46.426-75.459,90.815v46.736H33.51v15.673h193.755v85.937    h57.469v-117.57h31.347v-94.041H195.918v94.041h31.347v15.96H82.201V363.5c0-36.857,26.363-68.572,62.685-75.412    c20.12-3.788,37.987-13.816,51.674-28.999c15.379-17.059,16.44-42.905,2.528-61.455c-17.386-23.18-27.765-55.234-27.765-85.745    c0-28.546,8.639-52.93,24.984-70.519c15.304-16.47,36.484-25.539,59.635-25.539h0.114c23.152,0,44.332,9.07,59.635,25.539    c16.345,17.589,24.983,41.974,24.983,70.519c0,30.511-10.38,62.565-27.765,85.745c-13.913,18.551-12.85,44.397,2.528,61.455    c13.686,15.183,31.555,25.211,51.674,29c36.323,6.839,62.686,38.555,62.686,75.411v46.736h-97.555v15.673H478.49v-15.673H445.472z     M289.961,315.909h10.447v62.694h-10.447V315.909z M269.061,496.174h-26.122V394.296h26.122V496.174z M211.592,378.604v-62.694    h62.696v62.694H211.592z"/>
	</g>
</g>
<g>
	<g>
		<rect x="299.38" y="410.242" width="17.577" height="15.673"/>
	</g>
</g>
<g>
	<g>
		<rect x="496.33" y="410.242" width="15.673" height="15.673"/>
	</g>
</g>
<g>
	<g>
		<path d="M279.51,247.992h-47.02c-10.082,0-18.286,8.203-18.286,18.286v24.021h15.673v-24.021c0-1.44,1.171-2.612,2.612-2.612    h47.02c1.441,0,2.612,1.172,2.612,2.612v24.021h15.673v-24.021C297.796,256.195,289.592,247.992,279.51,247.992z"/>
	</g>
</g>
<g>
	<g>
		<rect y="410.242" width="15.673" height="15.673"/>
	</g>
</g>
<g>
</g>
<g>
</g>
<g>
</g>
<g>
</g>
<g>
</g>
<g>
</g>
<g>
</g>
<g>
</g>
<g>
</g>
<g>
</g>
<g>
</g>
<g>
</g>
<g>
</g>
<g>
</g>
<g>
</g>
</svg>
