<?xml version="1.0" encoding="iso-8859-1"?>
<!-- Generator: Adobe Illustrator 19.0.0, SVG Export Plug-In . SVG Version: 6.00 Build 0)  -->
<svg xmlns="http://www.w3.org/2000/svg" xmlns:xlink="http://www.w3.org/1999/xlink" version="1.1" id="Layer_1" x="0px" y="0px" viewBox="0 0 512.003 512.003" style="enable-background:new 0 0 512.003 512.003;" xml:space="preserve">
<g>
	<g>
		<path d="M374.347,150.341C370.498,88.401,318.892,39.187,256,39.187c-62.891,0-114.497,49.215-118.347,111.153    c-17.521,2.616-31.003,17.762-31.003,36c0,20.073,16.33,36.403,36.403,36.403h10.034v-64.97    c0-56.747,46.167-102.914,102.914-102.914s102.914,46.167,102.914,102.914v74.389c0,4.53-3.078,8.427-7.486,9.477l-16.649,3.966    c10.109-20.666,15.751-44.437,15.751-67.549c0-30.653-9.5-57.08-27.471-76.421c-17.246-18.56-41.042-28.78-67.005-28.78h-0.106    c-25.964,0-49.76,10.221-67.005,28.78c-17.972,19.341-27.472,45.767-27.472,76.421c0,32.229,10.589,64.836,29.052,89.461    c8.694,11.592,8.066,27.706-1.494,38.315c-10.58,11.737-24.398,19.49-39.964,22.42c-19.953,3.758-38.073,14.41-51.022,29.995    c-12.956,15.593-20.091,35.336-20.091,55.593v43.302H33.959v15.673h113.672v-15.672H93.624v-43.302    c0-16.604,5.85-32.79,16.473-45.574c10.623-12.784,25.491-21.524,41.867-24.607c18.968-3.57,35.81-13.02,48.708-27.33    c14.562-16.16,15.567-40.642,2.391-58.211c-16.229-21.645-25.919-51.573-25.919-80.058c0-26.625,8.05-49.361,23.28-65.751    c14.246-15.332,33.965-23.776,55.524-23.776h0.106c21.558,0,41.277,8.444,55.524,23.776c15.229,16.39,23.279,39.126,23.279,65.751    c0,25.368-7.539,51.587-20.729,72.469l-38.73,9.227l3.631,15.246l76.031-18.113c11.497-2.74,19.527-12.907,19.527-24.724v-9.857    c17.405-2.718,30.763-17.811,30.763-35.967C405.35,168.104,391.868,152.958,374.347,150.341z M137.412,206.29    c-8.699-2.462-15.09-10.474-15.09-19.95c0-9.476,6.392-17.487,15.09-19.95V206.29z M374.589,206.29v-39.901    c8.697,2.462,15.089,10.474,15.089,19.95S383.286,203.828,374.589,206.29z"/>
	</g>
</g>
<g>
	<g>
		<path d="M434.05,457.143v-43.3c0-41.836-29.908-77.83-71.115-85.588c-7.818-1.471-15.261-4.193-22.123-8.089    c-6.686-3.796-12.686-8.617-17.833-14.333c-6.413-7.113-8.978-17.063-6.862-26.619l-15.305-3.387    c-3.207,14.493,0.727,29.632,10.522,40.497c6.274,6.965,13.588,12.843,21.74,17.471c8.369,4.751,17.438,8.069,26.96,9.862    c33.806,6.363,58.341,35.88,58.341,70.184v43.302H192.02v15.673h285.499v-15.673H434.05z"/>
	</g>
</g>
<g>
	<g>
		<rect x="163.45" y="457.143" width="13.185" height="15.674"/>
	</g>
</g>
<g>
	<g>
		<rect x="496.33" y="457.143" width="15.673" height="15.674"/>
	</g>
</g>
<g>
	<g>
		<rect y="457.143" width="15.673" height="15.674"/>
	</g>
</g>
<g>
</g>
<g>
</g>
<g>
</g>
<g>
</g>
<g>
</g>
<g>
</g>
<g>
</g>
<g>
</g>
<g>
</g>
<g>
</g>
<g>
</g>
<g>
</g>
<g>
</g>
<g>
</g>
<g>
</g>
</svg>
