<?xml version="1.0" encoding="iso-8859-1"?>
<!-- Generator: Adobe Illustrator 19.0.0, SVG Export Plug-In . SVG Version: 6.00 Build 0)  -->
<svg xmlns="http://www.w3.org/2000/svg" xmlns:xlink="http://www.w3.org/1999/xlink" version="1.1" id="Layer_1" x="0px" y="0px" viewBox="0 0 512 512" style="enable-background:new 0 0 512 512;" xml:space="preserve">
<g>
	<g>
		<path d="M0,49.633v412.735h512V49.633H0z M15.673,65.305H454.53v26.138H15.673V65.305z M15.673,446.693V107.117h480.653v339.576    H15.673z M496.327,91.443h-26.122V65.305h26.122V91.443z"/>
	</g>
</g>
<g>
	<g>
		<path d="M42.841,210.888v146.286h193.306V210.888H42.841z M220.473,341.5H58.514V226.56h161.959V341.5z"/>
	</g>
</g>
<g>
	<g>
		<rect x="275.85" y="210.89" width="193.31" height="15.673"/>
	</g>
</g>
<g>
	<g>
		<rect x="275.85" y="297.959" width="193.31" height="15.673"/>
	</g>
</g>
<g>
	<g>
		<rect x="309.81" y="341.5" width="159.35" height="15.673"/>
	</g>
</g>
<g>
	<g>
		<path d="M110.759,245.364v80.523l64.419-40.262L110.759,245.364z M126.433,273.641l19.173,11.983l-19.173,11.984V273.641z"/>
	</g>
</g>
<g>
	<g>
		<rect x="41.27" y="153.099" width="309.61" height="15.673"/>
	</g>
</g>
<g>
	<g>
		<rect x="403.65" y="153.099" width="58.681" height="15.673"/>
	</g>
</g>
<g>
	<g>
		<rect x="369.17" y="153.099" width="15.673" height="15.673"/>
	</g>
</g>
<g>
	<g>
		<rect x="111.28" y="385.029" width="124.86" height="15.673"/>
	</g>
</g>
<g>
	<g>
		<rect x="77.32" y="385.029" width="15.673" height="15.673"/>
	</g>
</g>
<g>
	<g>
		<rect x="42.841" y="385.029" width="15.673" height="15.673"/>
	</g>
</g>
<g>
	<g>
		<rect x="275.85" y="385.029" width="193.31" height="15.673"/>
	</g>
</g>
<g>
	<g>
		<rect x="275.85" y="254.419" width="158.82" height="15.673"/>
	</g>
</g>
<g>
	<g>
		<rect x="453.49" y="254.419" width="15.673" height="15.673"/>
	</g>
</g>
<g>
	<g>
		<rect x="275.85" y="341.5" width="15.673" height="15.673"/>
	</g>
</g>
<g>
</g>
<g>
</g>
<g>
</g>
<g>
</g>
<g>
</g>
<g>
</g>
<g>
</g>
<g>
</g>
<g>
</g>
<g>
</g>
<g>
</g>
<g>
</g>
<g>
</g>
<g>
</g>
<g>
</g>
</svg>
