<?xml version="1.0" encoding="iso-8859-1"?>
<!-- Generator: Adobe Illustrator 19.0.0, SVG Export Plug-In . SVG Version: 6.00 Build 0)  -->
<svg xmlns="http://www.w3.org/2000/svg" xmlns:xlink="http://www.w3.org/1999/xlink" version="1.1" id="Layer_1" x="0px" y="0px" viewBox="0 0 512 512" style="enable-background:new 0 0 512 512;" xml:space="preserve">
<g>
	<g>
		<polygon points="204.878,154.328 204.878,176.114 187.585,154.328 180.899,154.328 180.899,191.422 189.466,191.422     189.466,170.21 206.551,191.422 213.447,191.422 213.447,154.328   "/>
	</g>
</g>
<g>
	<g>
		<polygon points="229.119,183.898 229.119,176.01 243.748,176.01 243.748,169.06 229.119,169.06 229.119,161.851 246.152,161.851     246.152,154.328 220.552,154.328 220.552,191.422 246.621,191.422 246.621,183.898   "/>
	</g>
</g>
<g>
	<g>
		<polygon points="294.374,154.328 285.074,181.599 281.313,171.62 287.53,154.38 279.589,154.38 275.827,166.239 272.065,154.38     264.176,154.38 270.289,171.62 266.632,181.599 257.28,154.328 247.98,154.328 262.766,191.422 269.976,191.422 275.827,176.898     281.731,191.422 288.888,191.422 303.726,154.328   "/>
	</g>
</g>
<g>
	<g>
		<path d="M332.381,176.112c-0.541-1.219-1.306-2.255-2.299-3.109c-0.993-0.853-2.203-1.567-3.631-2.142    c-1.428-0.575-3.03-1.105-4.808-1.593c-1.288-0.348-2.421-0.661-3.396-0.94c-0.976-0.278-1.785-0.583-2.429-0.914    c-0.645-0.33-1.132-0.705-1.462-1.123c-0.331-0.418-0.497-0.94-0.497-1.567c0-2.054,1.533-3.082,4.598-3.082    c1.114,0,2.229,0.157,3.344,0.47c1.114,0.313,2.142,0.679,3.082,1.097c0.939,0.418,1.723,0.819,2.351,1.202    c0.627,0.383,0.992,0.645,1.097,0.784l3.762-7.105c-0.836-0.488-1.75-0.975-2.743-1.463c-0.993-0.487-2.064-0.923-3.213-1.306    s-2.351-0.696-3.604-0.94c-1.254-0.243-2.527-0.366-3.814-0.366c-1.847,0-3.597,0.261-5.251,0.784    c-1.654,0.522-3.109,1.298-4.362,2.325c-1.254,1.028-2.245,2.29-2.978,3.788c-0.731,1.498-1.097,3.221-1.097,5.172    c0,1.393,0.2,2.612,0.6,3.657c0.401,1.046,1.011,1.969,1.83,2.769c0.818,0.801,1.855,1.507,3.11,2.116    c1.254,0.609,2.733,1.175,4.441,1.698c1.287,0.383,2.482,0.731,3.579,1.045c1.097,0.313,2.046,0.653,2.847,1.019    c0.801,0.366,1.428,0.775,1.882,1.228c0.452,0.453,0.678,1.028,0.678,1.724c0,1.846-1.515,2.769-4.545,2.769    c-1.428,0-2.84-0.191-4.232-0.575c-1.394-0.383-2.657-0.818-3.788-1.306c-1.133-0.487-2.081-0.975-2.848-1.463    c-0.766-0.488-1.219-0.818-1.358-0.993l-3.762,7.471c1.078,0.731,2.254,1.376,3.526,1.933c1.271,0.557,2.586,1.036,3.943,1.437    c1.358,0.401,2.751,0.705,4.18,0.914c1.427,0.209,2.821,0.313,4.18,0.313c1.776,0,3.502-0.201,5.172-0.601    c1.672-0.4,3.152-1.045,4.441-1.933c1.287-0.888,2.325-2.055,3.109-3.5s1.176-3.213,1.176-5.303    C333.19,178.796,332.92,177.333,332.381,176.112z"/>
	</g>
</g>
<g>
	<g>
		<path d="M0,49.633v412.735h512V49.633H0z M15.673,65.305h480.653v26.138H15.673V65.305z M15.673,446.693V107.117h480.653v339.576    H15.673z"/>
	</g>
</g>
<g>
	<g>
		<rect x="49.633" y="70.549" width="15.673" height="15.673"/>
	</g>
</g>
<g>
	<g>
		<rect x="83.59" y="70.549" width="15.673" height="15.673"/>
	</g>
</g>
<g>
	<g>
		<rect x="118.07" y="70.549" width="15.673" height="15.673"/>
	</g>
</g>
<g>
	<g>
		<path d="M42.841,225.073v146.286h193.306V225.073H42.841z M220.473,355.685H58.514V240.747h161.959V355.685z"/>
	</g>
</g>
<g>
	<g>
		<rect x="275.85" y="225.07" width="193.31" height="15.673"/>
	</g>
</g>
<g>
	<g>
		<rect x="275.85" y="312.149" width="193.31" height="15.673"/>
	</g>
</g>
<g>
	<g>
		<rect x="275.85" y="355.68" width="193.31" height="15.673"/>
	</g>
</g>
<g>
	<g>
		<rect x="42.841" y="399.219" width="193.31" height="15.673"/>
	</g>
</g>
<g>
	<g>
		<rect x="42.841" y="167.289" width="93.14" height="15.673"/>
	</g>
</g>
<g>
	<g>
		<rect x="376.02" y="167.289" width="93.14" height="15.673"/>
	</g>
</g>
<g>
	<g>
		<rect x="275.85" y="399.219" width="124.86" height="15.673"/>
	</g>
</g>
<g>
	<g>
		<rect x="310.33" y="268.609" width="158.82" height="15.673"/>
	</g>
</g>
<g>
	<g>
		<rect x="275.85" y="268.609" width="15.673" height="15.673"/>
	</g>
</g>
<g>
	<g>
		<rect x="419" y="399.219" width="15.673" height="15.673"/>
	</g>
</g>
<g>
	<g>
		<rect x="453.49" y="399.219" width="15.673" height="15.673"/>
	</g>
</g>
<g>
	<g>
		<path d="M110.759,259.547v80.524l64.419-40.261L110.759,259.547z M126.433,287.828l19.173,11.983l-19.173,11.983V287.828z"/>
	</g>
</g>
<g>
</g>
<g>
</g>
<g>
</g>
<g>
</g>
<g>
</g>
<g>
</g>
<g>
</g>
<g>
</g>
<g>
</g>
<g>
</g>
<g>
</g>
<g>
</g>
<g>
</g>
<g>
</g>
<g>
</g>
</svg>
