<?xml version="1.0" encoding="iso-8859-1"?>
<!-- Generator: Adobe Illustrator 19.0.0, SVG Export Plug-In . SVG Version: 6.00 Build 0)  -->
<svg xmlns="http://www.w3.org/2000/svg" xmlns:xlink="http://www.w3.org/1999/xlink" version="1.1" id="Layer_1" x="0px" y="0px" viewBox="0 0 512.003 512.003" style="enable-background:new 0 0 512.003 512.003;" xml:space="preserve">
<g>
	<g>
		<path d="M415.519,402.264c-10.9-2.052-20.58-7.484-27.993-15.706c-6.307-6.997-6.716-17.632-0.974-25.289    c13.75-18.332,21.636-42.6,21.636-66.582c0-45.727-29.898-78.917-71.168-78.917c-41.192,0-71.091,33.189-71.091,78.917    c0,23.981,7.886,48.25,21.636,66.582c5.743,7.657,5.333,18.292-0.974,25.289c-7.412,8.222-17.091,13.654-27.993,15.706    c-31.082,5.852-53.642,33.005-53.642,64.563V512h43.036v-15.673h-27.363v-29.5c0-24.026,17.188-44.702,40.868-49.16    c14.303-2.694,27.004-9.822,36.734-20.616c11.311-12.547,12.098-31.551,1.87-45.187c-11.585-15.446-18.501-36.82-18.501-57.178    c0-37.237,22.788-63.243,55.495-63.243c32.629,0,55.417,26.006,55.417,63.243c0,20.358-6.916,41.732-18.501,57.178    c-10.226,13.636-9.44,32.64,1.87,45.187c9.73,10.794,22.432,17.922,36.734,20.616c23.683,4.459,40.87,25.134,40.87,49.16v29.5    H300.73V512h168.43v-45.173C469.16,435.269,446.602,408.116,415.519,402.264z"/>
	</g>
</g>
<g>
	<g>
		<polygon points="303.512,35.448 303.512,0 42.842,0 42.842,165.487 208.322,165.487 275.743,232.946 275.743,165.487     303.512,165.487 303.512,88.216 287.839,88.216 287.839,149.813 260.071,149.813 260.071,195.093 214.816,149.813 58.515,149.813     58.515,15.673 287.839,15.673 287.839,35.448   "/>
	</g>
</g>
<g>
	<g>
		<rect x="228.921" y="54.46" width="20.417" height="15.673"/>
	</g>
</g>
<g>
	<g>
		<rect x="97.022" y="54.46" width="108.07" height="15.673"/>
	</g>
</g>
<g>
	<g>
		<rect x="97.022" y="95.35" width="152.31" height="15.674"/>
	</g>
</g>
<g>
	<g>
		<rect x="266.272" y="496.33" width="15.664" height="15.673"/>
	</g>
</g>
<g>
	<g>
		<rect x="287.842" y="53.729" width="15.673" height="15.674"/>
	</g>
</g>
<g>
</g>
<g>
</g>
<g>
</g>
<g>
</g>
<g>
</g>
<g>
</g>
<g>
</g>
<g>
</g>
<g>
</g>
<g>
</g>
<g>
</g>
<g>
</g>
<g>
</g>
<g>
</g>
<g>
</g>
</svg>
