<?xml version="1.0" encoding="iso-8859-1"?>
<!-- Generator: Adobe Illustrator 19.0.0, SVG Export Plug-In . SVG Version: 6.00 Build 0)  -->
<svg xmlns="http://www.w3.org/2000/svg" xmlns:xlink="http://www.w3.org/1999/xlink" version="1.1" id="Layer_1" x="0px" y="0px" viewBox="0 0 512 512" style="enable-background:new 0 0 512 512;" xml:space="preserve">
<g>
	<g>
		<path d="M386.712,0H215.35c-33.13,0-60.082,26.952-60.082,60.082v104.484h15.673V88.862h260.18v25.743h15.673V60.082    C446.795,26.952,419.842,0,386.712,0z M431.121,73.189H170.941V60.082c0-24.487,19.921-44.408,44.408-44.408h171.363    c24.487,0,44.408,19.921,44.408,44.408V73.189z"/>
	</g>
</g>
<g>
	<g>
		<path d="M431.121,167.373v255.765H217.975v15.673h213.146v13.107c0,24.487-19.921,44.408-44.408,44.408H215.35    c-24.487,0-44.408-19.921-44.408-44.408v-94.027h-15.673v94.027c0,33.13,26.952,60.082,60.082,60.082h171.363    c33.13,0,60.082-26.952,60.082-60.082V167.373H431.121z"/>
	</g>
</g>
<g>
	<g>
		<path d="M318.795,446.148h-35.527c-11.811,0-21.42,9.609-21.42,21.42c0,11.811,9.609,21.42,21.42,21.42h35.527    c11.812,0,21.42-9.609,21.42-21.42C340.215,455.757,330.605,446.148,318.795,446.148z M318.795,473.316h-35.527    c-3.168,0-5.747-2.578-5.747-5.747s2.579-5.747,5.747-5.747h35.527c3.168,0,5.747,2.578,5.747,5.747    S321.962,473.316,318.795,473.316z"/>
	</g>
</g>
<g>
	<g>
		<rect x="431.121" y="132.89" width="15.673" height="15.673"/>
	</g>
</g>
<g>
	<g>
		<rect x="184.012" y="423.14" width="15.673" height="15.673"/>
	</g>
</g>
<g>
	<g>
		<rect x="254.012" y="36.592" width="15.458" height="15.673"/>
	</g>
</g>
<g>
	<g>
		<rect x="288.012" y="36.592" width="60.03" height="15.673"/>
	</g>
</g>
<g>
	<g>
		<path d="M65.204,220.836l11.083,11.082c47.871-47.871,125.763-47.871,173.632,0l11.083-11.082    C207.022,166.855,119.186,166.855,65.204,220.836z"/>
	</g>
</g>
<g>
	<g>
		<path d="M92.913,248.543l11.083,11.082c32.592-32.592,85.625-32.592,118.218,0l11.083-11.082    C194.592,209.838,131.616,209.838,92.913,248.543z"/>
	</g>
</g>
<g>
	<g>
		<path d="M120.619,276.25l11.083,11.082c17.315-17.315,45.489-17.315,62.803,0l11.083-11.082    C182.163,252.824,144.046,252.824,120.619,276.25z"/>
	</g>
</g>
<g>
	<g>
		<path d="M179.728,302.108c-4.441-4.441-10.344-6.886-16.624-6.886c-6.28,0-12.184,2.446-16.623,6.886    c-4.441,4.441-6.887,10.344-6.887,16.624c0,6.28,2.446,12.185,6.886,16.624c4.441,4.44,10.344,6.886,16.624,6.886    c6.28,0.001,12.183-2.445,16.623-6.885c4.441-4.441,6.887-10.344,6.887-16.625C186.615,312.454,184.168,306.549,179.728,302.108z     M168.645,324.276c-1.48,1.481-3.448,2.296-5.541,2.296c-2.093,0-4.061-0.815-5.542-2.296c-1.48-1.482-2.295-3.449-2.295-5.542    c0-2.093,0.815-4.06,2.296-5.541c1.48-1.481,3.448-2.296,5.541-2.296s4.062,0.815,5.541,2.296h0.001    c1.48,1.481,2.295,3.448,2.295,5.541C170.941,320.826,170.126,322.795,168.645,324.276z"/>
	</g>
</g>
<g>
</g>
<g>
</g>
<g>
</g>
<g>
</g>
<g>
</g>
<g>
</g>
<g>
</g>
<g>
</g>
<g>
</g>
<g>
</g>
<g>
</g>
<g>
</g>
<g>
</g>
<g>
</g>
<g>
</g>
</svg>
