<?xml version="1.0" encoding="iso-8859-1"?>
<!-- Generator: Adobe Illustrator 19.0.0, SVG Export Plug-In . SVG Version: 6.00 Build 0)  -->
<svg xmlns="http://www.w3.org/2000/svg" xmlns:xlink="http://www.w3.org/1999/xlink" version="1.1" id="Layer_1" x="0px" y="0px" viewBox="0 0 512 512" style="enable-background:new 0 0 512 512;" xml:space="preserve">
<g>
	<g>
		<path d="M103.95,0L22.842,81.098v149.825h15.673V92.182h76.514V15.673h242.18V155.71h15.673V0H103.95z M99.356,76.508H49.6    L99.356,26.76V76.508z"/>
	</g>
</g>
<g>
	<g>
		<polygon points="357.209,397.604 357.209,496.327 38.516,496.327 38.516,317.649 22.842,317.649 22.842,512 372.883,512     372.883,397.604   "/>
	</g>
</g>
<g>
	<g>
		<rect x="207.01" y="423.7" width="112.33" height="15.673"/>
	</g>
</g>
<g>
	<g>
		<rect x="76.39" y="336.61" width="208.47" height="15.673"/>
	</g>
</g>
<g>
	<g>
		<rect x="207.01" y="209.49" width="112.33" height="15.674"/>
	</g>
</g>
<g>
	<g>
		<rect x="207.01" y="122.41" width="112.33" height="15.673"/>
	</g>
</g>
<g>
	<g>
		<rect x="241.5" y="165.95" width="77.84" height="15.674"/>
	</g>
</g>
<g>
	<g>
		<rect x="207.01" y="165.95" width="15.673" height="15.674"/>
	</g>
</g>
<g>
	<g>
		<rect x="76.39" y="249.54" width="242.95" height="15.673"/>
	</g>
</g>
<g>
	<g>
		<rect x="76.39" y="293.08" width="208.47" height="15.673"/>
	</g>
</g>
<g>
	<g>
		<path d="M76.394,122.414v102.749h112.327V122.414H76.394z M173.047,209.488h-80.98v-71.402h80.98V209.488z"/>
	</g>
</g>
<g>
	<g>
		<rect x="22.846" y="249.21" width="15.674" height="15.673"/>
	</g>
</g>
<g>
	<g>
		<rect x="22.846" y="283.69" width="15.674" height="15.673"/>
	</g>
</g>
<g>
	<g>
		<path d="M465.401,71.896c-20.629-9.618-45.289-0.541-54.975,20.233L295.894,337.745l8.733,75.969l66.029-40.975l42.619-91.397    l-14.205-6.624l-38.317,82.174l-16.1-7.505l85.672-183.724l16.099,7.509l-25.052,53.726l14.205,6.624l49.664-106.504    C494.927,106.241,486.028,81.515,465.401,71.896z M348.104,368.289l-30.73,19.069l-4.056-35.287L348.104,368.289z     M330.447,342.764l-16.1-7.505l85.674-183.729l16.099,7.509L330.447,342.764z M453.046,158.967l-46.401-21.641l6.633-14.225    l46.403,21.638L453.046,158.967z M471.034,120.392l-4.729,10.141l-46.403-21.638l4.729-10.142    c6.035-12.942,21.354-18.617,34.146-12.652C471.571,92.067,477.07,107.449,471.034,120.392z"/>
	</g>
</g>
<g>
	<g>
		
			<rect x="409.37" y="246.521" transform="matrix(0.4226 -0.9063 0.9063 0.4226 10.3645 524.9841)" width="15.673" height="15.673"/>
	</g>
</g>
<g>
</g>
<g>
</g>
<g>
</g>
<g>
</g>
<g>
</g>
<g>
</g>
<g>
</g>
<g>
</g>
<g>
</g>
<g>
</g>
<g>
</g>
<g>
</g>
<g>
</g>
<g>
</g>
<g>
</g>
</svg>
