<?xml version="1.0" encoding="iso-8859-1"?>
<!-- Generator: Adobe Illustrator 19.0.0, SVG Export Plug-In . SVG Version: 6.00 Build 0)  -->
<svg xmlns="http://www.w3.org/2000/svg" xmlns:xlink="http://www.w3.org/1999/xlink" version="1.1" id="Layer_1" x="0px" y="0px" viewBox="0 0 512 512" style="enable-background:new 0 0 512 512;" xml:space="preserve">
<g>
	<g>
		<path d="M437.019,74.981C388.668,26.628,324.38,0,256,0S123.332,26.628,74.981,74.981C26.629,123.333,0,187.62,0,256    s26.628,132.668,74.981,181.019C123.333,485.371,187.62,512,256,512s132.668-26.628,181.019-74.981    C485.371,388.667,512,324.38,512,256S485.372,123.332,437.019,74.981z M425.937,425.937    c-45.393,45.391-105.744,70.39-169.937,70.39s-124.544-24.998-169.937-70.39C40.672,380.544,15.673,320.193,15.673,256    s24.998-124.544,70.39-169.937C131.455,40.672,191.807,15.673,256,15.673s124.545,24.998,169.937,70.39    c45.391,45.392,70.39,105.743,70.39,169.937S471.328,380.544,425.937,425.937z"/>
	</g>
</g>
<g>
	<g>
		<path d="M342.815,129.999c-21.323-21.334-49.125-33.842-78.979-35.71V49.626h-15.673v44.666    c-64.061,4.056-114.939,57.452-114.939,122.518v56.957h15.673V216.81c0-59.057,48.045-107.102,107.102-107.102    c28.617,0,55.51,11.141,75.731,31.371c3.497,3.496,6.756,7.235,9.689,11.109l12.498-9.457    C350.554,138.285,346.817,134.001,342.815,129.999z"/>
	</g>
</g>
<g>
	<g>
		<path d="M164.571,216.809h15.674c0-41.772,33.983-75.755,75.755-75.755V125.38C205.586,125.38,164.571,166.395,164.571,216.809z"/>
	</g>
</g>
<g>
	<g>
		<path d="M378.777,276.363h-0.001c29.437-3.854,52.245-29.082,52.245-59.554c0-33.13-26.952-60.082-60.082-60.082    s-60.082,26.952-60.082,60.082c0,30.472,22.808,55.7,52.245,59.554v47.549H91.429v88.816h120.87    c3.714,20.76,21.89,36.571,43.702,36.571c21.812,0,39.988-15.811,43.702-36.571h120.87v-88.816h-41.796V276.363z M326.531,216.809    c0-24.487,19.921-44.408,44.408-44.408s44.408,19.921,44.408,44.408s-19.921,44.408-44.408,44.408    S326.531,241.296,326.531,216.809z M256,433.626c-13.127,0-24.219-8.852-27.64-20.898h55.279    C280.219,424.774,269.127,433.626,256,433.626z M404.898,339.586v57.469H107.102v-57.469H404.898z"/>
	</g>
</g>
<g>
	<g>
		<rect x="133.22" y="292.57" width="15.673" height="15.673"/>
	</g>
</g>
<g>
</g>
<g>
</g>
<g>
</g>
<g>
</g>
<g>
</g>
<g>
</g>
<g>
</g>
<g>
</g>
<g>
</g>
<g>
</g>
<g>
</g>
<g>
</g>
<g>
</g>
<g>
</g>
<g>
</g>
</svg>
