<?xml version="1.0" encoding="iso-8859-1"?>
<!-- Generator: Adobe Illustrator 19.0.0, SVG Export Plug-In . SVG Version: 6.00 Build 0)  -->
<svg xmlns="http://www.w3.org/2000/svg" xmlns:xlink="http://www.w3.org/1999/xlink" version="1.1" id="Layer_1" x="0px" y="0px" viewBox="0 0 512 512" style="enable-background:new 0 0 512 512;" xml:space="preserve">
<g>
	<g>
		<circle cx="161.9" cy="210.479" r="20.898"/>
	</g>
</g>
<g>
	<g>
		<circle cx="256" cy="210.479" r="20.898"/>
	</g>
</g>
<g>
	<g>
		<circle cx="350.1" cy="210.479" r="20.898"/>
	</g>
</g>
<g>
	<g>
		<polygon points="171.304,50.982 171.304,66.654 496.327,66.654 496.327,354.307 384.557,354.307 384.557,369.98 512,369.98     512,50.982   "/>
	</g>
</g>
<g>
	<g>
		<rect x="316.11" y="354.299" width="15.673" height="15.673"/>
	</g>
</g>
<g>
	<g>
		<rect x="350.6" y="354.299" width="15.673" height="15.673"/>
	</g>
</g>
<g>
	<g>
		<rect x="136.82" y="50.982" width="15.673" height="15.673"/>
	</g>
</g>
<g>
	<g>
		<path d="M207.394,354.308v-0.002l-1.517,5.878c-8.651,33.516-29.237,57.879-61.188,72.414c-9.579,4.357-18.822,7.15-26.525,8.935    c22.799-30.757,23.18-60.342,18.705-81.045l-1.335-6.181H15.673V66.654h102.863V50.982H0V369.98h122.643    c2.802,20.328-1.097,48.485-29.926,76.92l-14.312,14.118l20.089-0.706c1.01-0.036,25.042-1.008,52.135-13.199    c34.372-15.464,58.041-42.056,68.768-77.132h78.433v-15.673H207.394z"/>
	</g>
</g>
<g>
</g>
<g>
</g>
<g>
</g>
<g>
</g>
<g>
</g>
<g>
</g>
<g>
</g>
<g>
</g>
<g>
</g>
<g>
</g>
<g>
</g>
<g>
</g>
<g>
</g>
<g>
</g>
<g>
</g>
</svg>
