<?xml version="1.0" encoding="iso-8859-1"?>
<!-- Generator: Adobe Illustrator 19.0.0, SVG Export Plug-In . SVG Version: 6.00 Build 0)  -->
<svg xmlns="http://www.w3.org/2000/svg" xmlns:xlink="http://www.w3.org/1999/xlink" version="1.1" id="Layer_1" x="0px" y="0px" viewBox="0 0 512.003 512.003" style="enable-background:new 0 0 512.003 512.003;" xml:space="preserve">
<g>
	<g>
		<path d="M256.001,160.997c-24.291,0-44.053,19.782-44.053,44.097s19.762,44.098,44.053,44.098s44.052-19.782,44.052-44.098    S280.292,160.997,256.001,160.997z M256.001,233.518c-15.648,0-28.379-12.751-28.379-28.424s12.731-28.424,28.379-28.424    s28.378,12.751,28.378,28.423S271.648,233.518,256.001,233.518z"/>
	</g>
</g>
<g>
	<g>
		<path d="M302.435,404.871c90.663-21.115,158.418-102.673,158.418-199.777C460.852,92.004,368.957,0,256.001,0    S51.151,92.004,51.151,205.094c0,97.105,67.755,178.662,158.418,199.777c-35.003,16.473-59.937,50.958-62.809,91.456H98.342V512    h315.319v-15.673h-48.419C362.372,455.829,337.438,421.344,302.435,404.871z M66.824,205.095    c0-83.058,53.668-153.796,128.103-179.288v30.742h15.674V21.201c14.55-3.603,29.753-5.528,45.4-5.528s30.85,1.925,45.4,5.528    v113.327c-13.097-8.475-28.678-13.418-45.4-13.418s-32.303,4.943-45.401,13.418v-25.212h-15.673v38.291    c-14.131,15.038-22.815,35.26-22.815,57.486c0,46.309,37.633,83.984,83.89,83.984c46.257,0,83.89-37.675,83.89-83.984    c0-22.226-8.685-42.449-22.816-57.486v-121.8c74.435,25.491,128.103,96.23,128.103,179.288    c0,104.446-84.865,189.42-189.177,189.42C151.688,394.515,66.824,309.541,66.824,205.095z M324.217,205.094    c0,37.667-30.602,68.31-68.216,68.31c-37.615,0-68.216-30.644-68.216-68.31s30.601-68.31,68.216-68.31    C293.615,136.783,324.217,167.427,324.217,205.094z M162.481,496.327c3.99-48.165,44.407-86.139,93.52-86.139    c49.113,0,89.531,37.975,93.52,86.139H162.481z"/>
	</g>
</g>
<g>
	<g>
		<path d="M332.787,285.873c-15.844,0-28.735,12.89-28.735,28.735s12.891,28.735,28.735,28.735s28.735-12.89,28.735-28.735    S348.631,285.873,332.787,285.873z M332.787,327.669c-7.203,0-13.061-5.859-13.061-13.061c0-7.203,5.859-13.061,13.061-13.061    c7.202,0,13.061,5.859,13.061,13.061C345.849,321.81,339.99,327.669,332.787,327.669z"/>
	</g>
</g>
<g>
	<g>
		<rect x="29.261" y="496.33" width="15.82" height="15.673"/>
	</g>
</g>
<g>
	<g>
		<rect x="63.531" y="496.33" width="15.82" height="15.673"/>
	</g>
</g>
<g>
	<g>
		<rect x="432.121" y="496.33" width="15.82" height="15.673"/>
	</g>
</g>
<g>
	<g>
		<rect x="466.922" y="496.33" width="15.82" height="15.673"/>
	</g>
</g>
<g>
	<g>
		<rect x="194.931" y="74.836" width="15.673" height="15.673"/>
	</g>
</g>
<g>
</g>
<g>
</g>
<g>
</g>
<g>
</g>
<g>
</g>
<g>
</g>
<g>
</g>
<g>
</g>
<g>
</g>
<g>
</g>
<g>
</g>
<g>
</g>
<g>
</g>
<g>
</g>
<g>
</g>
</svg>
