<?xml version="1.0" encoding="iso-8859-1"?>
<!-- Generator: Adobe Illustrator 19.0.0, SVG Export Plug-In . SVG Version: 6.00 Build 0)  -->
<svg xmlns="http://www.w3.org/2000/svg" xmlns:xlink="http://www.w3.org/1999/xlink" version="1.1" id="Layer_1" x="0px" y="0px" viewBox="0 0 512.001 512.001" style="enable-background:new 0 0 512.001 512.001;" xml:space="preserve">
<g>
	<g>
		<path d="M459.755,325.621V66.743H179.14v15.673h248.061L230.198,220.03L32.613,82.418h59.802V66.745H0v326.008h334.347v-15.673    H32.741L444.082,89.746v235.876c-29.437,3.855-52.245,29.082-52.245,59.554c0,33.13,26.952,60.082,60.082,60.082    s60.082-26.952,60.082-60.082C512,354.704,489.192,329.477,459.755,325.621z M15.673,369.882V89.72l200.834,139.874    L15.673,369.882z M451.918,429.585c-24.487,0-44.408-19.921-44.408-44.408s19.921-44.408,44.408-44.408    s44.408,19.921,44.408,44.408C496.327,409.663,476.406,429.585,451.918,429.585z"/>
	</g>
</g>
<g>
	<g>
		<rect x="352.63" y="377.071" width="15.673" height="15.673"/>
	</g>
</g>
<g>
	<g>
		<rect x="110.7" y="66.743" width="15.673" height="15.673"/>
	</g>
</g>
<g>
	<g>
		<rect x="145.18" y="66.743" width="15.673" height="15.673"/>
	</g>
</g>
<g>
</g>
<g>
</g>
<g>
</g>
<g>
</g>
<g>
</g>
<g>
</g>
<g>
</g>
<g>
</g>
<g>
</g>
<g>
</g>
<g>
</g>
<g>
</g>
<g>
</g>
<g>
</g>
<g>
</g>
</svg>
