<?xml version="1.0" encoding="iso-8859-1"?>
<!-- Generator: Adobe Illustrator 19.0.0, SVG Export Plug-In . SVG Version: 6.00 Build 0)  -->
<svg xmlns="http://www.w3.org/2000/svg" xmlns:xlink="http://www.w3.org/1999/xlink" version="1.1" id="Layer_1" x="0px" y="0px" viewBox="0 0 512 512" style="enable-background:new 0 0 512 512;" xml:space="preserve">
<g>
	<g>
		<polygon points="202.407,68.295 202.407,119.435 218.081,119.435 218.081,83.968 496.327,83.968 496.327,248.017 463.015,248.017     463.015,304.554 406.504,248.017 325.785,248.017 325.785,263.69 400.01,263.69 478.689,342.406 478.689,263.69 512,263.69     512,68.295   "/>
	</g>
</g>
<g>
	<g>
		<rect x="78.64" y="279.89" width="20.417" height="15.673"/>
	</g>
</g>
<g>
	<g>
		<rect x="122.88" y="279.89" width="108.07" height="15.673"/>
	</g>
</g>
<g>
	<g>
		<rect x="78.64" y="239.01" width="152.31" height="15.673"/>
	</g>
</g>
<g>
	<g>
		<polygon points="0,169.583 0,364.987 33.315,364.987 33.315,443.705 111.987,364.987 188.419,364.987 188.419,349.314     105.492,349.314 48.988,405.85 48.988,349.314 15.673,349.314 15.673,185.256 293.922,185.256 293.922,349.314 274.808,349.314     274.808,364.987 309.596,364.987 309.596,169.583   "/>
	</g>
</g>
<g>
	<g>
		<rect x="206.7" y="349.31" width="15.673" height="15.673"/>
	</g>
</g>
<g>
	<g>
		<rect x="241.18" y="349.31" width="15.673" height="15.673"/>
	</g>
</g>
<g>
	<g>
		<rect x="325.29" y="178.59" width="108.07" height="15.673"/>
	</g>
</g>
<g>
	<g>
		<rect x="281.05" y="137.72" width="152.31" height="15.673"/>
	</g>
</g>
<g>
	<g>
		<rect x="202.41" y="138.24" width="15.673" height="15.673"/>
	</g>
</g>
<g>
</g>
<g>
</g>
<g>
</g>
<g>
</g>
<g>
</g>
<g>
</g>
<g>
</g>
<g>
</g>
<g>
</g>
<g>
</g>
<g>
</g>
<g>
</g>
<g>
</g>
<g>
</g>
<g>
</g>
</svg>
