<?xml version="1.0" encoding="iso-8859-1"?>
<!-- Generator: Adobe Illustrator 19.0.0, SVG Export Plug-In . SVG Version: 6.00 Build 0)  -->
<svg xmlns="http://www.w3.org/2000/svg" xmlns:xlink="http://www.w3.org/1999/xlink" version="1.1" id="Layer_1" x="0px" y="0px" viewBox="0 0 512.003 512.003" style="enable-background:new 0 0 512.003 512.003;" xml:space="preserve">
<g>
	<g>
		<rect x="221.36" y="426.182" width="15.673" height="15.674"/>
	</g>
</g>
<g>
	<g>
		<rect x="255.84" y="426.182" width="187.72" height="15.674"/>
	</g>
</g>
<g>
	<g>
		<rect x="68.44" y="426.182" width="134.63" height="15.674"/>
	</g>
</g>
<g>
	<g>
		<path d="M78.895,94.245c-4.686-10.052-12.978-17.694-23.346-21.521c-10.393-3.835-21.623-3.377-31.629,1.287    C13.917,78.676,6.347,86.987,2.604,97.413c-3.733,10.402-3.208,21.666,1.48,31.717l49.663,106.504l14.204-6.624L42.9,175.286    l16.099-7.509L144.671,351.5l-16.1,7.507l-38.318-82.173l-14.204,6.624l42.617,91.397l66.029,40.975l8.733-75.969L78.895,94.245z     M18.287,122.506c-2.928-6.281-3.259-13.312-0.931-19.798c2.32-6.461,7.003-11.608,13.189-14.492    c6.185-2.885,13.137-3.164,19.578-0.788c6.465,2.385,11.638,7.159,14.567,13.439l4.729,10.142l-46.403,21.638L18.287,122.506z     M36.276,161.081l-6.634-14.227l46.403-21.638l6.633,14.225L36.276,161.081z M73.201,161.154l16.099-7.509l85.673,183.729    l-16.1,7.506L73.201,161.154z M171.947,389.473l-30.729-19.069l34.786-16.218L171.947,389.473z"/>
	</g>
</g>
<g>
	<g>
		<rect x="64.272" y="248.62" transform="matrix(0.9063 -0.4226 0.4226 0.9063 -101.6244 54.5)" width="15.673" height="15.673"/>
	</g>
</g>
<g>
	<g>
		<rect x="461.85" y="426.182" width="15.673" height="15.674"/>
	</g>
</g>
<g>
	<g>
		<rect x="496.33" y="426.182" width="15.673" height="15.674"/>
	</g>
</g>
<g>
	<g>
		<rect y="426.182" width="15.673" height="15.674"/>
	</g>
</g>
<g>
	<g>
		<rect x="33.959" y="426.182" width="15.674" height="15.674"/>
	</g>
</g>
<g>
</g>
<g>
</g>
<g>
</g>
<g>
</g>
<g>
</g>
<g>
</g>
<g>
</g>
<g>
</g>
<g>
</g>
<g>
</g>
<g>
</g>
<g>
</g>
<g>
</g>
<g>
</g>
<g>
</g>
</svg>
