<?xml version="1.0" encoding="iso-8859-1"?>
<!-- Generator: Adobe Illustrator 19.0.0, SVG Export Plug-In . SVG Version: 6.00 Build 0)  -->
<svg xmlns="http://www.w3.org/2000/svg" xmlns:xlink="http://www.w3.org/1999/xlink" version="1.1" id="Layer_1" x="0px" y="0px" viewBox="0 0 512 512" style="enable-background:new 0 0 512 512;" xml:space="preserve">
<g>
	<g>
		<path d="M472.816,167.403v-52.247H299.302L155.8,62.926c0.157-4.018-0.638-8.043-2.387-11.792    c-2.89-6.198-8.021-10.899-14.446-13.238c-13.263-4.822-27.982,2.035-32.812,15.302c-4.827,13.264,2.036,27.983,15.3,32.811    c2.858,1.04,5.819,1.557,8.772,1.557c3.687,0,7.361-0.807,10.803-2.412c3.748-1.748,6.936-4.327,9.398-7.504l246.595,89.754    H152.986v15.673h343.341v276.898H15.673V183.076h50.586v-15.673H54.857v-36.575h180.334v-15.673H39.184v52.248H0v308.245h512    V167.403H472.816z M139.541,65.346c-0.907,2.492-2.73,4.481-5.134,5.602c-2.403,1.121-5.097,1.238-7.59,0.33    c-5.143-1.871-7.804-7.58-5.933-12.723c1.466-4.027,5.282-6.532,9.338-6.532c1.125,0,2.268,0.193,3.385,0.599    c2.491,0.907,4.481,2.729,5.601,5.133C140.33,60.159,140.448,62.855,139.541,65.346z M457.143,167.403h-14.291l-100.488-36.575    h114.779V167.403z"/>
	</g>
</g>
<g>
	<g>
		<rect x="119.02" y="167.4" width="15.673" height="15.673"/>
	</g>
</g>
<g>
	<g>
		<rect x="84.55" y="167.4" width="15.673" height="15.673"/>
	</g>
</g>
<g>
	<g>
		<path d="M52.245,219.647L52.245,219.647v88.816h334.367v-88.816H52.245z M67.918,292.79v-57.469h303.02v57.469H67.918z"/>
	</g>
</g>
<g>
	<g>
		<rect x="92.08" y="248.38" width="15.673" height="31.347"/>
	</g>
</g>
<g>
	<g>
		<rect x="131.92" y="256.22" width="15.673" height="15.674"/>
	</g>
</g>
<g>
	<g>
		<rect x="171.75" y="248.38" width="15.673" height="31.347"/>
	</g>
</g>
<g>
	<g>
		<rect x="211.59" y="256.22" width="15.673" height="15.674"/>
	</g>
</g>
<g>
	<g>
		<rect x="251.42" y="248.38" width="15.673" height="31.347"/>
	</g>
</g>
<g>
	<g>
		<rect x="291.26" y="256.22" width="15.673" height="15.674"/>
	</g>
</g>
<g>
	<g>
		<rect x="331.1" y="248.38" width="15.673" height="31.347"/>
	</g>
</g>
<g>
	<g>
		<rect x="52.24" y="407.73" width="300.36" height="15.673"/>
	</g>
</g>
<g>
	<g>
		<rect x="52.24" y="369.41" width="334.37" height="15.674"/>
	</g>
</g>
<g>
	<g>
		<rect x="52.24" y="331.11" width="334.37" height="15.673"/>
	</g>
</g>
<g>
	<g>
		<path d="M441.469,219.648c-18.725,0-33.959,15.234-33.959,33.959c0,18.726,15.235,33.959,33.959,33.959    c18.725,0,33.959-15.234,33.959-33.959C475.429,234.882,460.194,219.648,441.469,219.648z M441.469,271.893    c-10.082,0-18.286-8.203-18.286-18.286c0-10.082,8.204-18.286,18.286-18.286c10.082,0,18.286,8.203,18.286,18.286    S451.552,271.893,441.469,271.893z"/>
	</g>
</g>
<g>
	<g>
		<path d="M449.306,339.592v-31.65h-15.673v31.65c-9.121,3.235-15.673,11.946-15.673,22.162c0,10.216,6.553,18.927,15.673,22.162    v31.65h15.673v-31.65c9.121-3.235,15.674-11.946,15.674-22.162C464.98,351.538,458.427,342.827,449.306,339.592z M441.469,369.591    c-4.322,0-7.837-3.515-7.837-7.837c0-4.322,3.515-7.837,7.837-7.837c4.322,0,7.837,3.515,7.837,7.837    C449.306,366.076,445.791,369.591,441.469,369.591z"/>
	</g>
</g>
<g>
	<g>
		<rect x="371.16" y="407.73" width="15.458" height="15.673"/>
	</g>
</g>
<g>
</g>
<g>
</g>
<g>
</g>
<g>
</g>
<g>
</g>
<g>
</g>
<g>
</g>
<g>
</g>
<g>
</g>
<g>
</g>
<g>
</g>
<g>
</g>
<g>
</g>
<g>
</g>
<g>
</g>
</svg>
