<?xml version="1.0" encoding="iso-8859-1"?>
<!-- Generator: Adobe Illustrator 19.0.0, SVG Export Plug-In . SVG Version: 6.00 Build 0)  -->
<svg xmlns="http://www.w3.org/2000/svg" xmlns:xlink="http://www.w3.org/1999/xlink" version="1.1" id="Layer_1" x="0px" y="0px" viewBox="0 0 512.003 512.003" style="enable-background:new 0 0 512.003 512.003;" xml:space="preserve">
<g>
	<g>
		<path d="M415.871,172.12v-23.675h-15.673v23.675H377.21v-51.108c0-32.336-12.61-62.727-35.507-85.572    C318.81,12.586,288.373,0,256.001,0c-66.834,0-121.208,54.286-121.208,121.012v51.108h-22.988v-23.675H96.132v23.675H67.92v15.674    h28.212v178.907c0,30.365,24.567,55.068,54.763,55.068h84.198v-15.673h-84.198c-21.554,0-39.09-17.672-39.09-39.395V187.793    h22.988v51.109c0,64.097,50.176,116.705,113.371,120.752v136.673h-74.188V512h82.026h7.837h74.188v-15.673h-74.188v-74.558h97.27    c30.197,0,54.763-24.703,54.763-55.068V187.793h28.212V172.12H415.871z M150.467,153.007h78.367v-15.673h-78.367v-16.321    c0-0.937,0.014-1.871,0.038-2.802h78.33v-15.674h-76.74c1.176-6.604,2.975-12.993,5.325-19.113h36.934V67.749h-29.367    c18.358-31.134,52.28-52.076,91.016-52.076c28.19,0,54.694,10.959,74.63,30.861c6.452,6.438,11.959,13.566,16.466,21.215h-63.928    v15.673h71.478c2.354,6.164,4.124,12.558,5.279,19.113H283.17v15.673h78.329c0.024,0.932,0.039,1.866,0.039,2.802v16.321h-43.886    v15.673h43.886v19.113H150.467V153.007z M361.108,406.096h-97.27v-46.442c63.195-4.047,113.371-56.655,113.371-120.752v-38.073    h-15.674v38.073c0,58.084-47.343,105.338-105.535,105.338s-105.535-47.254-105.535-105.338v-51.109h249.731v178.908h0.002    C400.198,388.423,382.662,406.096,361.108,406.096z"/>
	</g>
</g>
<g>
	<g>
		<rect x="213.162" y="67.748" width="15.673" height="15.673"/>
	</g>
</g>
<g>
	<g>
		<rect x="283.172" y="137.33" width="15.673" height="15.673"/>
	</g>
</g>
<g>
	<g>
		<rect x="140.022" y="496.33" width="15.673" height="15.673"/>
	</g>
</g>
<g>
	<g>
		<rect x="105.532" y="496.33" width="15.673" height="15.673"/>
	</g>
</g>
<g>
	<g>
		<rect x="356.311" y="496.33" width="15.673" height="15.673"/>
	</g>
</g>
<g>
	<g>
		<rect x="390.792" y="496.33" width="15.674" height="15.673"/>
	</g>
</g>
<g>
</g>
<g>
</g>
<g>
</g>
<g>
</g>
<g>
</g>
<g>
</g>
<g>
</g>
<g>
</g>
<g>
</g>
<g>
</g>
<g>
</g>
<g>
</g>
<g>
</g>
<g>
</g>
<g>
</g>
</svg>
