<?xml version="1.0" encoding="iso-8859-1"?>
<!-- Generator: Adobe Illustrator 19.0.0, SVG Export Plug-In . SVG Version: 6.00 Build 0)  -->
<svg xmlns="http://www.w3.org/2000/svg" xmlns:xlink="http://www.w3.org/1999/xlink" version="1.1" id="Layer_1" x="0px" y="0px" viewBox="0 0 512 512" style="enable-background:new 0 0 512 512;" xml:space="preserve">
<g>
	<g>
		<path d="M0,91.428v297.796h188.24l-5.269,15.673H151.51v15.673h208.98v-15.673h-35.64l-5.269-15.673h77.326v-15.673H15.673    v-15.694h480.653v15.694h-46.654v15.673H512V91.428H0z M204.776,389.223h98.268l5.269,15.673H199.507L204.776,389.223z     M15.673,342.182V107.101h480.653v235.081H15.673z"/>
	</g>
</g>
<g>
	<g>
		
			<rect x="124.964" y="176.072" transform="matrix(0.9063 -0.4226 0.4226 0.9063 -65.234 73.3419)" width="15.673" height="15.459"/>
	</g>
</g>
<g>
	<g>
		
			<rect x="148.758" y="204.818" transform="matrix(0.9063 -0.4226 0.4226 0.9063 -84.5707 88.1784)" width="15.673" height="60.029"/>
	</g>
</g>
<g>
	<g>
		
			<rect x="183.389" y="182.858" transform="matrix(0.9063 -0.4226 0.4226 0.9063 -79.232 102.3495)" width="15.673" height="94.039"/>
	</g>
</g>
<g>
	<g>
		
			<rect x="296.313" y="176.089" transform="matrix(0.9063 -0.4226 0.4226 0.9063 -49.1879 145.7564)" width="15.673" height="15.459"/>
	</g>
</g>
<g>
	<g>
		
			<rect x="320.127" y="204.808" transform="matrix(0.9063 -0.4226 0.4226 0.9063 -68.5116 160.5987)" width="15.673" height="60.029"/>
	</g>
</g>
<g>
	<g>
		
			<rect x="354.743" y="182.861" transform="matrix(0.9063 -0.4226 0.4226 0.9063 -63.1799 174.7648)" width="15.673" height="94.039"/>
	</g>
</g>
<g>
	<g>
		<rect x="415.19" y="373.549" width="15.673" height="15.673"/>
	</g>
</g>
<g>
	<g>
		<rect x="118" y="404.899" width="15.673" height="15.673"/>
	</g>
</g>
<g>
	<g>
		<rect x="378.33" y="404.899" width="15.673" height="15.673"/>
	</g>
</g>
<g>
</g>
<g>
</g>
<g>
</g>
<g>
</g>
<g>
</g>
<g>
</g>
<g>
</g>
<g>
</g>
<g>
</g>
<g>
</g>
<g>
</g>
<g>
</g>
<g>
</g>
<g>
</g>
<g>
</g>
</svg>
