<?xml version="1.0" encoding="iso-8859-1"?>
<!-- Generator: Adobe Illustrator 19.0.0, SVG Export Plug-In . SVG Version: 6.00 Build 0)  -->
<svg xmlns="http://www.w3.org/2000/svg" xmlns:xlink="http://www.w3.org/1999/xlink" version="1.1" id="Layer_1" x="0px" y="0px" viewBox="0 0 512 512" style="enable-background:new 0 0 512 512;" xml:space="preserve">
<g>
	<g>
		<path d="M451.918,91.429c-39.025,0-60.082,84.791-60.082,164.571c0,47.153,7.358,96.051,21.431,128.164L52.245,290.52v-69.04    l107.666-27.927v77.886h15.673v-81.951l227.508-59.012l-3.935-15.172L36.571,209.353v12.688H0v67.918h36.571v12.688    L423.79,403.086c7.966,11.023,17.362,17.485,28.129,17.485C490.943,420.571,512,335.781,512,256S490.943,91.429,451.918,91.429z     M36.571,274.286H15.673v-36.571h20.898V274.286z M451.918,404.898c-9.864,0-21.172-15.537-29.508-40.548    c-5.187-15.562-9.103-33.954-11.621-54.029c4.478,3.71,9.554,5.76,15.007,5.76c19.36,0,33.959-25.83,33.959-60.082    s-14.599-60.082-33.959-60.082c-5.453,0-10.528,2.05-15.007,5.76c2.518-20.075,6.433-38.466,11.621-54.029    c8.336-25.012,19.644-40.548,29.508-40.548c9.864,0,21.172,15.537,29.508,40.548c9.608,28.826,14.9,67.305,14.9,108.35    c0,41.045-5.292,79.524-14.9,108.35C473.09,389.361,461.782,404.898,451.918,404.898z M407.51,256    c0-12.577,2.487-24.764,6.823-33.438c3.435-6.869,7.72-10.97,11.463-10.97c3.743,0,8.028,4.101,11.463,10.97    c4.336,8.674,6.823,20.86,6.823,33.438c0,12.578-2.487,24.764-6.823,33.438c-3.435,6.869-7.72,10.97-11.463,10.97    c-3.743,0-8.028-4.101-11.463-10.97C409.997,280.764,407.51,268.577,407.51,256z"/>
	</g>
</g>
<g>
	<g>
		<polygon points="223.018,366.415 223.018,396.166 126.887,372.001 126.887,338.31 111.214,338.31 111.214,384.221     238.691,416.268 238.691,366.415   "/>
	</g>
</g>
<g>
	<g>
		<rect x="159.91" y="290.24" width="15.673" height="15.674"/>
	</g>
</g>
<g>
</g>
<g>
</g>
<g>
</g>
<g>
</g>
<g>
</g>
<g>
</g>
<g>
</g>
<g>
</g>
<g>
</g>
<g>
</g>
<g>
</g>
<g>
</g>
<g>
</g>
<g>
</g>
<g>
</g>
</svg>
