<?xml version="1.0" encoding="iso-8859-1"?>
<!-- Generator: Adobe Illustrator 19.0.0, SVG Export Plug-In . SVG Version: 6.00 Build 0)  -->
<svg xmlns="http://www.w3.org/2000/svg" xmlns:xlink="http://www.w3.org/1999/xlink" version="1.1" id="Layer_1" x="0px" y="0px" viewBox="0 0 511.999 511.999" style="enable-background:new 0 0 511.999 511.999;" xml:space="preserve">
<g>
	<g>
		<path d="M36.571,256h15.673c0-18.724,15.233-33.958,33.958-33.958v-15.673C58.836,206.368,36.571,228.634,36.571,256z"/>
	</g>
</g>
<g>
	<g>
		<path d="M342.693,95.818h15.673c0-14.115,11.483-25.599,25.599-25.599V54.546C361.209,54.546,342.693,73.061,342.693,95.818z"/>
	</g>
</g>
<g>
	<g>
		<path d="M441.471,345.651c-27.632,0-51.59,15.98-63.152,39.178l-215.971-88.481c6.409-12.046,10.057-25.777,10.057-40.348    c0-16.075-4.435-31.13-12.129-44.025l164.13-78.453c12.521,19.709,34.531,32.826,59.56,32.826    c38.89,0,70.529-31.639,70.529-70.529S422.856,25.29,383.966,25.29c-38.89,0-70.529,31.639-70.529,70.529    c0,8.284,1.447,16.233,4.082,23.624l-166.644,79.655c-15.809-17.946-38.933-29.3-64.673-29.3C38.671,169.797,0,208.466,0,255.999    s38.671,86.202,86.202,86.202c27.244,0,51.558-12.718,67.367-32.513l219.368,89.873c-1.294,5.332-1.996,10.894-1.996,16.619    c0,38.89,31.639,70.529,70.529,70.529c38.89,0,70.529-31.639,70.529-70.529C512,377.291,480.36,345.651,441.471,345.651z     M383.966,40.962c30.247,0,54.856,24.608,54.856,54.856c0,30.248-24.609,54.856-54.856,54.856s-54.856-24.608-54.856-54.856    C329.11,65.57,353.718,40.962,383.966,40.962z M86.202,326.529c-38.89,0-70.529-31.639-70.529-70.529    c0-38.89,31.639-70.529,70.529-70.529c38.89,0,70.529,31.639,70.529,70.529C156.731,294.89,125.093,326.529,86.202,326.529z     M441.471,471.037c-30.247,0-54.856-24.608-54.856-54.856s24.609-54.856,54.856-54.856c30.247,0,54.856,24.608,54.856,54.856    S471.718,471.037,441.471,471.037z"/>
	</g>
</g>
<g>
	<g>
		<path d="M400.198,416.181h15.673c0-14.115,11.483-25.599,25.599-25.599v-15.673C418.712,374.908,400.198,393.423,400.198,416.181z    "/>
	</g>
</g>
<g>
</g>
<g>
</g>
<g>
</g>
<g>
</g>
<g>
</g>
<g>
</g>
<g>
</g>
<g>
</g>
<g>
</g>
<g>
</g>
<g>
</g>
<g>
</g>
<g>
</g>
<g>
</g>
<g>
</g>
</svg>
