<?xml version="1.0" encoding="iso-8859-1"?>
<!-- Generator: Adobe Illustrator 19.0.0, SVG Export Plug-In . SVG Version: 6.00 Build 0)  -->
<svg xmlns="http://www.w3.org/2000/svg" xmlns:xlink="http://www.w3.org/1999/xlink" version="1.1" id="Layer_1" x="0px" y="0px" viewBox="0 0 512 512" style="enable-background:new 0 0 512 512;" xml:space="preserve">
<g>
	<g>
		<path d="M329.143,306.617v0.001v41.796h-10.449V223.026h-54.857v-39.595c39.6-21.355,56.324-70.149,37.493-111.53    c-0.103-0.254-0.211-0.503-0.324-0.744c-8.426-18.068-42.96-13.191-72.468-2.604l5.293,14.753    c33.894-12.162,51.383-8.922,52.97-5.524v0.001l0.001,0.002c2.235,4.819-14.679,27.028-56.193,46.387    c-18.226,8.499-36.353,14.109-51.04,15.797c-13.922,1.603-19.901-1.042-20.615-2.573c-0.713-1.528,1.108-7.8,11.284-17.436    c9.328-8.833,22.593-17.749,37.865-25.51l7.673,16.455l14.205-6.625l-19.338-41.47c6.898-6.788,9.155-17.451,4.839-26.71v-0.001    c-5.48-11.748-19.497-16.85-31.243-11.371c-11.749,5.478-16.851,19.494-11.372,31.242c3.984,8.545,12.483,13.573,21.344,13.573    c0.741,0,1.484-0.041,2.227-0.112l5.039,10.804c-16.799,8.498-31.531,18.414-42.014,28.341    c-17.912,16.959-17.887,28.633-14.712,35.441v0.001c0.009,0.021,0.021,0.04,0.03,0.061c0.093,0.197,0.191,0.395,0.294,0.592    c9.788,20.545,26.914,36.135,48.323,43.925c9.619,3.501,19.589,5.243,29.531,5.243c8.511,0,17.002-1.279,25.233-3.821v33.004    h-54.856v31.31h15.673v-15.637h94.041v222.041c0,7.201-5.859,13.061-13.061,13.061h-41.796V340.576    c0-4.322,3.515-7.837,7.837-7.837c4.322,0,7.837,3.515,7.837,7.837v86.19h15.673v-86.19c0-12.963-10.547-23.51-23.51-23.51    c-12.964,0-23.51,10.547-23.51,23.51V473.8h-10.449c-7.203,0-13.061-5.86-13.061-13.061V307.103h-15.673v41.31h-10.449v-41.796H0    v99.265h182.857v-41.796h10.449v96.653c0,15.844,12.89,28.735,28.735,28.735h67.918c15.844,0,28.735-12.891,28.735-28.735v-96.653    h10.449v41.796H512v-99.265H329.143z M197.489,53.14c-3.916,1.831-8.588,0.126-10.415-3.791    c-1.825-3.916-0.125-8.588,3.791-10.413c1.068-0.499,2.192-0.735,3.3-0.735c2.953,0,5.787,1.676,7.115,4.524    C203.105,46.642,201.405,51.315,197.489,53.14z M198.759,173.872c-10.446-3.801-19.634-9.884-27.061-17.728    c2.917-0.009,6.126-0.198,9.662-0.604c16.317-1.876,36.16-7.971,55.874-17.164c19.714-9.192,37.138-20.475,49.063-31.769    c2.575-2.439,4.768-4.765,6.646-6.985c3.308,29.293-12.1,58.764-40.255,71.894C235.613,179.476,216.46,180.314,198.759,173.872z     M99.265,322.291h26.122v26.122H99.265V322.291z M57.469,322.291h26.122v26.122H57.469V322.291z M15.673,322.291h26.122v26.122    H15.673V322.291z M15.673,390.209v-26.122h26.122v26.122H15.673z M57.469,390.209v-26.122h26.122v26.122H57.469z M99.265,390.209    v-26.122h26.122v26.122H99.265z M167.184,390.209h-26.122v-26.122h26.122V390.209z M167.184,348.413h-26.122v-26.122h26.122    V348.413z M370.939,390.209h-26.122v-26.122h26.122V390.209z M370.939,348.413h-26.122v-26.122h26.122V348.413z M412.735,390.209    h-26.122v-26.122h26.122V390.209z M412.735,348.413h-26.122v-26.122h26.122V348.413z M454.531,390.209h-26.122v-26.122h26.122    V390.209z M454.531,348.413h-26.122v-26.122h26.122V348.413z M496.327,390.209h-26.122v-26.122h26.122V390.209z M496.327,348.413    h-26.122v-26.122h26.122V348.413z"/>
	</g>
</g>
<g>
	<g>
		<rect x="193.31" y="272.621" width="15.673" height="15.673"/>
	</g>
</g>
<g>
	<g>
		<rect x="263.84" y="445.051" width="15.673" height="15.673"/>
	</g>
</g>
<g>
</g>
<g>
</g>
<g>
</g>
<g>
</g>
<g>
</g>
<g>
</g>
<g>
</g>
<g>
</g>
<g>
</g>
<g>
</g>
<g>
</g>
<g>
</g>
<g>
</g>
<g>
</g>
<g>
</g>
</svg>
