<?xml version="1.0" encoding="iso-8859-1"?>
<!-- Generator: Adobe Illustrator 19.0.0, SVG Export Plug-In . SVG Version: 6.00 Build 0)  -->
<svg xmlns="http://www.w3.org/2000/svg" xmlns:xlink="http://www.w3.org/1999/xlink" version="1.1" id="Layer_1" x="0px" y="0px" viewBox="0 0 512 512" style="enable-background:new 0 0 512 512;" xml:space="preserve">
<g>
	<g>
		<rect x="125.9" y="147.88" width="15.673" height="15.673"/>
	</g>
</g>
<g>
	<g>
		<path d="M331.226,106.057v121.196h-58.272l28.983-28.983l-11.084-11.082l-47.902,47.902l47.902,47.902l11.084-11.082    l-28.983-28.983h148.139v-15.673H346.9v-63.699h91.937V147.88H346.9v-26.15h149.427v226.717H346.9v-81.991h-15.673v139.487H512    V106.057H331.226z M496.327,390.269H346.9V364.12h149.427V390.269z"/>
	</g>
</g>
<g>
	<g>
		<rect x="457.12" y="147.88" width="15.673" height="15.673"/>
	</g>
</g>
<g>
	<g>
		<rect x="413.78" y="368.34" width="15.673" height="15.673"/>
	</g>
</g>
<g>
	<g>
		<rect x="82.55" y="368.34" width="15.673" height="15.673"/>
	</g>
</g>
<g>
	<g>
		<path d="M221.146,249.92l-11.084,11.083l28.983,28.982H90.384v15.673H165.1v42.789H15.673V163.553h91.936V147.88H15.673v-26.149    H165.1v144.725h15.673V106.057H0v299.886h180.774V305.659h58.272l-28.983,28.983l11.084,11.082l47.902-47.902L221.146,249.92z     M165.1,390.269H15.673V364.12H165.1V390.269z"/>
	</g>
</g>
<g>
	<g>
		<rect x="56.42" y="289.98" width="15.673" height="15.673"/>
	</g>
</g>
<g>
	<g>
		<rect x="439.9" y="227.25" width="15.673" height="15.673"/>
	</g>
</g>
<g>
</g>
<g>
</g>
<g>
</g>
<g>
</g>
<g>
</g>
<g>
</g>
<g>
</g>
<g>
</g>
<g>
</g>
<g>
</g>
<g>
</g>
<g>
</g>
<g>
</g>
<g>
</g>
<g>
</g>
</svg>
