<?xml version="1.0" encoding="iso-8859-1"?>
<!-- Generator: Adobe Illustrator 19.0.0, SVG Export Plug-In . SVG Version: 6.00 Build 0)  -->
<svg xmlns="http://www.w3.org/2000/svg" xmlns:xlink="http://www.w3.org/1999/xlink" version="1.1" id="Layer_1" x="0px" y="0px" viewBox="0 0 512.001 512.001" style="enable-background:new 0 0 512.001 512.001;" xml:space="preserve">
<g>
	<g>
		<path d="M316.892,185.983c-0.669-1.356-1.609-2.499-2.824-3.431c-1.215-0.931-2.702-1.72-4.464-2.369    c-1.762-0.647-3.736-1.235-5.921-1.762c-1.783-0.445-3.341-0.86-4.677-1.245c-1.336-0.385-2.45-0.83-3.341-1.336    c-0.891-0.506-1.549-1.093-1.974-1.762c-0.425-0.668-0.637-1.528-0.637-2.581c0-1.862,0.677-3.32,2.034-4.373    c1.356-1.052,3.471-1.58,6.347-1.58c1.296,0,2.56,0.142,3.796,0.425c1.235,0.283,2.369,0.648,3.401,1.093    c1.032,0.446,1.933,0.922,2.702,1.427c0.769,0.507,1.356,0.982,1.762,1.427l3.098-5.588c-1.863-1.376-4.029-2.53-6.499-3.462    c-2.47-0.931-5.163-1.397-8.078-1.397c-2.228,0-4.292,0.283-6.195,0.851c-1.904,0.567-3.553,1.408-4.95,2.52    c-1.397,1.114-2.5,2.49-3.31,4.13c-0.81,1.639-1.215,3.513-1.215,5.618c0,1.7,0.274,3.149,0.82,4.343    c0.547,1.195,1.346,2.238,2.399,3.128c1.052,0.891,2.378,1.651,3.978,2.278c1.599,0.629,3.471,1.226,5.618,1.792    c1.862,0.487,3.522,0.952,4.981,1.397c1.458,0.446,2.693,0.941,3.704,1.489c1.011,0.547,1.792,1.184,2.339,1.913    c0.547,0.728,0.82,1.639,0.82,2.733c0,1.82-0.729,3.197-2.187,4.129c-1.458,0.931-3.523,1.396-6.195,1.396    c-1.66,0-3.26-0.192-4.798-0.577c-1.539-0.383-2.966-0.851-4.282-1.397c-1.317-0.546-2.47-1.144-3.462-1.792    c-0.993-0.648-1.752-1.235-2.278-1.762l-3.097,5.831c2.469,1.904,5.233,3.351,8.291,4.343c3.056,0.993,6.225,1.488,9.505,1.488    c2.187,0,4.231-0.233,6.135-0.699c1.903-0.465,3.573-1.193,5.01-2.186c1.437-0.992,2.571-2.278,3.401-3.857    c0.83-1.579,1.245-3.462,1.245-5.649C317.896,188.99,317.561,187.341,316.892,185.983z"/>
	</g>
</g>
<g>
	<g>
		<polygon points="360.533,159.776 346.259,186.136 331.986,159.776 324.698,159.776 324.698,202.899 331.501,202.899     331.501,171.863 344.376,195.368 348.142,195.368 360.957,171.863 360.957,202.899 367.821,202.899 367.821,159.776   "/>
	</g>
</g>
<g>
	<g>
		<path d="M406.845,185.983c-0.669-1.356-1.61-2.499-2.824-3.431c-1.215-0.931-2.702-1.72-4.464-2.369    c-1.762-0.647-3.736-1.235-5.922-1.762c-1.783-0.445-3.341-0.86-4.677-1.245c-1.336-0.385-2.45-0.83-3.341-1.336    c-0.891-0.506-1.549-1.093-1.974-1.762c-0.425-0.668-0.637-1.528-0.637-2.581c0-1.862,0.677-3.32,2.034-4.373    c1.356-1.052,3.471-1.58,6.347-1.58c1.296,0,2.56,0.142,3.796,0.425c1.235,0.283,2.369,0.648,3.401,1.093    c1.032,0.446,1.933,0.922,2.702,1.427c0.769,0.507,1.356,0.982,1.762,1.427l3.098-5.588c-1.863-1.376-4.029-2.53-6.499-3.462    c-2.47-0.931-5.163-1.397-8.078-1.397c-2.228,0-4.292,0.283-6.195,0.851c-1.904,0.567-3.553,1.408-4.95,2.52    c-1.397,1.114-2.5,2.49-3.31,4.13c-0.81,1.639-1.215,3.513-1.215,5.618c0,1.7,0.274,3.149,0.82,4.343    c0.547,1.195,1.346,2.238,2.399,3.128c1.052,0.891,2.378,1.651,3.978,2.278c1.599,0.629,3.471,1.226,5.618,1.792    c1.862,0.487,3.522,0.952,4.981,1.397c1.458,0.446,2.693,0.941,3.704,1.489c1.011,0.547,1.792,1.184,2.339,1.913    c0.546,0.728,0.82,1.639,0.82,2.733c0.001,1.82-0.728,3.197-2.186,4.129c-1.458,0.931-3.523,1.396-6.195,1.396    c-1.66,0-3.26-0.192-4.798-0.577c-1.539-0.383-2.966-0.851-4.282-1.397c-1.317-0.546-2.47-1.144-3.462-1.792    c-0.993-0.648-1.752-1.235-2.278-1.762l-3.097,5.831c2.469,1.904,5.233,3.351,8.291,4.343c3.056,0.993,6.226,1.488,9.505,1.488    c2.187,0,4.231-0.233,6.135-0.699c1.903-0.465,3.573-1.193,5.01-2.186c1.437-0.992,2.57-2.278,3.401-3.857    c0.829-1.579,1.245-3.462,1.245-5.649C407.847,188.99,407.512,187.341,406.845,185.983z"/>
	</g>
</g>
<g>
	<g>
		<path d="M227.58,446.148h-35.527c-11.812,0-21.42,9.609-21.42,21.42c0,11.811,9.609,21.42,21.42,21.42h35.527    c11.812,0,21.42-9.609,21.42-21.42C249.001,455.757,239.392,446.148,227.58,446.148z M227.58,473.316h-35.527    c-3.169,0-5.747-2.578-5.747-5.747s2.578-5.747,5.747-5.747h35.527c3.169,0,5.747,2.578,5.747,5.747    S230.749,473.316,227.58,473.316z"/>
	</g>
</g>
<g>
	<g>
		<rect x="311.162" y="423.14" width="15.673" height="15.673"/>
	</g>
</g>
<g>
	<g>
		<rect x="162.791" y="36.592" width="15.458" height="15.673"/>
	</g>
</g>
<g>
	<g>
		<rect x="196.811" y="36.592" width="60.03" height="15.673"/>
	</g>
</g>
<g>
	<g>
		<path d="M339.907,270.235v181.684c0,24.487-19.921,44.408-44.408,44.408H124.136c-24.487,0-44.408-19.921-44.408-44.408v-13.107    h213.146v-15.673H79.728V167.373H64.053v284.546c0,33.13,26.952,60.082,60.082,60.082h171.363    c33.13,0,60.082-26.952,60.082-60.082V270.235H339.907z"/>
	</g>
</g>
<g>
	<g>
		<rect x="64.051" y="132.89" width="15.673" height="15.673"/>
	</g>
</g>
<g>
	<g>
		<path d="M355.581,116.092v-56.01C355.581,26.952,328.629,0,295.499,0H124.136c-33.13,0-60.082,26.952-60.082,60.082v54.524h15.673    V88.862h260.18v27.23h-95.702v130.612h21.316v54.331l54.331-54.331h128.098V116.092H355.581z M79.728,73.189V60.082    c0-24.487,19.921-44.408,44.408-44.408h171.363c24.487,0,44.408,19.921,44.408,44.408v13.107H79.728z M432.276,231.031    L432.276,231.031H313.36l-32.165,32.165v-32.165h-21.316v-99.265h172.398V231.031z"/>
	</g>
</g>
<g>
</g>
<g>
</g>
<g>
</g>
<g>
</g>
<g>
</g>
<g>
</g>
<g>
</g>
<g>
</g>
<g>
</g>
<g>
</g>
<g>
</g>
<g>
</g>
<g>
</g>
<g>
</g>
<g>
</g>
</svg>
