<?xml version="1.0" encoding="iso-8859-1"?>
<!-- Generator: Adobe Illustrator 19.0.0, SVG Export Plug-In . SVG Version: 6.00 Build 0)  -->
<svg xmlns="http://www.w3.org/2000/svg" xmlns:xlink="http://www.w3.org/1999/xlink" version="1.1" id="Layer_1" x="0px" y="0px" viewBox="0 0 512.001 512.001" style="enable-background:new 0 0 512.001 512.001;" xml:space="preserve">
<g>
	<g>
		<path d="M483.265,201.288h-31.333v15.674h31.333c7.202,0,13.061,5.859,13.061,13.061v187.936c0,7.203-5.859,13.061-13.061,13.061    h-31.347c-7.202,0-13.061-5.859-13.061-13.062L438.81,65.306H0v352.653c0,15.844,12.89,28.735,28.735,28.735h454.531    c15.845,0,28.735-12.891,28.735-28.735V230.023C512,214.179,499.11,201.288,483.265,201.288z M28.735,431.021v-0.001    c-7.202,0-13.061-5.859-13.061-13.061V80.98h407.465l0.045,336.98c0,4.7,1.135,9.141,3.143,13.061H28.735z"/>
	</g>
</g>
<g>
	<g>
		<rect x="190.69" y="117.55" width="188.08" height="15.673"/>
	</g>
</g>
<g>
	<g>
		<rect x="190.69" y="204.62" width="188.08" height="15.673"/>
	</g>
</g>
<g>
	<g>
		<path d="M52.245,117.551v102.748h112.326V117.551H52.245z M148.898,204.626h-80.98v-71.401h80.98V204.626z"/>
	</g>
</g>
<g>
	<g>
		<rect x="60.08" y="335.24" width="146.29" height="15.673"/>
	</g>
</g>
<g>
	<g>
		<rect x="232.49" y="335.24" width="146.29" height="15.673"/>
	</g>
</g>
<g>
	<g>
		<rect x="60.08" y="378.78" width="146.29" height="15.673"/>
	</g>
</g>
<g>
	<g>
		<rect x="232.49" y="378.78" width="111.8" height="15.673"/>
	</g>
</g>
<g>
	<g>
		<rect x="363.1" y="378.78" width="15.673" height="15.673"/>
	</g>
</g>
<g>
	<g>
		<polygon points="52.245,241.719 52.245,313.817 102.876,313.817 102.876,298.144 67.918,298.144 67.918,257.393 370.939,257.393     370.939,298.144 189.603,298.144 189.603,313.817 386.612,313.817 386.612,241.719   "/>
	</g>
</g>
<g>
	<g>
		<rect x="190.69" y="161.09" width="153.6" height="15.673"/>
	</g>
</g>
<g>
	<g>
		<rect x="363.1" y="161.09" width="15.673" height="15.673"/>
	</g>
</g>
<g>
	<g>
		<rect x="121.17" y="298.14" width="15.673" height="15.673"/>
	</g>
</g>
<g>
	<g>
		<rect x="155.65" y="298.14" width="15.673" height="15.673"/>
	</g>
</g>
<g>
</g>
<g>
</g>
<g>
</g>
<g>
</g>
<g>
</g>
<g>
</g>
<g>
</g>
<g>
</g>
<g>
</g>
<g>
</g>
<g>
</g>
<g>
</g>
<g>
</g>
<g>
</g>
<g>
</g>
</svg>
