<?xml version="1.0" encoding="iso-8859-1"?>
<!-- Generator: Adobe Illustrator 19.0.0, SVG Export Plug-In . SVG Version: 6.00 Build 0)  -->
<svg xmlns="http://www.w3.org/2000/svg" xmlns:xlink="http://www.w3.org/1999/xlink" version="1.1" id="Layer_1" x="0px" y="0px" viewBox="0 0 512.001 512.001" style="enable-background:new 0 0 512.001 512.001;" xml:space="preserve">
<g>
	<g>
		<path d="M104.49,117.552v216.816c0,11.862-4.622,23.015-13.009,31.403c-8.397,8.386-19.548,13.005-31.399,13.005    c-24.487,0-44.408-19.921-44.408-44.408V151.511c0-4.881,1.903-9.474,5.354-12.933c3.55-3.552,8.292-5.443,13.309-5.35    c9.875,0.197,17.909,8.666,17.909,18.877v69.414h15.673v-69.414c0-18.682-14.923-34.18-33.267-34.547    c-9.354-0.19-18.112,3.343-24.712,9.943C3.53,133.923,0,142.449,0,151.511v182.857c0,33.13,26.952,60.082,60.082,60.082h391.837    c33.13,0,60.082-26.952,60.082-60.082V117.552H104.49z M451.919,378.776h-351.37c0.681-0.623,1.352-1.262,2.01-1.918    c11.352-11.352,17.603-26.442,17.603-42.49V133.225h376.163v201.143h0.002C496.327,358.855,476.406,378.776,451.919,378.776z"/>
	</g>
</g>
<g>
	<g>
		<rect x="299.1" y="182.86" width="156.74" height="15.673"/>
	</g>
</g>
<g>
	<g>
		<rect x="299.1" y="269.94" width="156.74" height="15.673"/>
	</g>
</g>
<g>
	<g>
		<path d="M152.816,182.863v102.748h112.327V182.863H152.816z M249.469,269.937h-80.98v-71.401h80.98V269.937z"/>
	</g>
</g>
<g>
	<g>
		<rect x="299.1" y="226.4" width="122.25" height="15.673"/>
	</g>
</g>
<g>
	<g>
		<rect x="440.16" y="226.4" width="15.673" height="15.673"/>
	</g>
</g>
<g>
	<g>
		<rect x="368.6" y="313.47" width="87.24" height="15.674"/>
	</g>
</g>
<g>
	<g>
		<rect x="152.82" y="313.47" width="129.06" height="15.674"/>
	</g>
</g>
<g>
	<g>
		<rect x="300.16" y="313.47" width="15.673" height="15.674"/>
	</g>
</g>
<g>
	<g>
		<rect x="334.64" y="313.47" width="15.673" height="15.674"/>
	</g>
</g>
<g>
	<g>
		<rect x="52.24" y="240.33" width="15.673" height="15.673"/>
	</g>
</g>
<g>
</g>
<g>
</g>
<g>
</g>
<g>
</g>
<g>
</g>
<g>
</g>
<g>
</g>
<g>
</g>
<g>
</g>
<g>
</g>
<g>
</g>
<g>
</g>
<g>
</g>
<g>
</g>
<g>
</g>
</svg>
