<?xml version="1.0" encoding="iso-8859-1"?>
<!-- Generator: Adobe Illustrator 19.0.0, SVG Export Plug-In . SVG Version: 6.00 Build 0)  -->
<svg xmlns="http://www.w3.org/2000/svg" xmlns:xlink="http://www.w3.org/1999/xlink" version="1.1" id="Layer_1" x="0px" y="0px" viewBox="0 0 512 512" style="enable-background:new 0 0 512 512;" xml:space="preserve">
<g>
	<g>
		<polygon points="63.466,166.648 63.466,174.838 78.946,174.838 78.946,214.71 88.288,214.71 88.288,174.838 103.767,174.838     103.767,166.648   "/>
	</g>
</g>
<g>
	<g>
		<polygon points="147.613,166.648 134.657,202.998 121.564,166.648 111.676,166.648 130.701,214.71 138.612,214.71 157.5,166.648       "/>
	</g>
</g>
<g>
	<g>
		<rect x="86.971" y="430.8" width="15.672" height="15.672"/>
	</g>
</g>
<g>
	<g>
		<path d="M183.62,0H89.586C73.742,0,60.853,12.889,60.853,28.733v62.676h15.672V28.733c0-7.202,5.858-13.06,13.06-13.06h94.034    c7.202,0,13.06,5.858,13.06,13.06v62.676h15.672V28.733C212.352,12.889,199.463,0,183.62,0z"/>
	</g>
</g>
<g>
	<g>
		<path d="M24.284,104.482v172.396h62.689v135.636h15.672V276.878h67.913v219.45h-67.913v-31.05H86.974V512h99.258V276.878h62.689    V104.482H24.284z M233.249,261.205h-36.566v-44.144h-15.672v44.144H39.957V120.154h141.054v44.144h15.672v-44.144h36.566V261.205z    "/>
	</g>
</g>
<g>
	<g>
		<rect x="181.02" y="182.58" width="15.672" height="15.672"/>
	</g>
</g>
<g>
	<g>
		<path d="M326.634,292.945H275.09c-15.843,0-28.733,12.889-28.733,28.733v161.56c0,7.202-5.858,13.06-13.058,13.06l-31.901-0.007    l-0.003,15.672l31.902,0.006c15.844,0,28.733-12.889,28.733-28.733v-161.56c0-7.202,5.859-13.06,13.06-13.06h51.544    c7.202,0,13.06,5.858,13.06,13.06v37.417h0.001h15.672v-37.416C355.366,305.834,342.477,292.945,326.634,292.945z"/>
	</g>
</g>
<g>
	<g>
		<path d="M415.094,388.674L415.094,388.674c-15.843-0.001-28.733,12.888-28.733,28.732v65.824c0,7.202-5.858,13.06-13.06,13.06    h-4.876c-7.202,0-13.06-5.858-13.06-13.06v-71.373h-15.672v71.373c0,15.844,12.89,28.733,28.733,28.733h4.876    c15.844,0,28.733-12.889,28.733-28.733v-65.824c0-7.202,5.859-13.06,13.06-13.06h72.621v-15.672H415.094z"/>
	</g>
</g>
<g>
	<g>
		<rect x="339.69" y="377.38" width="15.672" height="15.672"/>
	</g>
</g>
<g>
</g>
<g>
</g>
<g>
</g>
<g>
</g>
<g>
</g>
<g>
</g>
<g>
</g>
<g>
</g>
<g>
</g>
<g>
</g>
<g>
</g>
<g>
</g>
<g>
</g>
<g>
</g>
<g>
</g>
</svg>
