<?xml version="1.0" encoding="iso-8859-1"?>
<!-- Generator: Adobe Illustrator 19.0.0, SVG Export Plug-In . SVG Version: 6.00 Build 0)  -->
<svg xmlns="http://www.w3.org/2000/svg" xmlns:xlink="http://www.w3.org/1999/xlink" version="1.1" id="Layer_1" x="0px" y="0px" viewBox="0 0 512 512" style="enable-background:new 0 0 512 512;" xml:space="preserve">
<g>
	<g>
		<path d="M215.081,29.136c-38.909-38.849-102.216-38.847-141.124,0C55.104,47.961,44.721,72.989,44.723,99.611    c0,26.622,10.382,51.649,29.233,70.473l2.295,2.291h18.631v195.719h15.675v-195.72h67.924v297.82h-67.924v-49.329H94.882v65.004    h15.675v26.125h67.924v-26.125h15.675V172.374h18.631l2.295-2.291c18.852-18.823,29.233-43.851,29.234-70.473    C244.315,72.988,233.934,47.96,215.081,29.136z M162.806,496.319h-36.574v-10.45h36.574V496.319z M206.216,156.699H82.82    c-14.484-15.573-22.422-35.722-22.422-57.09c0-22.431,8.749-43.519,24.634-59.381c32.8-32.751,86.171-32.753,118.973,0    c15.886,15.863,24.634,36.951,24.634,59.381C228.639,120.977,220.701,141.126,206.216,156.699z"/>
	</g>
</g>
<g>
	<g>
		<path d="M144.518,212.168c-12.965,0-23.512,10.548-23.512,23.512v41.799c0,12.964,10.547,23.512,23.512,23.512    c12.964,0,23.512-10.548,23.512-23.512V235.68C168.031,222.716,157.484,212.168,144.518,212.168z M152.356,277.48    c0,4.322-3.515,7.837-7.837,7.837c-4.322,0-7.837-3.515-7.837-7.837v-41.8c0-4.322,3.515-7.837,7.837-7.837    c4.322,0,7.837,3.515,7.837,7.837V277.48z"/>
	</g>
</g>
<g>
	<g>
		<rect x="94.88" y="386.38" width="15.675" height="15.675"/>
	</g>
</g>
<g>
	<g>
		<path d="M306.169,292.942h-51.553c-15.846,0-28.737,12.892-28.737,28.737v161.584c0,7.202-5.859,13.062-13.061,13.062    l-19.169-0.003l-0.002,15.675l19.17,0.003c15.846,0,28.737-12.892,28.737-28.737V321.678c0-7.203,5.859-13.062,13.062-13.062    h51.553c7.202,0,13.062,5.859,13.062,13.062v37.423h15.675v-37.422C334.906,305.834,322.014,292.942,306.169,292.942z"/>
	</g>
</g>
<g>
	<g>
		<path d="M394.644,388.686L394.644,388.686c-15.845,0-28.737,12.892-28.737,28.737v65.834c0,7.203-5.859,13.062-13.062,13.062    h-4.876c-7.203,0-13.062-5.859-13.062-13.062v-71.384h-15.675v71.384c0,15.845,12.892,28.737,28.737,28.737h4.876    c15.845,0,28.737-12.892,28.737-28.737v-65.834c0-7.203,5.859-13.062,13.062-13.062h72.634v-15.675H394.644z"/>
	</g>
</g>
<g>
	<g>
		<rect x="319.23" y="377.38" width="15.675" height="15.675"/>
	</g>
</g>
<g>
</g>
<g>
</g>
<g>
</g>
<g>
</g>
<g>
</g>
<g>
</g>
<g>
</g>
<g>
</g>
<g>
</g>
<g>
</g>
<g>
</g>
<g>
</g>
<g>
</g>
<g>
</g>
<g>
</g>
</svg>
