<?xml version="1.0" encoding="iso-8859-1"?>
<!-- Generator: Adobe Illustrator 19.0.0, SVG Export Plug-In . SVG Version: 6.00 Build 0)  -->
<svg xmlns="http://www.w3.org/2000/svg" xmlns:xlink="http://www.w3.org/1999/xlink" version="1.1" id="Layer_1" x="0px" y="0px" viewBox="0 0 512.001 512.001" style="enable-background:new 0 0 512.001 512.001;" xml:space="preserve">
<g>
	<g>
		<path d="M376.432,159.28c-20.424-19.341-49.744-38.71-83.144-54.995l14.405-30.827c2.735,0.625,5.495,0.935,8.236,0.935    c14.041,0,27.512-7.955,33.827-21.469c4.205-9,4.651-19.097,1.254-28.431c-3.403-9.348-10.251-16.811-19.281-21.012    c-18.614-8.664-40.825-0.594-49.51,17.989v0.001c-4.205,8.999-4.65,19.096-1.253,28.43c2.49,6.841,6.831,12.665,12.515,16.947    l-38.482,82.347l14.2,6.635l17.452-37.346c73.376,35.772,108.737,77.701,101.69,92.814c-3.825,8.203-21.344,11.554-45.719,8.755    c-28.289-3.252-63.072-13.998-97.942-30.26c-78.214-36.473-116.092-80.631-108.817-96.234    c6.273-13.453,48.385-14.585,107.997,6.807l5.294-14.753c-50.14-17.99-113.619-28.441-127.496,1.323c0,0.001,0,0.001,0,0.001    l-0.001,0.001C87.953,159.22,115,244.509,181.712,284.923l-36.795,211.404h-32.593v15.674h287.352v-15.674h-32.594L331.36,291.08    c31.274-15.55,56.204-41.024,71.186-73.153c0.001-0.001,0.001-0.002,0.002-0.004C407.552,207.189,407.083,188.304,376.432,159.28z     M296.42,28.105c5.03-10.766,17.905-15.435,28.698-10.415c5.231,2.434,9.195,6.753,11.165,12.164    c1.963,5.395,1.706,11.231-0.725,16.434c-5.029,10.766-17.904,15.438-28.698,10.415c-5.23-2.434-9.195-6.753-11.164-12.163    C293.731,39.144,293.988,33.308,296.42,28.105z M182.173,373.691l151.283,58.03l-171.93,60.601L182.173,373.691z M351.175,496.326    H197.318l144.963-51.095L351.175,496.326z M337.263,416.394L189.95,359.886l128.875-49.433L337.263,416.394z M187.321,344.107    l8.944-51.389c0.116,0.055,0.229,0.113,0.344,0.166c20.837,9.718,43.078,14.605,65.402,14.604c9.035,0,18.084-0.805,27.059-2.41    L187.321,344.107z M309.739,283.333c-34.958,12.726-72.782,11.073-106.503-4.653c-60.858-28.38-91.609-95.425-76.685-158.355    c4.431,7.388,11.207,15.782,21.219,25.265c21.866,20.709,53.931,41.452,90.289,58.407c36.358,16.956,72.859,28.188,102.777,31.626    c6.647,0.764,12.61,1.111,17.962,1.111c5.69,0,10.676-0.398,15.063-1.098C357.774,257.338,335.701,273.883,309.739,283.333z"/>
	</g>
</g>
<g>
	<g>
		<rect x="417.963" y="496.32" width="15.674" height="15.674"/>
	</g>
</g>
<g>
	<g>
		<rect x="78.363" y="496.32" width="15.674" height="15.674"/>
	</g>
</g>
<g>
</g>
<g>
</g>
<g>
</g>
<g>
</g>
<g>
</g>
<g>
</g>
<g>
</g>
<g>
</g>
<g>
</g>
<g>
</g>
<g>
</g>
<g>
</g>
<g>
</g>
<g>
</g>
<g>
</g>
</svg>
