<?xml version="1.0" encoding="iso-8859-1"?>
<!-- Generator: Adobe Illustrator 19.0.0, SVG Export Plug-In . SVG Version: 6.00 Build 0)  -->
<svg xmlns="http://www.w3.org/2000/svg" xmlns:xlink="http://www.w3.org/1999/xlink" version="1.1" id="Layer_1" x="0px" y="0px" viewBox="0 0 512.001 512.001" style="enable-background:new 0 0 512.001 512.001;" xml:space="preserve">
<g>
	<g>
		<path d="M289.209,375.463c-18.311-18.159-48.106-18.157-66.417-0.001c-8.891,8.817-13.788,20.543-13.788,33.021    c0,12.478,4.897,24.206,13.788,33.023c9.155,9.08,21.182,13.619,33.208,13.619c12.027,0,24.053-4.539,33.209-13.619    c8.891-8.817,13.788-20.544,13.787-33.023C302.997,396.005,298.1,384.278,289.209,375.463z M278.311,430.516    c-12.303,12.197-32.319,12.198-44.622,0c-5.938-5.889-9.209-13.714-9.209-22.033c0-8.319,3.27-16.142,9.209-22.031v-0.001    c6.152-6.099,14.231-9.149,22.31-9.149c8.08,0,16.16,3.05,22.312,9.149c5.938,5.888,9.208,13.713,9.208,22.031    C287.52,416.802,284.249,424.625,278.311,430.516z"/>
	</g>
</g>
<g>
	<g>
		<path d="M506.5,159.787c-33.822-33.539-73.266-59.509-117.233-77.188C346.824,65.531,301.986,56.877,256,56.877    c-45.986,0-90.824,8.654-133.267,25.721C78.765,100.278,39.322,126.247,5.5,159.787L0,165.24l38.353,38.608l5.49-5.444    c56.659-56.181,132.004-87.123,212.158-87.123s155.499,30.94,212.157,87.123l5.49,5.444l38.353-38.608L506.5,159.787z     M473.5,182.035c-58.901-55.669-135.828-86.231-217.499-86.231s-158.599,30.562-217.5,86.231L21.96,165.383    c31.084-29.478,66.893-52.48,106.549-68.425c40.599-16.326,83.493-24.604,127.492-24.604c43.999,0,86.894,8.278,127.493,24.604    c39.655,15.944,75.464,38.946,106.549,68.425L473.5,182.035z"/>
	</g>
</g>
<g>
	<g>
		<path d="M437.1,228.602c-48.385-47.98-112.702-74.403-181.101-74.403s-132.714,26.423-181.102,74.404l-5.5,5.453l38.353,38.608    l5.49-5.444c78.718-78.055,206.799-78.055,285.517,0l5.49,5.444l38.353-38.608L437.1,228.602z M404.07,250.883    c-41.605-38.447-94.835-57.665-148.07-57.665c-53.234,0-106.466,19.218-148.07,57.665l-16.548-16.658    c44.775-41.687,102.927-64.55,164.618-64.55s119.843,22.862,164.618,64.55L404.07,250.883z"/>
	</g>
</g>
<g>
	<g>
		<path d="M367.703,297.419c-61.593-61.077-161.813-61.077-223.405,0l-5.5,5.453l38.354,38.608l5.49-5.444    c40.45-40.112,106.269-40.112,146.719,0l5.49,5.444l38.353-38.608L367.703,297.419z M334.591,319.779    c-22.409-19.526-50.5-29.286-78.592-29.286c-28.093,0-56.183,9.761-78.591,29.286l-16.566-16.676    c53.981-48.041,136.334-48.041,190.317,0L334.591,319.779z"/>
	</g>
</g>
<g>
</g>
<g>
</g>
<g>
</g>
<g>
</g>
<g>
</g>
<g>
</g>
<g>
</g>
<g>
</g>
<g>
</g>
<g>
</g>
<g>
</g>
<g>
</g>
<g>
</g>
<g>
</g>
<g>
</g>
</svg>
