<?xml version="1.0" encoding="iso-8859-1"?>
<!-- Generator: Adobe Illustrator 19.0.0, SVG Export Plug-In . SVG Version: 6.00 Build 0)  -->
<svg xmlns="http://www.w3.org/2000/svg" xmlns:xlink="http://www.w3.org/1999/xlink" version="1.1" id="Layer_1" x="0px" y="0px" viewBox="0 0 512 512" style="enable-background:new 0 0 512 512;" xml:space="preserve">
<g>
	<g>
		<path d="M271.295,409.643l-10.622,11.435l81.075,75.315h-88.79V297.969c8.099,1.229,16.288,1.847,24.492,1.846    c24.079-0.002,48.289-5.345,70.757-16.13c4.526-1.522,8.548-3.655,12.022-6.386c0.272-0.159,0.547-0.307,0.818-0.467l-0.08-0.134    c1.633-1.356,3.147-2.841,4.518-4.475c13.43-16.007,11.324-42.841-5.626-74.138l83.863-99.945l-47.846-40.146l23.409-27.898    L383.416,0l-56.848,67.75l35.868,30.096l23.408-27.897l35.889,30.115l-108.68,129.522l11.955,10.033l23.985-28.585    c11.06,22.553,12.839,41.261,4.536,51.157c-0.674,0.803-1.424,1.545-2.232,2.238c-2.917,1.679-5.875,3.251-8.868,4.715    c-10.116,3.135-24.549,2.17-41.726-3.016c-27.665-8.353-58.882-26.363-87.896-50.709c-29.016-24.347-52.173-51.961-65.203-77.755    c-8.113-16.059-11.567-30.139-10.207-40.654c0.918-3.181,1.965-6.341,3.106-9.483c0.54-0.91,1.137-1.772,1.806-2.57    c8.46-10.082,27.714-11.516,52.823-3.935c27.67,8.354,58.887,26.363,87.9,50.707c19.143,16.063,36.14,33.999,49.156,51.869    l12.616-9.19c-13.751-18.877-31.642-37.771-51.74-54.635C262.468,94.1,229.29,75.032,199.643,66.082    c-31.833-9.611-56.441-6.471-69.29,8.843c-1.371,1.634-2.573,3.383-3.625,5.227l-0.144-0.055    c-0.111,0.294-0.215,0.589-0.325,0.884c-2.076,3.875-3.473,8.179-4.189,12.871c-17.156,61.147,2.595,127.284,51.503,168.322    c18.917,15.874,40.773,26.792,63.776,32.632v97.8L125.627,496.393h-23.535V512h286.132v-15.607H364.68L271.295,409.643z     M360.511,75.857l-11.955-10.032l36.785-43.838l11.955,10.032L360.511,75.857z M183.607,250.217    c-33.001-27.69-51.288-68.047-51.98-109.739c0.654,1.397,1.33,2.802,2.048,4.223c13.962,27.638,38.503,56.999,69.1,82.674    c30.599,25.675,63.774,44.744,93.418,53.695c1.519,0.458,3.021,0.888,4.506,1.288c-7.716,1.229-15.492,1.853-23.255,1.853    C243.789,284.21,210.419,272.715,183.607,250.217z M237.351,496.393h-88.792l88.792-82.485V496.393z"/>
	</g>
</g>
<g>
	<g>
		<rect x="406.428" y="496.39" width="15.607" height="15.607"/>
	</g>
</g>
<g>
	<g>
		<rect x="68.278" y="496.39" width="15.607" height="15.607"/>
	</g>
</g>
<g>
</g>
<g>
</g>
<g>
</g>
<g>
</g>
<g>
</g>
<g>
</g>
<g>
</g>
<g>
</g>
<g>
</g>
<g>
</g>
<g>
</g>
<g>
</g>
<g>
</g>
<g>
</g>
<g>
</g>
</svg>
