<?xml version="1.0" encoding="iso-8859-1"?>
<!-- Generator: Adobe Illustrator 19.0.0, SVG Export Plug-In . SVG Version: 6.00 Build 0)  -->
<svg xmlns="http://www.w3.org/2000/svg" xmlns:xlink="http://www.w3.org/1999/xlink" version="1.1" id="Layer_1" x="0px" y="0px" viewBox="0 0 512 512" style="enable-background:new 0 0 512 512;" xml:space="preserve">
<g>
	<g>
		<path d="M366.298,496.305L263.854,188.974v-30.558c14.978-3.553,26.158-17.032,26.158-33.082    c0-18.751-15.255-34.006-34.006-34.006c-18.75,0-34.006,15.255-34.006,34.006c0,16.05,11.18,29.529,26.158,33.082v30.558    l-101.857,305.57l-6.454,1.761h-27.713V512h287.743v-15.695H366.298z M326.57,426.76l-115.626-51.63l81.933-49.45L326.57,426.76z     M237.695,125.334c0-10.096,8.215-18.311,18.311-18.311s18.311,8.215,18.311,18.311s-8.215,18.311-18.311,18.311    S237.695,135.431,237.695,125.334z M256.005,215.064l27.549,82.648l-46.783-24.947L256.005,215.064z M231.737,287.869    l49.596,26.447l-73.123,44.134L231.737,287.869z M198.737,386.868l118.947,53.112L164.75,488.834L198.737,386.868z     M192.939,496.306l141.724-45.272l15.09,45.272H192.939z"/>
	</g>
</g>
<g>
	<g>
		<rect x="418.182" y="496.3" width="15.695" height="15.695"/>
	</g>
</g>
<g>
	<g>
		<rect x="78.122" y="496.3" width="15.695" height="15.695"/>
	</g>
</g>
<g>
	<g>
		<path d="M142.667,11.056L131.526,0c-68.592,69.11-68.592,181.56,0,250.667l11.14-11.056    C80.127,176.599,80.127,74.069,142.667,11.056z"/>
	</g>
</g>
<g>
	<g>
		<path d="M178.339,47L167.2,35.943c-48.922,49.29-48.922,129.492,0,178.784l11.139-11.056    C135.469,160.477,135.469,90.193,178.339,47z"/>
	</g>
</g>
<g>
	<g>
		<path d="M214.012,82.94l-11.14-11.057c-29.251,29.473-29.251,77.428,0,106.9l11.14-11.056    C190.81,144.352,190.812,106.318,214.012,82.94z"/>
	</g>
</g>
<g>
	<g>
		<path d="M380.484,0l-11.139,11.056c62.541,63.014,62.541,165.542,0,228.556l11.139,11.056    C449.076,181.558,449.076,69.109,380.484,0z"/>
	</g>
</g>
<g>
	<g>
		<path d="M344.812,35.943l-11.139,11.055c42.871,43.194,42.871,113.478,0,156.672l11.139,11.057    C393.734,165.436,393.734,85.234,344.812,35.943z"/>
	</g>
</g>
<g>
	<g>
		<path d="M309.138,71.884l-11.14,11.056c23.201,23.377,23.201,61.412,0,84.788l11.14,11.057    C338.391,149.312,338.391,101.357,309.138,71.884z"/>
	</g>
</g>
<g>
</g>
<g>
</g>
<g>
</g>
<g>
</g>
<g>
</g>
<g>
</g>
<g>
</g>
<g>
</g>
<g>
</g>
<g>
</g>
<g>
</g>
<g>
</g>
<g>
</g>
<g>
</g>
<g>
</g>
</svg>
