<?xml version="1.0" encoding="iso-8859-1"?>
<!-- Generator: Adobe Illustrator 19.0.0, SVG Export Plug-In . SVG Version: 6.00 Build 0)  -->
<svg xmlns="http://www.w3.org/2000/svg" xmlns:xlink="http://www.w3.org/1999/xlink" version="1.1" id="Layer_1" x="0px" y="0px" viewBox="0 0 512 512" style="enable-background:new 0 0 512 512;" xml:space="preserve">
<g>
	<g>
		<path d="M466.239,197.887l-45.761,59.92h38.215c-0.834,97.875-77.516,179.032-175.275,185.105l0.942,15.169    c105.754-6.569,188.697-94.391,189.532-200.274H512L466.239,197.887z M451.208,242.609l15.031-19.682l15.031,19.682H451.208z"/>
	</g>
</g>
<g>
	<g>
		<path d="M37.271,255.55H0l45.761,59.92l45.761-59.92H52.469C52.82,152.69,136.601,69.117,239.541,69.117V53.919    C128.22,53.919,37.621,144.311,37.271,255.55z M60.792,270.748L45.761,290.43L30.73,270.748H60.792z"/>
	</g>
</g>
<g>
	<g>
		<path d="M255.998,106.75c-82.405,0-149.445,67.041-149.445,149.447s67.04,149.447,149.445,149.447    c82.404,0,149.445-67.041,149.445-149.447S338.401,106.75,255.998,106.75z M232.982,123.928    c-16.528,15.557-29.78,33.743-39.309,53.745h-46.495C167.307,149.857,197.819,130.03,232.982,123.928z M121.75,256.197    c0-22.886,5.763-44.449,15.903-63.325h49.621c-6.469,17.599-10.203,36.342-10.978,55.726h-35.535v15.198H176.3    c0.783,19.385,4.524,38.129,11.001,55.727h-49.648C127.512,300.647,121.75,279.083,121.75,256.197z M147.18,334.721h46.531    c9.545,20.012,22.816,38.203,39.368,53.76C197.875,382.4,167.326,362.562,147.18,334.721z M248.403,381.867    c-15.558-13.53-28.219-29.492-37.636-47.146h37.636V381.867z M248.403,319.523h-44.777c-7.121-17.454-11.256-36.232-12.115-55.727    h56.892V319.523z M248.403,248.598h-56.895c0.851-19.493,4.976-38.271,12.086-55.726h44.809V248.598z M248.403,177.674h-37.677    c9.423-17.684,22.097-33.672,37.677-47.222V177.674z M390.025,248.598h-54.322c-0.775-19.384-4.509-38.127-10.978-55.726h49.616    C383.352,209.644,388.9,228.538,390.025,248.598z M364.817,177.674h-46.49c-9.529-20.003-22.781-38.187-39.309-53.744    C314.18,130.032,344.689,149.859,364.817,177.674z M263.602,130.456c15.577,13.55,28.251,29.535,37.672,47.217h-37.672V130.456z     M263.601,192.872h44.805c7.111,17.455,11.235,36.233,12.086,55.726h-56.891V192.872z M263.601,263.796h56.887    c-0.859,19.496-4.994,38.274-12.115,55.727h-44.772V263.796z M263.601,381.863v-47.142h37.631    C291.817,352.372,279.157,368.332,263.601,381.863z M278.922,388.48c34.618-32.538,54.837-76.63,56.779-124.684h54.325    C386.503,326.591,339.63,377.989,278.922,388.48z"/>
	</g>
</g>
<g>
	<g>
		<rect x="337.06" y="319.52" width="15.198" height="15.198"/>
	</g>
</g>
<g>
</g>
<g>
</g>
<g>
</g>
<g>
</g>
<g>
</g>
<g>
</g>
<g>
</g>
<g>
</g>
<g>
</g>
<g>
</g>
<g>
</g>
<g>
</g>
<g>
</g>
<g>
</g>
<g>
</g>
</svg>
