<?xml version="1.0" encoding="iso-8859-1"?>
<!-- Generator: Adobe Illustrator 19.0.0, SVG Export Plug-In . SVG Version: 6.00 Build 0)  -->
<svg xmlns="http://www.w3.org/2000/svg" xmlns:xlink="http://www.w3.org/1999/xlink" version="1.1" id="Layer_1" x="0px" y="0px" viewBox="0 0 512.003 512.003" style="enable-background:new 0 0 512.003 512.003;" xml:space="preserve">
<g>
	<g>
		<path d="M463.316,148.734v-37.616H374.5v13.592h-12.099V83.593h-15.673v56.789H374.5v8.351h-48.683v329.143H512v-57.469h-15.673    v41.796H341.49v-138.81l77.42,18.987l77.417-18.987v44.246H512V148.734H463.316z M390.173,126.791h57.469v21.943h-57.469V126.791z     M496.326,307.257l-77.416,18.986l-77.42-18.987V164.408h154.836V307.257z"/>
	</g>
</g>
<g>
	<g>
		<rect x="496.33" y="385.921" width="15.673" height="15.673"/>
	</g>
</g>
<g>
	<g>
		<rect x="361.44" y="180.101" width="114.94" height="15.673"/>
	</g>
</g>
<g>
	<g>
		<rect x="361.44" y="211.471" width="114.94" height="15.674"/>
	</g>
</g>
<g>
	<g>
		<rect x="361.44" y="242.832" width="114.94" height="15.673"/>
	</g>
</g>
<g>
	<g>
		<path d="M417.611,397.031c-12.963,0-23.51,10.546-23.51,23.51s10.547,23.51,23.51,23.51s23.51-10.546,23.51-23.51    C441.121,407.577,430.574,397.031,417.611,397.031z M417.611,428.377c-4.322,0-7.837-3.515-7.837-7.837    c0-4.322,3.515-7.837,7.837-7.837c4.322,0,7.837,3.515,7.837,7.837C425.448,424.862,421.933,428.377,417.611,428.377z"/>
	</g>
</g>
<g>
	<g>
		<rect x="460.71" y="274.202" width="15.674" height="15.673"/>
	</g>
</g>
<g>
	<g>
		<path d="M299.15,57.043l11.083,11.082c24.444-24.444,64.22-24.442,88.663,0l11.083-11.082    C379.421,26.486,329.706,26.488,299.15,57.043z"/>
	</g>
</g>
<g>
	<g>
		<path d="M354.564,57.598c-14.653,0-28.429,5.706-38.79,16.067l11.083,11.082c7.401-7.4,17.241-11.476,27.707-11.476    c10.468,0,20.308,4.075,27.708,11.476l11.083-11.082C382.994,63.306,369.218,57.598,354.564,57.598z"/>
	</g>
</g>
<g>
	<g>
		<path d="M0,248.249v200.889h102.024v13.065H85.728v15.673h114.939v-15.673H186.67v-13.065h102.024v-0.001V248.249H0z     M170.997,462.203h-53.3v-13.065h53.3V462.203z M273.02,391.943h-26.256v15.673h26.256v25.847H15.673v-25.847h178.323v-15.673    H15.673V263.922H273.02V391.943z"/>
	</g>
</g>
<g>
	<g>
		<rect x="212.28" y="391.941" width="15.673" height="15.673"/>
	</g>
</g>
<g>
	<g>
		<rect x="51.628" y="462.202" width="15.673" height="15.673"/>
	</g>
</g>
<g>
	<g>
		<rect x="218.96" y="462.202" width="15.673" height="15.673"/>
	</g>
</g>
<g>
</g>
<g>
</g>
<g>
</g>
<g>
</g>
<g>
</g>
<g>
</g>
<g>
</g>
<g>
</g>
<g>
</g>
<g>
</g>
<g>
</g>
<g>
</g>
<g>
</g>
<g>
</g>
<g>
</g>
</svg>
