<?xml version="1.0" encoding="iso-8859-1"?>
<!-- Generator: Adobe Illustrator 19.0.0, SVG Export Plug-In . SVG Version: 6.00 Build 0)  -->
<svg xmlns="http://www.w3.org/2000/svg" xmlns:xlink="http://www.w3.org/1999/xlink" version="1.1" id="Layer_1" x="0px" y="0px" viewBox="0 0 512.001 512.001" style="enable-background:new 0 0 512.001 512.001;" xml:space="preserve">
<g>
	<g>
		<path d="M129.296,171.941h15.673c0-48.47,39.721-87.902,88.545-87.902V68.366C176.048,68.366,129.296,114.829,129.296,171.941z"/>
	</g>
</g>
<g>
	<g>
		<path d="M483.741,192.27c-18.225-18.164-42.448-28.168-68.206-28.168h-1.936c-3.741-32.205-30.233-57.778-63.01-60.207    c-24.296-41.346-68.744-66.842-117.075-66.842c-72.109,0-131.249,56.303-135.338,127.049h-1.711    C43.274,164.101,0,207.249,0,260.284c0,25.695,10.036,49.85,28.259,68.014c18.224,18.165,42.447,28.168,68.205,28.168h46.29    v-15.673H96.465c-21.581,0-41.874-8.38-57.14-23.596c-15.251-15.202-23.651-35.415-23.651-56.914    c0-44.394,36.243-80.509,80.792-80.509h17.157v-7.837c0-65.734,53.783-119.212,119.892-119.212    c44.088,0,84.519,23.973,105.516,62.563l2.208,4.058l4.62,0.033c28.96,0.209,52.521,23.786,52.521,52.558v7.837h17.157    c21.581,0,41.874,8.38,57.141,23.596c15.251,15.201,23.65,35.414,23.65,56.912c0,44.393-36.242,80.509-80.792,80.509h-46.29    v15.673h46.29c53.19,0,96.465-43.147,96.465-96.183C512,234.589,501.965,210.434,483.741,192.27z"/>
	</g>
</g>
<g>
	<g>
		<polygon points="307.189,315.372 307.189,171.636 204.812,171.636 204.812,214.501 220.485,214.501 220.485,187.309     291.515,187.309 291.515,331.046 340.951,331.046 256,448.241 171.049,331.046 220.485,331.046 220.485,267.268 204.812,267.268     204.812,315.372 140.33,315.372 256,474.948 371.669,315.372   "/>
	</g>
</g>
<g>
	<g>
		<rect x="204.81" y="232.78" width="15.674" height="15.673"/>
	</g>
</g>
<g>
</g>
<g>
</g>
<g>
</g>
<g>
</g>
<g>
</g>
<g>
</g>
<g>
</g>
<g>
</g>
<g>
</g>
<g>
</g>
<g>
</g>
<g>
</g>
<g>
</g>
<g>
</g>
<g>
</g>
</svg>
