<?xml version="1.0" encoding="iso-8859-1"?>
<!-- Generator: Adobe Illustrator 19.0.0, SVG Export Plug-In . SVG Version: 6.00 Build 0)  -->
<svg xmlns="http://www.w3.org/2000/svg" xmlns:xlink="http://www.w3.org/1999/xlink" version="1.1" id="Layer_1" x="0px" y="0px" viewBox="0 0 512.001 512.001" style="enable-background:new 0 0 512.001 512.001;" xml:space="preserve">
<g>
	<g>
		<rect x="208.98" y="35.27" width="15.458" height="15.673"/>
	</g>
</g>
<g>
	<g>
		<rect x="242.99" y="35.27" width="60.03" height="15.673"/>
	</g>
</g>
<g>
	<g>
		<rect x="431.02" y="132.89" width="15.673" height="15.673"/>
	</g>
</g>
<g>
	<g>
		<path d="M446.694,114.594V28.735C446.694,12.89,433.804,0,417.96,0H94.041C78.196,0,65.306,12.89,65.306,28.735v454.531    c0,15.845,12.89,28.735,28.735,28.735h323.918c15.845,0,28.735-12.89,28.735-28.735V167.372H431.02v315.894    c0,7.202-5.859,13.061-13.061,13.061H94.041c-7.202,0-13.061-5.859-13.061-13.061V28.735c0-7.202,5.859-13.061,13.061-13.061    h323.918c7.203,0,13.061,5.859,13.061,13.061v85.859H446.694z"/>
	</g>
</g>
<g>
	<g>
		<path d="M302.793,275.414c-5.719-1.076-10.797-3.924-14.685-8.234c-2.639-2.926-2.807-7.562-0.389-10.783    c8.505-11.335,13.384-26.321,13.384-41.117c0-28.778-18.959-49.664-45.08-49.664h-0.046c-26.121,0-45.08,20.888-45.08,49.664    c0,14.796,4.878,29.782,13.384,41.118c2.417,3.221,2.251,7.857-0.389,10.783c-3.888,4.31-8.965,7.158-14.685,8.234    c-19.823,3.73-34.21,21.042-34.21,41.162v29.807h162.005v-29.808C337.003,296.456,322.615,279.146,302.793,275.414z     M321.33,330.71L321.33,330.71H190.672v-14.133c0-12.588,9.015-23.421,21.436-25.759c9.12-1.717,17.22-6.261,23.424-13.14    c7.69-8.527,8.232-21.434,1.286-30.689c-6.417-8.55-10.247-20.405-10.247-31.709c0-20.013,12.093-33.991,29.407-33.991h0.046    c17.314,0,29.407,13.978,29.407,33.991c0,11.306-3.831,23.159-10.247,31.709c-6.946,9.256-6.405,22.162,1.285,30.689    c6.205,6.88,14.305,11.423,23.425,13.14c12.421,2.337,21.436,13.171,21.436,25.759V330.71z"/>
	</g>
</g>
<g>
	<g>
		<polygon points="96.653,70.531 96.653,441.469 125.398,441.469 125.398,425.796 112.327,425.796 112.327,86.204 399.673,86.204     399.673,425.796 180.276,425.796 180.276,441.469 415.347,441.469 415.347,70.531   "/>
	</g>
</g>
<g>
	<g>
		<rect x="146.32" y="425.8" width="15.673" height="15.673"/>
	</g>
</g>
<g>
	<g>
		<path d="M256,445.388c-12.964,0-23.51,10.546-23.51,23.51c0,12.964,10.546,23.51,23.51,23.51s23.51-10.546,23.51-23.51    C279.51,455.934,268.964,445.388,256,445.388z M256,476.735c-4.322,0-7.837-3.515-7.837-7.837c0-4.322,3.515-7.837,7.837-7.837    s7.837,3.515,7.837,7.837C263.837,473.22,260.322,476.735,256,476.735z"/>
	</g>
</g>
<g>
</g>
<g>
</g>
<g>
</g>
<g>
</g>
<g>
</g>
<g>
</g>
<g>
</g>
<g>
</g>
<g>
</g>
<g>
</g>
<g>
</g>
<g>
</g>
<g>
</g>
<g>
</g>
<g>
</g>
</svg>
