<?xml version="1.0" encoding="iso-8859-1"?>
<!-- Generator: Adobe Illustrator 19.0.0, SVG Export Plug-In . SVG Version: 6.00 Build 0)  -->
<svg xmlns="http://www.w3.org/2000/svg" xmlns:xlink="http://www.w3.org/1999/xlink" version="1.1" id="Layer_1" x="0px" y="0px" viewBox="0 0 512.006 512.006" style="enable-background:new 0 0 512.006 512.006;" xml:space="preserve">
<g>
	<g>
		<path d="M361.633,378.042c-100.298,46.773-219.956,3.221-266.729-97.085C48.131,180.653,91.68,60.998,191.983,14.225L185.349,0    C77.202,50.429,30.247,179.442,80.677,287.591c35.067,75.199,108.119,120.805,185.74,124.668v84.045h-74.294V512h89.99v-99.536    c28.965-0.67,58.257-7.19,86.153-20.198L361.633,378.042z"/>
	</g>
</g>
<g>
	<g>
		<path d="M435.133,122.306C394.424,35.006,290.28-2.902,202.979,37.807c-87.301,40.708-125.205,144.854-84.496,232.155    c19.72,42.29,54.729,74.37,98.577,90.329c19.5,7.098,39.702,10.629,59.854,10.628c25.163-0.001,50.24-5.509,73.723-16.46    c42.29-19.719,74.369-54.728,90.328-98.576C456.924,212.036,454.853,164.598,435.133,122.306z M417.396,121.919l-59.889,27.926    c-10.56-20.634-24.47-39.512-40.937-55.641l55.032-25.662C390.19,82.303,405.995,100.294,417.396,121.919z M266.383,192.337    l-62.673,29.225c-9.205-21.877-14.318-44.688-15.364-67.566l49.414-23.042L266.383,192.337z M251.985,124.321l49.408-23.04    c16.854,15.507,31.041,34.085,41.883,55.2l-62.668,29.223L251.985,124.321z M273.017,206.561l28.623,61.383l-49.38,23.026    c-16.863-15.5-31.06-34.074-41.912-55.186L273.017,206.561z M287.242,199.928l62.664-29.221    c9.197,21.883,14.299,44.698,15.334,67.581l-49.374,23.023L287.242,199.928z M276.563,37.145c28.024,0,55.516,7.443,79.601,21.279    l-52.239,24.359c-1.003-0.835-2.002-1.675-3.021-2.491c-20.672-16.544-43.819-28.816-69.038-36.672    C246.628,39.261,261.667,37.145,276.563,37.145z M288.144,90.142l-42.791,19.954l-24.927-53.458    C245.382,63.487,268.255,74.887,288.144,90.142z M206.198,63.266l24.929,53.463l-42.796,19.957    C189.429,111.641,195.401,86.788,206.198,63.266z M188.876,63.652c-10.197,24.375-15.677,50-16.292,76.476    c-0.03,1.305-0.028,2.61-0.034,3.916l-52.239,24.359C127.791,126.524,151.897,88.164,188.876,63.652z M132.709,263.328    c-11.553-24.776-16.148-51.041-14.594-76.584l55.057-25.673c1.771,22.983,7.291,45.773,16.309,67.124l-38.835,18.11l6.633,14.225    l38.838-18.111c10.57,20.631,24.488,39.506,40.964,55.629l-55.183,25.732C160.939,308.239,144.046,287.642,132.709,263.328z     M222.428,345.544c-8.771-3.193-17.153-7.095-25.083-11.647l52.39-24.43c0.978,0.812,1.951,1.632,2.944,2.427    c20.73,16.589,43.95,28.883,69.252,36.736C289.451,358.314,254.861,357.348,222.428,345.544z M265.521,302.105l42.754-19.936    l24.892,53.382C308.24,328.712,285.392,317.331,265.521,302.105z M347.388,328.913l-24.89-53.377l42.747-19.934    C364.137,280.609,358.169,305.423,347.388,328.913z M426.216,250.516c-11.803,32.43-33.294,59.546-61.589,78.202    c10.247-24.43,15.756-50.12,16.372-76.662c0.696-29.928-5.132-60.174-16.863-87.984l59.916-27.939    C439.025,172.758,439.844,213.075,426.216,250.516z"/>
	</g>
</g>
<g>
	<g>
		
			<rect x="397.638" y="219.807" transform="matrix(0.9063 -0.4227 0.4227 0.9063 -58.121 193.1916)" width="17.874" height="15.696"/>
	</g>
</g>
<g>
	<g>
		<rect x="158.111" y="496.31" width="15.696" height="15.696"/>
	</g>
</g>
<g>
	<g>
		<rect x="296.602" y="496.31" width="59.802" height="15.696"/>
	</g>
</g>
<g>
	<g>
		<rect x="374.721" y="496.31" width="15.696" height="15.696"/>
	</g>
</g>
<g>
</g>
<g>
</g>
<g>
</g>
<g>
</g>
<g>
</g>
<g>
</g>
<g>
</g>
<g>
</g>
<g>
</g>
<g>
</g>
<g>
</g>
<g>
</g>
<g>
</g>
<g>
</g>
<g>
</g>
</svg>
