<?xml version="1.0" encoding="iso-8859-1"?>
<!-- Generator: Adobe Illustrator 19.0.0, SVG Export Plug-In . SVG Version: 6.00 Build 0)  -->
<svg xmlns="http://www.w3.org/2000/svg" xmlns:xlink="http://www.w3.org/1999/xlink" version="1.1" id="Layer_1" x="0px" y="0px" viewBox="0 0 512 512" style="enable-background:new 0 0 512 512;" xml:space="preserve">
<g>
	<g>
		<path d="M369.865,98.983h-21.741v58.145h15.674v-42.472h6.068c16.799,0,30.466,13.667,30.466,30.466v12.006h15.673v-12.006    C416.004,119.68,395.306,98.983,369.865,98.983z"/>
	</g>
</g>
<g>
	<g>
		<path d="M512,256.381c-0.005-10.474-4.79-19.855-12.285-26.086c0.777-0.65,1.534-1.332,2.26-2.057    c6.416-6.405,9.945-14.926,9.942-23.994c-0.009-18.702-15.249-33.925-33.97-33.933l-161.471-0.12c-0.007,0-0.014,0-0.02,0    c-10.574,0-20.516,4.117-27.994,11.595c-5.599,5.599-9.314,12.58-10.828,20.173h-32.073v-37.093h-39.184v15.673h23.51v203.755    h-36.592v-16.79c12.048-3.42,20.901-14.513,20.901-27.641c0-13.129-8.853-24.221-20.901-27.641V141.345h-15.673v23.521h-53.3    v15.673h53.3v131.684c-12.045,3.422-20.895,14.514-20.895,27.639s8.85,24.217,20.895,27.639v16.793H15.673V180.538h21.922v-15.673    H0v235.102h177.622v13.051h15.674v-13.051h52.266V217.632h46.983l-0.004-7.841c-0.003-6.392,2.485-12.401,7.005-16.921    c4.518-4.518,10.522-7.005,16.91-7.005c0.003,0,0.008,0,0.011,0l161.472,0.12c10.089,0.004,18.3,8.199,18.305,18.267    c0.002,4.873-1.895,9.453-5.343,12.896c-3.315,3.311-7.686,5.172-12.352,5.313c-0.173-0.002-0.346-0.014-0.52-0.014v0.039    c-0.015,0-0.029,0.002-0.044,0.002c-0.003,0-0.006,0-0.008,0l-51.895-0.066l-0.021,15.673l51.902,0.066c0.005,0,0.009,0,0.015,0    c0.191,0,0.381-0.011,0.573-0.015c9.843,0.287,17.772,8.35,17.777,18.242c0.002,4.871-1.895,9.451-5.344,12.894    c-3.449,3.445-8.035,5.34-12.918,5.34c-0.003,0-0.006,0-0.009,0l-15.657-0.008c-0.006,0-0.013,0-0.019,0l-36.279-0.018    l-0.008,15.673l36.288,0.018c10.084,0.01,18.291,8.203,18.296,18.268c0.002,4.871-1.894,9.451-5.344,12.894    c-3.449,3.445-8.035,5.34-12.918,5.34c-0.003,0-0.006,0-0.009,0l-36.28-0.018l-0.008,15.673l20.602,0.01    c10.089,0.005,18.301,8.2,18.307,18.268c0.002,4.872-1.894,9.452-5.343,12.895c-3.448,3.444-8.036,5.339-12.92,5.339    c-0.003,0-0.006,0-0.009,0l-130.238-0.065c-13.174-0.006-23.898-10.729-23.904-23.903l-0.004-7.833h-33.969v15.674h19.082    c3.653,18.071,19.659,31.726,38.787,31.736l130.238,0.065c0.006,0,0.011,0,0.018,0c9.067,0,17.588-3.523,23.995-9.922    c6.416-6.406,9.946-14.926,9.942-23.994c-0.004-7.586-2.514-14.598-6.745-20.256c4.629-1.667,8.872-4.344,12.454-7.92    c6.416-6.407,9.946-14.927,9.942-23.993c-0.004-7.586-2.513-14.598-6.744-20.255c4.628-1.668,8.87-4.344,12.452-7.92    C508.473,273.967,512.004,265.446,512,256.381z M172.402,339.862c0-7.202,5.859-13.061,13.061-13.061    c7.202,0,13.061,5.859,13.061,13.061c0,7.201-5.859,13.061-13.061,13.061S172.402,347.064,172.402,339.862z"/>
	</g>
</g>
<g>
	<g>
		<rect x="55.881" y="164.87" width="15.673" height="15.673"/>
	</g>
</g>
<g>
	<g>
		<rect x="90.36" y="164.87" width="15.673" height="15.673"/>
	</g>
</g>
<g>
</g>
<g>
</g>
<g>
</g>
<g>
</g>
<g>
</g>
<g>
</g>
<g>
</g>
<g>
</g>
<g>
</g>
<g>
</g>
<g>
</g>
<g>
</g>
<g>
</g>
<g>
</g>
<g>
</g>
</svg>
