<?xml version="1.0" encoding="iso-8859-1"?>
<!-- Generator: Adobe Illustrator 19.0.0, SVG Export Plug-In . SVG Version: 6.00 Build 0)  -->
<svg xmlns="http://www.w3.org/2000/svg" xmlns:xlink="http://www.w3.org/1999/xlink" version="1.1" id="Layer_1" x="0px" y="0px" viewBox="0 0 512 512" style="enable-background:new 0 0 512 512;" xml:space="preserve">
<g>
	<g>
		<path d="M129.296,174.699h15.673c0-48.469,39.722-87.902,88.545-87.902V71.123C176.048,71.123,129.296,117.587,129.296,174.699z"/>
	</g>
</g>
<g>
	<g>
		<path d="M483.741,195.028c-18.225-18.165-42.448-28.168-68.206-28.168h-1.936c-3.741-32.206-30.233-57.778-63.01-60.208    c-24.296-41.346-68.744-66.841-117.075-66.841c-72.109,0-131.249,56.303-135.338,127.049h-1.711    C43.274,166.86,0,210.007,0,263.043c0,25.695,10.035,49.85,28.259,68.015c18.224,18.164,42.447,28.168,68.206,28.168h84.815    v-15.673H96.465c-21.581,0-41.875-8.38-57.14-23.596c-15.252-15.202-23.651-35.415-23.651-56.914    c0-44.392,36.243-80.509,80.792-80.509h17.157v-7.837c0-65.734,53.784-119.212,119.892-119.212    c44.087,0,84.519,23.972,105.515,62.562l2.208,4.057l4.62,0.033c28.96,0.209,52.521,23.786,52.521,52.558v7.837h17.157    c21.581,0,41.874,8.38,57.141,23.596c15.252,15.203,23.651,35.416,23.651,56.914c0,44.393-36.242,80.509-80.792,80.509H330.72    v15.673h84.815c53.19,0,96.465-43.148,96.465-96.183C512,237.348,501.965,213.193,483.741,195.028z"/>
	</g>
</g>
<g>
	<g>
		<polygon points="256,168.877 140.331,328.453 204.812,328.453 204.812,472.189 307.189,472.189 307.189,429.323 291.515,429.323     291.515,456.516 220.485,456.516 220.485,312.78 171.049,312.78 256,195.584 340.951,312.78 291.515,312.78 291.515,376.556     307.189,376.556 307.189,328.453 371.669,328.453   "/>
	</g>
</g>
<g>
	<g>
		<rect x="291.52" y="395.37" width="15.673" height="15.674"/>
	</g>
</g>
<g>
</g>
<g>
</g>
<g>
</g>
<g>
</g>
<g>
</g>
<g>
</g>
<g>
</g>
<g>
</g>
<g>
</g>
<g>
</g>
<g>
</g>
<g>
</g>
<g>
</g>
<g>
</g>
<g>
</g>
</svg>
