<?xml version="1.0" encoding="iso-8859-1"?>
<!-- Generator: Adobe Illustrator 19.0.0, SVG Export Plug-In . SVG Version: 6.00 Build 0)  -->
<svg xmlns="http://www.w3.org/2000/svg" xmlns:xlink="http://www.w3.org/1999/xlink" version="1.1" id="Layer_1" x="0px" y="0px" viewBox="0 0 512 512" style="enable-background:new 0 0 512 512;" xml:space="preserve">
<g>
	<g>
		<path d="M502.847,155.625c-10.429-16.726-28.78-29.56-54.586-38.203V85.738l-54.338,36.757l54.338,36.757v-25.181    c19.423,7.316,33.601,17.52,41.285,29.848c7.786,12.479,8.895,26.866,3.294,42.759c-8.471,24.039-31.005,49.137-63.31,72.171    c0.992-7.553,1.51-15.188,1.51-22.848c0-96.253-78.52-174.561-175.035-174.561S80.97,159.748,80.97,256.002    c0,39.909,13.367,77.798,37.964,108.568c-47.728-4.346-82.566-19.227-96.47-41.516c-17.041-27.307-1.76-64.082,41.925-100.896    l-10.101-11.986c-23.477,19.785-40.189,40.799-48.331,60.773c-8.915,21.87-7.805,42.758,3.208,60.406    c18.02,28.887,60.851,46.544,120.602,49.717c6.517,0.346,13.148,0.517,19.892,0.517c16.689,0,34.022-1.052,51.729-3.114    c8.793,12.563,18.94,24.108,30.377,34.579c-23.101-3.513-45.119-12.037-64.688-25.176l-8.737,13.013    c28.913,19.413,62.685,29.673,97.665,29.673c69.897,0,132.988-41.347,160.732-105.337l-14.382-6.235    c-1.863,4.298-3.923,8.469-6.126,12.536h-27.69c28.314-12.959,53.875-27.765,75.377-43.797    c32.817-24.467,54.847-50.693,63.709-75.841C514.786,191.567,513.133,172.11,502.847,155.625z M432.586,129.726l-10.687-7.229    l10.687-7.229V129.726z M248.169,105.413v59.39h-47.493C212.299,142.41,228.309,122.272,248.169,105.413z M248.169,180.477v67.687    h-69.35c0.904-23.699,5.895-46.518,14.588-67.687H248.169z M231.769,98.95c-19.354,17.719-35.011,38.521-46.683,62.104    c-0.613,1.24-1.198,2.497-1.788,3.749h-57.713C150.033,130.155,187.993,105.638,231.769,98.95z M115.732,331.527L115.732,331.527    c-12.46-22.935-19.087-48.729-19.087-75.525c0-27.319,6.952-53.048,19.184-75.524h60.864    c-8.086,21.57-12.703,44.541-13.555,67.687H109.72v15.675h53.418c0.853,23.146,5.469,46.117,13.555,67.687H115.732z     M140.838,365.805c-5.629-5.863-10.761-12.08-15.368-18.605h57.83c0.589,1.253,1.174,2.509,1.787,3.749    c2.157,4.36,4.465,8.613,6.893,12.78C174.393,365.489,157.251,366.197,140.838,365.805z M178.819,263.839h69.35v67.687h-54.762    C184.714,310.357,179.723,287.538,178.819,263.839z M248.169,406.59c-10.884-9.239-20.616-19.457-29.098-30.499    c9.631-1.464,19.343-3.214,29.098-5.246V406.59z M248.17,354.83L248.17,354.83c-13.163,2.825-26.249,5.131-39.149,6.888    c-2.994-4.721-5.774-9.565-8.344-14.517h47.493V354.83z M263.844,105.414c19.859,16.859,35.868,36.997,47.493,59.389h-47.493    V105.414z M263.843,180.477h54.762c8.693,21.169,13.684,43.988,14.588,67.687h-69.35V180.477z M263.846,263.839h69.348    c-0.959,25.155-6.514,49.322-16.222,71.574c-0.432,0.151-0.86,0.306-1.293,0.457c-17.173,5.986-34.532,11.112-51.833,15.355    V263.839z M263.844,406.59v-39.243c14.344-3.414,28.726-7.424,43.02-12.008C295.729,374.487,281.267,391.799,263.844,406.59z     M386.519,347.2c-24.859,35.367-63.218,59.249-106.254,65.833c19.345-17.715,34.994-38.511,46.661-62.084    c0.485-0.98,0.943-1.974,1.412-2.961c0.721-0.262,1.442-0.524,2.16-0.788H386.519z M411.498,290.856    c-21.899,13.648-47.199,26.308-74.912,37.25c7.311-20.57,11.479-42.342,12.287-64.267h66.286    C414.713,272.962,413.488,282.008,411.498,290.856z M348.873,248.164c-0.853-23.146-5.468-46.117-13.555-67.687h10.12v-15.675    h-16.726c-0.589-1.253-1.174-2.509-1.787-3.749c-11.672-23.582-27.327-44.385-46.682-62.104    c73.881,11.288,131.213,73.348,134.928,149.215H348.873z"/>
	</g>
</g>
<g>
	<g>
		<rect x="364.241" y="164.811" width="15.675" height="15.675"/>
	</g>
</g>
<g>
</g>
<g>
</g>
<g>
</g>
<g>
</g>
<g>
</g>
<g>
</g>
<g>
</g>
<g>
</g>
<g>
</g>
<g>
</g>
<g>
</g>
<g>
</g>
<g>
</g>
<g>
</g>
<g>
</g>
</svg>
