<?xml version="1.0" encoding="iso-8859-1"?>
<!-- Generator: Adobe Illustrator 19.0.0, SVG Export Plug-In . SVG Version: 6.00 Build 0)  -->
<svg xmlns="http://www.w3.org/2000/svg" xmlns:xlink="http://www.w3.org/1999/xlink" version="1.1" id="Layer_1" x="0px" y="0px" viewBox="0 0 512.01 512.01" style="enable-background:new 0 0 512.01 512.01;" xml:space="preserve">
<g>
	<g>
		<path d="M247.64,415.516c60.562-27.613,102.762-88.725,102.762-159.511c0-96.606-78.595-175.201-175.201-175.201    S0,159.398,0,256.005s78.595,175.201,175.201,175.201h268.288v-15.69H247.64z M334.518,248.16h-42.422    c-3.211-12.359-13.438-21.911-26.154-24.156c-2.249-15.166-6.042-29.828-11.272-43.833h60.835    C326.577,200.574,333.325,223.649,334.518,248.16z M242.945,256.442c0-9.516,7.742-17.259,17.259-17.259    c9.516,0,17.259,7.742,17.259,17.259c0,9.517-7.742,17.259-17.259,17.259C250.687,273.7,242.945,265.958,242.945,256.442z     M250.094,287.797c-2.437,15.306-6.571,30.051-12.289,44.041h-30.491c-2.964-11.855-12.367-21.18-24.262-24.041v-43.948h45.054    C230.716,275.163,239.161,284.264,250.094,287.797z M305.768,164.482h-57.694c-11.645-24.847-28.072-47.235-48.69-66.158    C243.248,105.023,281.285,129.658,305.768,164.482z M183.051,104.807c19.859,16.901,35.885,37.106,47.536,59.675h-47.536V104.807z     M183.05,180.17h54.762c5.819,14.242,9.996,29.266,12.412,44.871c-10.714,3.413-19.068,12.165-21.914,23.117h-45.26V180.17z     M167.361,104.805v59.676h-27.649c-1.689-6.499-5.321-12.218-10.231-16.513C139.896,131.848,152.579,117.389,167.361,104.805z     M90.561,172.763c0-9.516,7.742-17.259,17.259-17.259s17.259,7.742,17.259,17.259c0,9.516-7.742,17.259-17.259,17.259    S90.561,182.279,90.561,172.763z M167.361,263.848v44.014c-11.76,2.94-21.035,12.215-23.975,23.975h-30.75    c-1.984-4.848-3.782-9.792-5.389-14.827c-5.548-17.383-8.668-35.238-9.373-53.162H167.361z M97.877,248.159    c0.567-14.316,2.671-28.6,6.331-42.65c1.186,0.13,2.39,0.202,3.611,0.202c15.62,0,28.727-10.929,32.098-25.54h27.444v67.988    H97.877z M151.026,98.322c-13.71,12.594-25.609,26.776-35.544,42.402c-2.461-0.589-5.025-0.909-7.663-0.909    c-15.308,0-28.211,10.495-31.893,24.667H44.634C69.118,129.656,107.159,105.02,151.026,98.322z M15.69,256.005    c0-27.431,6.962-53.266,19.208-75.833h40.823c1.902,8.242,6.895,15.315,13.7,19.912c-4.24,15.825-6.656,31.934-7.248,48.076H39.24    v15.69h42.932c0.712,19.531,4.083,38.991,10.129,57.932c1.083,3.392,2.255,6.741,3.497,10.057h-60.9    C22.652,309.27,15.69,283.435,15.69,256.005z M44.634,347.527h57.767c11.708,24.973,28.13,47.336,48.61,66.157    C107.15,406.983,69.115,382.348,44.634,347.527z M167.361,407.207c-19.74-16.813-35.768-36.996-47.474-59.679h23.432    c2.861,11.896,12.186,21.299,24.042,24.263V407.207z M158.091,339.827c0-9.516,7.742-17.259,17.259-17.259    c9.516,0,17.259,7.742,17.259,17.259c0,9.517-7.742,17.259-17.259,17.259C165.833,357.086,158.091,349.343,158.091,339.827z     M183.051,407.199v-35.341c11.991-2.884,21.446-12.338,24.329-24.329h23.192C218.919,370.098,202.896,390.305,183.051,407.199z     M248.065,347.527h40.704v-15.69h-34.104c5.131-13.728,8.875-28.09,11.142-42.934c13.077-2.251,23.536-12.231,26.495-25.054    h42.217c-3.709,76.203-61.139,138.536-135.138,149.836C219.988,394.768,236.417,372.378,248.065,347.527z"/>
	</g>
</g>
<g>
	<g>
		<rect x="461.8" y="415.513" width="15.69" height="15.69"/>
	</g>
</g>
<g>
	<g>
		<rect x="496.32" y="415.513" width="15.69" height="15.69"/>
	</g>
</g>
<g>
</g>
<g>
</g>
<g>
</g>
<g>
</g>
<g>
</g>
<g>
</g>
<g>
</g>
<g>
</g>
<g>
</g>
<g>
</g>
<g>
</g>
<g>
</g>
<g>
</g>
<g>
</g>
<g>
</g>
</svg>
