<?xml version="1.0" encoding="iso-8859-1"?>
<!-- Generator: Adobe Illustrator 19.0.0, SVG Export Plug-In . SVG Version: 6.00 Build 0)  -->
<svg xmlns="http://www.w3.org/2000/svg" xmlns:xlink="http://www.w3.org/1999/xlink" version="1.1" id="Layer_1" x="0px" y="0px" viewBox="0 0 512.001 512.001" style="enable-background:new 0 0 512.001 512.001;" xml:space="preserve">
<g>
	<g>
		<rect x="145.88" y="207.42" transform="matrix(0.9063 -0.4226 0.4226 0.9063 -76.5221 85.1179)" width="15.673" height="15.458"/>
	</g>
</g>
<g>
	<g>
		
			<rect x="169.655" y="236.16" transform="matrix(0.9063 -0.4226 0.4226 0.9063 -95.8587 99.9462)" width="15.672" height="60.029"/>
	</g>
</g>
<g>
	<g>
		
			<rect x="204.309" y="214.211" transform="matrix(0.9063 -0.4226 0.4226 0.9063 -90.5224 114.1277)" width="15.672" height="94.039"/>
	</g>
</g>
<g>
	<g>
		
			<rect x="275.407" y="207.43" transform="matrix(0.9063 -0.4226 0.4226 0.9063 -64.3913 139.8583)" width="15.673" height="15.458"/>
	</g>
</g>
<g>
	<g>
		
			<rect x="299.192" y="236.165" transform="matrix(0.9063 -0.4226 0.4226 0.9063 -83.7249 154.689)" width="15.672" height="60.029"/>
	</g>
</g>
<g>
	<g>
		
			<rect x="333.851" y="214.207" transform="matrix(0.9063 -0.4226 0.4226 0.9063 -78.3845 168.8728)" width="15.672" height="94.039"/>
	</g>
</g>
<g>
	<g>
		<path d="M401.764,114.605V60.082C401.764,26.952,374.812,0,341.683,0H170.319c-33.13,0-60.082,26.952-60.082,60.082v391.837    c0,33.13,26.952,60.082,60.082,60.082h171.363c33.13,0,60.082-26.952,60.082-60.082V167.373h-15.673v255.765H172.945v15.673    h213.146v13.107c0,24.487-19.921,44.408-44.408,44.408H170.319c-24.487,0-44.408-19.921-44.408-44.408V88.862h260.18v25.743    H401.764z M386.09,73.189H125.911V60.082c0-24.487,19.921-44.408,44.408-44.408h171.363c24.487,0,44.408,19.921,44.408,44.408    V73.189z"/>
	</g>
</g>
<g>
	<g>
		<path d="M273.764,446.148h-35.526c-11.812,0-21.42,9.609-21.42,21.42c0,11.811,9.609,21.42,21.42,21.42h35.526    c11.812,0,21.42-9.609,21.42-21.42C295.184,455.757,285.576,446.148,273.764,446.148z M273.764,473.316h-35.526    c-3.168,0-5.747-2.579-5.747-5.747c0-3.169,2.579-5.747,5.747-5.747h35.526c3.168,0,5.747,2.578,5.747,5.747    S276.932,473.316,273.764,473.316z"/>
	</g>
</g>
<g>
	<g>
		<rect x="386.091" y="132.89" width="15.673" height="15.673"/>
	</g>
</g>
<g>
	<g>
		<rect x="138.981" y="423.14" width="15.673" height="15.673"/>
	</g>
</g>
<g>
	<g>
		<rect x="208.981" y="36.592" width="15.458" height="15.673"/>
	</g>
</g>
<g>
	<g>
		<rect x="242.991" y="36.592" width="60.03" height="15.673"/>
	</g>
</g>
<g>
</g>
<g>
</g>
<g>
</g>
<g>
</g>
<g>
</g>
<g>
</g>
<g>
</g>
<g>
</g>
<g>
</g>
<g>
</g>
<g>
</g>
<g>
</g>
<g>
</g>
<g>
</g>
<g>
</g>
</svg>
