<?xml version="1.0" encoding="iso-8859-1"?>
<!-- Generator: Adobe Illustrator 19.0.0, SVG Export Plug-In . SVG Version: 6.00 Build 0)  -->
<svg xmlns="http://www.w3.org/2000/svg" xmlns:xlink="http://www.w3.org/1999/xlink" version="1.1" id="Layer_1" x="0px" y="0px" viewBox="0 0 512 512" style="enable-background:new 0 0 512 512;" xml:space="preserve">
<g>
	<g>
		<path d="M0,91.428v297.796h188.24l-5.269,15.673H151.51v15.673h208.98v-15.673h-35.64l-5.269-15.673h77.325v-15.673H15.673    v-15.694h480.653v15.694h-46.654v15.673H512V91.428H0z M204.776,389.223h98.267l5.27,15.673H199.507L204.776,389.223z     M15.673,342.182V107.101h480.653v235.081H15.673z"/>
	</g>
</g>
<g>
	<g>
		<rect x="415.19" y="373.549" width="15.673" height="15.673"/>
	</g>
</g>
<g>
	<g>
		<path d="M365.525,228.373c-5.72-1.076-10.798-3.924-14.686-8.234c-2.638-2.926-2.806-7.562-0.388-10.783    c8.505-11.334,13.384-26.321,13.384-41.117c0-28.778-18.96-49.664-45.125-49.664c-16.568,0-31.121,8.768-38.93,23.453    l13.839,7.359c5.116-9.62,14.26-15.137,25.137-15.137c17.314,0,29.406,13.978,29.406,33.99c0,11.306-3.831,23.159-10.247,31.71    c-6.945,9.255-6.405,22.161,1.285,30.689c6.206,6.88,14.306,11.423,23.427,13.14c12.421,2.337,21.435,13.171,21.435,25.759v14.133    h-35.066v15.674h50.74v-29.807C399.736,249.414,385.348,232.103,365.525,228.373z"/>
	</g>
</g>
<g>
	<g>
		<path d="M193.244,118.574c-26.12,0-45.08,20.886-45.08,49.664c0,14.796,4.879,29.783,13.384,41.117    c2.418,3.221,2.251,7.858-0.388,10.783c-3.888,4.31-8.966,7.158-14.686,8.235c-19.823,3.73-34.21,21.041-34.21,41.162v29.807    h50.479v-15.674h-34.806v-14.133c0-12.589,9.015-23.421,21.437-25.759c9.119-1.717,17.219-6.26,23.424-13.14    c7.689-8.527,8.23-21.433,1.285-30.689c-6.417-8.55-10.247-20.404-10.247-31.71c0-20.013,12.092-33.991,29.453-33.991    c10.902,0,20.079,5.578,25.178,15.303l13.881-7.278C224.569,127.434,209.968,118.574,193.244,118.574z"/>
	</g>
</g>
<g>
	<g>
		<path d="M302.792,259.74c-5.72-1.076-10.797-3.924-14.685-8.234c-2.638-2.926-2.807-7.562-0.39-10.783    c8.508-11.334,13.386-26.321,13.386-41.118c0-28.776-18.96-49.664-45.08-49.664h-0.047c-26.12,0-45.079,20.886-45.079,49.664    c0,14.797,4.879,29.784,13.384,41.117c2.417,3.221,2.25,7.858-0.389,10.784c-3.888,4.31-8.965,7.158-14.685,8.234    c-19.824,3.73-34.211,21.041-34.211,41.162v29.808h162.006v-29.808C337.003,280.781,322.615,263.47,302.792,259.74z     M321.331,315.036h-0.002H190.67v-14.134c0-12.588,9.015-23.421,21.436-25.759c9.121-1.716,17.221-6.26,23.426-13.14    c7.689-8.526,8.232-21.433,1.285-30.689c-6.417-8.549-10.247-20.404-10.247-31.709c0-20.013,12.092-33.991,29.406-33.991h0.047    c17.314,0,29.407,13.978,29.407,33.991c0,11.306-3.831,23.16-10.248,31.709c-6.944,9.255-6.403,22.161,1.287,30.688    c6.205,6.88,14.305,11.424,23.426,13.14c12.421,2.337,21.436,13.171,21.436,25.759V315.036z"/>
	</g>
</g>
<g>
	<g>
		<rect x="118" y="404.899" width="15.673" height="15.673"/>
	</g>
</g>
<g>
	<g>
		<rect x="378.33" y="404.899" width="15.673" height="15.673"/>
	</g>
</g>
<g>
</g>
<g>
</g>
<g>
</g>
<g>
</g>
<g>
</g>
<g>
</g>
<g>
</g>
<g>
</g>
<g>
</g>
<g>
</g>
<g>
</g>
<g>
</g>
<g>
</g>
<g>
</g>
<g>
</g>
</svg>
