<?xml version="1.0" encoding="iso-8859-1"?>
<!-- Generator: Adobe Illustrator 19.0.0, SVG Export Plug-In . SVG Version: 6.00 Build 0)  -->
<svg xmlns="http://www.w3.org/2000/svg" xmlns:xlink="http://www.w3.org/1999/xlink" version="1.1" id="Layer_1" x="0px" y="0px" viewBox="0 0 512 512" style="enable-background:new 0 0 512 512;" xml:space="preserve">
<g>
	<g>
		<circle cx="124.103" cy="181.394" r="12.016"/>
	</g>
</g>
<g>
	<g>
		<circle cx="165.919" cy="181.394" r="12.016"/>
	</g>
</g>
<g>
	<g>
		<circle cx="207.747" cy="181.394" r="12.016"/>
	</g>
</g>
<g>
	<g>
		<path d="M387.866,0H216.503c-33.13,0-60.082,26.952-60.082,60.082v56.011H64.052v130.612H192.15l54.331,54.331v-54.331h21.316    V116.092h-95.702v-27.23h260.18v25.743h15.673V60.082C447.948,26.952,420.996,0,387.866,0z M252.123,131.766v99.265h-21.316    v32.165l-32.165-32.165H79.726v-99.265H252.123z M432.274,73.189h-260.18V60.082c0-24.487,19.921-44.408,44.408-44.408h171.363    c24.487,0,44.408,19.921,44.408,44.408V73.189z"/>
	</g>
</g>
<g>
	<g>
		<path d="M432.274,167.373v255.765H219.129v15.673h213.146v13.107c0,24.487-19.921,44.408-44.408,44.408H216.503    c-24.487,0-44.408-19.921-44.408-44.408V270.235h-15.673v181.684c0,33.13,26.952,60.082,60.082,60.082h171.363    c33.13,0,60.082-26.952,60.082-60.082V167.373H432.274z"/>
	</g>
</g>
<g>
	<g>
		<path d="M319.948,446.148h-35.526c-11.812,0-21.42,9.609-21.42,21.42s9.609,21.42,21.42,21.42h35.526    c11.812,0,21.42-9.609,21.42-21.42S331.759,446.148,319.948,446.148z M319.948,473.316h-35.526c-3.168,0-5.747-2.579-5.747-5.747    c0-3.169,2.578-5.747,5.747-5.747h35.526c3.168,0,5.747,2.578,5.747,5.747C325.695,470.738,323.116,473.316,319.948,473.316z"/>
	</g>
</g>
<g>
	<g>
		<rect x="432.274" y="132.89" width="15.673" height="15.673"/>
	</g>
</g>
<g>
	<g>
		<rect x="185.166" y="423.142" width="15.673" height="15.673"/>
	</g>
</g>
<g>
	<g>
		<rect x="255.164" y="36.592" width="15.458" height="15.673"/>
	</g>
</g>
<g>
	<g>
		<rect x="289.176" y="36.592" width="60.029" height="15.673"/>
	</g>
</g>
<g>
</g>
<g>
</g>
<g>
</g>
<g>
</g>
<g>
</g>
<g>
</g>
<g>
</g>
<g>
</g>
<g>
</g>
<g>
</g>
<g>
</g>
<g>
</g>
<g>
</g>
<g>
</g>
<g>
</g>
</svg>
