<?xml version="1.0" encoding="iso-8859-1"?>
<!-- Generator: Adobe Illustrator 19.0.0, SVG Export Plug-In . SVG Version: 6.00 Build 0)  -->
<svg xmlns="http://www.w3.org/2000/svg" xmlns:xlink="http://www.w3.org/1999/xlink" version="1.1" id="Layer_1" x="0px" y="0px" viewBox="0 0 512 512" style="enable-background:new 0 0 512 512;" xml:space="preserve">
<g>
	<g>
		<circle cx="214.17" cy="208.259" r="12.02"/>
	</g>
</g>
<g>
	<g>
		<circle cx="256" cy="208.259" r="12.02"/>
	</g>
</g>
<g>
	<g>
		<circle cx="297.82" cy="208.259" r="12.02"/>
	</g>
</g>
<g>
	<g>
		<path d="M0,91.428v297.796h188.24l-5.269,15.673H151.51v15.673h208.98v-15.673h-35.64l-5.269-15.673h77.325v-15.673H15.673    v-15.694h480.653v15.694h-46.654v15.673H512V91.428H0z M204.776,389.223h98.268l5.269,15.673H199.507L204.776,389.223z     M15.673,342.182V107.101h480.653v235.081H15.673z"/>
	</g>
</g>
<g>
	<g>
		<rect x="415.19" y="373.549" width="15.673" height="15.673"/>
	</g>
</g>
<g>
	<g>
		<rect x="118" y="404.899" width="15.673" height="15.673"/>
	</g>
</g>
<g>
	<g>
		<rect x="378.33" y="404.899" width="15.673" height="15.673"/>
	</g>
</g>
<g>
	<g>
		<path d="M154.127,142.946v130.613h128.098l54.331,54.331v-54.331h21.316V142.946H154.127z M342.199,257.885h-21.316v32.165    l-32.165-32.165H169.8V158.62h172.399V257.885z"/>
	</g>
</g>
<g>
</g>
<g>
</g>
<g>
</g>
<g>
</g>
<g>
</g>
<g>
</g>
<g>
</g>
<g>
</g>
<g>
</g>
<g>
</g>
<g>
</g>
<g>
</g>
<g>
</g>
<g>
</g>
<g>
</g>
</svg>
