<?xml version="1.0" encoding="iso-8859-1"?>
<!-- Generator: Adobe Illustrator 19.0.0, SVG Export Plug-In . SVG Version: 6.00 Build 0)  -->
<svg xmlns="http://www.w3.org/2000/svg" xmlns:xlink="http://www.w3.org/1999/xlink" version="1.1" id="Layer_1" x="0px" y="0px" viewBox="0 0 512 512" style="enable-background:new 0 0 512 512;" xml:space="preserve">
<g>
	<g>
		<circle cx="101.637" cy="212.762" r="12.016"/>
	</g>
</g>
<g>
	<g>
		<circle cx="143.454" cy="212.762" r="12.016"/>
	</g>
</g>
<g>
	<g>
		<circle cx="185.281" cy="212.762" r="12.016"/>
	</g>
</g>
<g>
	<g>
		<rect x="232.699" y="35.265" width="15.458" height="15.673"/>
	</g>
</g>
<g>
	<g>
		<rect x="266.71" y="35.265" width="60.029" height="15.673"/>
	</g>
</g>
<g>
	<g>
		<rect x="454.74" y="132.89" width="15.673" height="15.673"/>
	</g>
</g>
<g>
	<g>
		<path d="M441.678,0H117.76c-15.844,0-28.735,12.891-28.735,28.735v105.647h15.673V28.735c0-7.202,5.859-13.061,13.061-13.061    h323.918c7.202,0,13.061,5.859,13.061,13.061v85.859h15.673V28.735C470.413,12.891,457.522,0,441.678,0z"/>
	</g>
</g>
<g>
	<g>
		<path d="M454.74,167.372v315.894c0,7.202-5.859,13.061-13.061,13.061H117.76c-7.202,0-13.061-5.859-13.061-13.061V278.071h64.986    l54.329,54.331v-54.331h21.317V147.459H136.046V86.204h287.347v339.592H203.995v15.673h235.071V70.531H120.372v76.929H41.587    v130.612h47.438v205.194c0,15.844,12.891,28.735,28.735,28.735h323.918c15.844,0,28.735-12.891,28.735-28.735V167.372H454.74z     M57.26,262.398v-99.265h172.399v99.265h-21.317v32.165l-32.164-32.165H57.26z"/>
	</g>
</g>
<g>
	<g>
		<polygon points="136.046,425.796 136.046,291.143 120.372,291.143 120.372,441.469 149.117,441.469 149.117,425.796   "/>
	</g>
</g>
<g>
	<g>
		<rect x="170.036" y="425.796" width="15.673" height="15.673"/>
	</g>
</g>
<g>
	<g>
		<path d="M279.719,445.388c-12.963,0-23.51,10.547-23.51,23.51s10.547,23.51,23.51,23.51s23.51-10.547,23.51-23.51    S292.682,445.388,279.719,445.388z M279.719,476.735c-4.322,0-7.837-3.515-7.837-7.837c0-4.322,3.515-7.837,7.837-7.837    c4.322,0,7.837,3.515,7.837,7.837C287.556,473.22,284.041,476.735,279.719,476.735z"/>
	</g>
</g>
<g>
</g>
<g>
</g>
<g>
</g>
<g>
</g>
<g>
</g>
<g>
</g>
<g>
</g>
<g>
</g>
<g>
</g>
<g>
</g>
<g>
</g>
<g>
</g>
<g>
</g>
<g>
</g>
<g>
</g>
</svg>
