<svg height="512" viewBox="0 0 64 64" width="512" xmlns="http://www.w3.org/2000/svg"><path d="m59 6h-1v-1a1 1 0 0 0 -.8-.98c-.416-.083-10.17-2.02-16.2-2.02-4.8 0-7.056.92-9 2.63-1.944-1.71-4.2-2.63-9-2.63-6.03 0-15.784 1.937-16.2 2.02a1 1 0 0 0 -.8.98v1h-1a3 3 0 0 0 -3 3v48a3 3 0 0 0 3 3h24.171a3 3 0 0 0 5.658 0h24.171a3 3 0 0 0 3-3v-48a3 3 0 0 0 -3-3zm-18-2c4.856 0 12.518 1.36 15 1.826v47.948c-3.408-.643-13.3-2.126-23-.023v-47.329c1.7-1.607 3.535-2.422 8-2.422zm-33 1.826c2.482-.466 10.144-1.826 15-1.826 4.465 0 6.3.817 8 2.424v47.327c-9.7-2.1-19.591-.62-23 .023zm52 51.174a1 1 0 0 1 -1 1h-25a1 1 0 0 0 -1 1 1 1 0 0 1 -2 0 1 1 0 0 0 -1-1h-25a1 1 0 0 1 -1-1v-48a1 1 0 0 1 1-1h1v47a1 1 0 0 0 1.225.975c.128-.03 12.9-2.911 24.532-.005a.976.976 0 0 0 .486 0c11.617-2.9 24.405-.024 24.532.005a1.009 1.009 0 0 0 .848-.193 1 1 0 0 0 .377-.782v-47h1a1 1 0 0 1 1 1z"/><path d="m15 41h2v2h-2z"/><path d="m18 44h2v2h-2z"/><path d="m22 41h2v2h-2z"/><path d="m28 26h-4a4.948 4.948 0 0 0 -3 1.026v-4.026h-2v3.026a4.948 4.948 0 0 0 -3-1.026h-4a1 1 0 0 0 -1 1v2a5.006 5.006 0 0 0 5 5h3v3.219l-3 .75-3.757-.939a1 1 0 0 0 -1.243.97v12a1 1 0 0 0 1 1h16a1 1 0 0 0 1-1v-12a1 1 0 0 0 -.385-.788.985.985 0 0 0 -.858-.182l-3.757.939-3-.75v-2.219h3a5.006 5.006 0 0 0 5-5v-2a1 1 0 0 0 -1-1zm-12 5a3 3 0 0 1 -3-3v-1h3a3 3 0 0 1 3 3v1zm8.243 7.97 2.757-.689v9.719h-14v-9.719l2.757.689a.976.976 0 0 0 .486 0l3.757-.939 3.757.939a.976.976 0 0 0 .486 0zm2.757-9.97a3 3 0 0 1 -3 3h-3v-1a3 3 0 0 1 3-3h3z"/><path d="m29 7h-19v14h19zm-2 12h-15v-10h15z"/><path d="m14 11h7v2h-7z"/><path d="m14 15h9v2h-9z"/><path d="m41 18a6 6 0 1 0 -6-6 6.006 6.006 0 0 0 6 6zm0-10a4 4 0 1 1 -4 4 4 4 0 0 1 4-4z"/><path d="m52.553 29.9.894-1.79-6-3a1 1 0 0 0 -.894 0l-6 3 .894 1.79.553-.282v2.382h-6a1 1 0 0 0 -1 1v16a1 1 0 0 0 1 1h16a1 1 0 0 0 1-1v-16a1 1 0 0 0 -1-1v-2.382zm-1.553 10.228c-1.888.372-5.949 1.885-7.743 7.872h-2.048a17.5 17.5 0 0 1 1.725-4.51 9.864 9.864 0 0 1 8.066-5.43zm0-4.092c-8.7.612-11.235 9.169-11.832 11.964h-1.968c.735-3.391 3.745-13.339 13.8-13.964zm-5.663 11.964c1.457-4.243 4.186-5.483 5.663-5.846v5.846zm-8.337-5.671v-8.329h7.12a17.948 17.948 0 0 0 -7.12 8.329zm7-10.329v-3.382l3-1.5 3 1.5v3.382z"/><path d="m49 12h4v2h-4z"/><path d="m47 17.586h2v2.828h-2z" transform="matrix(.707 -.707 .707 .707 .624 39.506)"/><path d="m41 20h2v4h-2z"/><path d="m34.197 19.5h3.606v2h-3.606z" transform="matrix(.555 -.832 .832 .555 -1.026 39.082)"/><path d="m47.919 6.5h3.162v1.999h-3.162z" transform="matrix(.949 -.317 .317 .949 .171 16.053)"/></svg>