<svg height="512" viewBox="0 0 64 64" width="512" xmlns="http://www.w3.org/2000/svg"><path d="m61 2h-58a1 1 0 0 0 -1 1v58a1 1 0 0 0 1 1h58a1 1 0 0 0 1-1v-58a1 1 0 0 0 -1-1zm-1 13.57-19.4 18.43h-30.6v-20h2v1a1 1 0 0 0 1 1h4a1 1 0 0 0 1-1v-5h2v1a1 1 0 0 0 1 1h4a1 1 0 0 0 1-1v-3h2v5a1 1 0 0 0 1 1h4a1 1 0 0 0 1-1v-9h26zm-25 26.43a3 3 0 0 0 -3 3v2a1 1 0 0 1 -2 0v-6a3 3 0 0 0 -6 0v13a1 1 0 0 1 -2 0v-10a3 3 0 0 0 -6 0v4a1 1 0 0 1 -2 0v-12h26v18a1 1 0 0 1 -2 0v-9a3 3 0 0 0 -3-3zm-3-30h-2v-8h2zm-4-6h-2v-2h2zm-4 4h-2v-6h2zm-4-2h-2v-4h2zm-4 6h-2v-10h2zm-4-2h-2v-8h2zm-8-8h4v56h-4zm6 56v-24h2v12a3 3 0 0 0 6 0v-4a1 1 0 0 1 2 0v10a3 3 0 0 0 6 0v-13a1 1 0 0 1 2 0v6a3 3 0 0 0 6 0v-2a1 1 0 0 1 2 0v9a3 3 0 0 0 6 0v-18.571l18-17.1v41.671z"/><path d="m57.383 27.076a1 1 0 0 0 -1.09.217l-12 12a1 1 0 0 0 .707 1.707h12a1 1 0 0 0 1-1v-12a1 1 0 0 0 -.617-.924zm-1.383 11.924h-8.586l8.586-8.586z"/><path d="m44 43h14v2h-14z"/><path d="m44 47h12v2h-12z"/><path d="m44 51h14v2h-14z"/><path d="m13 56h2v2h-2z"/><path d="m29 52h2v2h-2z"/><path d="m20 18a7 7 0 1 0 7 7 7.008 7.008 0 0 0 -7-7zm0 12a5 5 0 1 1 5-5 5.006 5.006 0 0 1 -5 5z"/><path d="m20 14v2a9.01 9.01 0 0 1 9 9h2a11.013 11.013 0 0 0 -11-11z"/><path d="m26.445 31.168 1.11 1.664a7.442 7.442 0 0 0 3.445-5.832h-2a5.443 5.443 0 0 1 -2.555 4.168z"/><path d="m44 55h4v2h-4z"/><path d="m50 55h4v2h-4z"/><path d="m37 23a1 1 0 0 0 -.961 1.274l2 7a1 1 0 0 0 .71.694 1.028 1.028 0 0 0 .251.032 1 1 0 0 0 .707-.293l7-7a1 1 0 0 0 -.707-1.707zm2.495 6.091-1.169-4.091h5.26z"/><path d="m48.617 22.924a.987.987 0 0 0 .383.076 1 1 0 0 0 .707-.293l6-6a1 1 0 0 0 0-1.414l-6-6a1 1 0 0 0 -1.707.707v12a1 1 0 0 0 .617.924zm1.383-10.51 3.586 3.586-3.586 3.586z"/><path d="m37.113 20.462a1 1 0 0 0 .887.538h7a1 1 0 0 0 1-1v-10a1 1 0 0 0 -1.819-.573l-7 10a1 1 0 0 0 -.068 1.035zm6.887-7.29v5.828h-4.08z"/><path d="m39 6.586h2v2.828h-2z" transform="matrix(.707 -.707 .707 .707 6.059 30.627)"/><path d="m34.586 14h2.828v2h-2.828z" transform="matrix(.707 -.707 .707 .707 -.062 29.849)"/><path d="m33 28.586h2v2.828h-2z" transform="matrix(.707 -.707 .707 .707 -11.255 32.828)"/><path d="m52 6h6v2h-6z"/><path d="m54 10h4v2h-4z"/><path d="m32 18.586h2v2.828h-2z" transform="matrix(.707 -.707 .707 .707 -4.477 29.192)"/></svg>