<svg height="512" viewBox="0 0 64 64" width="512" xmlns="http://www.w3.org/2000/svg"><path d="m43.623 26.218-1.248 1.563a9.311 9.311 0 0 0 5.5 1.991 6.66 6.66 0 0 0 4.835-2.065l-1.414-1.414c-3.312 3.307-7.496.064-7.673-.075z"/><path d="m42.316 22.948 2.706-.9 6.7 1.915.548-1.924-7-2a1 1 0 0 0 -.59.014l-3 1z"/><path d="m55 2h-52a1 1 0 0 0 -1 1v58a1 1 0 0 0 1 1h52a1 1 0 0 0 1-1v-58a1 1 0 0 0 -1-1zm-47 58h-4v-3h2v-2h-2v-2h2v-2h-2v-2h2v-2h-2v-2h2v-2h-2v-2h2v-2h-2v-2h2v-2h-2v-2h2v-2h-2v-2h2v-2h-2v-2h2v-2h-2v-2h2v-2h-2v-2h2v-2h-2v-2h2v-2h-2v-2h2v-2h-2v-3h4zm46 0h-44v-46h28.006c.036 3.633.287 16.04 2.046 21.316a46.622 46.622 0 0 1 2.248 10.038 20.268 20.268 0 0 0 .756 3.962c.944 2.836 8.414 6.962 10.944 8.291zm0-11.043a6.069 6.069 0 0 1 -4.315-1.957h4.315zm0-3.957h-3.919l2.265-2.831 1.654.552zm0-9.128a2.914 2.914 0 0 1 -2-2.878l-1 .006h-1a4.838 4.838 0 0 0 4 4.914v2.7l-1.684-.561a1 1 0 0 0 -1.1.323l-4 5a2.114 2.114 0 0 0 -.177.375c-.007.025-.015.049-.02.074a2.039 2.039 0 0 0 .008.418c.046.184 1.15 4.285 6.97 4.715v4.381c-3.86-2.11-8.552-5.154-9.052-6.654a18.8 18.8 0 0 1 -.668-3.579 48.853 48.853 0 0 0 -2.332-10.421c-1.642-4.928-1.9-17.11-1.94-20.684h13.995zm0-23.872h-44v-8h44z"/><path d="m33.414 46 5.293-5.293a1 1 0 0 0 -.391-1.655l-6-2a1 1 0 0 0 -1.023.241l-3.293 3.293-.293-.293a1 1 0 0 0 -1.414 0l-10 10a1 1 0 0 0 0 1.414l6 6a1 1 0 0 0 1.414 0l10-10a1 1 0 0 0 0-1.414zm-10.414 9.586-4.586-4.586 1.586-1.586 4.586 4.586zm3-3-4.586-4.586 5.586-5.586 4.586 4.586zm3.414-10.586 2.857-2.855 3.877 1.293-4.148 4.148z"/><path d="m38 50a3 3 0 1 0 3 3 3 3 0 0 0 -3-3zm0 4a1 1 0 1 1 1-1 1 1 0 0 1 -1 1z"/><path d="m18.458 28.127-1.165 1.166a1 1 0 0 0 0 1.414l6 6a1 1 0 0 0 1.414 0l6-6a1 1 0 0 0 0-1.414l-6-6a1 1 0 0 0 -1.414 0l-1.166 1.165-4.314-6.039a1 1 0 0 0 -.731-.419 1.018 1.018 0 0 0 -.789.29l-4 4a1 1 0 0 0 .126 1.52zm5.542-2.713 4.586 4.586-4.586 4.586-4.586-4.586zm-7.128-4.872 3.822 5.35-.8.8-5.35-3.822z"/><path d="m12 6h2v2h-2z"/><path d="m16 8h2v2h-2z"/><path d="m46 8h2v2h-2z"/><path d="m50 6h2v2h-2z"/><path d="m22 7h20v2h-20z"/><path d="m22 17h2v2h-2z"/><path d="m34 32h2v2h-2z"/><path d="m14 54h-2v4h4v-2h-2z"/><path d="m30 56h2v2h-2z"/><path d="m27 22a3 3 0 0 1 3 3 1 1 0 0 0 2 0 3 3 0 0 1 3-3 1 1 0 0 0 0-2 3 3 0 0 1 -3-3 1 1 0 0 0 -2 0 3 3 0 0 1 -3 3 1 1 0 0 0 0 2zm4-2.031a4.988 4.988 0 0 0 1.031 1.031 4.988 4.988 0 0 0 -1.031 1.031 4.988 4.988 0 0 0 -1.031-1.031 4.988 4.988 0 0 0 1.031-1.031z"/><path d="m13 41a3 3 0 0 1 3 3 1 1 0 0 0 2 0 3 3 0 0 1 3-3 1 1 0 0 0 0-2 3 3 0 0 1 -3-3 1 1 0 0 0 -2 0 3 3 0 0 1 -3 3 1 1 0 0 0 0 2zm4-2.031a4.988 4.988 0 0 0 1.031 1.031 4.988 4.988 0 0 0 -1.031 1.031 4.988 4.988 0 0 0 -1.031-1.031 4.988 4.988 0 0 0 1.031-1.031z"/></svg>