<svg height="512" viewBox="0 0 64 64" width="512" xmlns="http://www.w3.org/2000/svg"><path d="m10 62h48a1 1 0 0 0 1-1v-58a1 1 0 0 0 -1-1h-46a7.008 7.008 0 0 0 -7 7v48a5.006 5.006 0 0 0 5 5zm6-8h6v3.382l-2.553-1.277a1 1 0 0 0 -.894 0l-2.553 1.277zm8 0h33v2h-33zm33-2h-44v-48h44zm-50-8.513v-1.487a1.883 1.883 0 0 1 2-2v-2a4.08 4.08 0 0 0 -2 .487v-22.487a1.883 1.883 0 0 1 2-2v-2a4.08 4.08 0 0 0 -2 .487v-3.487a5.009 5.009 0 0 1 4-4.9v47.9h-1a4.948 4.948 0 0 0 -3 1.026v-6.026a1.883 1.883 0 0 1 2-2v-2a4.08 4.08 0 0 0 -2 .487zm3 10.513h4v2h-5v2h5v1a1 1 0 0 0 1.447.9l3.553-1.782 3.553 1.782a1 1 0 0 0 1.447-.9v-1h33v2h-47a3 3 0 0 1 0-6z"/><path d="m23 26h8v18h8v-18h8v-8h-8v-6h-8v6h-8zm2-6h8v-6h4v6h8v4h-8v18h-4v-18h-8z"/><path d="m55 6h-40v44h40zm-2 42h-36v-40h36z"/><path d="m21 12h4v-2h-6v6h2z"/><path d="m25 44h-4v-4h-2v6h6z"/><path d="m49 16h2v-6h-6v2h4z"/><path d="m49 44h-4v2h6v-6h-2z"/><path d="m42 33h2v2h-2z"/><path d="m46 35h2v2h-2z"/></svg>