<svg height="512" viewBox="0 0 64 64" width="512" xmlns="http://www.w3.org/2000/svg"><path d="m6 62h52a1 1 0 0 0 1-1v-52a1 1 0 0 0 -1-1h-7v-1a5.006 5.006 0 0 0 -5-5h-10a5.006 5.006 0 0 0 -5 5v1h-19a7.008 7.008 0 0 0 -7 7v46a1 1 0 0 0 1 1zm51-52v50h-44v-50h26v4h-24v18h24v1a1 1 0 0 0 1.625.781l4.375-3.5 4.375 3.5a1 1 0 0 0 1.625-.781v-1h4v-18h-4v-4zm-18 20h-22v-14h22zm12-14h2v14h-2zm-5-12a3 3 0 0 1 3 3v23.919l-3.375-2.7a1 1 0 0 0 -1.25 0l-3.375 2.7v-23.919a4.973 4.973 0 0 0 -1-3zm-13 3a3 3 0 0 1 6 0v1h-6zm-26 42.487v-6.487a1.883 1.883 0 0 1 2-2v-2a4.08 4.08 0 0 0 -2 .487v-15.487a1.883 1.883 0 0 1 2-2v-2a4.08 4.08 0 0 0 -2 .487v-1.487a1.883 1.883 0 0 1 2-2v-2a4.08 4.08 0 0 0 -2 .487v-.487a5.009 5.009 0 0 1 4-4.9v49.9h-4v-7a1.883 1.883 0 0 1 2-2v-2a4.08 4.08 0 0 0 -2 .487z"/><path d="m15 34h22v2h-22z"/><path d="m15 38h6v2h-6z"/><path d="m23 38h2v2h-2z"/><path d="m27 38h3v2h-3z"/><path d="m32 38h23v2h-23z"/><path d="m15 42h40v2h-40z"/><path d="m15 46h20v2h-20z"/><path d="m37 46h8v2h-8z"/><path d="m47 46h8v2h-8z"/><path d="m53 56h-6v2h8v-6h-2z"/><path d="m15 58h30v-8h-30zm2-6h26v4h-26z"/><path d="m19 18h2v2h-2z"/><path d="m23 21h2v2h-2z"/></svg>