<svg height="512" viewBox="0 0 64 64" width="512" xmlns="http://www.w3.org/2000/svg"><path d="m60 3a1 1 0 0 0 -1-1h-12a1 1 0 0 0 -1 1v9h-10v-9a1 1 0 0 0 -1-1h-12a1 1 0 0 0 -1 1v7.612l-4.684-1.561a1 1 0 0 0 -1.275.664l-10.787 36.285h-3.254v6h5.18l1.84 9.2a1 1 0 0 0 .98.8h2a1 1 0 0 0 .98-.8l1.84-9.2h34.36l1.84 9.2a1 1 0 0 0 .98.8h2a1 1 0 0 0 .98-.8l1.84-9.2h5.18v-6h-2zm-12 1h10v2h-10zm0 4h10v3h-10zm0 5h10v33h-10zm-12 1h10v2h-10zm0 4h10v2h-10zm0 11v-7h10v16h-10zm0 11h10v2h-10zm0 4h10v2h-10zm-12-40h2v4h2v-4h2v4h2v-4h2v6h-10zm0 8h10v2h-10zm0 4h10v2h-10zm0 4h10v20h-2a1 1 0 0 0 -.707.293l-.928.928-1.436-3.593a1 1 0 0 0 -1.761-.183l-1.703 2.555h-1.465zm0 22h2a1 1 0 0 0 .832-.445l.945-1.419 1.294 3.236a1 1 0 0 0 .728.607.988.988 0 0 0 .201.021 1 1 0 0 0 .707-.293l1.707-1.707h1.586v4h-10zm-8.68-22.839 2.364.788.632-1.9-2.426-.809.6-2.024 2.192.731.632-1.9-2.252-.747.6-2.025 4.111 1.371-4.594 16.08-4.336-1.239zm6.68-.019v26.858h-7.674zm-9.725 10.258 4.357 1.245-4.386 15.355h-4.9zm-1.094 30.6h-.362l-1.6-8h3.56zm42 0h-.362l-1.6-8h3.56zm6.819-10h-56v-2h56z"/><path d="m53 15c-2.072 0-3 3.516-3 7s.928 7 3 7 3-3.516 3-7-.928-7-3-7zm0 11.909c-.37-.47-1-2.145-1-4.909s.63-4.439 1-4.909c.37.47 1 2.145 1 4.909s-.63 4.439-1 4.909z"/><path d="m41 34a5 5 0 1 0 -5-5 5.006 5.006 0 0 0 5 5zm0-8a3 3 0 1 1 -3 3 3 3 0 0 1 3-3z"/><path d="m51 34h4v2h-4z"/><path d="m50 38h6v2h-6z"/><path d="m50 42h6v2h-6z"/><path d="m28 33h2v-7h2v-2h-2v-2h-2v2h-2v2h2z"/></svg>