<svg height="512" viewBox="0 0 64 64" width="512" xmlns="http://www.w3.org/2000/svg"><path d="m61 21h-5v-13a1 1 0 0 0 -1-1h-12v-3a1 1 0 0 0 -.553-.895 13.128 13.128 0 0 0 -5.447-1.105 13.788 13.788 0 0 0 -5 .911 13.788 13.788 0 0 0 -5-.911 13.128 13.128 0 0 0 -5.447 1.105 1 1 0 0 0 -.553.895v3h-12a1 1 0 0 0 -1 1v13h-5a1 1 0 0 0 -1 1v40h60v-40a1 1 0 0 0 -1-1zm-1 2v20h-4v-20zm-20 32v-3h10v-2h-10v-7h14v3h-7v2h7v2h-2v2h2v3zm-14 0v-24h12v24zm-16 0v-3h6v-2h-6v-3h7v-2h-7v-2h14v5h-5v2h5v5zm0-34h44v20h-14v-15a1 1 0 0 0 -1-1h-14a1 1 0 0 0 -1 1v15h-14zm28 8h-12v-2h12zm3-24.329v9.9a14.369 14.369 0 0 0 -8 0v-9.9a12.275 12.275 0 0 1 8 0zm-18 0a12.275 12.275 0 0 1 8 0v9.9a14.369 14.369 0 0 0 -8 0zm-13 4.329h3v8h2v-8h2v6h2v-6h2v7a1 1 0 0 0 1.447.895 11.113 11.113 0 0 1 4.553-.895 11.325 11.325 0 0 1 4.556.9 1.959 1.959 0 0 0 .428.1c.006 0 .2-.017.255-.029a2.127 2.127 0 0 0 .208-.072 11.113 11.113 0 0 1 4.553-.899 11.314 11.314 0 0 1 4.553.895 1 1 0 0 0 1.447-.895v-7h2v8h2v-8h2v6h2v-6h3v10h-44zm-2 14v20h-4v-20zm-4 30h2v-2h-2v-6h4v2h-2v2h2v6h-4zm16 7h-16v-3h16zm22 0h-20v-3h20zm18 0h-16v-3h16zm-4-5v-6h2v-2h-2v-2h4v6h-2v2h2v2z"/><path d="m34 40h2v3h-2z"/><path d="m28 51h8v2h-8z"/><path d="m28 47h8v2h-8z"/><path d="m12 25v14h10v-14zm3.414 12 2.293-2.293-1.414-1.414-2.293 2.293v-8.586h4.586l-2.293 2.293 1.414 1.414 2.293-2.293v8.586z"/><path d="m52 25h-10v14h10zm-6.586 12 2.293-2.293-1.414-1.414-2.293 2.293v-8.586h4.586l-2.293 2.293 1.414 1.414 2.293-2.293v8.586z"/><path d="m43 46h2v2h-2z"/></svg>