<svg height="512" viewBox="0 0 64 64" width="512" xmlns="http://www.w3.org/2000/svg"><path d="m58 2h-46a7.008 7.008 0 0 0 -7 7v48a5.006 5.006 0 0 0 5 5h48a1 1 0 0 0 1-1v-58a1 1 0 0 0 -1-1zm-45 36h44v14h-44zm44-34v32h-44v-32zm-50 15.487v-1.487a1.882 1.882 0 0 1 2-2v-2a4.08 4.08 0 0 0 -2 .487v-5.487a5.009 5.009 0 0 1 4-4.9v47.9h-1a4.948 4.948 0 0 0 -3 1.026v-30.026a1.882 1.882 0 0 1 2-2v-2a4.08 4.08 0 0 0 -2 .487zm3 40.513a3 3 0 0 1 0-6h47v2h-48v2h48v2z"/><path d="m26 12c-5.072 0-5.86 8.825-5.979 12h-2.021v2h12.049c.192 2.353 1.152 8 5.951 8s5.759-5.647 5.951-8h4.1c.255 2.5 1.488 6 4.947 6v-2c-2.116 0-2.737-2.542-2.921-4h2.923v-2h-3.024c-.11-2.528-.721-8-3.976-8s-3.866 5.472-3.976 8h-8.045c-.119-3.175-.907-12-5.979-12zm10 20c-3.022 0-3.759-4.069-3.94-6h7.882c-.178 1.931-.909 6-3.942 6zm8-14c1.058 0 1.828 2.989 1.973 6h-3.945c.14-2.735.828-6 1.972-6zm-21.974 6c.147-3.4 1.032-10 3.974-10s3.825 6.6 3.974 10z"/><path d="m33.707 13.707 5-5-1.414-1.414-1.793 1.793-1.793-1.793-1.414 1.414 1.793 1.793-1.793 1.793z"/><path d="m40 8h4v2h-4z"/><path d="m40 12h4v2h-4z"/><path d="m52 8h-4v-2h-2v8h6zm-2 4h-2v-2h2z"/><path d="m21.293 28.293-1.293 1.293-1.293-1.293-1.414 1.414 1.293 1.293-1.293 1.293 1.414 1.414 1.293-1.293 1.293 1.293 1.414-1.414-1.293-1.293 1.293-1.293z"/><path d="m25 28h4v2h-4z"/><path d="m25 32h4v2h-4z"/><path d="m17 16h2v-6h9v-2h-9v-2h-2v2h-2v2h2z"/><path d="m50 20h2v2h-2z"/><path d="m53 16h2v2h-2z"/><path d="m19 50h32v-10h-32zm2-8h28v6h-28z"/><path d="m15 40h2v2h-2z"/><path d="m15 48h2v2h-2z"/><path d="m53 40h2v2h-2z"/><path d="m53 48h2v2h-2z"/></svg>