<svg height="512" viewBox="0 0 64 64" width="512" xmlns="http://www.w3.org/2000/svg"><path d="m57 2h-50a5.006 5.006 0 0 0 -5 5v50a5.006 5.006 0 0 0 5 5h50a5.006 5.006 0 0 0 5-5v-50a5.006 5.006 0 0 0 -5-5zm-49 58h-1a3 3 0 0 1 -3-3v-50a3 3 0 0 1 3-3h1zm41-56h6v14.586l-2.293-2.293a1 1 0 0 0 -1.414 0l-2.293 2.293zm-35 0h16v14h-16zm46 53a3 3 0 0 1 -3 3h-47v-56h2v16h20v-16h15v17a1 1 0 0 0 1.707.707l3.293-3.293 3.293 3.293a1 1 0 0 0 .707.293.987.987 0 0 0 .383-.076 1 1 0 0 0 .617-.924v-17a3 3 0 0 1 3 3z"/><path d="m17 28h2v2h-2z"/><path d="m17 32h2v2h-2z"/><path d="m36 38a5 5 0 1 0 -5-5 5.006 5.006 0 0 0 5 5zm0-8a3 3 0 1 1 -3 3 3 3 0 0 1 3-3z"/><path d="m35 32h2v2h-2z"/><path d="m50.832 27.445-2-3a1 1 0 0 0 -.832-.445h-3v-3a5 5 0 0 0 -10 0v3h-19a3 3 0 0 0 -3 3v8a3 3 0 0 0 3 3h11v10h-1a1 1 0 0 0 -1 1v4a1 1 0 0 0 1 1h20a1 1 0 0 0 1-1v-3h1a1 1 0 0 0 .832-.445l2-3a1 1 0 0 0 0-1.11l-1.632-2.445 1.63-2.445a1 1 0 0 0 0-1.11l-1.63-2.445 1.63-2.445a1 1 0 0 0 0-1.11l-1.63-2.445 1.63-2.445a1 1 0 0 0 .002-1.11zm-29.832 8.555h-5a1 1 0 0 1 -1-1v-8a1 1 0 0 1 1-1h5zm16-15a3 3 0 0 1 6 0v3h-6zm-14 15v-10h20v22h-14v-11a1 1 0 0 0 -1-1zm22 16h-18v-2h18zm2.465-4h-2.465v-4h2.465l1.335 2zm0-6h-2.465v-4h2.465l1.335 2zm0-6h-2.465v-4h2.465l1.335 2zm0-6h-2.465v-4h2.465l1.335 2z"/><path d="m39 21h2v2h-2z"/><path d="m18 50a4 4 0 1 0 -4-4 4 4 0 0 0 4 4zm0-6a2 2 0 1 1 -2 2 2 2 0 0 1 2-2z"/><path d="m55 52a3 3 0 1 0 3 3 3 3 0 0 0 -3-3zm0 4a1 1 0 1 1 1-1 1 1 0 0 1 -1 1z"/><path d="m39 12a3 3 0 1 0 -3-3 3 3 0 0 0 3 3zm0-4a1 1 0 1 1 -1 1 1 1 0 0 1 1-1z"/><path d="m12 56h38v2h-38z"/><path d="m55 24h2v26h-2z"/><path d="m13 52h2v2h-2z"/><path d="m23 40h2v2h-2z"/><path d="m34 14h2v2h-2z"/><path d="m43 12h2v2h-2z"/><path d="m16 6h12v2h-12z"/><path d="m16 10h12v2h-12z"/><path d="m16 14h12v2h-12z"/></svg>