<svg height="512" viewBox="0 0 64 64" width="512" xmlns="http://www.w3.org/2000/svg"><path d="m61 2h-58a1 1 0 0 0 -1 1v58a1 1 0 0 0 1 1h56a1 1 0 0 0 1-1v-17h1a1 1 0 0 0 1-1v-4a1 1 0 0 0 -1-1h-1v-5a1 1 0 0 0 -1-1h-10v-2h2a1 1 0 0 0 1-1v-4a1 1 0 0 0 -1-1h-6a1 1 0 0 0 -1 1v4a1 1 0 0 0 1 1h2v2h-2a1 1 0 0 0 -1 1v5h-2v-3a3 3 0 0 0 -3-3h-14a3 3 0 0 0 -3 3v3h-2v-22h5v13a1 1 0 0 0 1 1h12a1 1 0 0 0 1-1v-13h22a1 1 0 0 0 1-1v-12a1 1 0 0 0 -1-1zm-15 24h4v2h-4zm-32 16h-2v-4h2zm-6 0v-4h2v4zm-4 0v-4h2v4zm10-6h-2v-2h2zm-4 0h-2v-2h2zm-4 0h-2v-2h2zm-2 11v-3h14v16h-2.82l.806-4.836a1 1 0 0 0 -.986-1.164h-3v-2h1a5.006 5.006 0 0 0 5-5 1 1 0 0 0 -1-1h-2a4.982 4.982 0 0 0 -4 2.031 4.982 4.982 0 0 0 -4-2.031h-2a1 1 0 0 0 -1 1 5.006 5.006 0 0 0 5 5h1v2h-3a1 1 0 0 0 -.986 1.164l.806 4.836h-2.82zm8.171 3a3.006 3.006 0 0 1 2.829-2h.829a3.006 3.006 0 0 1 -2.829 2zm-2.342 0h-.829a3.006 3.006 0 0 1 -2.829-2h.829a3.006 3.006 0 0 1 2.829 2zm-.982 10-.666-4h5.638l-.666 4zm49.153 0h-38v-16h38zm-12-26h12v4h-12zm-6 1v3h-2v-4h1a1 1 0 0 1 1 1zm-4 3h-3v-4h3zm-8-4h3v4h-3zm-4 1a1 1 0 0 1 1-1h1v4h-2zm36 5v2h-40v-2zm-42 2h-2v-9a1 1 0 0 0 -1-1h-11v-2h14zm-6-22h2v8h-2zm-2 8h-2v-8h2zm6 0v-9a1 1 0 0 0 -1-1h-8a1 1 0 0 0 -1 1v9h-2v-12h14v12zm-8-16h2v2h-2zm10-2h-2v-2h2zm0 2v2h-2v-2zm-4 2h-2v-6h2zm-4-4h-2v-2h2zm10 4v-7a1 1 0 0 0 -1-1h-12a1 1 0 0 0 -1 1v7h-2v-10h56v9.586l-8.293-8.293a1 1 0 0 0 -1.414 0l-1.362 1.362a.994.994 0 0 0 -.931-.655h-8a1 1 0 0 0 -1 1v7h-6v-2h1a1 1 0 0 0 1-1v-4a1 1 0 0 0 -1-1h-8a1 1 0 0 0 -1 1v3h-2v4zm23-4h-2v-2h2zm2-2h2v2h-2zm4 3.414 2.586 2.586h-2.586zm-24 2.586v-2h6v2zm2-4v-2h6v2zm10 18h-10v-8h10zm0-10h-10v-2h10zm4-6h2v2h-2zm4 2v-2h2v2zm9.414 0-5-5 1.586-1.586 6.586 6.586z"/><path d="m25.836 55.986 6 1a.919.919 0 0 0 .164.014 1 1 0 0 0 .961-.726l2-7a1 1 0 0 0 -.8-1.26l-6-1a1 1 0 0 0 -1.126.712l-2 7a1 1 0 0 0 .8 1.26zm2.88-6.853 4.014.67-1.446 5.064-4.014-.667z"/><path d="m43.293 57.707a1 1 0 0 0 1.414 0l4-4a1 1 0 0 0 0-1.414l-5-5a1 1 0 0 0 -1.414 0l-4 4a1 1 0 0 0 0 1.414zm-.293-8.293 3.586 3.586-2.586 2.586-3.586-3.586z"/><path d="m56 50h-2v6h-4v2h6z"/><path d="m22 46h2v2h-2z"/><path d="m54 46h2v2h-2z"/><path d="m50 48h2v2h-2z"/><path d="m29 22h2v2h-2z"/><path d="m33 22h2v2h-2z"/></svg>