<svg height="512" viewBox="0 0 64 64" width="512" xmlns="http://www.w3.org/2000/svg"><path d="m6 6h2v2h-2z"/><path d="m10 6h2v2h-2z"/><path d="m14 6h2v2h-2z"/><path d="m61 2h-58a1 1 0 0 0 -1 1v58a1 1 0 0 0 1 1h58a1 1 0 0 0 1-1v-58a1 1 0 0 0 -1-1zm-1 8h-40v-6h40zm-56-6h14v6h-14zm52 12v2h-2v-2zm-10 0h6v6.586l-2.293-2.293a1 1 0 0 0 -1.414 0l-2.293 2.293zm-2 2h-36v-2h36zm0 2v5a1 1 0 0 0 1.707.707l3.293-3.293 3.293 3.293a1 1 0 0 0 1.707-.707v-5h2v6h-24.723c-1.327-.768-7.607-3.908-20.348-3a1 1 0 0 0 -.929 1v2h-2v-6zm-36 8h2v32h-2zm4-3.062c10.784-.61 16.462 1.848 18 2.647v32.415h-18zm20 35.062v-32h24v32zm26 0v-46h-52v46h-2v-48h56v48z"/><path d="m34 42h20v-12h-20zm2-10h16v8h-16z"/><path d="m34 44h13v2h-13z"/><path d="m49 44h5v2h-5z"/><path d="m34 48h19v2h-19z"/><path d="m34 52h8v2h-8z"/><path d="m44 52h10v2h-10z"/><path d="m34 56h20v2h-20z"/><path d="m14 42v16h8v-8h6v-8zm6 14h-4v-12h4zm6-12v4h-4v-4z"/><path d="m24 52h4v2h-4z"/><path d="m24 56h4v2h-4z"/><path d="m14 38h14v2h-14z"/><path d="m14 34h14v2h-14z"/><path d="m14 30h14v2h-14z"/></svg>