<svg height="512" viewBox="0 0 64 64" width="512" xmlns="http://www.w3.org/2000/svg"><path d="m59 6h-1v-1a1 1 0 0 0 -.8-.98c-.416-.083-10.171-2.02-16.2-2.02-4.8 0-7.055.92-9 2.63-1.945-1.71-4.2-2.63-9-2.63-6.029 0-15.784 1.937-16.2 2.02a1 1 0 0 0 -.8.98v1h-1a3 3 0 0 0 -3 3v48a3 3 0 0 0 3 3h24.171a3 3 0 0 0 5.658 0h24.171a3 3 0 0 0 3-3v-48a3 3 0 0 0 -3-3zm-26 .422c1.7-1.607 3.534-2.422 8-2.422 4.856 0 12.518 1.36 15 1.826v47.948c-3.408-.643-13.3-2.126-23-.023zm-25-.6c2.482-.462 10.144-1.822 15-1.822 4.465 0 6.3.817 8 2.424v47.327c-9.7-2.1-19.592-.62-23 .023zm52 51.178a1 1 0 0 1 -1 1h-25a1 1 0 0 0 -1 1 1 1 0 0 1 -2 0 1 1 0 0 0 -1-1h-25a1 1 0 0 1 -1-1v-48a1 1 0 0 1 1-1h1v47a1 1 0 0 0 1.225.975c.128-.03 12.9-2.911 24.533-.005a.968.968 0 0 0 .484 0c11.616-2.9 24.406-.025 24.533.005a1.009 1.009 0 0 0 .848-.193 1 1 0 0 0 .377-.782v-47h1a1 1 0 0 1 1 1z"/><path d="m27 50a1 1 0 0 0 1-1v-11a1 1 0 0 0 -.553-.9l-4-2c-.025-.012-.159-.059-.2-.07a1.938 1.938 0 0 0 -.247-.03 1.883 1.883 0 0 0 -.246.032 2.069 2.069 0 0 0 -.2.069l-3.354 1.682-1.99-1.99-1.5-1.5a1.9 1.9 0 0 0 -.26-.188 1.006 1.006 0 0 0 -1.047.1l-4 3a1 1 0 0 0 -.4.8v11.995a1 1 0 0 0 1 1zm-3-12.382 2 1v9.382h-2zm-10 10.382h-2v-10.5l2-1.5zm4 0h-2v-11.586l2 2zm4 0h-2v-9.382l2-1z"/><path d="m14 21h2v-2h4v-6h-8v-2h8v-2h-4v-2h-2v2h-4v6h8v2h-8v2h4z"/><path d="m23 20v2h-4v6h8v2h-8v2h4v2h2v-2h4v-6h-8v-2h8v-2h-4v-2z"/><path d="m35 10h12v2h-12z"/><path d="m49 10h2v2h-2z"/><path d="m35 14h18v2h-18z"/><path d="m53 18h-18v14h18zm-2 12h-14v-10h14z"/><path d="m35 34h4v2h-4z"/><path d="m41 34h4v2h-4z"/><path d="m35 38h6v2h-6z"/><path d="m43 38h6v2h-6z"/><path d="m35 42h14v2h-14z"/><path d="m35 46h2v2h-2z"/><path d="m39 46h2v2h-2z"/><path d="m43 46h6v2h-6z"/><path d="m25 11h2v2h-2z"/><path d="m13 24h2v2h-2z"/><path d="m22 15h2v2h-2z"/></svg>