<svg height="512" viewBox="0 0 64 64" width="512" xmlns="http://www.w3.org/2000/svg"><path d="m58 2h-46a7.008 7.008 0 0 0 -7 7v48a5.006 5.006 0 0 0 5 5h48a1 1 0 0 0 1-1v-58a1 1 0 0 0 -1-1zm-1 8h-2v2h2v4h-2v2h2v19h-2v2h2v13h-4v-48h4zm0 46h-33v-2h33zm-44-52h34v48h-34zm3 50h6v3.382l-2.553-1.277a1 1 0 0 0 -.894 0l-2.553 1.277zm35-50v48h-2v-48zm-44 39.487v-1.487a1.882 1.882 0 0 1 2-2v-2a4.08 4.08 0 0 0 -2 .487v-22.487a1.882 1.882 0 0 1 2-2v-2a4.08 4.08 0 0 0 -2 .487v-3.487a5.009 5.009 0 0 1 4-4.9v47.9h-1a4.948 4.948 0 0 0 -3 1.026v-6.026a1.882 1.882 0 0 1 2-2v-2a4.08 4.08 0 0 0 -2 .487zm16 16.513h-13a3 3 0 0 1 0-6h4v2h-5v2h5v1a1 1 0 0 0 1.447.9l3.553-1.782 3.553 1.782a1 1 0 0 0 1.447-.9v-1h33v2z"/><path d="m20 31a5.006 5.006 0 0 0 5-5v-2a1.769 1.769 0 0 0 -.168-.555l-3.632-5.445h7.8v10h-1a1 1 0 0 0 -1 1v13h-5a1 1 0 0 0 -1 1v4a1 1 0 0 0 1 1h16a1 1 0 0 0 1-1v-4a1 1 0 0 0 -1-1h-5v-13a1 1 0 0 0 -1-1h-1v-10h7.8l-3.63 5.445a1.769 1.769 0 0 0 -.17.555v2a5 5 0 0 0 10 0v-2a1.769 1.769 0 0 0 -.168-.555l-3.632-5.445h1.8v-2h-9.382l-1-2h2.382v-2h-2.184a2.966 2.966 0 0 0 .184-1 3 3 0 0 0 -6 0 2.966 2.966 0 0 0 .184 1h-2.184v2h2.382l-1 2h-9.382v2h1.8l-3.63 5.445a1.769 1.769 0 0 0 -.17.555v2a5.006 5.006 0 0 0 5 5zm3 13h2v2h-2zm4 2v-2h6v2zm10 0h-2v-2h2zm-6-4h-2v-12h2zm9-22.2 2.132 3.2h-4.264zm3 6.2a3 3 0 0 1 -6 0v-1h6zm-13-16a1 1 0 1 1 -1 1 1 1 0 0 1 1-1zm-.382 4h.764l1 2h-2.764zm-6.618 12a3 3 0 0 1 -6 0v-1h6zm-5.132-3 2.132-3.2 2.132 3.2z"/><path d="m17 8h4v-2h-6v8h2z"/><path d="m43 47h2v2h-2z"/><path d="m41 43h2v2h-2z"/></svg>