<svg height="512" viewBox="0 0 64 64" width="512" xmlns="http://www.w3.org/2000/svg"><path d="m57 32h-1v-1a3 3 0 0 0 -3-3h-20a3 3 0 0 0 -3 3v1h-1a4.948 4.948 0 0 0 -3 1.026v-31.026h-24v60h24v-8.184a2.966 2.966 0 0 0 1 .184h2.117l.891 7.124a1 1 0 0 0 .992.876h4a1 1 0 0 0 .992-.876l.891-7.124h12.234l.891 7.124a1 1 0 0 0 .992.876h4a1 1 0 0 0 .992-.876l.891-7.124h2.117a3 3 0 0 0 3-3v-14a5.006 5.006 0 0 0 -5-5zm-25-1a1 1 0 0 1 1-1h20a1 1 0 0 1 1 1v11h-22zm22 17h-22v-4h22zm-25-14h1v14h-4v-11a3 3 0 0 1 3-3zm-5 19h-2v-10h-14v10h-4v-16h20zm-12-4h-2v-4h2zm-2 2h2v2h-2zm4-2h2v4h-2zm2-2h-2v-2h2zm2 2h2v4h-2zm2-2h-2v-2h2zm-2-27h-2v-7h2zm0-9h-2v-2h2zm-4 9h-2v-8h2zm-4-6h-2v-2h2zm0-4h-2v-2h2zm-2 6h2v4h-2zm16 6v13h-2v-10h-14v10h-4v-13zm-14 9h2v4h-2zm10 0h-2v-4h2zm-4 0h-2v-4h2zm-4-2h-2v-2h2zm2 4h2v2h-2zm4 0h2v2h-2zm6-29v16h-4v-12a1 1 0 0 0 -1-1h-4a1 1 0 0 0 -1 1v2h-2v-3a1 1 0 0 0 -1-1h-4a1 1 0 0 0 -1 1v13h-2v-16zm0 56h-3v-2h-2v2h-2v-2h-2v2h-2v-2h-2v2h-2v-2h-2v2h-3v-5h20zm10.117 0h-2.234l-.75-6h3.734zm20 0h-2.234l-.75-6h3.734zm5.883-9a1 1 0 0 1 -1 1h-32a1 1 0 0 1 -1-1v-1h34zm-4-3v-14h1a3 3 0 0 1 3 3v11z"/><path d="m37 39h2v-2h2v-2h-2v-2h-2v2h-2v2h2z"/><path d="m47 39h2v-2h2v-2h-2v-2h-2v2h-2v2h2z"/><path d="m39 60h2v2h-2z"/><path d="m43 60h2v2h-2z"/><path d="m55 2a7 7 0 1 0 7 7 7.008 7.008 0 0 0 -7-7zm0 12a5 5 0 1 1 5-5 5.006 5.006 0 0 1 -5 5z"/><path d="m56 6h-2v3.414l2.293 2.293 1.414-1.414-1.707-1.707z"/><path d="m58 18h-14v-10h-10v10h-4v6h28zm-18-8h2v2h-2zm2 4v4h-2v-4zm-6-4h2v2h-2zm0 4h2v4h-2zm20 8h-24v-2h24z"/></svg>