<svg height="512" viewBox="0 0 64 64" width="512" xmlns="http://www.w3.org/2000/svg"><path d="m2 2v60h60v-60zm19 58h-17v-56h17zm20-4h-2v-2h2zm-12 0v-2h8v2zm8-10v2h-2v-2zm4 6h-2v-2h2zm-8-4h-2v-2h2zm-4 0h-2v-2h2zm0 2h8v2h-8zm12-46v27h-2l1.6-1.2a1 1 0 0 0 .257-1.315l-6-10a1 1 0 0 0 -1.3-.38l-2.727 1.364a.982.982 0 0 0 -.83-.469h-4a1 1 0 0 0 -1 1v11h-2v-27zm-2.321 24.741-2.355 1.766-2.164-3.969 2.459-1.229zm-3.092-5.153-2.387 1.193-1.828-3.35 2.245-1.122zm-6.587 3.412h-2v-2h2zm0-4h-2v-2h2zm-2 6h2v2h-2zm4-4.078 3.315 6.078h-3.315zm-8 35.078v-27h18v15h-2v-4h-14v6h2v6h-2v4zm4 0v-2h10v2zm12 0v-2h2v2zm4 0v-56h17v14h-7v2h7v2h-5v2h5v36z"/><path d="m19 6h-13v10h13zm-11 2h9v2h-9zm9 6h-9v-2h9z"/><path d="m6 56h13v2h-13z"/><path d="m6 52h13v2h-13z"/><path d="m6 48h13v2h-13z"/><path d="m12 26h-6v12h6zm-2 10h-2v-8h2z"/><path d="m58 6h-13v10h13zm-11 2h9v2h-9zm9 6h-9v-2h9z"/><path d="m45 56h13v2h-13z"/><path d="m45 52h13v2h-13z"/><path d="m45 48h13v2h-13z"/><path d="m51 26h-6v12h6zm-2 10h-2v-8h2z"/><path d="m6 18h2v2h-2z"/><path d="m10 18h2v2h-2z"/><path d="m14 18h2v2h-2z"/><path d="m56 44h2v2h-2z"/><path d="m52 44h2v2h-2z"/><path d="m48 44h2v2h-2z"/></svg>