<svg height="512" viewBox="0 0 64 64" width="512" xmlns="http://www.w3.org/2000/svg"><path d="m58 2h-46a7.009 7.009 0 0 0 -7 7v48a5.006 5.006 0 0 0 5 5h48a1 1 0 0 0 1-1v-58a1 1 0 0 0 -1-1zm-1 50h-44v-48h44zm0 4h-33v-2h33zm-41-2h6v3.382l-2.553-1.277a1 1 0 0 0 -.894 0l-2.553 1.277zm-9-10.513v-1.487a1.883 1.883 0 0 1 2-2v-2a4.08 4.08 0 0 0 -2 .487v-22.487a1.883 1.883 0 0 1 2-2v-2a4.08 4.08 0 0 0 -2 .487v-3.487a5.009 5.009 0 0 1 4-4.9v47.9h-1a4.948 4.948 0 0 0 -3 1.026v-6.026a1.883 1.883 0 0 1 2-2v-2a4.08 4.08 0 0 0 -2 .487zm16 16.513h-13a3 3 0 0 1 0-6h4v2h-5v2h5v1a1 1 0 0 0 1.447.9l3.553-1.782 3.553 1.782a1 1 0 0 0 1.447-.9v-1h33v2z"/><path d="m17 26a1 1 0 0 0 1 1h2.21a18.551 18.551 0 0 0 2.495 4.88l-2.412 2.413a1 1 0 0 0 0 1.414l3 3a1 1 0 0 0 1.414 0l2.412-2.407a20.064 20.064 0 0 0 4.881 2.414v2.286a1 1 0 0 0 1 1h4a1 1 0 0 0 1-1v-2.286a20.064 20.064 0 0 0 4.881-2.414l2.412 2.412a1 1 0 0 0 1.414 0l3-3a1 1 0 0 0 0-1.414l-2.407-2.418a18.551 18.551 0 0 0 2.49-4.88h2.21a1 1 0 0 0 1-1v-4a1 1 0 0 0 -1-1h-2.21a18.551 18.551 0 0 0 -2.49-4.88l2.412-2.413a1 1 0 0 0 0-1.414l-3-3a1 1 0 0 0 -1.414 0l-2.412 2.412a20.064 20.064 0 0 0 -4.886-2.419v-2.286a1 1 0 0 0 -1-1h-4a1 1 0 0 0 -1 1v2.286a20.064 20.064 0 0 0 -4.881 2.419l-2.412-2.412a1 1 0 0 0 -1.414 0l-3 3a1 1 0 0 0 0 1.414l2.412 2.413a18.551 18.551 0 0 0 -2.495 4.88h-2.21a1 1 0 0 0 -1 1zm2-3h2a1 1 0 0 0 .984-.824 16.57 16.57 0 0 1 2.836-5.6 1 1 0 0 0 -.113-1.279l-2.293-2.297 1.586-1.586 2.293 2.293a1 1 0 0 0 1.279.113 19.122 19.122 0 0 1 5.744-2.872 1 1 0 0 0 .684-.948v-2h2v2a1 1 0 0 0 .684.948 19.122 19.122 0 0 1 5.744 2.872 1 1 0 0 0 1.279-.113l2.293-2.293 1.586 1.586-2.293 2.293a1 1 0 0 0 -.113 1.279 16.57 16.57 0 0 1 2.836 5.6 1 1 0 0 0 .984.828h2v2h-2a1 1 0 0 0 -.984.824 16.57 16.57 0 0 1 -2.836 5.6 1 1 0 0 0 .113 1.279l2.293 2.297-1.586 1.586-2.293-2.293a1 1 0 0 0 -1.279-.113 19.122 19.122 0 0 1 -5.744 2.872 1 1 0 0 0 -.684.948v2h-2v-2a1 1 0 0 0 -.684-.948 19.122 19.122 0 0 1 -5.744-2.872 1 1 0 0 0 -1.279.113l-2.293 2.293-1.586-1.586 2.293-2.293a1 1 0 0 0 .113-1.279 16.57 16.57 0 0 1 -2.836-5.6 1 1 0 0 0 -.984-.828h-2z"/><path d="m35 34a10 10 0 1 0 -10-10 10.011 10.011 0 0 0 10 10zm0-18a8 8 0 1 1 -8 8 8.009 8.009 0 0 1 8-8z"/><path d="m35 30a6 6 0 1 0 -6-6 6.006 6.006 0 0 0 6 6zm0-10a4 4 0 1 1 -4 4 4 4 0 0 1 4-4z"/><path d="m15 6h2v2h-2z"/><path d="m18 9h2v2h-2z"/><path d="m27 44h16v2h-16z"/><path d="m25 48h20v2h-20z"/><path d="m19 48h4v2h-4z"/><path d="m47 48h4v2h-4z"/><path d="m45 44h2v2h-2z"/><path d="m23 44h2v2h-2z"/><path d="m53 30h2v2h-2z"/><path d="m52 35h2v2h-2z"/></svg>