<svg height="512" viewBox="0 0 64 64" width="512" xmlns="http://www.w3.org/2000/svg"><path d="m61 7h-3v-4a1 1 0 0 0 -1-1h-54a1 1 0 0 0 -1 1v54a5.006 5.006 0 0 0 5 5h50a5.006 5.006 0 0 0 5-5v-49a1 1 0 0 0 -1-1zm-5 11h-50v2h50v40h-49a3 3 0 0 1 -3-3v-53h52zm4 39a3.006 3.006 0 0 1 -2 2.829v-50.829h2z"/><path d="m12 8h1.307l3 8h4.693v-10h-2v8h-1.307l-3-8h-4.693v10h2z"/><path d="m33 16h2a1 1 0 0 0 .929-.628l1.071-2.68 1.071 2.68a1 1 0 0 0 .929.628h2a1 1 0 0 0 .994-.89l1-9-1.988-.22-.906 8.11h-.428l-1.743-4.372a1 1 0 0 0 -1.858 0l-1.748 4.372h-.423l-.9-8.11-1.988.22 1 9a1 1 0 0 0 .988.89z"/><path d="m29 14h-4v-2h4v-2h-4v-2h4v-2h-6v10h6z"/><path d="m51 15v-4a1 1 0 0 0 -1-1h-3v-2h4v-2h-5a1 1 0 0 0 -1 1v4a1 1 0 0 0 1 1h3v2h-4v2h5a1 1 0 0 0 1-1z"/><path d="m28 22h-22v18h22zm-2 16h-18v-14h18z"/><path d="m54 40h-24v18h24zm-2 16h-20v-14h20z"/><path d="m32 23h22v2h-22z"/><path d="m48 27h6v2h-6z"/><path d="m44 27h2v2h-2z"/><path d="m39 27h3v2h-3z"/><path d="m32 27h5v2h-5z"/><path d="m32 31h22v2h-22z"/><path d="m34 35h20v2h-20z"/><path d="m6 43h20v2h-20z"/><path d="m7 47h20v2h-20z"/><path d="m6 51h22v2h-22z"/><path d="m6 55h18v2h-18z"/></svg>