<svg height="512" viewBox="0 0 64 64" width="512" xmlns="http://www.w3.org/2000/svg"><path d="m9 53h1v5h2v4h44v-7h2v-6h-2v-2h2v-6h-2v-2h2v-6h-2v-2h2v-6h-2v-2h2v-6h-2v-2h2v-6h-2v-4h-4v-3h-42v5h-1a3 3 0 0 0 -3 3v40a3 3 0 0 0 3 3zm43-46h2v2h-2zm0 4h4v2h-4zm0 4h2v2h-2zm0 4h4v2h-4zm0 4h2v2h-2zm0 4h4v2h-4zm0 4h2v2h-2zm0 4h4v2h-4zm0 4h2v2h-2zm0 4h4v2h-4zm0 4h2v2h-2zm0 4h4v2h-4zm0 4h2v5h-40v-2h38zm-40-2h2v-2h-2v-2h2v-2h-2v-2h2v-2h-2v-2h2v-2h-2v-2h2v-2h-2v-2h2v-2h-2v-2h2v-2h-2v-2h2v-2h-2v-2h2v-2h-2v-2h2v-2h-2v-2h2v-2h-2v-2h2v-2h-2v-3h38v52h-38zm-4-43a1 1 0 0 1 1-1h1v2h-1a2.966 2.966 0 0 0 -1 .184zm0 5v-1a1 1 0 0 1 1-1h1v2h-1a2.966 2.966 0 0 0 -1 .184zm0 4v-1a1 1 0 0 1 1-1h1v2h-1a2.966 2.966 0 0 0 -1 .184zm0 4v-1a1 1 0 0 1 1-1h1v2h-1a2.966 2.966 0 0 0 -1 .184zm0 4v-1a1 1 0 0 1 1-1h1v2h-1a2.966 2.966 0 0 0 -1 .184zm0 4v-1a1 1 0 0 1 1-1h1v2h-1a2.966 2.966 0 0 0 -1 .184zm0 4v-1a1 1 0 0 1 1-1h1v2h-1a2.966 2.966 0 0 0 -1 .184zm0 4v-1a1 1 0 0 1 1-1h1v2h-1a2.966 2.966 0 0 0 -1 .184zm0 4v-1a1 1 0 0 1 1-1h1v2h-1a2.966 2.966 0 0 0 -1 .184zm0 4v-1a1 1 0 0 1 1-1h1v2h-1a2.991 2.991 0 0 0 -1 .176zm1 2h1v2h-1a1 1 0 0 1 0-2z"/><path d="m47 12h-3v-3a1 1 0 0 0 -1-1h-4a1 1 0 0 0 -1 1v30a2.016 2.016 0 0 0 .03.243l1 4a1 1 0 0 0 .97.757v2a1 1 0 0 0 2 0v-2a1 1 0 0 0 .97-.757l1-4a2.016 2.016 0 0 0 .03-.243v-25h2v9h2v-10a1 1 0 0 0 -1-1zm-5.781 30h-.438l-.5-2h1.438zm.781-4h-2v-2h2zm0-4h-2v-20h2zm0-22h-2v-2h2z"/><path d="m16 11h20v2h-20z"/><path d="m16 15h20v2h-20z"/><path d="m16 19h20v2h-20z"/><path d="m16 23h18v2h-18z"/><path d="m46 52h2v2h-2z"/><path d="m42 50h2v2h-2z"/></svg>