<svg height="512" viewBox="0 0 64 64" width="512" xmlns="http://www.w3.org/2000/svg"><path d="m6 6h2v2h-2z"/><path d="m10 6h2v2h-2z"/><path d="m14 6h2v2h-2z"/><path d="m61 2h-58a1 1 0 0 0 -1 1v58a1 1 0 0 0 1 1h58a1 1 0 0 0 1-1v-58a1 1 0 0 0 -1-1zm-1 8h-40v-6h40zm-56-6h14v6h-14zm4 8h6v6.586l-2.293-2.293a1 1 0 0 0 -1.414 0l-2.293 2.293zm-4 48v-48h2v9a1 1 0 0 0 1.707.707l3.293-3.293 3.293 3.293a1 1 0 0 0 1.707-.707v-9h44v48z"/><path d="m30 14v8h28v-8zm4 6h-2v-4h2zm22-4v4h-20v-4z"/><path d="m42 25v16h16v-16zm4 14h-2v-12h2zm10-12v12h-8v-12z"/><path d="m24 25v16h16v-16zm4 14h-2v-12h2zm10-12v12h-8v-12z"/><path d="m6 25v16h16v-16zm4 14h-2v-12h2zm10-12v12h-8v-12z"/><path d="m18 52h-8a3 3 0 0 0 0 6h8a3 3 0 0 0 0-6zm0 4h-8a1 1 0 0 1 0-2h8a1 1 0 0 1 0 2z"/><path d="m36 52h-8a3 3 0 0 0 0 6h8a3 3 0 0 0 0-6zm0 4h-8a1 1 0 0 1 0-2h8a1 1 0 0 1 0 2z"/><path d="m54 52h-8a3 3 0 0 0 0 6h8a3 3 0 0 0 0-6zm0 4h-8a1 1 0 0 1 0-2h8a1 1 0 0 1 0 2z"/><path d="m6 43h16v2h-16z"/><path d="m6 47h16v2h-16z"/><path d="m24 43h16v2h-16z"/><path d="m24 47h7v2h-7z"/><path d="m33 47h2v2h-2z"/><path d="m42 43h10v2h-10z"/><path d="m42 47h12v2h-12z"/><path d="m16 29h2v2h-2z"/><path d="m34 35h2v2h-2z"/></svg>