<svg height="512" viewBox="0 0 64 64" width="512" xmlns="http://www.w3.org/2000/svg"><path d="m58 2h-46a7.009 7.009 0 0 0 -7 7v48a5.006 5.006 0 0 0 5 5h48a1 1 0 0 0 1-1v-58a1 1 0 0 0 -1-1zm-1 2v40h-4v2h4v2h-4v2h4v2h-44v-2h4v-2h-4v-2h4v-2h-4v-40zm-50 15.487v-1.487a1.883 1.883 0 0 1 2-2v-2a4.08 4.08 0 0 0 -2 .487v-5.487a5.009 5.009 0 0 1 4-4.9v47.9h-1a4.948 4.948 0 0 0 -3 1.026v-30.026a1.883 1.883 0 0 1 2-2v-2a4.08 4.08 0 0 0 -2 .487zm3 40.513a3 3 0 0 1 0-6h47v2h-48v2h48v2z"/><path d="m55 6h-40v36h40zm-2 34h-36v-32h36z"/><path d="m19 50h32v-6h-32zm2-4h28v2h-28z"/><path d="m36.793 36.207a6.657 6.657 0 0 0 9.414-9.414l-14.5-14.5a6.657 6.657 0 0 0 -9.414 9.414zm8-1.414a4.662 4.662 0 0 1 -6.586 0l-6.793-6.793 6.586-6.586 6.793 6.793a4.664 4.664 0 0 1 0 6.586zm-21.086-21.086a4.664 4.664 0 0 1 6.586 0l6.293 6.293-6.586 6.586-6.293-6.293a4.664 4.664 0 0 1 0-6.586z"/><path d="m26 14h2v2h-2z"/><path d="m29 17h2v2h-2z"/><path d="m49 16h2v-6h-6v2h4z"/><path d="m25 36h-4v-4h-2v6h6z"/><path d="m39 14h8v2h-8z"/><path d="m43 18h8v2h-8z"/><path d="m45 22h6v2h-6z"/><path d="m19 28h6v2h-6z"/><path d="m19 24h4v2h-4z"/></svg>