<svg height="512" viewBox="0 0 64 64" width="512" xmlns="http://www.w3.org/2000/svg"><path d="m58 2h-46a7.008 7.008 0 0 0 -7 7v48a5.006 5.006 0 0 0 5 5h48a1 1 0 0 0 1-1v-58a1 1 0 0 0 -1-1zm-20 24v.095c-.509.364-1.024.723-1.55 1.071-.494.327-.976.634-1.448.928-.472-.294-.954-.6-1.448-.928-.526-.348-1.041-.707-1.55-1.071 0-.032 0-.062 0-.095 0-.745.024-1.452.06-2.137.49-.349.986-.7 1.492-1.029s.975-.632 1.448-.926c.473.294.953.6 1.448.926s1 .68 1.492 1.029c.032.685.056 1.392.056 2.137zm-.448-4.834c-.123-.081-.337-.221-.624-.405.224-.126.444-.248.662-.367.044.287.086.579.124.882zm-2.552-1.586c-.657-.388-1.4-.81-2.2-1.234.663-2.78 1.582-4.346 2.2-4.346s1.537 1.566 2.2 4.346c-.8.424-1.543.846-2.2 1.234zm-1.928 1.181c-.287.184-.5.324-.624.405l-.162.11c.038-.3.08-.6.124-.882.218.119.438.241.662.367zm-2.944 2.029q-.618.457-1.21.923a34.259 34.259 0 0 1 -2.892-2.693c-2.176-2.314-2.265-3.358-2.192-3.468s.259-.158.563-.158c.981 0 3.141.58 6.147 2.037-.188 1.069-.326 2.198-.416 3.359zm-.111 4.336c.033 1.214.119 2.415.255 3.573-3.783 1.8-6.159 2.167-6.438 1.749-.073-.11.016-1.154 2.192-3.468a34.259 34.259 0 0 1 2.892-2.693q.539.423 1.099.839zm2.065 1.459c.123.082.243.168.366.249s.34.223.621.4q-.456.258-.894.493c-.036-.368-.068-.749-.093-1.142zm2.918 1.835c.755.445 1.626.935 2.554 1.421-.637 3.91-1.812 6.159-2.554 6.159s-1.917-2.249-2.554-6.159c.928-.486 1.799-.976 2.554-1.421zm1.931-1.183c.281-.18.5-.323.621-.4s.243-.167.366-.249c-.025.393-.057.774-.093 1.145q-.438-.238-.894-.496zm3.052-2.111q.56-.417 1.1-.839a34.259 34.259 0 0 1 2.892 2.693c2.176 2.314 2.265 3.358 2.192 3.468-.278.418-2.655.047-6.438-1.75.135-1.157.221-2.358.254-3.572zm-.111-4.336c-.09-1.161-.228-2.292-.416-3.359 3.006-1.457 5.166-2.037 6.147-2.037.3 0 .5.056.563.158s-.016 1.154-2.192 3.468a34.259 34.259 0 0 1 -2.892 2.693q-.593-.465-1.21-.923zm1.128-6.244c-.658.264-1.321.56-1.973.872-.827-3.189-2.18-5.418-4.027-5.418s-3.2 2.229-4.027 5.418c-3.574-1.71-7.5-2.944-8.807-.97-.885 1.337-.1 3.281 2.4 5.942a35.468 35.468 0 0 0 2.777 2.61 35.468 35.468 0 0 0 -2.774 2.61c-2.5 2.661-3.288 4.605-2.4 5.942a2.593 2.593 0 0 0 2.325 1.011 16.247 16.247 0 0 0 6.089-1.8c.752 4.124 2.237 7.237 4.417 7.237s3.665-3.113 4.42-7.237a16.247 16.247 0 0 0 6.089 1.8 2.594 2.594 0 0 0 2.325-1.011c.885-1.337.1-3.281-2.4-5.942a35.468 35.468 0 0 0 -2.777-2.61 35.468 35.468 0 0 0 2.774-2.61c2.5-2.661 3.288-4.605 2.4-5.942a2.906 2.906 0 0 0 -2.887-.981l1.056-1.053 3.293 3.293a1 1 0 0 0 .707.293.987.987 0 0 0 .383-.076 1 1 0 0 0 .617-.924v-7h2v32h-36v-32h24zm8-12.546v10.586l-2.293-2.293a1 1 0 0 0 -1.414 0l-2.293 2.293v-10.586zm-36 0h28v4h-26v36h40v-36h-4v-4h6v48h-44zm-6 15.487v-1.487a1.882 1.882 0 0 1 2-2v-2a4.08 4.08 0 0 0 -2 .487v-5.487a5.009 5.009 0 0 1 4-4.9v47.9h-1a4.948 4.948 0 0 0 -3 1.026v-30.026a1.882 1.882 0 0 1 2-2v-2a4.08 4.08 0 0 0 -2 .487zm3 40.513a3 3 0 0 1 0-6h47v2h-48v2h48v2z"/><path d="m34 24h2v2h-2z"/><path d="m19 38h2v2h-2z"/><path d="m23 37h2v2h-2z"/><path d="m26 47h18v2h-18z"/><path d="m22 47h2v2h-2z"/><path d="m46 47h2v2h-2z"/></svg>