<svg height="512" viewBox="0 0 64 64" width="512" xmlns="http://www.w3.org/2000/svg"><path d="m58 2h-46a7.008 7.008 0 0 0 -7 7v48a5.006 5.006 0 0 0 5 5h48a1 1 0 0 0 1-1v-58a1 1 0 0 0 -1-1zm-51 45a1.882 1.882 0 0 1 2-2v-2a4.08 4.08 0 0 0 -2 .487v-1.487a1.882 1.882 0 0 1 2-2v-2a4.08 4.08 0 0 0 -2 .487v-22.487a1.882 1.882 0 0 1 2-2v-2a4.08 4.08 0 0 0 -2 .487v-3.487a5.009 5.009 0 0 1 4-4.9v47.9h-1a4.948 4.948 0 0 0 -3 1.026zm50 13h-47a3 3 0 0 1 0-6h4v2h-5v2h5v1a1 1 0 0 0 1.447.9l3.553-1.782 3.553 1.782a1 1 0 0 0 1.447-.9v-1h33zm-41-2.618v-3.382h6v3.382l-2.553-1.277a1 1 0 0 0 -.894 0zm41-1.382h-33v-2h33zm0-4h-44v-48h44z"/><path d="m35 48a20 20 0 1 0 -20-20 20.023 20.023 0 0 0 20 20zm0-38a18 18 0 1 1 -18 18 18.021 18.021 0 0 1 18-18z"/><path d="m19 30h31v2h-31z"/><path d="m21 34h11v2h-11z"/><path d="m34 42h8v-8h-8zm2-6h4v4h-4z"/><path d="m44 34h5v2h-5z"/><path d="m23 38h9v2h-9z"/><path d="m44 38h2v2h-2z"/><path d="m17 50h2v-2h2v-2h-2v-2h-2v2h-2v2h2z"/><path d="m51 12h2v-2h2v-2h-2v-2h-2v2h-2v2h2z"/><path d="m17 8h4v-2h-6v6h2z"/><path d="m53 48h-4v2h6v-6h-2z"/><path d="m23 28h24a4 4 0 0 0 0-8 4 4 0 0 0 -4-4 3.814 3.814 0 0 0 -.927.114 4.984 4.984 0 0 0 -7.27-.955 3.961 3.961 0 0 0 -6.365 1.077 4.932 4.932 0 0 0 -1.438-.236 5 5 0 0 0 -4.91 4.114 3.995 3.995 0 0 0 .91 7.886zm0-6a2 2 0 0 1 2 2h2a3.991 3.991 0 0 0 -2.872-3.818 2.992 2.992 0 0 1 5.872.818h2a4.97 4.97 0 0 0 -1.8-3.814 1.976 1.976 0 0 1 3.609-.03 1 1 0 0 0 1.728.144 2.989 2.989 0 0 1 5.191.461 1 1 0 0 0 .583.529 1.014 1.014 0 0 0 .326.055.992.992 0 0 0 .46-.112 1.962 1.962 0 0 1 .903-.233 2 2 0 0 1 0 4v2a3.991 3.991 0 0 0 3.373-1.87 1.988 1.988 0 1 1 .627 3.87h-9a2 2 0 0 1 0-4v-2a4 4 0 0 0 -4 4 3.959 3.959 0 0 0 .556 2h-11.556a2 2 0 0 1 0-4z"/></svg>