<svg height="512" viewBox="0 0 64 64" width="512" xmlns="http://www.w3.org/2000/svg"><path d="m6 6h2v2h-2z"/><path d="m10 6h2v2h-2z"/><path d="m14 6h2v2h-2z"/><path d="m61 2h-58a1 1 0 0 0 -1 1v58a1 1 0 0 0 1 1h58a1 1 0 0 0 1-1v-58a1 1 0 0 0 -1-1zm-1 8h-40v-6h40zm-56-6h14v6h-14zm0 56v-48h56v48z"/><path d="m30 23a4 4 0 1 0 4 4 4 4 0 0 0 -4-4zm0 6a2 2 0 1 1 2-2 2 2 0 0 1 -2 2z"/><path d="m53 30h2v-2h2v-2h-2v-2h-2v2h-2v2h2z"/><path d="m9 33h2v-2h2v-2h-2v-2h-2v2h-2v2h2z"/><path d="m12 20h2v2h-2z"/><path d="m50 35h2v2h-2z"/><path d="m51 18h2v2h-2z"/><path d="m58 48a5.006 5.006 0 0 0 -5-5h-4.461a9.886 9.886 0 0 0 .41-2h4.051v-2h-4.051a9.9 9.9 0 0 0 -.949-3.33v-19.67a1 1 0 0 0 -1-1h-8a1 1 0 0 0 -1 1v14.051a9.94 9.94 0 0 0 -2 .41v-10.461a1 1 0 0 0 -1-1h-9v-3a1 1 0 0 0 -1-1h-8a1 1 0 0 0 -1 1v23h-5v2h18.051a9.886 9.886 0 0 0 .41 2h-18.461a5 5 0 0 0 0 10h39.586l4.707 4.707a1 1 0 0 0 1.414-1.414l-3.33-3.33a4.95 4.95 0 0 0 4.623-4.963zm-19 0a8 8 0 1 1 8-8 8.009 8.009 0 0 1 -8 8zm1-19h2v-2h-2v-2h6v7.871a9.969 9.969 0 0 0 -6-2.82zm0-8h6v2h-6zm6-4v2h-6v-2zm-12 10v4.353a10.058 10.058 0 0 0 -3.647 3.647h-4.353v-14h8zm-16-6h6v2h-6zm6-4v2h-6v-2zm-6 8h6v6h-2v2h2v2h-4v2h4v2h-6zm8 12h3.461a9.886 9.886 0 0 0 -.41 2h-3.051zm-15 14a3 3 0 1 1 0-6h19.353a9.975 9.975 0 0 0 14.971 2.738l3.262 3.262zm44.128-.882a3.018 3.018 0 0 1 -2.128.882h-1.586l-4.676-4.676a10.042 10.042 0 0 0 .909-1.324h5.353a3 3 0 0 1 2.128 5.118z"/><path d="m11 47h2v2h-2z"/><path d="m15 47h2v2h-2z"/><path d="m19 47h2v2h-2z"/><path d="m23 47h2v2h-2z"/><path d="m27 47h2v2h-2z"/><path d="m51 47h2v2h-2z"/><path d="m39 34a6 6 0 1 0 6 6 6.006 6.006 0 0 0 -6-6zm0 10a4 4 0 1 1 4-4 4 4 0 0 1 -4 4z"/></svg>