<svg height="512" viewBox="0 0 64 64" width="512" xmlns="http://www.w3.org/2000/svg"><path d="m31.553 22.105a1 1 0 0 0 -.553.895v10a1 1 0 0 0 1.446.9 9.383 9.383 0 0 1 3.554-.9 9.383 9.383 0 0 1 3.554.9 1.986 1.986 0 0 0 .43.1s.2-.017.256-.03a1.861 1.861 0 0 0 .206-.071 9.383 9.383 0 0 1 3.554-.899 9.383 9.383 0 0 1 3.554.9 1 1 0 0 0 1.446-.9v-10a1 1 0 0 0 -.553-.895 11.347 11.347 0 0 0 -4.447-1.105 10.9 10.9 0 0 0 -4 .9 10.9 10.9 0 0 0 -4-.9 11.347 11.347 0 0 0 -4.447 1.105zm15.447 1.55v7.875a8.756 8.756 0 0 0 -6 0v-7.875a8.691 8.691 0 0 1 3-.655 8.691 8.691 0 0 1 3 .655zm-8 7.875a9.921 9.921 0 0 0 -3-.53 9.921 9.921 0 0 0 -3 .53v-7.875a8.691 8.691 0 0 1 3-.655 8.691 8.691 0 0 1 3 .655z"/><path d="m30 17h2v2h-2z"/><path d="m48 17h2v2h-2z"/><path d="m30 45h2v2h-2z"/><path d="m48 45h2v2h-2z"/><path d="m24 60h2v2h-2z"/><path d="m28 60h2v2h-2z"/><path d="m6 60h2v2h-2z"/><path d="m32 36h16v2h-16z"/><path d="m30 40h20v2h-20z"/><path d="m54.184 8h-34.74a3.959 3.959 0 0 0 .556-2 4 4 0 1 0 -5 3.858v2.142h-3v24h-2v26h12v-26h-2v-24h-3v-2h14v3h-5v38h28v-38h-5v-3h5.184a3 3 0 1 0 0-2zm-34.184 32h-2v2h2v2h-4v2h4v14h-8v-2h6v-2h-6v-2h4v-2h-4v-14h8zm-2-4h-4v-22h4zm-4-30a2 2 0 1 1 2 2 2 2 0 0 1 -2-2zm38 43h-24v-34h24zm-5-36h-14v-3h14zm11-4a1 1 0 1 1 -1-1 1 1 0 0 1 1 1z"/></svg>