<svg height="512" viewBox="0 0 64 64" width="512" xmlns="http://www.w3.org/2000/svg"><path d="m58 6h-4.1a4.983 4.983 0 0 0 -8.9-1.969 4.954 4.954 0 0 0 -8 0 4.954 4.954 0 0 0 -8 0 4.954 4.954 0 0 0 -8 0 4.954 4.954 0 0 0 -8 0 4.983 4.983 0 0 0 -8.9 1.969h-2.1v52h2v4h58v-54h-4zm-9-2a3 3 0 0 1 2.816 2h-5.632a3 3 0 0 1 2.816-2zm-8 0a3 3 0 0 1 2.816 2h-5.632a3 3 0 0 1 2.816-2zm-8 0a3 3 0 0 1 2.816 2h-5.632a3 3 0 0 1 2.816-2zm-8 0a3 3 0 0 1 2.816 2h-5.632a3 3 0 0 1 2.816-2zm-8 0a3 3 0 0 1 2.816 2h-5.632a3 3 0 0 1 2.816-2zm-8 0a3 3 0 0 1 2.816 2h-5.632a3 3 0 0 1 2.816-2zm-5 4h7.816a3 3 0 0 1 -2.816 2v2a5.009 5.009 0 0 0 4.9-4h5.917a3 3 0 0 1 -2.817 2v2a5.009 5.009 0 0 0 4.9-4h5.917a3 3 0 0 1 -2.817 2v2a5.009 5.009 0 0 0 4.9-4h5.917a3 3 0 0 1 -2.817 2v2a5.009 5.009 0 0 0 4.9-4h5.917a3 3 0 0 1 -2.817 2v2a5.009 5.009 0 0 0 4.9-4h5.917a3 3 0 0 1 -2.817 2v2a5.009 5.009 0 0 0 4.9-4h2.1v6h-52zm0 8h52v40h-52zm56-6v50h-54v-2h52v-48z"/><path d="m48.293 23.293-16 15.985a2.021 2.021 0 0 0 -.188.26l-2.843 5.687c-1.36.609-7.3 3.049-9.462.175-.809-1.079 1.232-3.96 3.033-6.5 2.446-3.452 4.976-7.022 4.332-10.232a5.387 5.387 0 0 0 -2.635-3.514c-1.833-1.145-3.333-1.437-4.59-.9-2.2.95-2.824 4.063-3.544 7.669-.618 3.086-1.317 6.583-3.1 8.369-1.261 1.261-2.367 1.866-3.026 1.655-.731-.231-1.179-1.525-1.281-2.116l-1.972.332c.05.308.56 3.022 2.639 3.688 1.459.468 3.162-.252 5.054-2.145 2.214-2.214 2.977-6.027 3.649-9.391.56-2.8 1.139-5.69 2.377-6.225.6-.255 1.519-.005 2.737.757a3.433 3.433 0 0 1 1.727 2.213c.474 2.364-1.9 5.72-4 8.682-2.409 3.4-4.685 6.612-3 8.858a5.884 5.884 0 0 0 4.97 2.17 18.676 18.676 0 0 0 7.275-1.89l6-3a1.917 1.917 0 0 0 .26-.188l16-15.985a3.121 3.121 0 0 0 -4.414-4.414zm1.414 1.414a1.121 1.121 0 0 1 1.586 1.586l-.293.293-1.586-1.586zm-17.471 19.042 1.038-2.075 1.038 1.037zm3.764-2.178-1.585-1.586 13.585-13.571 1.585 1.586z"/><path d="m13 47a3 3 0 1 0 3 3 3 3 0 0 0 -3-3zm0 4a1 1 0 1 1 1-1 1 1 0 0 1 -1 1z"/><path d="m29.964 22.5h7.071v2h-7.071z" transform="matrix(.707 -.707 .707 .707 -6.805 30.571)"/><path d="m31.343 26h11.314v2h-11.314z" transform="matrix(.707 -.707 .707 .707 -8.255 34.071)"/><path d="m11 29a5 5 0 1 0 -5-5 5.006 5.006 0 0 0 5 5zm0-8a3 3 0 1 1 -3 3 3 3 0 0 1 3-3z"/><path d="m43.5 44.379h2v4.243h-2z" transform="matrix(.707 -.707 .707 .707 -19.847 45.086)"/><path d="m48.5 44.379h2v4.243h-2z" transform="matrix(.707 -.707 .707 .707 -18.382 48.621)"/></svg>