<svg height="512" viewBox="0 0 64 64" width="512" xmlns="http://www.w3.org/2000/svg"><path d="m49 18h-4c-1.629 0-3 1.548-3.62 4h-12.744c-.619-2.4-1.977-4-3.636-4h-4c-2.28 0-4 3.01-4 7s1.72 7 4 7h4c1.659 0 3.017-1.6 3.636-4h12.744c.62 2.452 1.991 4 3.62 4h4c2.28 0 4-3.01 4-7s-1.72-7-4-7zm-28 12c-.815 0-2-1.948-2-5s1.185-5 2-5 2 1.948 2 5-1.185 5-2 5zm4 0h-1.147a10.239 10.239 0 0 0 1.147-5 10.239 10.239 0 0 0 -1.147-5h1.147c.815 0 2 1.948 2 5s-1.185 5-2 5zm18-4h-14.042c.025-.326.042-.658.042-1s-.017-.674-.042-1h14.042zm2 4c-.5 0-1.127-.734-1.543-2h1.543v-6h-1.543c.416-1.266 1.047-2 1.543-2 .815 0 2 1.948 2 5s-1.185 5-2 5zm4 0h-1.147a10.239 10.239 0 0 0 1.147-5 10.239 10.239 0 0 0 -1.147-5h1.147c.815 0 2 1.948 2 5s-1.185 5-2 5z"/><path d="m58 2h-46a7.009 7.009 0 0 0 -7 7v48a5.006 5.006 0 0 0 5 5h48a1 1 0 0 0 1-1v-58a1 1 0 0 0 -1-1zm-45 14h44v18h-44zm-6 3.487v-1.487a1.883 1.883 0 0 1 2-2v-2a4.08 4.08 0 0 0 -2 .487v-5.487a5.009 5.009 0 0 1 4-4.9v47.9h-1a4.948 4.948 0 0 0 -3 1.026v-30.026a1.883 1.883 0 0 1 2-2v-2a4.08 4.08 0 0 0 -2 .487zm3 40.513a3 3 0 0 1 0-6h47v2h-48v2h48v2zm47-8h-44v-16h44zm-44-38v-10h44v10z"/><path d="m15 47v2h6v-6h-4v-2h4v-2h-6v6h4v2z"/><path d="m25 45h4v-6h-6v10h2zm0-4h2v2h-2z"/><path d="m38 39h-7v10h7zm-2 8h-3v-6h3z"/><path d="m42 45.667 2.5 3.333h2.5v-2h-1.5l-1.5-2h3v-6h-7v10h2zm0-4.667h3v2h-3z"/><path d="m51 49h2v-8h2v-2h-6v2h2z"/><path d="m23 10h24v2h-24z"/><path d="m28 6h14v2h-14z"/><path d="m17 10h4v2h-4z"/><path d="m49 10h4v2h-4z"/><path d="m20 6h6v2h-6z"/><path d="m44 6h6v2h-6z"/></svg>