<svg height="512" viewBox="0 0 64 64" width="512" xmlns="http://www.w3.org/2000/svg"><path d="m25 26h14v2h-14z"/><path d="m31 20h2v4h-2z"/><path d="m43 2h-22v10.1a5 5 0 0 0 0 9.8v10.1h22v-10.1a5 5 0 0 0 0-9.8zm-20 2h18v4h-18zm-4 13a3.006 3.006 0 0 1 2-2.829v5.658a3.006 3.006 0 0 1 -2-2.829zm22 13h-18v-10.026a4.952 4.952 0 0 0 7.949-3.465 1.631 1.631 0 0 1 2.1 0 4.952 4.952 0 0 0 7.951 3.465zm-18-14a3 3 0 1 1 3 3 3 3 0 0 1 -3-3zm12 0a3 3 0 1 1 3 3 3 3 0 0 1 -3-3zm10 1a3.006 3.006 0 0 1 -2 2.829v-5.658a3.006 3.006 0 0 1 2 2.829zm-4-5v.026a4.946 4.946 0 0 0 -7.7 2.328 3.532 3.532 0 0 0 -2.593.028 4.946 4.946 0 0 0 -7.707-2.356v-2.026h18z"/><path d="m25 15h2v2h-2z"/><path d="m37 15h2v2h-2z"/><path d="m26 50h4v2h-4z"/><path d="m22 50h2v2h-2z"/><path d="m32 50h2v2h-2z"/><path d="m12 38v24l40 .01v-24.01a4 4 0 0 0 -4-4h-32a4 4 0 0 0 -4 4zm2 16h4v6h-4zm22-6v6h-16v-6zm-16 8h16v4h-16zm20 4h-2v-4h1a1 1 0 0 1 1 1zm6 .01v-6.01h4v6.01zm0-24.01h2a2 2 0 0 1 2 2v14h-4zm-2 24.01h-2v-3.01a3 3 0 0 0 -3-3h-1v-7a1 1 0 0 0 -1-1h-4v-4.275c1.3-.372 4.354-.958 6.293.982a1 1 0 0 0 1.707-.707v-6h3zm-5-19.938a7.714 7.714 0 0 0 -3.4-.729 10.669 10.669 0 0 0 -1.35.088l2.285-3.431h2.465zm-4.869-4.072-2.131 3.2-2.131-3.2zm-6.666 0 2.287 3.431a8.441 8.441 0 0 0 -4.752.641v-4.072zm-4.465 0v6a1 1 0 0 0 1.707.707c1.928-1.928 4.986-1.348 6.293-.979v4.272h-11v-10zm-5 16h-4v-14a2 2 0 0 1 2-2h2z"/></svg>