<?xml version="1.0"?>
<svg xmlns="http://www.w3.org/2000/svg" viewBox="0 0 64 64" width="512" height="512"><g id="outline"><path d="M58,20h2V14H58V12h2V6H42v4H40v6h2v2H40v4H19.61l1.905-1.143a1,1,0,0,0,.342-1.372l-6-10a1,1,0,0,0-1.3-.38l-2.727,1.364A.982.982,0,0,0,11,10H5a1,1,0,0,0-1,1V22H2V32H6.789L2.018,56.812A1,1,0,0,0,3,58H7a1,1,0,0,0,.984-.821L11.834,36H17.2l4.823,21.222A1,1,0,0,0,23,58h4a1,1,0,0,0,.975-1.225L22.257,32H40.789L36.018,56.812A1,1,0,0,0,37,58h4a1,1,0,0,0,.984-.821L45.834,36H51.2l4.823,21.222A1,1,0,0,0,57,58h4a1,1,0,0,0,.975-1.225L56.257,32H62V22H58Zm-2,2H50V20h6ZM46,20h2v2H46Zm10-6H54V12h2Zm-6-2h2v2H50Zm8-2H48V8H58ZM44,8h2v2H44Zm-2,4h6v2H42Zm2,4H58v2H44Zm-2,4h2v2H42Zm-2.61,4-5.978,3.587L31.618,24ZM14.3,22H12V17.859Zm2.071-.39-1.021-1.838,3.255-1.818,1.022,1.7Zm-1.753-10.3,2.958,4.929-3.2,1.786L12,13.741V12.618ZM6,12h4v2H6Zm0,4h4v6H6ZM25.743,56H23.8L18.975,34.778A1,1,0,0,0,18,34H11a1,1,0,0,0-.984.821L6.166,56H4.21L8.826,32H20.2Zm34,0H57.8L52.975,34.778A1,1,0,0,0,52,34H45a1,1,0,0,0-.984.821L40.166,56H38.21l4.616-24H54.205ZM60,24v2H51v2h9v2H4V28H15V26H4V24H29.382L32.1,29.447a1,1,0,0,0,.615.513A.992.992,0,0,0,33,30a1,1,0,0,0,.515-.143L43.277,24Z"/><rect x="17" y="26" width="4" height="2"/><rect x="43" y="26" width="6" height="2"/></g></svg>
