<svg height="512" viewBox="0 0 64 64" width="512" xmlns="http://www.w3.org/2000/svg"><path d="m61 56h-1v-9a1 1 0 0 0 -1.095-.995 128.592 128.592 0 0 0 -15.127 2.238l-6.494-16.7c8.821-1.486 15.2-6.465 15.663-11.018a2.98 2.98 0 0 0 .053-.525c0-3.673-6.749-5.944-14.785-6.709l-4.554-5.791a3 3 0 1 0 -3.322 0l-4.554 5.8c-8.036.756-14.785 3.027-14.785 6.7a2.98 2.98 0 0 0 .053.527c.463 4.556 6.851 9.539 15.679 11.021l-6.177 16.767a127.205 127.205 0 0 0 -15.455-2.31 1 1 0 0 0 -1.1.995v9h-1a1 1 0 0 0 -1 1v4a1 1 0 0 0 1 1h25a1 1 0 0 0 1-1 3 3 0 0 1 6 0 1 1 0 0 0 1 1h25a1 1 0 0 0 1-1v-4a1 1 0 0 0 -1-1zm-3-4h-12v2h12v2h-18.406a7.775 7.775 0 0 0 -3.809-3.307c2.954-1.261 9.42-3.293 22.215-4.593zm-16.19-3.3c-5.752 1.416-8.3 2.809-9.12 3.344-.231-.015-.446-.044-.69-.044s-.459.029-.69.043a17.714 17.714 0 0 0 -3.185-1.531l10.827-9.161zm-3.772-9.7h-10.238l7.765-6.354zm-6.038-9c-7.183 0-13.055-2.539-16.287-5.421 4.052 1.599 10.187 2.421 16.287 2.421s12.235-.822 16.287-2.421c-3.232 2.882-9.104 5.421-16.287 5.421zm1-20.109 2.516 3.2q-1.251-.066-2.516-.085zm-1-5.891a1 1 0 1 1 -1 1 1 1 0 0 1 1-1zm-1 5.891v3.117q-1.263.018-2.516.085zm-6.941 5.6-3.845 4.893 1.572 1.236 5.037-6.411q1.971-.158 4.177-.192v6.2a6.607 6.607 0 0 1 -2.4-1.017l-1.2 1.6a8.258 8.258 0 0 0 4.73 1.523 7.319 7.319 0 0 0 4.47-1.523l-1.2-1.6a5.485 5.485 0 0 1 -2.4 1.057v-6.242q2.2.033 4.177.192l5.037 6.411 1.572-1.236-3.845-4.893c6.995.917 11.059 2.946 11.059 4.511 0 2.088-7.229 5-19 5s-19-2.912-19-5c0-1.565 4.064-3.594 11.059-4.511zm7.941 16.509c.423 0 .834-.026 1.25-.042l-6.5 5.314 2.009-5.452a31.928 31.928 0 0 0 3.241.18zm-6.618 9h10.889l-10.337 8.746c-.981-.314-2.113-.639-3.418-.967zm-19.382 13h12v-2h-12v-3.9c12.678 1.285 19.193 3.331 22.188 4.6a7.781 7.781 0 0 0 -3.782 3.3h-18.406zm-2 6v-2h6v2zm28-4a5.008 5.008 0 0 0 -4.9 4h-15.1v-2h13a1 1 0 0 0 .895-.553c1.143-2.287 3.198-3.447 6.105-3.447s4.962 1.16 6.1 3.447a1 1 0 0 0 .9.553h13v2h-15.1a5.008 5.008 0 0 0 -4.9-4zm28 4h-6v-2h6z"/><path d="m42 52h2v2h-2z"/><path d="m55.707 25.707c4.515-4.515 1.974-9.44 0-11.414l-1.414 1.414c.175.176 4.244 4.342 0 8.586z"/><path d="m56.293 27.293 1.414 1.414c2.8-2.8 4.164-5.8 4.065-8.943a12.975 12.975 0 0 0 -4.111-8.514l-1.324 1.5c.033.03 3.318 3 3.437 7.1.075 2.55-1.096 5.058-3.481 7.443z"/><path d="m9 15-.707-.707c-1.974 1.974-4.515 6.9 0 11.414l1.414-1.414c-4.146-4.147-.435-8.146 0-8.588z"/><path d="m6.339 11.25a12.975 12.975 0 0 0 -4.111 8.514c-.1 3.138 1.269 6.147 4.065 8.943l1.414-1.414c-2.385-2.385-3.556-4.892-3.481-7.45.119-4.1 3.4-7.065 3.437-7.1l-.663-.743z"/><path d="m22 9h2v2h-2z"/><path d="m38 6h2v2h-2z"/><path d="m24 2h2v2h-2z"/></svg>