<?xml version="1.0" encoding="iso-8859-1"?>
<!-- Generator: Adobe Illustrator 19.0.0, SVG Export Plug-In . SVG Version: 6.00 Build 0)  -->
<svg version="1.1" id="Layer_1" xmlns="http://www.w3.org/2000/svg" xmlns:xlink="http://www.w3.org/1999/xlink" x="0px" y="0px"
	 viewBox="0 0 512 512" style="enable-background:new 0 0 512 512;" xml:space="preserve">
<g>
	<g>
		<path d="M233.832,43.393l6.001,14.463c5.637-2.339,11.506-3.525,17.443-3.525V38.674
			C249.269,38.674,241.381,40.262,233.832,43.393z"/>
	</g>
</g>
<g>
	<g>
		<path d="M221.537,50.093c-17.463,11.958-30.451,31.894-36.57,56.134l15.181,3.833c5.109-20.241,16.129-37.388,30.236-47.048
			L221.537,50.093z"/>
	</g>
</g>
<g>
	<g>
		<path d="M150.99,21.812L140.582,33.51c6.077,5.406,11.597,11.9,16.408,19.299l13.127-8.534
			C164.545,35.704,158.11,28.147,150.99,21.812z"/>
	</g>
</g>
<g>
	<g>
		<path d="M161.864,216.39l-12.025-10.028c-14.76,17.697-33.694,27.443-53.313,27.443c-44.411,0-80.542-48.93-80.542-109.073
			S52.116,15.658,96.527,15.658c10.7,0,21.1,2.818,30.91,8.379l7.72-13.623C122.963,3.503,109.966,0,96.527,0
			C70.41,0,46,13.264,27.795,37.347C10.082,60.779,0.327,91.812,0.327,124.732c0,32.919,9.755,63.954,27.466,87.383
			c11.665,15.431,25.879,26.411,41.455,32.316l-26.41,26.443h46.033c-0.874,10.241-3.557,16.208-6.58,22.916
			c-3.874,8.594-8.265,18.335-8.265,36.819c0,18.485,4.39,28.226,8.265,36.821c3.692,8.193,6.881,15.268,6.881,30.387
			c0,15.119-3.189,22.194-6.881,30.386c-3.874,8.595-8.265,18.336-8.265,36.821h15.657c0-15.119,3.189-22.195,6.882-30.387
			c3.874-8.595,8.264-18.336,8.264-36.82c0-18.485-4.39-28.226-8.265-36.821c-3.692-8.193-6.881-15.268-6.881-30.387
			c0-15.118,3.189-22.194,6.881-30.385c3.314-7.353,6.997-15.564,7.995-29.351h45.64l-26.41-26.478
			C137.871,239.04,150.898,229.539,161.864,216.39z M80.604,255.217l6.349-6.357c3.16,0.399,6.354,0.602,9.574,0.602
			c3.218,0,6.415-0.211,9.583-0.617l6.355,6.372H80.604z"/>
	</g>
</g>
<g>
	<g>
		<path d="M361.009,21.813c-7.12,6.335-13.555,13.893-19.127,22.463l13.127,8.534c4.81-7.4,10.331-13.893,16.408-19.299
			L361.009,21.813z"/>
	</g>
</g>
<g>
	<g>
		<path d="M484.204,37.347C465.999,13.264,441.589,0,415.473,0c-13.439,0-26.437,3.503-38.631,10.414l7.72,13.623
			c9.811-5.562,20.211-8.38,30.911-8.38c44.411,0,80.541,48.931,80.541,109.074s-36.13,109.073-80.541,109.073
			c-19.62,0-38.554-9.746-53.314-27.443l-12.025,10.028c10.966,13.149,23.995,22.649,38.077,28.007l-26.41,26.478h45.639
			c0.998,13.787,4.681,21.998,7.995,29.35c3.692,8.192,6.881,15.267,6.881,30.385c0,15.119-3.189,22.195-6.881,30.387
			c-3.874,8.595-8.264,18.336-8.264,36.821c0,18.484,4.39,28.225,8.264,36.82c3.692,8.193,6.881,15.268,6.881,30.387h15.657
			c0-18.485-4.39-28.226-8.264-36.821c-3.692-8.192-6.881-15.267-6.881-30.386s3.189-22.195,6.881-30.387
			c3.874-8.595,8.264-18.336,8.264-36.821c0-18.484-4.39-28.225-8.264-36.819c-3.024-6.709-5.707-12.675-6.58-22.916h46.033
			l-26.411-26.444c15.575-5.905,29.789-16.885,41.454-32.315c17.713-23.43,27.467-54.464,27.467-87.383
			C511.672,91.812,501.917,60.779,484.204,37.347z M399.535,255.217l6.355-6.372c3.168,0.406,6.365,0.617,9.585,0.617
			c3.22,0,6.413-0.204,9.573-0.602l6.348,6.357H399.535z"/>
	</g>
</g>
<g>
	<g>
		<path d="M93.312,122.265H78.761c-8.099,20.379-13.858,26.139-34.238,34.238v14.55c20.379,8.098,26.139,13.857,34.238,34.238h14.55
			c8.098-20.38,13.858-26.14,34.238-34.238v-14.55C107.17,148.404,101.41,142.644,93.312,122.265z M86.036,184.02
			c-5.213-8.997-11.246-15.029-20.243-20.243c8.999-5.214,15.029-11.245,20.243-20.244c5.214,8.999,11.244,15.029,20.243,20.244
			C97.283,168.991,91.249,175.024,86.036,184.02z"/>
	</g>
</g>
<g>
	<g>
		<path d="M119.93,44.603h-14.55C99.687,58.93,95.906,62.71,81.58,68.402v14.551c14.326,5.692,18.106,9.473,23.799,23.799h14.55
			c5.692-14.327,9.473-18.107,23.799-23.799V68.402C129.403,62.71,125.623,58.93,119.93,44.603z M112.654,86.497
			c-2.981-4.411-6.409-7.838-10.819-10.819c4.41-2.981,7.837-6.409,10.819-10.819c2.981,4.411,6.408,7.838,10.819,10.819
			C119.062,78.659,115.635,82.087,112.654,86.497z"/>
	</g>
</g>
<g>
	<g>
		<path d="M435.844,122.265h-14.55c-8.098,20.379-13.858,26.139-34.238,34.238v14.55c20.38,8.098,26.14,13.857,34.238,34.238h14.55
			c8.099-20.38,13.858-26.14,34.238-34.238v-14.55C449.703,148.404,443.944,142.645,435.844,122.265z M428.569,184.02
			c-5.212-8.996-11.246-15.03-20.243-20.243c8.998-5.213,15.029-11.246,20.243-20.244c5.215,9,11.245,15.03,20.244,20.244
			C439.816,168.99,433.783,175.022,428.569,184.02z"/>
	</g>
</g>
<g>
	<g>
		<path d="M409.227,44.603h-14.55c-5.692,14.326-9.474,18.107-23.799,23.799v14.551c14.326,5.692,18.107,9.474,23.799,23.799h14.55
			c5.693-14.327,9.475-18.107,23.799-23.799V68.402C418.702,62.71,414.92,58.93,409.227,44.603z M401.952,86.497
			c-2.981-4.411-6.409-7.838-10.818-10.819c4.41-2.981,7.837-6.409,10.818-10.819c2.982,4.411,6.409,7.838,10.819,10.819
			C408.36,78.659,404.935,82.086,401.952,86.497z"/>
	</g>
</g>
<g>
	<g>
		<path d="M361.629,111.827h-0.828c-4.237-29.934-16.122-57.345-33.76-77.604C307.828,12.154,283.051,0,257.277,0
			c-25.625,0-50.293,12.029-69.459,33.872c-17.791,20.276-29.797,47.847-34.058,77.954h-0.783
			c-5.692,14.325-9.474,18.106-23.799,23.799l0.001,14.55c14.326,5.692,18.106,9.474,23.799,23.799h2.978
			c5.802,26.692,17.889,50.817,34.468,68.51c11.245,12.001,24.298,20.76,38.208,25.847l-28.638,28.638h49.714
			c-0.879,12.027-3.935,18.848-7.398,26.531c-4.239,9.404-9.043,20.063-9.043,40.272c0,20.211,4.804,30.869,9.042,40.273
			c4.11,9.118,7.66,16.994,7.66,33.84c0,16.845-3.55,24.721-7.659,33.839c-4.239,9.405-9.043,20.064-9.043,40.274h15.658
			c0-16.846,3.549-24.722,7.66-33.84c4.239-9.404,9.042-20.062,9.042-40.273s-4.805-30.869-9.043-40.274
			c-4.11-9.118-7.659-16.994-7.659-33.839c0-16.845,3.549-24.72,7.659-33.838c3.695-8.199,7.819-17.358,8.815-32.965h49.158
			l-28.636-28.638c13.936-5.097,27.011-13.88,38.271-25.915c16.55-17.689,28.609-41.784,34.404-68.442h3.032
			c5.692-14.326,9.474-18.107,23.799-23.799v-14.55C371.102,129.933,367.321,126.151,361.629,111.827z M160.252,153.72
			c-2.98-4.41-6.408-7.837-10.819-10.819c4.412-2.982,7.838-6.409,10.819-10.819c2.982,4.41,6.408,7.837,10.819,10.819
			C166.661,145.881,163.233,149.31,160.252,153.72z M237.796,281.313l8.57-8.57c3.613,0.488,7.255,0.741,10.911,0.741
			c3.657,0,7.297-0.253,10.91-0.741l8.571,8.57H237.796z M312.76,231.72c-15.979,17.079-35.165,26.106-55.483,26.106
			c-20.292,0-39.459-9.007-55.429-26.048c-15.386-16.419-26.436-39.302-31.317-64.672c4.422-8.9,9.087-12.279,20.794-16.931
			l0.001-14.55c-13.011-5.171-17.324-8.765-22.271-20.115c3.648-27.704,14.441-52.973,30.532-71.312
			c16.15-18.406,36.637-28.543,57.689-28.543c21.177,0,41.761,10.245,57.956,28.847c15.977,18.351,26.661,43.518,30.276,71.104
			c-4.929,11.272-9.255,14.861-22.229,20.018v14.55c11.676,4.64,16.347,8.011,20.758,16.856
			C339.169,192.401,328.136,215.286,312.76,231.72z M354.354,153.719c-2.981-4.41-6.409-7.837-10.819-10.818
			c4.412-2.982,7.838-6.409,10.819-10.819c2.981,4.411,6.408,7.837,10.819,10.819C360.762,145.882,357.335,149.31,354.354,153.719z"
			/>
	</g>
</g>
<g>
</g>
<g>
</g>
<g>
</g>
<g>
</g>
<g>
</g>
<g>
</g>
<g>
</g>
<g>
</g>
<g>
</g>
<g>
</g>
<g>
</g>
<g>
</g>
<g>
</g>
<g>
</g>
<g>
</g>
</svg>
