<?xml version="1.0" encoding="iso-8859-1"?>
<!-- Generator: Adobe Illustrator 19.0.0, SVG Export Plug-In . SVG Version: 6.00 Build 0)  -->
<svg version="1.1" id="Layer_1" xmlns="http://www.w3.org/2000/svg" xmlns:xlink="http://www.w3.org/1999/xlink" x="0px" y="0px"
	 viewBox="0 0 512 512" style="enable-background:new 0 0 512 512;" xml:space="preserve">
<g>
	<g>
		<path d="M489.263,93.111c-12.79-13.016-29.33-21.086-47.22-23.178c-2.063-17.635-9.914-33.961-22.662-46.707
			c-30.919-30.917-81.228-30.919-112.15,0c-30.92,30.921-30.92,81.231,0,112.151c2.999,2.999,6.213,5.713,9.59,8.158l-60.827,60.827
			l-18.556-18.556l-12.103,12.101l18.557,18.557l-28.238,28.238l-63.864-63.864c1.804-4.069,3.257-8.281,4.353-12.589l53.295,53.295
			l12.103-12.103l-53.28-53.28c3.926-0.994,7.762-2.275,11.473-3.854l29.464,29.464l12.103-12.103l-26.126-26.125
			c3.558-2.584,6.938-5.463,10.079-8.661c14.661-14.92,22.735-34.658,22.735-55.579C227.99,35.575,192.414,0,148.687,0
			c-20.921,0-40.659,8.074-55.579,22.735c-13.014,12.791-21.083,29.332-23.176,47.22c-17.635,2.063-33.961,9.915-46.707,22.662
			c-30.919,30.92-30.919,81.231,0,112.15c15.462,15.462,35.766,23.192,56.076,23.189c20.305-0.002,40.618-7.732,56.075-23.189
			c2.721-2.721,5.213-5.619,7.481-8.656l60.697,60.697l-17.75,17.75l12.103,12.103l134.387-134.387
			c3.716,1.579,7.543,2.879,11.454,3.874l-90.32,90.32l12.103,12.103l90.305-90.305c1.094,4.325,2.548,8.533,4.35,12.593
			l-29.152,29.152l12.104,12.103l25.995-25.996c2.409,3.215,5.067,6.275,7.984,9.141c14.92,14.661,34.658,22.735,55.579,22.735
			c43.727,0,79.302-35.575,79.302-79.302C511.998,127.769,503.924,108.031,489.263,93.111z M132.265,181.251
			c0,0-6.259,8.68-8.991,11.412c-24.245,24.247-63.7,24.247-87.945,0c-24.246-24.245-24.246-63.697,0-87.943
			c24.245-24.247,63.7-24.247,87.945,0l12.103-12.103c-13.091-13.091-29.955-21.041-48.139-22.837
			c2.017-13.182,8.195-25.33,17.869-34.835c11.7-11.496,27.178-17.828,43.583-17.828c34.291,0,62.187,27.896,62.187,62.187
			c0,16.406-6.332,31.883-17.828,43.582c-3.12,3.176-11.902,9.485-11.902,9.485c-6.995,4.294-14.772,7.136-22.945,8.386
			c-0.224-2.233-0.536-4.466-0.953-6.695l-16.824,3.145C143.297,152.578,140.262,168.242,132.265,181.251z M432.697,210.877
			c-16.406,0-31.883-6.332-43.582-17.828c-9.678-9.509-15.857-21.664-17.872-34.853c2.233-0.224,4.467-0.531,6.696-0.947
			l-3.145-16.824c-20.207,3.773-40.943-2.635-55.457-17.151c-24.247-24.245-24.247-63.697,0-87.943
			c24.245-24.247,63.699-24.247,87.943,0c24.247,24.246,24.247,63.699,0,87.945l12.104,12.103
			c13.091-13.092,21.041-29.955,22.837-48.139c13.181,2.017,25.33,8.195,34.835,17.869c11.496,11.699,17.828,27.176,17.828,43.582
			C494.884,182.981,466.988,210.877,432.697,210.877z"/>
	</g>
</g>
<g>
	<g>
		<path d="M488.773,307.233c-30.92-30.918-81.232-30.918-112.152,0.002c-2.999,2.998-5.721,6.206-8.165,9.584l-60.012-60.012
			l19.363-19.363l-12.103-12.103L180.838,360.207c-7.229-3.204-14.907-5.316-22.78-6.254c-0.881-7.53-2.827-14.819-5.751-21.691
			l29.464-29.464l-12.103-12.103l-26.125,26.126c-2.584-3.558-5.463-6.938-8.661-10.079c-14.92-14.661-34.658-22.735-55.579-22.735
			c-43.727,0-79.302,35.575-79.302,79.302c0,20.921,8.074,40.659,22.735,55.579c12.79,13.016,29.33,21.086,47.219,23.178
			c2.063,17.635,9.914,33.961,22.662,46.707c15.46,15.459,35.767,23.188,56.075,23.188c20.307,0,40.615-7.729,56.075-23.188
			c30.92-30.921,30.92-81.231,0-112.151c-2.721-2.721-5.618-5.213-8.656-7.481l59.891-59.891l18.556,18.556l12.103-12.101
			l-18.557-18.558l28.238-28.238l63.379,63.379c-2.931,6.898-4.881,14.187-5.77,21.652c-7.94,0.93-15.609,3.05-22.809,6.246
			l-29.152-29.152l-12.104,12.104l25.995,25.995c-3.215,2.409-6.275,5.067-9.141,7.984c-14.661,14.92-22.735,34.658-22.735,55.579
			c0,43.727,35.575,79.302,79.302,79.302c20.921,0,40.659-8.074,55.579-22.735c13.017-12.79,21.086-29.33,23.179-47.22
			c17.635-2.064,33.961-9.914,46.707-22.662C519.692,388.463,519.692,338.153,488.773,307.233z M192.662,476.671
			c-24.245,24.247-63.699,24.247-87.943,0c-24.247-24.246-24.247-63.699,0-87.945l-12.103-12.103
			c-13.091,13.091-21.041,29.955-22.837,48.139c-13.182-2.017-25.33-8.195-34.835-17.869c-11.497-11.7-17.829-27.178-17.829-43.584
			c0-34.291,27.896-62.187,62.187-62.187c16.406,0,31.883,6.332,43.582,17.828c3.176,3.12,9.485,11.902,9.485,11.902
			c4.294,6.995,7.136,14.772,8.386,22.945c-2.233,0.224-4.466,0.536-6.695,0.953l3.145,16.823
			c15.37-2.867,31.036,0.164,44.046,8.162c0,0,8.678,6.258,11.41,8.99C216.909,412.972,216.909,452.425,192.662,476.671z
			 M476.669,407.282c-24.245,24.247-63.7,24.247-87.945,0l-12.103,12.104c13.091,13.091,29.955,21.041,48.139,22.837
			c-2.017,13.181-8.195,25.33-17.869,34.835c-11.699,11.496-27.176,17.828-43.582,17.828c-34.291,0-62.187-27.896-62.187-62.187
			c0-16.406,6.332-31.883,17.828-43.582c9.508-9.677,21.66-15.856,34.847-17.871c0.224,2.233,0.536,4.466,0.953,6.695l16.823-3.145
			c-3.777-20.211,2.636-40.943,17.151-55.457c24.245-24.247,63.7-24.247,87.945,0C500.915,343.585,500.915,383.036,476.669,407.282z
			"/>
	</g>
</g>
<g>
	<g>
		<path d="M165.245,462.947c-5.595,2.886-11.895,4.143-18.217,3.648l-1.346,17.062c1.351,0.107,2.7,0.16,4.047,0.16
			c8.127,0,16.13-1.928,23.361-5.657L165.245,462.947z"/>
	</g>
</g>
<g>
	<g>
		<path d="M185.785,396.743l-12.103,12.103c13.213,13.214,13.213,34.714,0,47.926l12.103,12.103
			C205.671,448.988,205.671,416.631,185.785,396.743z"/>
	</g>
</g>
<g>
	<g>
		<path d="M339.938,33.956l7.845,15.212c5.595-2.886,11.891-4.148,18.214-3.648l1.349-17.062
			C357.848,27.708,348.368,29.609,339.938,33.956z"/>
	</g>
</g>
<g>
	<g>
		<path d="M339.346,55.341l-12.103-12.103c-9.633,9.634-14.94,22.443-14.94,36.066c0,13.624,5.306,26.432,14.941,36.066
			l12.101-12.103c-6.4-6.4-9.926-14.91-9.926-23.963C329.419,70.252,332.945,61.741,339.346,55.341z"/>
	</g>
</g>
<g>
	<g>
		
			<rect x="226.666" y="262.529" transform="matrix(0.7071 -0.7071 0.7071 0.7071 -121.1207 249.7617)" width="28.526" height="17.115"/>
	</g>
</g>
<g>
	<g>
		<path d="M81.878,182.475c-6.319,0.502-12.62-0.763-18.217-3.648l-7.845,15.212c7.231,3.729,15.233,5.657,23.361,5.657
			c1.346,0,2.697-0.052,4.047-0.16L81.878,182.475z"/>
	</g>
</g>
<g>
	<g>
		<path d="M55.226,124.728l-12.101-12.103c-9.634,9.634-14.941,22.442-14.941,36.065c0,13.624,5.306,26.432,14.941,36.066
			l12.101-12.103c-6.4-6.4-9.926-14.91-9.926-23.963C45.3,139.638,48.826,131.128,55.226,124.728z"/>
	</g>
</g>
<g>
	<g>
		<path d="M478.044,340.051l-15.212,7.845c2.886,5.597,4.148,11.895,3.648,18.216l17.062,1.349
			C484.293,357.959,482.391,348.482,478.044,340.051z"/>
	</g>
</g>
<g>
	<g>
		<path d="M396.63,327.357l12.104,12.103c13.209-13.212,34.709-13.214,47.927,0l12.101-12.103
			C448.876,307.471,416.518,307.472,396.63,327.357z"/>
	</g>
</g>
<g>
</g>
<g>
</g>
<g>
</g>
<g>
</g>
<g>
</g>
<g>
</g>
<g>
</g>
<g>
</g>
<g>
</g>
<g>
</g>
<g>
</g>
<g>
</g>
<g>
</g>
<g>
</g>
<g>
</g>
</svg>
