<?xml version="1.0" encoding="iso-8859-1"?>
<!-- Generator: Adobe Illustrator 19.0.0, SVG Export Plug-In . SVG Version: 6.00 Build 0)  -->
<svg version="1.1" id="Layer_1" xmlns="http://www.w3.org/2000/svg" xmlns:xlink="http://www.w3.org/1999/xlink" x="0px" y="0px"
	 viewBox="0 0 511.998 511.998" style="enable-background:new 0 0 511.998 511.998;" xml:space="preserve">
<g>
	<g>
		<path d="M452.488,92.599l52.018-51.881c9.134-9.135,9.134-23.998-0.001-33.133c-4.424-4.424-10.309-6.861-16.567-6.861
			c-6.259,0-12.143,2.437-16.555,6.85l-52.198,51.979C373.626,21.981,316.29,1.356,257.042,1.356
			c-68.103,0-132.128,26.521-180.283,74.675C28.603,124.186,2.083,188.211,2.083,256.314c0,13.332,1.039,26.72,3.089,39.794
			l15.452-2.422c-1.924-12.274-2.899-24.848-2.899-37.371c0-63.924,24.893-124.021,70.094-169.222
			c45.201-45.201,105.298-70.094,169.222-70.094c55.099,0,108.428,19.011,150.995,53.656l-79.503,79.167l11.037,11.084
			L482.432,18.646c1.47-1.471,3.426-2.281,5.506-2.281c2.079,0,4.036,0.81,5.506,2.281c3.037,3.037,3.036,7.977,0.008,11.006
			L264.435,258.067l11.045,11.075l165.885-165.449c35.511,42.851,54.993,96.735,54.993,152.621
			c0,63.924-24.893,124.021-70.094,169.222s-105.298,70.094-169.222,70.094c-14.246,0-28.519-1.261-42.421-3.747l-2.754,15.398
			c14.808,2.649,30.007,3.992,45.174,3.992c68.102,0,132.128-26.521,180.283-74.675c48.155-48.155,74.675-112.181,74.675-180.283
			C512,196.292,490.91,138.431,452.488,92.599z"/>
	</g>
</g>
<g>
	<g>
		<path d="M222.36,53.698c-55.41,9.419-105.154,41.781-136.476,88.789l13.016,8.673c28.944-43.439,74.899-73.341,126.082-82.041
			L222.36,53.698z"/>
	</g>
</g>
<g>
	<g>
		<path d="M73.277,164.168c-5.409,10.766-9.887,22.074-13.308,33.612l14.996,4.447c3.16-10.653,7.294-21.095,12.289-31.038
			L73.277,164.168z"/>
	</g>
</g>
<g>
	<g>
		
			<rect x="198.441" y="212.323" transform="matrix(0.7071 -0.7071 0.7071 0.7071 -76.8022 254.8707)" width="141.628" height="15.641"/>
	</g>
</g>
<g>
	<g>
		
			<rect x="238.37" y="277.49" transform="matrix(0.7071 -0.7071 0.7071 0.7071 -129.0329 259.1074)" width="19.77" height="15.641"/>
	</g>
</g>
<g>
	<g>
		<polygon points="252.311,318.039 241.25,329.099 252.581,340.43 197.484,357.514 175.946,335.976 164.885,347.036 187.43,369.581 
			176.644,476.348 167.398,467.1 175.074,459.424 164.013,448.364 156.337,456.04 139.746,439.45 148.16,431.036 137.099,419.975 
			128.686,428.389 111.054,410.757 127.966,393.846 116.904,382.787 99.994,399.696 83.464,383.166 107.732,358.898 96.67,347.837 
			72.403,372.106 55.872,355.575 65.425,346.022 54.364,334.962 44.811,344.514 34.44,334.142 150.702,322.67 170.37,258.218 
			175.214,263.064 166.917,290.91 181.907,295.377 187.788,275.638 217.704,305.555 228.766,294.495 163.011,228.739 
			138.785,308.128 0,321.824 106.92,428.744 75.021,460.642 86.083,471.702 117.981,439.805 188.893,510.717 202.885,372.216 
			281.965,347.695 		"/>
	</g>
</g>
<g>
	<g>
		
			<rect x="146.187" y="401.096" transform="matrix(0.7071 -0.7071 0.7071 0.7071 -242.5126 232.3558)" width="26.069" height="15.641"/>
	</g>
</g>
<g>
	<g>
		
			<rect x="176.918" y="152.82" transform="matrix(0.7071 -0.7071 0.7071 0.7071 -54.1061 190.6582)" width="52.347" height="15.641"/>
	</g>
</g>
<g>
	<g>
		
			<rect x="38.889" y="243.285" transform="matrix(0.7071 -0.7071 0.7071 0.7071 -144.5717 153.1837)" width="147.468" height="15.641"/>
	</g>
</g>
<g>
	<g>
		
			<rect x="406.832" y="152.822" transform="matrix(0.7071 -0.7071 0.7071 0.7071 13.2328 353.2329)" width="52.347" height="15.641"/>
	</g>
</g>
<g>
	<g>
		
			<rect x="268.809" y="243.274" transform="matrix(0.7071 -0.7071 0.7071 0.7071 -77.2226 315.7584)" width="147.468" height="15.641"/>
	</g>
</g>
<g>
	<g>
		
			<rect x="287.441" y="355.637" transform="matrix(0.7071 -0.7071 0.7071 0.7071 -165.1478 328.213)" width="52.347" height="15.641"/>
	</g>
</g>
<g>
	<g>
		
			<rect x="206.689" y="422.376" transform="matrix(0.7071 -0.7071 0.7071 0.7071 -231.8862 300.5698)" width="80.376" height="15.641"/>
	</g>
</g>
<g>
	<g>
		
			<rect x="-6.669" y="446.902" transform="matrix(0.7071 -0.7071 0.7071 0.7071 -311.0727 158.4502)" width="84.798" height="15.641"/>
	</g>
</g>
<g>
</g>
<g>
</g>
<g>
</g>
<g>
</g>
<g>
</g>
<g>
</g>
<g>
</g>
<g>
</g>
<g>
</g>
<g>
</g>
<g>
</g>
<g>
</g>
<g>
</g>
<g>
</g>
<g>
</g>
</svg>
