<?xml version="1.0" encoding="iso-8859-1"?>
<!-- Generator: Adobe Illustrator 19.0.0, SVG Export Plug-In . SVG Version: 6.00 Build 0)  -->
<svg version="1.1" id="Layer_1" xmlns="http://www.w3.org/2000/svg" xmlns:xlink="http://www.w3.org/1999/xlink" x="0px" y="0px"
	 viewBox="0 0 512 512" style="enable-background:new 0 0 512 512;" xml:space="preserve">
<g>
	<g>
		<path d="M262.117,7.631L256,0l-6.116,7.63c-4.454,5.558-43.518,55.023-43.518,80.134c0,18.847,10.459,35.834,27.292,44.333
			l7.064-13.992c-11.523-5.817-18.682-17.442-18.682-30.339c0-12.961,18.867-42.349,33.961-62.44
			c15.094,20.082,33.959,49.464,33.959,62.44c0,13.103-7.667,25.174-19.531,30.753l6.67,14.184
			c17.334-8.151,28.536-25.789,28.536-44.936C305.634,62.654,266.57,13.188,262.117,7.631z"/>
	</g>
</g>
<g>
	<g>
		<path d="M362.58,220.47v55.821h0.001c0,23.911-19.453,43.364-43.364,43.364c-23.911,0-43.364-19.453-43.364-43.364v-42.846
			c0-21.157-16.967-38.391-37.896-38.576l-0.341-0.001v0.001c-21.008,0.185-38.042,17.419-38.042,38.576v19.267
			c0,13.784-11.215,25-25,25h-0.273c-13.721,0-24.884-11.163-24.884-24.884v-32.361h-15.674v32.361
			c0,18.821,12.888,34.687,30.302,39.241v77.754c0,15.594,12.95,28.281,28.866,28.281h0.131c15.966,0,28.474-12.422,28.474-28.281
			V329.14h-15.674v40.684c0,7.187-5.503,12.607-12.8,12.607h-0.131c-7.398,0-13.192-5.538-13.192-12.607V293.05
			c20.005-2.539,35.527-19.654,35.527-40.337v-19.267c0-12.572,10.097-22.81,22.541-22.903c12.57,0.09,22.39,10.118,22.39,22.903
			v42.846c0,32.553,26.484,59.038,59.038,59.038c4.117,0,8.135-0.426,12.017-1.232v62.787c0,7.436-5.885,13.721-12.866,13.76
			c-7.07-0.04-13.258-6.452-13.258-13.76v-30.126h-15.674v30.126c0,15.911,13.205,29.36,28.866,29.434h0.131v-0.001
			c15.448-0.075,28.474-13.523,28.474-29.433v-68.471c18.633-9.939,31.347-29.569,31.347-52.12V220.47H362.58z"/>
	</g>
</g>
<g>
	<g>
		<polygon points="263.314,160.909 263.314,98.214 247.641,98.214 247.641,160.909 112.847,160.909 112.847,205.841 
			188.081,205.841 188.081,190.167 128.521,190.167 128.521,176.583 383.479,176.583 383.479,190.167 323.919,190.167 
			323.919,205.841 399.153,205.841 399.153,160.909 		"/>
	</g>
</g>
<g>
	<g>
		<rect x="287.352" y="190.164" width="26.123" height="15.674"/>
	</g>
</g>
<g>
	<g>
		<polygon points="292.572,440.946 292.572,456.62 331.234,456.62 331.234,496.326 179.721,496.326 179.721,409.599 
			164.048,409.599 164.048,512 346.907,512 346.907,440.946 		"/>
	</g>
</g>
<g>
	<g>
		<rect x="256.004" y="440.943" width="26.123" height="15.674"/>
	</g>
</g>
<g>
</g>
<g>
</g>
<g>
</g>
<g>
</g>
<g>
</g>
<g>
</g>
<g>
</g>
<g>
</g>
<g>
</g>
<g>
</g>
<g>
</g>
<g>
</g>
<g>
</g>
<g>
</g>
<g>
</g>
</svg>
