<?xml version="1.0" encoding="iso-8859-1"?>
<!-- Generator: Adobe Illustrator 19.0.0, SVG Export Plug-In . SVG Version: 6.00 Build 0)  -->
<svg version="1.1" id="Layer_1" xmlns="http://www.w3.org/2000/svg" xmlns:xlink="http://www.w3.org/1999/xlink" x="0px" y="0px"
	 viewBox="0 0 512 512" style="enable-background:new 0 0 512 512;" xml:space="preserve">
<g>
	<g>
		<polygon points="264.368,464.932 264.368,496.311 248.678,496.311 248.678,338.37 232.989,338.37 232.989,512 280.057,512 
			280.057,464.932 		"/>
	</g>
</g>
<g>
	<g>
		<path d="M373.947,96.229c-5.133-25.694-18.629-49.13-38.517-66.561C313.602,10.536,285.579,0,256.523,0
			c-29.056,0-57.078,10.536-78.907,29.667c-19.887,17.431-33.385,40.867-38.518,66.562h-29.534v47.068h29.517
			c5.276,26.465,19.382,50.412,40.208,68.001l10.123-11.986c-17.294-14.606-29.251-34.248-34.284-56.016h22.685v-15.689h-52.56
			v-15.69h189.581V96.229H155.127c4.889-21.115,16.339-40.308,32.831-54.763c18.965-16.622,43.315-25.777,68.565-25.777
			c25.251,0,49.601,9.154,68.566,25.778c16.492,14.454,27.941,33.648,32.83,54.762h-22.164v15.689h50.991v15.69H198.733v15.689
			h159.185c-4.945,21.368-16.591,40.737-33.395,55.252l10.258,11.874c20.251-17.496,33.994-41.129,39.183-67.126h28.47V96.229
			H373.947z"/>
	</g>
</g>
<g>
	<g>
		<path d="M315.911,223.669c0.842-4.029,1.278-8.175,1.278-12.384c0-33.163-26.98-60.143-60.143-60.143
			c-33.163,0-60.143,26.98-60.143,60.143c0,4.332,0.479,8.605,1.383,12.762l-73.554-24.113v97.244l90.476-32.105v22.828h17.781
			v29.549h15.69v-29.549h15.689v156.11h15.689v-156.11h17.781v-22.828l90.476,32.105v-97.244L315.911,223.669z M140.421,274.964
			v-18.703h29.81v-15.689h-29.81V221.59l65.6,21.505c1.486,2.381,3.138,4.667,4.957,6.832L140.421,274.964z M285.047,245.803
			l-2.898,2.354v24.055h-6.276v-14.643h-15.689v14.643h-6.276v-14.643h-15.689v14.643h-7.322v-24.811l-2.741-2.348
			c-9.891-8.472-15.563-20.78-15.563-33.768c0-24.512,19.941-44.453,44.453-44.453s44.454,19.941,44.454,44.453
			C301.499,224.728,295.503,237.309,285.047,245.803z M372.625,240.572h-29.81v15.689h29.81v18.703l-69.753-24.753
			c2.031-2.384,3.861-4.909,5.483-7.554l64.27-21.068V240.572z"/>
	</g>
</g>
<g>
	<g>
		<circle cx="238.742" cy="216.515" r="15.689"/>
	</g>
</g>
<g>
	<g>
		<circle cx="275.35" cy="216.515" r="15.689"/>
	</g>
</g>
<g>
	<g>
		<polygon points="257.046,233.512 249.724,240.833 264.368,240.833 		"/>
	</g>
</g>
<g>
</g>
<g>
</g>
<g>
</g>
<g>
</g>
<g>
</g>
<g>
</g>
<g>
</g>
<g>
</g>
<g>
</g>
<g>
</g>
<g>
</g>
<g>
</g>
<g>
</g>
<g>
</g>
<g>
</g>
</svg>
