<?xml version="1.0" encoding="iso-8859-1"?>
<!-- Generator: Adobe Illustrator 19.0.0, SVG Export Plug-In . SVG Version: 6.00 Build 0)  -->
<svg version="1.1" id="Layer_1" xmlns="http://www.w3.org/2000/svg" xmlns:xlink="http://www.w3.org/1999/xlink" x="0px" y="0px"
	 viewBox="0 0 512 512" style="enable-background:new 0 0 512 512;" xml:space="preserve">
<g>
	<g>
		<path d="M499.21,328.797L335.585,45.758C318.978,17.106,289.284,0,256.155,0c-33.25,0-63.058,17.182-79.739,45.965L12.795,328.688
			c-16.763,28.925-16.749,63.587,0.04,92.722c16.669,28.926,46.405,46.195,79.544,46.195h5.634v19.847
			c0,12.96,10.544,23.503,23.503,23.503c12.959,0,23.503-10.543,23.503-23.503v-19.847h10.446v19.847
			c0,12.96,10.544,23.503,23.503,23.503s23.503-10.543,23.503-23.503v-19.847h126.393v20.891c0,12.96,10.544,23.503,23.503,23.503
			c12.959,0,23.503-10.543,23.503-23.503v-20.891h43.754c33.158,0,62.901-17.263,79.564-46.178
			C515.953,392.33,515.96,357.699,499.21,328.797z M186.802,487.453c0,4.32-3.514,7.834-7.834,7.834
			c-4.32,0-7.834-3.514-7.834-7.834v-19.847h15.669V487.453z M485.61,413.605c-13.831,24.003-38.5,38.333-65.988,38.333h-43.754
			v-13.579H360.2v50.139c0,4.32-3.514,7.834-7.834,7.834s-7.834-3.514-7.834-7.834v-69.986h-15.669v33.426H145.019v-34.471H129.35
			v69.986c0,4.32-3.514,7.834-7.834,7.834c-4.32,0-7.834-3.514-7.834-7.834v-50.139H98.013v14.624h-5.634
			c-27.47,0-52.13-14.337-65.968-38.349c-13.958-24.223-13.981-53.022-0.057-77.046l99.361-171.688h55.865v11.316h15.669v-56.407
			h-15.669v29.422h-46.797l55.192-95.368c13.844-23.887,38.585-38.149,66.181-38.149c27.477,0,52.103,14.185,65.87,37.939
			l142.614,246.694h-97.647v15.669h106.706l11.954,20.677C499.561,360.65,499.546,389.42,485.61,413.605z"/>
	</g>
</g>
<g>
	<g>
		<rect x="129.349" y="358.966" width="15.669" height="47.006"/>
	</g>
</g>
<g>
	<g>
		<rect x="98.012" y="343.298" width="15.669" height="83.566"/>
	</g>
</g>
<g>
	<g>
		<rect x="328.862" y="339.12" width="15.669" height="67.897"/>
	</g>
</g>
<g>
	<g>
		<rect x="360.199" y="323.451" width="15.669" height="104.457"/>
	</g>
</g>
<g>
	<g>
		<path d="M212.916,207.508v18.802c0,4.32-3.514,7.834-7.834,7.834c-4.32,0-7.834-3.514-7.834-7.834v-38.649h-15.669v38.649
			c0,12.96,10.544,23.503,23.503,23.503s23.503-10.543,23.503-23.503v-18.802H212.916z"/>
	</g>
</g>
<g>
	<g>
		<polygon points="228.584,149.185 228.584,104.096 212.916,104.096 212.916,197.062 228.584,197.062 228.584,164.854 
			369.079,164.854 369.079,149.185 		"/>
	</g>
</g>
<g>
	<g>
		<rect x="309.537" y="300.303" width="26.114" height="15.669"/>
	</g>
</g>
<g>
	<g>
		<rect x="54.662" y="300.303" width="244.429" height="15.669"/>
	</g>
</g>
<g>
</g>
<g>
</g>
<g>
</g>
<g>
</g>
<g>
</g>
<g>
</g>
<g>
</g>
<g>
</g>
<g>
</g>
<g>
</g>
<g>
</g>
<g>
</g>
<g>
</g>
<g>
</g>
<g>
</g>
</svg>
