<?xml version="1.0" encoding="iso-8859-1"?>
<!-- Generator: Adobe Illustrator 19.0.0, SVG Export Plug-In . SVG Version: 6.00 Build 0)  -->
<svg version="1.1" id="Layer_1" xmlns="http://www.w3.org/2000/svg" xmlns:xlink="http://www.w3.org/1999/xlink" x="0px" y="0px"
	 viewBox="0 0 512 512" style="enable-background:new 0 0 512 512;" xml:space="preserve">
<g>
	<g>
		<polygon points="502.1,290.977 481.357,256.029 502.115,221.07 481.375,186.411 512,135.235 398.719,183.365 404.803,197.687 
			474.114,168.239 463.241,186.411 483.998,221.1 463.26,256.026 484.015,290.995 463.273,326.107 474.369,344.926 404.802,315.425 
			398.726,329.753 511.746,377.678 481.342,326.116 		"/>
	</g>
</g>
<g>
	<g>
		<rect x="437.036" y="274.157" width="25.936" height="15.562"/>
	</g>
</g>
<g>
	<g>
		<rect x="47.992" y="222.284" width="25.936" height="15.562"/>
	</g>
</g>
<g>
	<g>
		<path d="M449.484,263.781V248.22h-39.244c-0.296-3.491-0.785-6.952-1.474-10.375h19.969v-15.562H404.19
			c-7.352-18.873-20.9-36.106-39.886-50.278c-29.16-21.768-67.808-33.755-108.823-33.755c-14.538,0-28.887,1.534-42.721,4.527
			c-6.417-5.264-10.314-12.125-14.992-23.897h-14.461c-8.049,20.255-13.773,25.98-34.028,34.028v14.461
			c0.86,0.342,1.685,0.678,2.494,1.014c-21.267,14.54-36.738,33.268-44.868,53.9H84.302v15.562h17.953
			c-0.707,3.428-1.215,6.889-1.52,10.375H61.478v15.562h39.244c0.296,3.491,0.785,6.952,1.474,10.375H82.227v15.562h24.544
			c7.352,18.873,20.9,36.106,39.886,50.279c29.16,21.767,67.808,33.754,108.824,33.754c14.539,0,28.888-1.534,42.722-4.527
			c6.416,5.264,10.314,12.125,14.992,23.897h14.461c8.049-20.256,13.772-25.98,34.027-34.028v-14.461
			c-0.859-0.341-1.684-0.677-2.492-1.013c13.763-9.404,25.335-20.674,33.872-33.102c4.555-6.631,8.241-13.609,11.049-20.799h22.548
			v-15.562h-17.935c0.701-3.436,1.203-6.898,1.505-10.375H449.484z M190.537,140.021c5.181,8.942,11.177,14.937,20.119,20.119
			c-8.944,5.182-14.937,11.176-20.119,20.12c-5.182-8.944-11.176-14.937-20.119-20.12
			C179.359,154.958,185.356,148.963,190.537,140.021z M320.426,371.98c-5.181-8.942-11.177-14.938-20.119-20.119
			c8.944-5.182,14.937-11.176,20.119-20.12c5.182,8.944,11.176,14.937,20.119,20.12C331.603,357.042,325.607,363.037,320.426,371.98
			z M343.52,335.191c-6.943-5.357-10.978-12.295-15.864-24.59h-14.461c-8.05,20.254-13.773,25.979-34.028,34.028v12.068
			c-7.788,0.979-15.702,1.491-23.686,1.491c-10.987,0.001-21.679-0.938-31.939-2.704l10.467-10.467l-11.003-11.004l-17.418,17.418
			c-29.306-8.246-53.882-23.529-69.845-43.015l123.165-123.165l-11.003-11.004L126.742,295.408
			c-6.951-12.133-10.798-25.448-10.798-39.408c0-30.54,19.156-59.819,51.506-79.185c6.938,5.356,10.972,12.294,15.855,24.583h14.461
			c8.05-20.254,13.773-25.979,34.028-34.028v-12.068c7.788-0.98,15.702-1.492,23.686-1.492c4.195,0,8.344,0.144,12.446,0.411
			l-9.648,9.648l11.003,11.004l18.326-18.326c30.884,5.35,57.83,18.236,77.009,35.851L233.899,323.118l11.003,11.004
			l130.417-130.416c12.502,15.309,19.699,33.195,19.699,52.293C395.018,286.966,376.308,315.628,343.52,335.191z"/>
	</g>
</g>
<g>
	<g>
		<path d="M415.216,347.432h-14.461c-5.658,14.238-9.416,17.996-23.654,23.654v14.461c14.238,5.657,17.996,9.415,23.654,23.654
			h14.461c5.658-14.239,9.416-17.997,23.654-23.654l0.001-14.461C424.633,365.427,420.875,361.669,415.216,347.432z
			 M407.986,389.069c-2.963-4.384-6.37-7.79-10.753-10.753c4.384-2.964,7.789-6.37,10.753-10.753
			c2.964,4.383,6.369,7.789,10.753,10.753C414.355,381.28,410.949,384.685,407.986,389.069z"/>
	</g>
</g>
<g>
	<g>
		<path d="M354.008,399.926h-14.461c-5.658,14.239-9.416,17.997-23.654,23.654v14.461c14.238,5.657,17.996,9.415,23.654,23.654
			h14.461c5.658-14.239,9.416-17.997,23.654-23.654V423.58C363.424,417.923,359.666,414.165,354.008,399.926z M346.777,441.564
			c-2.963-4.385-6.369-7.79-10.753-10.753c4.383-2.963,7.789-6.369,10.753-10.753c2.963,4.385,6.369,7.79,10.753,10.753
			C353.146,433.774,349.74,437.179,346.777,441.564z"/>
	</g>
</g>
<g>
	<g>
		<path d="M110.206,102.8H95.745c-5.658,14.239-9.416,17.997-23.654,23.654l-0.001,14.461c14.239,5.658,17.998,9.416,23.655,23.654
			h14.461c5.658-14.238,9.416-17.996,23.654-23.654v-14.461C119.622,120.797,115.864,117.039,110.206,102.8z M102.976,144.437
			c-2.964-4.384-6.369-7.789-10.753-10.753c4.383-2.963,7.789-6.368,10.753-10.753c2.963,4.385,6.37,7.79,10.753,10.753
			C109.345,136.648,105.94,140.054,102.976,144.437z"/>
	</g>
</g>
<g>
	<g>
		<path d="M171.416,50.305h-14.461c-5.658,14.239-9.416,17.997-23.654,23.654V88.42c14.238,5.658,17.996,9.416,23.654,23.654h14.461
			c5.658-14.239,9.416-17.997,23.654-23.654V73.959C180.832,68.302,177.074,64.544,171.416,50.305z M164.186,91.943
			c-2.963-4.385-6.369-7.79-10.753-10.753c4.384-2.964,7.789-6.369,10.753-10.753c2.963,4.385,6.369,7.79,10.753,10.753
			C170.555,84.153,167.15,87.559,164.186,91.943z"/>
	</g>
</g>
<g>
	<g>
		<polygon points="113.28,329.673 107.195,315.352 37.886,344.8 48.759,326.628 28.001,291.938 48.74,257.011 27.985,222.043 
			48.726,186.931 37.631,168.113 107.198,197.613 113.274,183.286 0.254,135.361 30.657,186.923 9.899,222.061 30.643,257.009 
			9.884,291.969 30.624,326.628 0,377.803 		"/>
	</g>
</g>
<g>
</g>
<g>
</g>
<g>
</g>
<g>
</g>
<g>
</g>
<g>
</g>
<g>
</g>
<g>
</g>
<g>
</g>
<g>
</g>
<g>
</g>
<g>
</g>
<g>
</g>
<g>
</g>
<g>
</g>
</svg>
