<?xml version="1.0" encoding="iso-8859-1"?>
<!-- Generator: Adobe Illustrator 19.0.0, SVG Export Plug-In . SVG Version: 6.00 Build 0)  -->
<svg version="1.1" id="Layer_1" xmlns="http://www.w3.org/2000/svg" xmlns:xlink="http://www.w3.org/1999/xlink" x="0px" y="0px"
	 viewBox="0 0 512 512" style="enable-background:new 0 0 512 512;" xml:space="preserve">
<g>
	<g>
		<polygon points="421.895,356.672 407.129,471.332 332.054,471.332 332.054,486.974 405.114,486.974 403.905,496.358 
			140.278,496.358 139.059,486.974 170.425,486.974 170.425,471.332 137.027,471.332 122.135,356.664 106.624,358.677 126.536,512 
			417.662,512 437.409,358.669 		"/>
	</g>
</g>
<g>
	<g>
		<polygon points="441.23,328.994 446.809,285.674 431.296,283.677 425.46,328.994 418.604,328.994 418.604,344.635 
			465.529,344.635 465.529,328.994 		"/>
	</g>
</g>
<g>
	<g>
		<path d="M272.095,0c-18.433,0-36.409,3.381-53.427,10.049l5.706,14.563c15.193-5.952,31.249-8.971,47.721-8.971
			c72.161,0,130.868,58.707,130.868,130.868v47.446h15.642v-47.446C418.604,65.724,352.881,0,272.095,0z"/>
	</g>
</g>
<g>
	<g>
		<path d="M196.632,20.905c-7.7,4.635-15.021,10.018-21.758,15.999l10.383,11.698c6.021-5.345,12.562-10.154,19.442-14.296
			L196.632,20.905z"/>
	</g>
</g>
<g>
	<g>
		<path d="M163.722,47.916c-24.593,27.017-38.136,62.031-38.136,98.592v20.335h15.642v-20.334c0-32.657,12.097-63.933,34.062-88.064
			L163.722,47.916z"/>
	</g>
</g>
<g>
	<g>
		<rect x="295.563" y="231.495" width="26.069" height="15.642"/>
	</g>
</g>
<g>
	<g>
		<rect x="295.563" y="471.332" width="26.069" height="15.642"/>
	</g>
</g>
<g>
	<g>
		<path d="M255.932,389.996v19.291h-16.684v-19.29h-65.936l4.864,10.987c16.533,37.351,53.605,61.485,94.442,61.485
			c3.939,0,7.922-0.227,11.837-0.675l6.932-0.793v-22.517h16.684v18.562l11.373-5.799c21.123-10.771,38.034-28.622,47.615-50.267
			l4.862-10.986H255.932z M323.712,430.375v-7.532h-47.967v23.928c-31.619,1.111-61.043-14.907-77.44-41.133h25.302v19.29h47.967
			v-19.291h75.345C340.869,415.295,332.97,423.712,323.712,430.375z"/>
	</g>
</g>
<g>
	<g>
		<path d="M303.752,207.51l23.472-48.627c1.256-2.603,3.52-4.563,6.374-5.521c2.91-0.976,6.023-0.784,8.767,0.54
			c2.76,1.332,4.858,3.643,5.909,6.509c1.026,2.797,0.904,5.761-0.343,8.347l-7.208,14.932l37.564,18.132l7.161-14.834
			c12.726-26.364,1.384-58.287-25.284-71.16c-26.668-12.873-58.717-1.894-71.443,24.471l-32.443,67.213h-40.425l-18.068-56.455
			c-1.838-5.745,1.567-11.987,7.591-13.914c2.898-0.928,6.005-0.68,8.753,0.697c2.698,1.351,4.668,3.613,5.551,6.367l4.975,15.545
			l39.726-12.713l-5.021-15.687c-8.924-27.883-39.128-43.225-67.331-34.198c-13.624,4.36-24.77,13.718-31.383,26.349
			c-6.632,12.666-7.903,27.08-3.581,40.587l13.897,43.423h-7.114c-14.244-5.67-18.02-9.46-23.697-23.744h-14.535
			c-5.676,14.284-9.452,18.074-23.697,23.744H72.21c-2.108-3.638-4.074-7.97-6.198-13.316H51.476
			c-8.09,20.358-13.844,26.112-34.203,34.203v14.535c20.359,8.091,26.113,13.844,34.203,34.203h14.535
			c0.861-2.167,1.695-4.16,2.525-6.017h426.19V207.51H303.752z M226.329,114.611c8.365,4.401,15.057,11.889,18.135,21.507
			l0.253,0.79l-9.931,3.178l-0.205-0.643c-0.001-0.002-0.002-0.005-0.002-0.007l-0.109-0.342l-0.008,0.003
			c-2.226-6.638-6.941-12.043-13.321-15.24c-0.57-0.286-1.15-0.543-1.733-0.787L226.329,114.611z M371.362,180.186l-0.361,0.748
			l-9.391-4.533l0.454-0.939l-0.003-0.001c3.063-6.41,3.385-13.663,0.899-20.438c-0.197-0.536-0.435-1.05-0.662-1.568l10.72-1.352
			C376.054,161.055,375.752,171.092,371.362,180.186z M353.364,129.914c4.057,1.958,7.612,4.539,10.61,7.564l-15.619,1.971
			c-6.239-2.769-13.21-3.104-19.732-0.916c-3.019,1.013-5.751,2.532-8.152,4.434l-16.593,2.094
			C313.484,127.95,335.172,121.131,353.364,129.914z M295.683,161.859l13.562-1.711l-7.904,16.375l-13.562,1.711L295.683,161.859z
			 M279.676,195.021l13.562-1.711l-6.855,14.201h-12.736L279.676,195.021z M199.43,207.511h-9.207l6.618-8.087L199.43,207.511z
			 M182.502,192.249l-5.542-17.317l8.658-10.579l5.542,17.317L182.502,192.249z M174.503,130.756
			c4.694-8.965,12.611-15.608,22.294-18.706c4.291-1.373,8.646-1.949,12.902-1.82l-10.13,12.377
			c-9.712,3.534-16.292,12.037-17.659,21.577l-10.574,12.92C169.097,148.265,170.19,138.994,174.503,130.756z M132.885,204.002
			c2.978,4.406,6.403,7.83,10.808,10.808c-4.406,2.978-7.83,6.403-10.808,10.808c-2.978-4.406-6.403-7.83-10.808-10.808
			C126.483,211.832,129.906,208.408,132.885,204.002z M58.744,255.889c-5.209-8.99-11.234-15.015-20.224-20.223
			c8.99-5.209,15.015-11.234,20.224-20.224c5.209,8.99,11.234,15.015,20.223,20.224C69.978,240.875,63.953,246.9,58.744,255.889z
			 M479.085,231.495H332.054v15.642h147.031v8.342H78.471c5-5.018,11.535-8.488,21.744-12.545v-14.536
			c-4.534-1.802-8.34-3.488-11.612-5.245h15.867c12.175,5.141,15.826,9.309,21.148,22.701h14.535
			c5.322-13.392,8.973-17.56,21.148-22.701h317.784V231.495z"/>
	</g>
</g>
<g>
	<g>
		<path d="M351.867,286.13l-42.865,42.864h-13.445v15.642h112.619v-15.642h-13.444L351.867,286.13z M331.123,328.994l20.744-20.745
			l20.745,20.745H331.123z"/>
	</g>
</g>
<g>
	<g>
		<path d="M236.229,328.994l-42.863-42.864l-42.865,42.864h-13.445v15.642h111.576v-15.642H236.229z M172.622,328.994l20.744-20.745
			l20.745,20.745H172.622z"/>
	</g>
</g>
<g>
	<g>
		<polygon points="118.541,328.994 112.655,283.669 97.143,285.682 102.769,328.994 79.704,328.994 79.704,344.635 126.629,344.635 
			126.629,328.994 		"/>
	</g>
</g>
<g>
	<g>
		<path d="M92.602,116.613H78.067c-5.687,14.311-9.464,18.088-23.775,23.775v14.535c14.311,5.687,18.088,9.465,23.775,23.776h14.535
			c5.687-14.311,9.464-18.088,23.775-23.775v-14.536C102.066,134.701,98.289,130.924,92.602,116.613z M85.335,158.465
			c-2.978-4.406-6.403-7.83-10.808-10.808c4.406-2.978,7.829-6.403,10.808-10.808c2.978,4.406,6.403,7.83,10.808,10.808
			C91.738,150.634,88.313,154.059,85.335,158.465z"/>
	</g>
</g>
<g>
</g>
<g>
</g>
<g>
</g>
<g>
</g>
<g>
</g>
<g>
</g>
<g>
</g>
<g>
</g>
<g>
</g>
<g>
</g>
<g>
</g>
<g>
</g>
<g>
</g>
<g>
</g>
<g>
</g>
</svg>
