<?xml version="1.0" encoding="iso-8859-1"?>
<!-- Generator: Adobe Illustrator 19.0.0, SVG Export Plug-In . SVG Version: 6.00 Build 0)  -->
<svg version="1.1" id="Layer_1" xmlns="http://www.w3.org/2000/svg" xmlns:xlink="http://www.w3.org/1999/xlink" x="0px" y="0px"
	 viewBox="0 0 512 512" style="enable-background:new 0 0 512 512;" xml:space="preserve">
<g>
	<g>
		<path d="M365.192,0H146.8l-35.863,67.371l13.836,7.365l31.44-59.063h126.424l69.607,130.764l-41.811,205.174l15.357,3.131
			L366.78,153.6h8.385l-2.236,10.975l15.357,3.128l2.873-14.103h8.386l-16.716,82.027l15.357,3.131l17.355-85.157h8.385
			l-69.842,342.727h-28.081V512h40.883l74.984-367.956L365.192,0z M365.471,137.926L300.392,15.673h55.387l65.077,122.253H365.471z"
			/>
	</g>
</g>
<g>
	<g>
		
			<rect x="303.182" y="366.271" transform="matrix(0.1997 -0.9799 0.9799 0.1997 -115.404 606.9163)" width="21.326" height="15.672"/>
	</g>
</g>
<g>
	<g>
		
			<rect x="96.664" y="82.764" transform="matrix(0.4699 -0.8827 0.8827 0.4699 -22.8985 143.0704)" width="22.016" height="15.673"/>
	</g>
</g>
<g>
	<g>
		<polygon points="315.143,406.986 299.786,403.855 280.942,496.327 269.58,496.327 269.58,443.037 253.906,443.037 
			253.906,496.327 241.367,496.327 241.367,422.139 225.694,422.139 225.694,496.327 213.155,496.327 213.155,452.441 
			197.482,452.441 197.482,496.327 184.943,496.327 184.943,445.127 169.269,445.127 169.269,496.327 157.907,496.327 
			86.596,146.395 98.9,122.734 84.994,115.503 70.129,144.086 145.105,512 313.465,512 313.465,496.327 296.938,496.327 		"/>
	</g>
</g>
<g>
	<g>
		<polygon points="278.46,29.257 243.457,29.257 243.457,44.931 269.058,44.931 308.64,119.111 322.468,111.734 		"/>
	</g>
</g>
<g>
	<g>
		<rect x="206.89" y="29.257" width="26.122" height="15.673"/>
	</g>
</g>
<g>
	<g>
		<path d="M241.367,149.943v-29.257h-47.02v29.257h-30.302v47.02h30.302v70.008h47.02v-70.008h33.437v-47.02H241.367z
			 M259.13,181.29h-33.437v70.008H210.02V181.29h-30.302v-15.673h30.302v-29.257h15.673v29.257h33.437V181.29z"/>
	</g>
</g>
<g>
	<g>
		
			<rect x="301.714" y="231.427" transform="matrix(0.1997 -0.9799 0.9799 0.1997 58.2181 549.8068)" width="127.961" height="15.673"/>
	</g>
</g>
<g>
	<g>
		<rect x="197.486" y="404.375" width="15.673" height="26.122"/>
	</g>
</g>
<g>
</g>
<g>
</g>
<g>
</g>
<g>
</g>
<g>
</g>
<g>
</g>
<g>
</g>
<g>
</g>
<g>
</g>
<g>
</g>
<g>
</g>
<g>
</g>
<g>
</g>
<g>
</g>
<g>
</g>
</svg>
