<?xml version="1.0" encoding="iso-8859-1"?>
<!-- Generator: Adobe Illustrator 19.0.0, SVG Export Plug-In . SVG Version: 6.00 Build 0)  -->
<svg version="1.1" id="Layer_1" xmlns="http://www.w3.org/2000/svg" xmlns:xlink="http://www.w3.org/1999/xlink" x="0px" y="0px"
	 viewBox="0 0 512 512" style="enable-background:new 0 0 512 512;" xml:space="preserve">
<g>
	<g>
		<path d="M156.212,309.66c-16.699,0-29.78-13.473-29.78-30.672v-39.706h-15.673v39.706c0,23.257,15.989,42.005,37.616,45.688
			v82.834h15.673V309.66H156.212z"/>
	</g>
</g>
<g>
	<g>
		<path d="M385.567,239.282v39.706c0,17.199-13.081,30.672-29.78,30.672h-7.837v97.851h15.673v-82.834
			c21.627-3.683,37.616-22.431,37.616-45.688v-39.706H385.567z"/>
	</g>
</g>
<g>
	<g>
		<path d="M326.531,400.196v25.6c0,38.891-31.64,70.531-70.531,70.531s-70.531-31.64-70.531-70.531v-25.6h-15.674v25.6
			C169.796,473.329,208.468,512,256,512s86.204-38.671,86.204-86.204v-25.6H326.531z"/>
	</g>
</g>
<g>
	<g>
		<rect x="476.233" y="257.045" width="15.673" height="254.955"/>
	</g>
</g>
<g>
	<g>
		<path d="M422.814,69.097C378.257,24.538,319.015,0,256,0S133.743,24.538,89.186,69.096
			c-44.559,44.558-69.097,103.8-69.097,166.814v99.503h15.673v-99.501C35.763,114.472,134.56,15.673,256,15.673
			s220.237,98.798,220.237,220.237h15.673C491.911,172.896,467.372,113.655,422.814,69.097z"/>
	</g>
</g>
<g>
	<g>
		<rect x="20.089" y="357.355" width="15.673" height="154.645"/>
	</g>
</g>
<g>
	<g>
		<path d="M256,56.947c-24.408,0-48.327,4.15-71.092,12.335l5.302,14.749c21.06-7.571,43.195-11.41,65.79-11.41
			c59.02,0,114.17,26.36,151.306,72.319l12.192-9.851C379.37,85.429,319.777,56.947,256,56.947z"/>
	</g>
</g>
<g>
	<g>
		<rect x="422.661" y="408.555" width="15.674" height="103.445"/>
	</g>
</g>
<g>
	<g>
		<path d="M256,121.731c-100.54,0-182.335,81.795-182.335,182.335v159.869h15.673V304.065c0-91.898,74.765-166.661,166.661-166.661
			s166.661,74.763,166.661,166.661v83.592h15.674v-83.592C438.335,203.525,356.54,121.731,256,121.731z"/>
	</g>
</g>
<g>
	<g>
		<rect x="73.665" y="484.833" width="15.673" height="27.167"/>
	</g>
</g>
<g>
	<g>
		<path d="M335.935,200.62v15.673h22.988v9.404H155.167v-9.404H179.2V200.62h-39.706v40.751h29.279
			c3.265,20.406,20.986,36.049,42.296,36.049c21.311,0,39.032-15.643,42.296-36.049h9.599c3.265,20.406,20.986,36.049,42.296,36.049
			s39.032-15.643,42.296-36.049h27.038V200.62H335.935z M211.069,261.747c-12.636,0-23.284-8.672-26.307-20.375h52.615
			C234.354,253.075,223.705,261.747,211.069,261.747z M305.263,261.747c-12.636,0-23.284-8.672-26.307-20.375h52.616
			C328.546,253.075,317.899,261.747,305.263,261.747z"/>
	</g>
</g>
<g>
	<g>
		<rect x="299.363" y="200.62" width="26.122" height="15.673"/>
	</g>
</g>
<g>
	<g>
		<path d="M273.395,292.571h-34.792l-10.449,52.245h55.69L273.395,292.571z M247.273,329.143l4.18-20.898h9.094l4.18,20.898H247.273
			z"/>
	</g>
</g>
<g>
	<g>
		<polygon points="306.155,393.927 306.155,404.898 293.094,404.898 293.094,393.927 277.42,393.927 277.42,404.898 
			264.359,404.898 264.359,393.927 248.686,393.927 248.686,404.898 235.625,404.898 235.625,393.927 219.951,393.927 
			219.951,404.898 206.89,404.898 206.89,393.927 191.216,393.927 191.216,430.498 206.89,430.498 206.89,420.571 219.951,420.571 
			219.951,430.498 235.625,430.498 235.625,420.571 248.686,420.571 248.686,430.498 264.359,430.498 264.359,420.571 
			277.42,420.571 277.42,430.498 293.094,430.498 293.094,420.571 306.155,420.571 306.155,430.498 321.829,430.498 
			321.829,393.927 		"/>
	</g>
</g>
<g>
	<g>
		<rect x="170.318" y="362.58" width="15.673" height="26.122"/>
	</g>
</g>
<g>
	<g>
		<path d="M165.367,77.451c-12.592,6.03-24.643,13.364-35.818,21.799l9.443,12.51c10.341-7.806,21.494-14.593,33.145-20.173
			L165.367,77.451z"/>
	</g>
</g>
<g>
	<g>
		<rect x="131.135" y="452.441" width="15.673" height="59.559"/>
	</g>
</g>
<g>
	<g>
		<rect x="131.135" y="415.869" width="15.673" height="26.122"/>
	</g>
</g>
<g>
	<g>
		<rect x="366.237" y="431.543" width="15.673" height="80.457"/>
	</g>
</g>
<g>
	<g>
		<rect x="393.927" y="328.098" width="15.673" height="26.122"/>
	</g>
</g>
<g>
	<g>
		<rect x="393.927" y="376.163" width="15.673" height="135.837"/>
	</g>
</g>
<g>
	<g>
		<rect x="101.355" y="355.265" width="15.673" height="156.735"/>
	</g>
</g>
<g>
</g>
<g>
</g>
<g>
</g>
<g>
</g>
<g>
</g>
<g>
</g>
<g>
</g>
<g>
</g>
<g>
</g>
<g>
</g>
<g>
</g>
<g>
</g>
<g>
</g>
<g>
</g>
<g>
</g>
</svg>
