<?xml version="1.0" encoding="iso-8859-1"?>
<!-- Generator: Adobe Illustrator 19.0.0, SVG Export Plug-In . SVG Version: 6.00 Build 0)  -->
<svg version="1.1" id="Layer_1" xmlns="http://www.w3.org/2000/svg" xmlns:xlink="http://www.w3.org/1999/xlink" x="0px" y="0px"
	 viewBox="0 0 512 512" style="enable-background:new 0 0 512 512;" xml:space="preserve">
<g>
	<g>
		<path d="M255.478,0C165.596,0,92.474,73.123,92.474,163.004v236.484c0,25.021,21.293,46.16,46.498,46.16h10.971v-15.673h-10.971
			c-16.421,0-30.824-14.246-30.824-30.487V163.004c0-10.035,1.013-19.838,2.933-29.315c12.442-8.858,27.079-13.526,42.52-13.526
			c36.886,0,63.855,20.549,80.159,61.075c12.683,31.525,13.875,63.72,13.886,64.037l15.663,0.066
			c0.013-0.322,1.458-32.531,14.269-64.075c16.47-40.544,43.311-61.103,79.778-61.103c15.442,0,30.078,4.669,42.52,13.526
			c1.922,9.477,2.933,19.279,2.933,29.315v236.484c0,16.241-14.404,30.487-30.825,30.487h-12.016v15.673h12.016
			c25.205,0,46.498-21.139,46.498-46.16V163.004C418.482,73.123,345.359,0,255.478,0z M357.355,104.49
			c-42.979,0-75.64,24.64-94.451,71.255c-2.96,7.336-5.35,14.644-7.279,21.615c-1.891-6.962-4.245-14.265-7.172-21.591
			c-18.635-46.631-51.434-71.279-94.853-71.279c-12.775,0-25.094,2.649-36.432,7.736c20.733-56.295,74.908-96.553,138.31-96.553
			s117.577,40.258,138.31,96.553C382.449,107.139,370.13,104.49,357.355,104.49z"/>
	</g>
</g>
<g>
	<g>
		<path d="M392.359,361.012c-22.109,0-40.985,15.055-45.902,36.609l-22.519,98.705H187.017l-22.519-98.704
			c-4.918-21.555-23.793-36.61-45.902-36.61v15.673c14.749,0,27.341,10.042,30.622,24.422L174.518,512h161.921l25.299-110.892
			c3.28-14.38,15.873-24.422,30.622-24.422h1.045v-15.673H392.359z"/>
	</g>
</g>
<g>
	<g>
		<path d="M135.314,235.624v-17.241h-15.673v32.914h21.447c2.983,17.188,17.995,30.302,36.023,30.302
			c18.028,0,33.04-13.115,36.023-30.302h13.61v-15.673H135.314z M177.11,265.927c-9.339,0-17.265-6.16-19.935-14.629h39.868
			C194.375,259.767,186.45,265.927,177.11,265.927z"/>
	</g>
</g>
<g>
	<g>
		<path d="M321.306,210.024v15.673h54.335v9.404h-90.906v15.673h13.181c3.194,16.93,18.084,29.78,35.929,29.78
			s32.736-12.849,35.929-29.78h21.541v-40.751H321.306z M333.845,264.882c-9.143,0-16.915-5.912-19.742-14.106h39.485
			C350.76,258.97,342.988,264.882,333.845,264.882z"/>
	</g>
</g>
<g>
	<g>
		<polygon points="278.833,328.603 261.747,335.051 261.747,298.841 246.073,298.841 246.073,357.717 284.367,343.267 		"/>
	</g>
</g>
<g>
	<g>
		<rect x="246.073" y="262.269" width="15.673" height="26.122"/>
	</g>
</g>
<g>
	<g>
		<polygon points="187.559,393.404 187.559,409.078 287.263,409.078 299.886,430.498 312.508,409.078 326.531,409.078 
			326.531,393.404 		"/>
	</g>
</g>
<g>
	<g>
		<rect x="237.192" y="450.873" width="73.143" height="15.673"/>
	</g>
</g>
<g>
	<g>
		<rect x="200.62" y="450.873" width="26.122" height="15.673"/>
	</g>
</g>
<g>
	<g>
		<path d="M425.775,224.717l11.796,10.322l34.723-39.683v57.51c0,22.862-18.588,41.842-41.433,42.309l0.321,15.67
			c15.237-0.311,29.513-6.48,40.196-17.371c10.698-10.907,16.59-25.327,16.59-40.608v-99.225L425.775,224.717z"/>
	</g>
</g>
<g>
	<g>
		<polygon points="450.351,234.991 426.524,258.818 437.606,269.9 450.351,257.156 454.736,261.541 465.819,250.459 		"/>
	</g>
</g>
<g>
	<g>
		<path d="M39.706,252.865v-57.51l34.722,39.683l11.796-10.322l-62.191-71.076v99.225c0,15.281,5.892,29.701,16.591,40.608
			c10.683,10.891,24.958,17.06,40.196,17.371l0.321-15.67C58.294,294.707,39.706,275.728,39.706,252.865z"/>
	</g>
</g>
<g>
	<g>
		<polygon points="61.649,234.991 46.181,250.459 57.264,261.541 61.649,257.156 74.394,269.9 85.476,258.818 		"/>
	</g>
</g>
<g>
	<g>
		<rect x="284.735" y="210.024" width="26.122" height="15.673"/>
	</g>
</g>
<g>
</g>
<g>
</g>
<g>
</g>
<g>
</g>
<g>
</g>
<g>
</g>
<g>
</g>
<g>
</g>
<g>
</g>
<g>
</g>
<g>
</g>
<g>
</g>
<g>
</g>
<g>
</g>
<g>
</g>
</svg>
