<?xml version="1.0" encoding="iso-8859-1"?>
<!-- Generator: Adobe Illustrator 19.0.0, SVG Export Plug-In . SVG Version: 6.00 Build 0)  -->
<svg version="1.1" id="Layer_1" xmlns="http://www.w3.org/2000/svg" xmlns:xlink="http://www.w3.org/1999/xlink" x="0px" y="0px"
	 viewBox="0 0 512 512" style="enable-background:new 0 0 512 512;" xml:space="preserve">
<g>
	<g>
		<path d="M95.28,397.35v38.74c0,4.331-3.522,7.853-7.853,7.853c-4.331,0-7.853-3.522-7.853-7.853v-18.847H63.869v18.847
			c0,12.991,10.569,23.558,23.558,23.558c12.99,0,23.558-10.568,23.558-23.558v-38.74H95.28z"/>
	</g>
</g>
<g>
	<g>
		<path d="M370.65,296.834v81.561c-33.669,23.716-73.193,36.231-114.65,36.231c-27.514,0-54.081-5.478-79.051-16.28v-70.1h-15.706
			v109.939h15.706v-22.841c25.117,9.948,51.652,14.988,79.051,14.988c41.063,0,80.371-11.383,114.65-33.055v9.497h15.706V296.834
			H370.65z"/>
	</g>
</g>
<g>
	<g>
		<path d="M418.651,175.369l-3.361-35.86l-21.96-14.64l-8.711,13.067l15.733,10.489l2.537,27.06l-27.533,14.454
			c-0.51-2.424-1.084-4.835-1.741-7.222l-15.141,4.169c2.522,9.16,3.802,18.675,3.802,28.279h15.706c0-2.909-0.109-5.81-0.314-8.7
			l31.343-16.455l10.875,18.641l13.566-7.914L418.651,175.369z"/>
	</g>
</g>
<g>
	<g>
		<path d="M173.914,184.121c-3.474,9.201-5.367,18.873-5.625,28.746l15.699,0.41c0.213-8.112,1.765-16.054,4.618-23.607
			L173.914,184.121z"/>
	</g>
</g>
<g>
	<g>
		<path d="M205.063,266.103c-10.348-10.347-17.223-23.388-19.882-37.712l-15.442,2.867c3.243,17.459,11.617,33.349,24.219,45.951
			c8.589,8.589,18.631,15.183,29.844,19.598l5.755-14.613C220.36,278.573,212.12,273.159,205.063,266.103z"/>
	</g>
</g>
<g>
	<g>
		<path d="M256,0C137.356,0,40.834,96.523,40.834,215.166c0,34.08,8.117,67.135,23.035,96.749v94.858h15.706v-68.515
			c4.828,6.924,10.068,13.578,15.706,19.92v27.654h15.706V374.09c5.953,5.439,12.242,10.568,18.847,15.358v69.677h15.706V312.54
			h-15.706v57.091c-20.903-17.099-37.912-38.068-50.258-61.489v-0.837H79.13c-14.628-28.073-22.59-59.608-22.59-92.139
			c0-109.983,89.477-199.46,199.46-199.46s199.46,89.478,199.46,199.46c0,42.146-13.27,82.863-37.693,116.685v-50.721h-15.706
			v146.585h15.706v-70.693c34.444-39.25,53.399-89.534,53.399-141.855C471.166,96.523,374.644,0,256,0z"/>
	</g>
</g>
<g>
	<g>
		<path d="M161.243,449.701v38.74c0,4.331-3.522,7.853-7.853,7.853c-4.331,0-7.853-3.522-7.853-7.853v-18.847h-15.706v18.847
			c0,12.991,10.569,23.558,23.558,23.558c12.99,0,23.558-10.568,23.558-23.558v-38.74H161.243z"/>
	</g>
</g>
<g>
	<g>
		<path d="M402.061,438.184v18.847c0,4.331-3.522,7.853-7.853,7.853c-4.331,0-7.853-3.522-7.853-7.853v-38.74H370.65v38.74
			c0,12.991,10.569,23.558,23.558,23.558c12.99,0,23.558-10.568,23.558-23.558v-18.847H402.061z"/>
	</g>
</g>
<g>
	<g>
		<path d="M256,173.808c-22.804,0-41.358,18.553-41.358,41.358c0,22.804,18.553,41.358,41.358,41.358
			c22.804,0,41.358-18.553,41.358-41.358C297.358,192.361,278.804,173.808,256,173.808z M256,240.818
			c-14.145,0-25.652-11.508-25.652-25.652s11.507-25.652,25.652-25.652s25.652,11.508,25.652,25.652S270.145,240.818,256,240.818z"
			/>
	</g>
</g>
<g>
	<g>
		<path d="M272.748,94.326l16.293-19.784l25.085,8.027L337.3,64.274l-9.732-12.327l-16.613,13.116l-16.738-5.357V31.935h-15.706
			v30.689l-25.198,30.597c-62.621,1.36-113.761,50.144-118.867,111.79l-10.896-10.896v-23.035l-18.005-18.006l-11.106,11.105
			l13.405,13.405v23.035l26.804,26.804c2.063,20.72,9.331,40.443,21.366,57.63c14.06,20.08,33.543,35.312,56.342,44.051
			l5.622-14.666c-19.865-7.613-36.843-20.889-49.099-38.393c-12.531-17.895-19.153-38.947-19.153-60.879
			c0-58.599,47.675-106.274,106.274-106.274c40.381,0,76.768,22.417,94.96,58.504l14.025-7.07
			C346.657,123.972,312.236,99.712,272.748,94.326z"/>
	</g>
</g>
<g>
	<g>
		<path d="M358.734,242.47c-0.87,3.286-1.912,6.564-3.095,9.744l7.36,2.739l-7.36-2.738C340.237,293.621,300.195,321.44,256,321.44
			v15.706c9.374,0,18.603-1.061,27.559-3.125l-3.139,17.118l-46.815,15.733l5.004,14.888l23.15-7.781v24.419h15.706v-29.696
			l16.732-5.624l6.293-34.307c9.085-3.562,17.769-8.22,25.88-13.957c20.191-14.283,35.403-34.035,43.991-57.122
			c1.36-3.655,2.556-7.422,3.557-11.197L358.734,242.47z"/>
	</g>
</g>
<g>
</g>
<g>
</g>
<g>
</g>
<g>
</g>
<g>
</g>
<g>
</g>
<g>
</g>
<g>
</g>
<g>
</g>
<g>
</g>
<g>
</g>
<g>
</g>
<g>
</g>
<g>
</g>
<g>
</g>
</svg>
