<?xml version="1.0" encoding="iso-8859-1"?>
<!-- Generator: Adobe Illustrator 19.0.0, SVG Export Plug-In . SVG Version: 6.00 Build 0)  -->
<svg version="1.1" id="Layer_1" xmlns="http://www.w3.org/2000/svg" xmlns:xlink="http://www.w3.org/1999/xlink" x="0px" y="0px"
	 viewBox="0 0 512 512" style="enable-background:new 0 0 512 512;" xml:space="preserve">
<g>
	<g>
		<path d="M312.947,71.071V0H199.053v71.071c-20.23,0.382-36.571,16.946-36.571,37.266v283.5h15.673v-283.5
			c0-11.676,9.313-21.194,20.898-21.574v62.657h113.894V86.763c11.585,0.38,20.898,9.899,20.898,21.574V334.89H209.502v-39.184
			h-15.674v75.233h15.674v-20.375h22.988V512h47.02v-47.02h-15.673v31.347h-15.673V350.563h15.673v93.518h15.673v-93.518h22.988
			v20.375h15.673v-20.375h31.347V108.337C349.518,88.018,333.177,71.454,312.947,71.071z M297.273,133.747h-82.547V15.673h71.464
			l-23.992,23.992l7.003,26.611l-18.133,11.88l8.59,13.11l13.75-9.008l3.901,14.821l15.157-3.988l-12.818-48.709l17.625-17.626
			V133.747z"/>
	</g>
</g>
<g>
	<g>
		<path d="M193.829,382.433v38.661c0,4.322-3.515,7.837-7.837,7.837c-4.322,0-7.837-3.515-7.837-7.837v-18.808h-15.673v18.808
			c0,12.964,10.547,23.51,23.51,23.51s23.51-10.546,23.51-23.51v-38.661H193.829z"/>
	</g>
</g>
<g>
	<g>
		<path d="M333.845,361.535v38.661c0,4.322-3.515,7.837-7.837,7.837c-4.322,0-7.837-3.515-7.837-7.837v-18.808h-15.673v18.808
			c0,12.964,10.547,23.51,23.51,23.51s23.51-10.546,23.51-23.51v-38.661H333.845z"/>
	</g>
</g>
<g>
	<g>
		<rect x="204.278" y="218.384" width="104.49" height="15.673"/>
	</g>
</g>
<g>
	<g>
		<rect x="227.265" y="192.261" width="94.041" height="15.673"/>
	</g>
</g>
<g>
	<g>
		<rect x="190.694" y="192.261" width="26.122" height="15.673"/>
	</g>
</g>
<g>
</g>
<g>
</g>
<g>
</g>
<g>
</g>
<g>
</g>
<g>
</g>
<g>
</g>
<g>
</g>
<g>
</g>
<g>
</g>
<g>
</g>
<g>
</g>
<g>
</g>
<g>
</g>
<g>
</g>
</svg>
