<?xml version="1.0" encoding="iso-8859-1"?>
<!-- Generator: Adobe Illustrator 19.0.0, SVG Export Plug-In . SVG Version: 6.00 Build 0)  -->
<svg version="1.1" id="Layer_1" xmlns="http://www.w3.org/2000/svg" xmlns:xlink="http://www.w3.org/1999/xlink" x="0px" y="0px"
	 viewBox="0 0 511.986 511.986" style="enable-background:new 0 0 511.986 511.986;" xml:space="preserve">
<g>
	<g>
		
			<rect x="380.285" y="150.684" transform="matrix(0.342 -0.9397 0.9397 0.342 102.9605 471.4297)" width="15.647" height="23.022"/>
	</g>
</g>
<g>
	<g>
		<rect x="318.674" y="213.671" transform="matrix(0.342 -0.9397 0.9397 0.342 3.5519 454.7567)" width="15.647" height="22.342"/>
	</g>
</g>
<g>
	<g>
		<rect x="255.634" y="275.543" transform="matrix(0.342 -0.9397 0.9397 0.342 -96.3 436.3895)" width="15.647" height="22.831"/>
	</g>
</g>
<g>
	<g>
		
			<rect x="354.904" y="60.955" transform="matrix(0.7071 -0.7071 0.7071 0.7071 53.9194 278.1601)" width="15.647" height="26.078"/>
	</g>
</g>
<g>
	<g>
		<polygon points="293.869,16.185 340.595,62.911 351.658,51.847 329.175,29.363 495.1,17.572 486.343,140.798 453.448,107.904 
			442.384,118.969 484.874,161.459 483.308,183.496 384.85,85.039 373.787,96.103 392.466,114.783 345.966,97.858 340.614,112.562 
			418.485,140.905 418.513,140.829 430.581,152.898 385.984,197.495 282.68,159.897 277.329,174.6 373.777,209.703 323.614,259.866 
			220.143,222.206 214.792,236.91 311.406,272.075 263.147,320.334 223.595,280.783 240.133,286.803 245.486,272.099 
			197.413,254.601 185.698,242.886 230.398,198.187 301.842,224.19 307.193,209.487 242.606,185.979 292.768,135.816 
			363.794,161.668 369.145,146.964 304.976,123.608 343.545,85.04 332.481,73.974 163.57,242.886 178.418,257.734 118.394,318.234 
			129.502,329.254 189.482,268.797 200.081,279.397 178.691,300.787 189.754,311.851 211.146,290.462 222.209,301.525 
			104.193,419.541 115.258,430.606 233.274,312.589 241.243,320.559 202.388,359.415 213.452,370.479 252.308,331.624 
			263.147,342.462 441.646,163.962 496.486,218.801 511.986,0.686 		"/>
	</g>
</g>
<g>
	<g>
		<rect x="423.498" y="83.821" transform="matrix(0.7071 -0.7071 0.7071 0.7071 57.841 333.3598)" width="15.647" height="26.077"/>
	</g>
</g>
<g>
	<g>
		<polygon points="67.313,456.421 56.249,445.358 175.003,326.604 163.939,315.54 34.121,445.358 67.313,478.549 100.505,445.358 
			89.441,434.292 		"/>
	</g>
</g>
<g>
	<g>
		
			<rect x="-2.936" y="329.998" transform="matrix(0.7025 -0.7117 0.7117 0.7025 -232.794 118.7571)" width="57.166" height="15.646"/>
	</g>
</g>
<g>
	<g>
		
			<rect x="373.906" y="240.566" transform="matrix(0.7071 -0.7071 0.7071 0.7071 -58.4547 355.6566)" width="52.364" height="15.647"/>
	</g>
</g>
<g>
	<g>
		
			<rect x="235.84" y="331.047" transform="matrix(0.7071 -0.7071 0.7071 0.7071 -148.9379 318.1725)" width="147.518" height="15.647"/>
	</g>
</g>
<g>
	<g>
		
			<rect x="276.951" y="402.753" transform="matrix(0.7071 -0.7071 0.7071 0.7071 -201.5357 334.6025)" width="52.364" height="15.647"/>
	</g>
</g>
<g>
	<g>
		
			<rect x="196.141" y="469.517" transform="matrix(0.7071 -0.7071 0.7071 0.7071 -268.3076 306.9291)" width="80.403" height="15.647"/>
	</g>
</g>
<g>
	<g>
		
			<rect x="199.744" y="122.157" transform="matrix(0.7071 -0.7071 0.7071 0.7071 -25.7379 197.8242)" width="52.364" height="15.647"/>
	</g>
</g>
<g>
	<g>
		
			<rect x="118.945" y="188.918" transform="matrix(0.7071 -0.7071 0.7071 0.7071 -92.5042 170.1577)" width="80.403" height="15.647"/>
	</g>
</g>
<g>
	<g>
		
			<rect x="80.728" y="466.901" transform="matrix(0.7071 -0.7071 0.7071 0.7071 -299.6135 226.1178)" width="84.826" height="15.647"/>
	</g>
</g>
<g>
	<g>
		<path d="M81.566,221.236h-14.54c-8.093,20.365-13.849,26.121-34.215,34.215v14.54c20.366,8.094,26.121,13.85,34.215,34.215h14.54
			c8.094-20.365,13.849-26.121,34.215-34.215v-14.54C95.415,247.357,89.659,241.602,81.566,221.236z M74.295,282.951
			c-5.21-8.993-11.238-15.019-20.23-20.23c8.993-5.21,15.021-11.238,20.23-20.23c5.21,8.993,11.238,15.019,20.23,20.23
			C85.533,267.931,79.506,273.957,74.295,282.951z"/>
	</g>
</g>
<g>
	<g>
		<path d="M211.018,378.748h-14.54c-8.094,20.365-13.849,26.121-34.215,34.215v14.54c20.365,8.094,26.121,13.849,34.215,34.215
			h14.54c8.094-20.365,13.849-26.121,34.215-34.215v-14.54C224.867,404.869,219.111,399.114,211.018,378.748z M203.748,440.463
			c-5.21-8.993-11.239-15.02-20.23-20.23c8.993-5.21,15.02-11.238,20.23-20.23c5.21,8.992,11.238,15.019,20.23,20.23
			C214.986,425.444,208.958,431.471,203.748,440.463z"/>
	</g>
</g>
<g>
	<g>
		<path d="M131.948,167.41c-14.316-5.688-18.094-9.466-23.783-23.783H93.625c-5.689,14.317-9.467,18.095-23.783,23.783v14.54
			c14.315,5.689,18.094,9.467,23.783,23.783h14.54c5.689-14.316,9.467-18.094,23.783-23.783L131.948,167.41z M100.895,185.492
			c-2.98-4.407-6.404-7.832-10.812-10.812c4.408-2.979,7.833-6.403,10.812-10.812c2.979,4.409,6.405,7.833,10.812,10.812
			C107.298,177.66,103.875,181.085,100.895,185.492z"/>
	</g>
</g>
<g>
	<g>
		<path d="M306.985,445.508h-14.54c-5.689,14.317-9.467,18.095-23.783,23.783v14.54c14.316,5.688,18.094,9.466,23.783,23.783h14.54
			c5.689-14.317,9.467-18.095,23.783-23.783v-14.54C316.453,463.603,312.674,459.825,306.985,445.508z M299.715,487.374
			c-2.979-4.409-6.404-7.833-10.812-10.812c4.408-2.979,7.832-6.404,10.812-10.812c2.979,4.409,6.404,7.833,10.812,10.812
			C306.119,479.541,302.695,482.965,299.715,487.374z"/>
	</g>
</g>
<g>
</g>
<g>
</g>
<g>
</g>
<g>
</g>
<g>
</g>
<g>
</g>
<g>
</g>
<g>
</g>
<g>
</g>
<g>
</g>
<g>
</g>
<g>
</g>
<g>
</g>
<g>
</g>
<g>
</g>
</svg>
