<?xml version="1.0" encoding="iso-8859-1"?>
<!-- Generator: Adobe Illustrator 19.0.0, SVG Export Plug-In . SVG Version: 6.00 Build 0)  -->
<svg version="1.1" id="Layer_1" xmlns="http://www.w3.org/2000/svg" xmlns:xlink="http://www.w3.org/1999/xlink" x="0px" y="0px"
	 viewBox="0 0 512 512" style="enable-background:new 0 0 512 512;" xml:space="preserve">
<g>
	<g>
		<path d="M399.297,0H112.703C91.074,0,73.479,17.595,73.479,39.224v381.777c0,21.628,17.595,39.224,39.224,39.224h9.414v-15.689
			h-9.414c-12.977,0-23.534-10.557-23.534-23.534V109.285l35.692,20.58l43.531-25.103l43.536,25.103l43.537-25.103l43.539,25.103
			l43.538-25.103l43.544,25.103l36.745-21.184v312.32c0,12.977-10.557,23.534-23.534,23.534h-8.368v15.689h8.368
			c21.628,0,39.224-17.595,39.224-39.224V39.224C438.521,17.595,420.926,0,399.297,0z M422.831,90.57l-36.745,21.184l-43.545-25.103
			l-43.537,25.103l-43.539-25.103l-43.537,25.103L168.391,86.65l-43.531,25.103L89.168,91.174v-51.95
			c0-12.977,10.557-23.534,23.534-23.534h286.594c12.977,0,23.534,10.557,23.534,23.534V90.57z"/>
	</g>
</g>
<g>
	<g>
		<rect x="256.523" y="188.274" width="26.149" height="15.69"/>
	</g>
</g>
<g>
	<g>
		<path d="M293.132,188.274v15.69h105.643v11.506H113.226v-19.873h-15.69v35.563h50.284c3.787,24.55,25.058,43.408,50.652,43.408
			c25.594,0,46.864-18.858,50.652-43.408h13.752c3.787,24.55,25.058,43.408,50.652,43.408c25.594,0,46.865-18.858,50.652-43.408
			h50.284v-42.885H293.132z M198.472,258.876c-16.913,0-31.097-11.872-34.68-27.718h69.36
			C229.568,247.005,215.385,258.876,198.472,258.876z M313.528,258.876c-16.913,0-31.097-11.872-34.68-27.718h69.36
			C344.625,247.005,330.441,258.876,313.528,258.876z"/>
	</g>
</g>
<g>
	<g>
		<polygon points="262.276,337.847 262.276,298.1 246.586,298.1 246.586,353.536 282.149,353.536 282.149,337.847 		"/>
	</g>
</g>
<g>
	<g>
		<rect x="246.586" y="261.491" width="15.69" height="26.149"/>
	</g>
</g>
<g>
	<g>
		<path d="M399.297,327.387v6.199c0,16.684-13.373,30.257-29.81,30.257h-7.845v47.221h15.689V378.85
			c21.363-3.765,37.655-22.629,37.655-45.263v-6.199H399.297z"/>
	</g>
</g>
<g>
	<g>
		<path d="M361.642,428.846v43.931c0,12.977-10.557,23.534-23.534,23.534H174.938c-12.977,0-23.534-10.557-23.534-23.534v-43.931
			h-15.69v43.931c0,21.628,17.595,39.224,39.224,39.224h163.171c21.628,0,39.224-17.595,39.224-39.224v-43.931H361.642z"/>
	</g>
</g>
<g>
	<g>
		<path d="M143.559,363.843c-16.437,0-29.81-13.573-29.81-30.257v-6.199H98.059v6.199c0,22.634,16.292,41.498,37.655,45.263v32.215
			h15.69v-47.221H143.559z"/>
	</g>
</g>
<g>
	<g>
		<rect x="188.012" y="392.76" width="139.113" height="15.69"/>
	</g>
</g>
<g>
	<g>
		<rect x="237.696" y="418.909" width="73.218" height="15.689"/>
	</g>
</g>
<g>
	<g>
		<rect x="201.087" y="418.909" width="26.149" height="15.689"/>
	</g>
</g>
<g>
	<g>
		<polygon points="446.366,144.343 446.366,160.033 465.193,160.033 465.193,187.228 446.366,187.228 446.366,202.917 
			480.883,202.917 480.883,144.343 		"/>
	</g>
</g>
<g>
	<g>
		<polygon points="64.588,160.033 64.588,144.343 31.117,144.343 31.117,202.917 64.588,202.917 64.588,187.228 46.807,187.228 
			46.807,160.033 		"/>
	</g>
</g>
<g>
</g>
<g>
</g>
<g>
</g>
<g>
</g>
<g>
</g>
<g>
</g>
<g>
</g>
<g>
</g>
<g>
</g>
<g>
</g>
<g>
</g>
<g>
</g>
<g>
</g>
<g>
</g>
<g>
</g>
</svg>
