<?xml version="1.0" encoding="iso-8859-1"?>
<!-- Generator: Adobe Illustrator 19.0.0, SVG Export Plug-In . SVG Version: 6.00 Build 0)  -->
<svg version="1.1" id="Layer_1" xmlns="http://www.w3.org/2000/svg" xmlns:xlink="http://www.w3.org/1999/xlink" x="0px" y="0px"
	 viewBox="0 0 512 512" style="enable-background:new 0 0 512 512;" xml:space="preserve">
<g>
	<g>
		<polygon points="404.898,368.849 404.898,496.327 380.865,496.327 380.865,425.273 365.192,425.273 365.192,496.327 
			342.204,496.327 342.204,393.927 326.531,393.927 326.531,496.327 302.498,496.327 302.498,446.171 286.824,446.171 
			286.824,496.327 263.837,496.327 263.837,404.375 248.163,404.375 248.163,496.327 224.131,496.327 224.131,414.824 
			208.457,414.824 208.457,496.327 185.469,496.327 185.469,393.927 169.796,393.927 169.796,496.327 145.763,496.327 
			145.763,446.171 130.09,446.171 130.09,496.327 107.102,496.327 107.102,368.849 91.429,368.849 91.429,512 420.571,512 
			420.571,368.849 		"/>
	</g>
</g>
<g>
	<g>
		<path d="M256,0C165.43,0,91.719,73.544,91.435,164.049h-0.006v87.771h15.673v-87.249c0-82.103,66.795-148.898,148.898-148.898
			s148.898,66.795,148.898,148.898v87.249h15.673v-87.249C420.571,73.826,346.745,0,256,0z"/>
	</g>
</g>
<g>
	<g>
		<path d="M214.204,78.89c-18.726,0-33.959,15.235-33.959,33.959c0,18.59,15.017,33.732,33.557,33.949
			c-6.233,3.969-13.62,6.28-21.541,6.28v15.673c30.239,0,54.93-24.138,55.858-54.157c0.029-0.578,0.044-1.16,0.044-1.745
			C248.163,94.124,232.93,78.89,214.204,78.89z M214.204,131.135c-10.082,0-18.286-8.203-18.286-18.286s8.203-18.286,18.286-18.286
			s18.286,8.203,18.286,18.286S224.286,131.135,214.204,131.135z"/>
	</g>
</g>
<g>
	<g>
		<path d="M332.8,112.849c0-18.725-15.234-33.959-33.959-33.959s-33.959,15.235-33.959,33.959c0,0.585,0.015,1.167,0.044,1.745
			c0.928,30.019,25.619,54.157,55.858,54.157v-15.673c-7.921,0-15.308-2.31-21.542-6.28
			C317.783,146.581,332.8,131.439,332.8,112.849z M298.841,131.135c-10.082,0-18.286-8.203-18.286-18.286
			s8.203-18.286,18.286-18.286s18.286,8.203,18.286,18.286S308.923,131.135,298.841,131.135z"/>
	</g>
</g>
<g>
	<g>
		<path d="M288.392,250.776c0,17.573-14.297,31.869-31.869,31.869s-31.869-14.296-31.869-31.869H208.98
			c0,26.215,21.327,47.543,47.543,47.543s47.543-21.327,47.543-47.543H288.392z"/>
	</g>
</g>
<g>
	<g>
		<path d="M256.522,173.976c-14.692,0-26.645,11.953-26.645,26.645v39.706c0,14.692,11.953,26.645,26.645,26.645
			c14.691,0,26.645-11.953,26.645-26.645V200.62C283.167,185.928,271.214,173.976,256.522,173.976z M267.494,240.327
			c0,6.05-4.922,10.971-10.971,10.971c-6.05,0-10.971-4.922-10.971-10.971V200.62c0-6.05,4.921-10.971,10.971-10.971
			c6.05,0,10.971,4.921,10.971,10.971V240.327z"/>
	</g>
</g>
<g>
	<g>
		<path d="M139.494,289.437v34.134c0,8.931-7.265,16.196-16.196,16.196s-16.196-7.265-16.196-16.196v-56.077H91.429v56.077
			c0,17.572,14.297,31.869,31.869,31.869c17.572,0,31.869-14.296,31.869-31.869v-34.134H139.494z"/>
	</g>
</g>
<g>
	<g>
		<rect x="139.494" y="220.473" width="15.673" height="51.2"/>
	</g>
</g>
<g>
	<g>
		<path d="M404.898,267.494v56.077c0,8.931-7.265,16.196-16.196,16.196s-16.196-7.265-16.196-16.196v-34.134h-15.673v34.134
			c0,17.573,14.297,31.869,31.869,31.869s31.869-14.296,31.869-31.869v-56.077H404.898z"/>
	</g>
</g>
<g>
	<g>
		<rect x="356.833" y="220.473" width="15.673" height="51.2"/>
	</g>
</g>
<g>
	<g>
		<rect x="130.09" y="409.6" width="15.673" height="26.122"/>
	</g>
</g>
<g>
	<g>
		<rect x="286.824" y="408.555" width="15.674" height="26.122"/>
	</g>
</g>
<g>
</g>
<g>
</g>
<g>
</g>
<g>
</g>
<g>
</g>
<g>
</g>
<g>
</g>
<g>
</g>
<g>
</g>
<g>
</g>
<g>
</g>
<g>
</g>
<g>
</g>
<g>
</g>
<g>
</g>
</svg>
