<?xml version="1.0" encoding="iso-8859-1"?>
<!-- Generator: Adobe Illustrator 19.0.0, SVG Export Plug-In . SVG Version: 6.00 Build 0)  -->
<svg version="1.1" id="Layer_1" xmlns="http://www.w3.org/2000/svg" xmlns:xlink="http://www.w3.org/1999/xlink" x="0px" y="0px"
	 viewBox="0 0 512 512" style="enable-background:new 0 0 512 512;" xml:space="preserve">
<g>
	<g>
		<polygon points="15.673,236.017 15.673,210.939 68.963,210.939 68.963,195.266 15.673,195.266 15.673,170.188 110.759,170.188 
			110.759,154.515 0,154.515 0,251.69 85.113,251.69 62.517,262.227 69.14,276.431 122.197,251.69 188.082,251.69 188.082,236.017 
					"/>
	</g>
</g>
<g>
	<g>
		<path d="M427.072,251.69H512v-97.176H401.241v15.673h95.086v25.078h-75.233v15.673h75.233v25.078H330.188v15.673h59.798
			L279.51,303.206v-16.773h-15.673v178.155h-15.673V352.262H232.49v15.412L70.509,442.907H52.245v-16.432l169.451-79.016
			l-6.624-14.204L52.245,409.183v-32.671l180.245-84.049v38.902h15.673V168.36h15.673v97.175h15.673V168.36h17.763v-22.805
			l90.384,32.072V80.482l-72.33,23.711c0.842-4.026,1.277-8.168,1.277-12.373c0-33.13-26.952-60.082-60.082-60.082
			S196.441,58.69,196.441,91.82c0,4.328,0.479,8.596,1.38,12.749l-73.478-24.087v97.145l90.384-32.072v22.805h17.763v26.906h-32.914
			v15.673h32.914v21.991L52.245,316.98v-51.706H36.571V458.58H232.49v21.682h47.02V458.58h195.918V265.274h-15.673v46.085
			L279.51,395.409v-32.671l169.974-79.26l-6.625-14.204L279.51,345.445v-24.946L427.072,251.69z M307.779,123.162l64.205-21.046
			v18.963h-29.78v15.673h29.78v18.684l-69.682-24.728C304.33,128.326,306.158,125.804,307.779,123.162z M140.016,155.435v-18.684
			h29.78v-15.673h-29.78v-18.963l65.534,21.483c1.485,2.378,3.135,4.661,4.952,6.825L140.016,155.435z M230.4,152.686V127.9
			l-2.739-2.346c-9.881-8.463-15.547-20.758-15.547-33.733c0-24.487,19.921-44.408,44.408-44.408s44.408,19.921,44.408,44.408
			c0,13.429-5.99,25.997-16.436,34.483l-2.894,2.352v24.031h-6.269v-14.629h-15.673v14.629h-6.269v-14.629h-15.673v14.629H230.4z
			 M52.245,334.273l180.245-84.049v24.947L52.245,359.219V334.273z M232.49,442.907h-17.757l17.757-8.28V442.907z M232.49,417.334
			l-54.84,25.573h-69.934l124.774-57.952V417.334z M459.755,442.907h-47.293l37.022-17.264l-6.625-14.204l-67.483,31.467h-70.061
			l154.44-72.015V442.907z M459.755,328.652v24.945L289.259,433.1l4.574,9.806H279.51v-30.206L459.755,328.652z"/>
	</g>
</g>
<g>
	<g>
		<rect x="292.571" y="236.012" width="26.122" height="15.673"/>
	</g>
</g>
<g>
	<g>
		<rect x="384.522" y="195.261" width="26.122" height="15.673"/>
	</g>
</g>
<g>
	<g>
		<circle cx="238.237" cy="97.04" r="15.673"/>
	</g>
</g>
<g>
	<g>
		<circle cx="274.808" cy="97.04" r="15.673"/>
	</g>
</g>
<g>
	<g>
		<polygon points="256.522,114.025 249.208,121.339 263.837,121.339 		"/>
	</g>
</g>
<g>
</g>
<g>
</g>
<g>
</g>
<g>
</g>
<g>
</g>
<g>
</g>
<g>
</g>
<g>
</g>
<g>
</g>
<g>
</g>
<g>
</g>
<g>
</g>
<g>
</g>
<g>
</g>
<g>
</g>
</svg>
