<?xml version="1.0" encoding="iso-8859-1"?>
<!-- Generator: Adobe Illustrator 19.0.0, SVG Export Plug-In . SVG Version: 6.00 Build 0)  -->
<svg version="1.1" id="Layer_1" xmlns="http://www.w3.org/2000/svg" xmlns:xlink="http://www.w3.org/1999/xlink" x="0px" y="0px"
	 viewBox="0 0 512.001 512.001" style="enable-background:new 0 0 512.001 512.001;" xml:space="preserve">
<g>
	<g>
		<path d="M178.796,421.55l-5.788-14.599c-44.163,17.51-82.343,49.159-107.907,89.344h-65.1V512h164.384v-15.706H84.008
			C107.614,462.89,140.831,436.604,178.796,421.55z"/>
	</g>
</g>
<g>
	<g>
		<path d="M340.43,440.447l-8.663,13.1c7.056,4.667,13.721,10.025,19.81,15.929l10.931-11.279
			C355.723,451.622,348.295,445.649,340.43,440.447z"/>
	</g>
</g>
<g>
	<g>
		<path d="M277.466,416.73v-71.209H261.76v69.841c-1.743-0.06-3.488-0.096-5.235-0.096c-2.102,0-4.195,0.057-6.282,0.14v-48.945
			h-15.706v50.371c-15.335,2.205-30.153,6.736-44.255,13.56l6.84,14.137c18.594-8.997,38.581-13.558,59.402-13.558
			c22.838-0.001,45.432,5.744,65.34,16.612l7.526-13.785C313.306,425.018,295.65,419.252,277.466,416.73z"/>
	</g>
</g>
<g>
	<g>
		<path d="M447.947,496.296v-0.001c-25.786-40.537-64.353-72.339-108.996-89.773l-5.713,14.63
			c38.406,14.998,71.983,41.428,95.804,75.144H247.101v15.706H512v-15.706H447.947z"/>
	</g>
</g>
<g>
	<g>
		<rect x="210.454" y="496.294" width="26.176" height="15.706"/>
	</g>
</g>
<g>
	<g>
		<path d="M206.413,322.659c-29.004-10.466-53.662-29.452-71.307-54.904l-12.907,8.949c18.357,26.477,43.58,46.63,73.216,58.567
			l-6.603,76.587l15.647,1.349l7.63-88.5L206.413,322.659z"/>
	</g>
</g>
<g>
	<g>
		<path d="M115.628,139.102l2.131-5.854c10.27-28.211,28.693-52.369,53.273-69.858l-9.105-12.798
			c-25.474,18.125-44.97,42.733-56.674,71.443l-39.289-4.72v137.068l40.98-4.929c2.277,5.178,4.834,10.256,7.632,15.156l13.64-7.786
			c-3.435-6.018-6.469-12.332-9.015-18.765l-2.228-5.63l-35.303,4.247v-16.799h40.834v-15.706H81.669v-10.47h63.869v-15.706H81.669
			v-10.47h42.928V151.82H81.669v-16.8L115.628,139.102z"/>
	</g>
</g>
<g>
	<g>
		<path d="M318.058,32.417L322.623,0H185.19l4.862,34.524c-5.485,2.448-10.856,5.208-16.027,8.24l7.942,13.548
			c6.279-3.681,12.883-6.919,19.626-9.623l5.711-2.291l-4.042-28.692h31.275v70.151h15.706V15.706h11.517v49.211h15.706V15.706
			h27.087l-3.805,27.015l5.994,2.167c29.753,10.76,55.754,31.303,73.214,57.844l13.12-8.632
			C374.942,66.537,348.475,44.821,318.058,32.417z"/>
	</g>
</g>
<g>
	<g>
		<path d="M407.751,121.931c-2.356-5.752-5.049-11.391-8.041-16.826l-13.759,7.572c3.608,6.554,6.735,13.435,9.296,20.45
			l2.127,5.826l34.006-3.964v16.831h-41.881v15.706h41.881v10.47h-64.916v15.706h64.916v10.47h-43.975v15.706h43.975v16.831
			l-35.362-4.121l-2.223,5.602c-11.935,30.071-33.855,55.792-61.721,72.424l8.05,13.487c29.08-17.358,52.308-43.669,65.929-74.531
			l41.032,4.782V117.346L407.751,121.931z"/>
	</g>
</g>
<g>
	<g>
		<path d="M329.122,330.104l-6.989-14.064c-6.841,3.4-14.005,6.285-21.291,8.576l-6.01,1.889l7.565,87.751l15.647-1.35
			l-6.494-75.323C317.546,335.436,323.435,332.932,329.122,330.104z"/>
	</g>
</g>
<g>
	<g>
		<path d="M362.09,132.552c-11.748-24.175-31.628-43.752-55.981-55.127l-9.618-4.493l-11.138,79.08l81.571-9.51L362.09,132.552z
			 M303.742,134.058l5.255-37.312c13.526,8.18,25.016,19.442,33.465,32.797L303.742,134.058z"/>
	</g>
</g>
<g>
	<g>
		<path d="M211.584,74.798l-9.89,5.238c-22.011,11.659-40.084,30.419-50.888,52.825l-4.772,9.897l76.416,9.186L211.584,74.798z
			 M170.387,129.866c7.441-11.831,17.327-22.112,28.865-30.024l4.799,34.069L170.387,129.866z"/>
	</g>
</g>
<g>
	<g>
		<path d="M147.56,228.75l5.396,10.121c11.43,21.437,29.703,39.193,51.452,49.996l10.327,5.13l6.388-74.096L147.56,228.75z
			 M201.134,268.919c-11.028-7.213-20.662-16.581-28.184-27.406l30.867-3.713L201.134,268.919z"/>
	</g>
</g>
<g>
	<g>
		<path d="M285.626,219.719l6.581,76.336l9.953-4.207c24.589-10.391,45.102-29.091,57.76-52.652l5.469-10.179L285.626,219.719z
			 M305.944,272.544l-3.016-34.996l36.948,4.306C331.036,254.502,319.398,265.031,305.944,272.544z"/>
	</g>
</g>
<g>
	<g>
		<rect x="234.536" y="329.816" width="15.706" height="26.176"/>
	</g>
</g>
<g>
	<g>
		<rect x="261.759" y="75.386" width="15.706" height="26.176"/>
	</g>
</g>
<g>
	<g>
		<rect x="352.851" y="151.82" width="26.176" height="15.706"/>
	</g>
</g>
<g>
	<g>
		<rect x="132.974" y="204.172" width="26.176" height="15.706"/>
	</g>
</g>
<g>
</g>
<g>
</g>
<g>
</g>
<g>
</g>
<g>
</g>
<g>
</g>
<g>
</g>
<g>
</g>
<g>
</g>
<g>
</g>
<g>
</g>
<g>
</g>
<g>
</g>
<g>
</g>
<g>
</g>
</svg>
