<?xml version="1.0" encoding="iso-8859-1"?>
<!-- Generator: Adobe Illustrator 19.0.0, SVG Export Plug-In . SVG Version: 6.00 Build 0)  -->
<svg version="1.1" id="Layer_1" xmlns="http://www.w3.org/2000/svg" xmlns:xlink="http://www.w3.org/1999/xlink" x="0px" y="0px"
	 viewBox="0 0 512 512" style="enable-background:new 0 0 512 512;" xml:space="preserve">
<g>
	<g>
		<polygon points="432.588,99.788 432.588,0.522 371.984,0.522 371.984,88.816 311.38,88.816 311.38,104.49 371.984,104.49 
			371.984,117.551 138.971,117.551 138.971,104.49 227.788,104.49 227.788,88.816 138.971,88.816 138.971,0.522 78.367,0.522 
			78.367,99.788 94.041,99.788 94.041,16.196 123.298,16.196 123.298,143.673 115.984,143.673 115.984,100.833 100.31,100.833 
			100.31,143.673 94.041,143.673 94.041,110.237 78.367,110.237 78.367,159.347 138.971,159.347 138.971,133.224 371.984,133.224 
			371.984,159.347 432.588,159.347 432.588,110.237 416.914,110.237 416.914,143.673 387.657,143.673 387.657,16.196 
			393.927,16.196 393.927,59.037 409.6,59.037 409.6,16.196 416.914,16.196 416.914,99.788 		"/>
	</g>
</g>
<g>
	<g>
		<polygon points="496.327,419.527 496.327,435.722 353.176,435.722 353.176,451.396 496.327,451.396 496.327,461.322 
			435.722,461.322 435.722,476.996 512,476.996 512,419.527 		"/>
	</g>
</g>
<g>
	<g>
		<rect x="151.51" y="461.322" width="256" height="15.673"/>
	</g>
</g>
<g>
	<g>
		<polygon points="455.576,59.037 455.576,74.71 496.327,74.71 496.327,398.629 512,398.629 512,59.037 		"/>
	</g>
</g>
<g>
	<g>
		<rect x="189.127" y="59.037" width="169.273" height="15.673"/>
	</g>
</g>
<g>
	<g>
		<rect x="153.6" y="59.037" width="26.122" height="15.673"/>
	</g>
</g>
<g>
	<g>
		<rect x="213.159" y="406.988" width="26.122" height="15.673"/>
	</g>
</g>
<g>
	<g>
		<polygon points="444.082,125.91 444.082,406.988 248.686,406.988 248.686,422.661 459.755,422.661 459.755,125.91 		"/>
	</g>
</g>
<g>
	<g>
		<path d="M248.073,276.405c-4.376-5.511-10.085-8.891-17.13-10.143c3.18-0.566,6.106-1.704,8.778-3.409
			c8.272-5.278,12.869-14.674,12.869-24.375c0-20.713-20.954-30.171-39.034-30.171c-14.15,0-32.754,4.625-41.08,17.387
			l14.318,16.022c2.613-4.316,5.992-7.671,10.142-10.056c10.09-5.801,31.279-5.56,31.279,10.226
			c0.001,11.863-12.071,16.706-22.159,16.706h-5.284v17.045c0,0,4.771,0,4.772,0c11.736,0,25.398,4.407,25.398,18.41
			c0,5.683-1.819,9.886-5.454,12.614c-7.954,5.967-22.623,5.308-31.193,1.023c-4.092-2.046-7.615-4.944-10.568-8.694
			c0,0-12.949,16.187-12.955,16.194c-1.391,1.739,13.821,10.945,15.346,11.633c7.62,3.432,15.888,4.731,24.2,4.731
			c6.818,0,12.955-0.826,18.409-2.472c10.005-3.024,18.243-9.372,22.584-18.069c2.133-4.273,3.325-9.112,3.325-14.403
			C254.636,288.65,252.446,281.918,248.073,276.405z"/>
	</g>
</g>
<g>
	<g>
		<path d="M319.579,311.28V209.159h-23.351c-0.57,1.023-1.905,2.416-4.006,4.176c-2.104,1.763-4.576,3.553-7.415,5.37
			c-2.841,1.819-5.74,3.382-8.694,4.687c-2.956,1.307-5.454,1.96-7.5,1.96v21.307c2.158,0,4.629-0.397,7.415-1.192
			c2.784-0.794,5.48-1.817,8.097-3.069c2.612-1.25,5.028-2.584,7.244-4.006c2.215-1.419,3.835-2.812,4.858-4.175v77.063h-24.205
			v20.625h69.206V311.28H319.579z"/>
	</g>
</g>
<g>
	<g>
		<path d="M186.62,428.181v-74.323l14.105-7.965l-7.707-13.647l-13.635,7.7l-68.297-39.431V270.94H95.413v29.715l-28.539,16.478
			V125.91H51.2v200.271l-23.581,13.614l-11.945-6.847V74.71H55.38V59.037H0v417.959h52.245v-15.673H15.673v-9.417l12.304-7.122
			l67.437,38.935v27.759h15.673v-27.619l70.417-40.655l15.805,8.333l7.31-13.866L186.62,428.181z M20.124,431.22l-4.45,2.576
			v-82.781l4.45,2.552V431.22z M111.087,318.612l52.45,30.282l-12.229,6.906l-40.22-23.222V318.612z M131.082,398.9v-13.679
			l12.096-6.831v26.886L131.082,398.9z M136.09,419.26l-25.002,14.435v-13.966l12.358-7.136L136.09,419.26z M111.087,350.677
			l24.373,14.073l-12.228,6.906l-12.145-7.011V350.677z M95.414,318.752v13.966l-39.927,23.053l-12.139-6.959L95.414,318.752z
			 M71.215,364.789l24.198-13.971v13.967h0.001l-12.06,6.962L71.215,364.789z M75.662,385.404v13.668l-12.096,7.001
			c0,0,0-27.603,0-27.603L75.662,385.404z M35.797,362.551l12.096,6.934v45.661l-12.096,7.001V362.551z M95.414,465.621
			l-51.783-29.898l12.08-6.992l39.703,22.923V465.621z M95.414,433.555l-24.05-13.885l12.08-6.992l11.97,6.911V433.555z
			 M103.372,406.085l-12.037-6.95v-13.899l12.037-6.949l12.037,6.949v13.899L103.372,406.085z M111.087,465.761v-13.968
			l41.387-23.895l12.644,6.666L111.087,465.761z M170.946,419.918l-12.096-6.377v-44.001l12.096-6.831V419.918z"/>
	</g>
</g>
<g>
	<g>
		<rect x="100.31" y="64.261" width="15.673" height="26.122"/>
	</g>
</g>
<g>
	<g>
		<rect x="393.927" y="69.486" width="15.673" height="26.122"/>
	</g>
</g>
<g>
	<g>
		<rect x="238.237" y="88.816" width="26.122" height="15.673"/>
	</g>
</g>
<g>
	<g>
		<rect x="470.727" y="98.743" width="15.674" height="173.453"/>
	</g>
</g>
<g>
	<g>
		<rect x="23.51" y="108.147" width="15.674" height="120.163"/>
	</g>
</g>
<g>
	<g>
		<rect x="23.51" y="238.759" width="15.674" height="26.122"/>
	</g>
</g>
<g>
</g>
<g>
</g>
<g>
</g>
<g>
</g>
<g>
</g>
<g>
</g>
<g>
</g>
<g>
</g>
<g>
</g>
<g>
</g>
<g>
</g>
<g>
</g>
<g>
</g>
<g>
</g>
<g>
</g>
</svg>
