<?xml version="1.0" encoding="iso-8859-1"?>
<!-- Generator: Adobe Illustrator 19.0.0, SVG Export Plug-In . SVG Version: 6.00 Build 0)  -->
<svg version="1.1" id="Layer_1" xmlns="http://www.w3.org/2000/svg" xmlns:xlink="http://www.w3.org/1999/xlink" x="0px" y="0px"
	 viewBox="0 0 512 512" style="enable-background:new 0 0 512 512;" xml:space="preserve">
<g>
	<g>
		<path d="M256,0C155.46,0,73.665,81.795,73.665,182.335v126.433c0,32.354,8.586,64.138,24.83,91.916
			c15.761,26.951,38.32,49.561,65.237,65.382l7.943-13.513c-24.613-14.467-45.239-35.139-59.649-59.782
			c-14.843-25.38-22.688-54.428-22.688-84.004V182.335c0-38.666,13.239-74.297,35.418-102.605L144,95.654l-8.015,25.047
			l18.258,23.126l12.302-9.712l-13.089-16.58l5.345-16.703h27.716V85.158H155.9l-20.907-17.302
			C165.391,35.742,208.394,15.673,256,15.673c91.897,0,166.661,74.763,166.661,166.661v126.433c0,29.577-7.845,58.625-22.688,84.006
			c-14.411,24.644-35.038,45.316-59.651,59.782l7.943,13.513c26.918-15.822,49.477-38.43,65.238-65.382
			c16.245-27.779,24.832-59.562,24.832-91.918V182.335C438.335,81.795,356.54,0,256,0z"/>
	</g>
</g>
<g>
	<g>
		<path d="M39.706,195.918h20.376v-15.673H39.706c-21.606,0-39.184,17.577-39.184,39.184v31.347
			c0,21.606,17.577,39.184,39.184,39.184h20.376v-15.673H39.706c-12.963,0-23.51-10.546-23.51-23.51v-31.347
			C16.196,206.465,26.743,195.918,39.706,195.918z"/>
	</g>
</g>
<g>
	<g>
		<path d="M472.294,180.245h-20.376v15.673h20.376c12.963,0,23.51,10.546,23.51,23.51v31.347c0,12.964-10.547,23.51-23.51,23.51
			h-20.376v15.673h20.376c21.606,0,39.184-17.577,39.184-39.184v-31.347C511.478,197.822,493.9,180.245,472.294,180.245z"/>
	</g>
</g>
<g>
	<g>
		<path d="M256.522,160.413l-82.077-29.845l82.077,98.49l82.077-98.491L256.522,160.413z M223.66,165.14l32.862,11.95l32.862-11.95
			l-32.862,39.435L223.66,165.14z"/>
	</g>
</g>
<g>
	<g>
		<circle cx="130.09" cy="204.8" r="10.449"/>
	</g>
</g>
<g>
	<g>
		<circle cx="109.192" cy="183.902" r="10.449"/>
	</g>
</g>
<g>
	<g>
		<circle cx="130.09" cy="163.004" r="10.449"/>
	</g>
</g>
<g>
	<g>
		<circle cx="382.955" cy="163.004" r="10.449"/>
	</g>
</g>
<g>
	<g>
		<circle cx="403.853" cy="183.902" r="10.449"/>
	</g>
</g>
<g>
	<g>
		<circle cx="382.955" cy="204.8" r="10.449"/>
	</g>
</g>
<g>
	<g>
		<circle cx="109.192" cy="286.302" r="10.449"/>
	</g>
</g>
<g>
	<g>
		<circle cx="130.09" cy="307.2" r="10.449"/>
	</g>
</g>
<g>
	<g>
		<circle cx="109.192" cy="328.098" r="10.449"/>
	</g>
</g>
<g>
	<g>
		<circle cx="403.853" cy="328.098" r="10.449"/>
	</g>
</g>
<g>
	<g>
		<circle cx="382.955" cy="307.2" r="10.449"/>
	</g>
</g>
<g>
	<g>
		<circle cx="403.853" cy="286.302" r="10.449"/>
	</g>
</g>
<g>
	<g>
		<circle cx="219.951" cy="52.245" r="10.449"/>
	</g>
</g>
<g>
	<g>
		<circle cx="219.951" cy="114.939" r="10.449"/>
	</g>
</g>
<g>
	<g>
		<circle cx="293.094" cy="52.245" r="10.449"/>
	</g>
</g>
<g>
	<g>
		<circle cx="293.094" cy="114.939" r="10.449"/>
	</g>
</g>
<g>
	<g>
		<circle cx="225.176" cy="365.714" r="10.449"/>
	</g>
</g>
<g>
	<g>
		<circle cx="225.176" cy="428.408" r="10.449"/>
	</g>
</g>
<g>
	<g>
		<circle cx="287.869" cy="365.714" r="10.449"/>
	</g>
</g>
<g>
	<g>
		<circle cx="287.869" cy="428.408" r="10.449"/>
	</g>
</g>
<g>
	<g>
		<circle cx="186.514" cy="340.637" r="10.449"/>
	</g>
</g>
<g>
	<g>
		<circle cx="164.352" cy="362.799" r="10.449"/>
	</g>
</g>
<g>
	<g>
		<circle cx="142.179" cy="384.972" r="10.449"/>
	</g>
</g>
<g>
	<g>
		<circle cx="337.575" cy="340.637" r="10.449"/>
	</g>
</g>
<g>
	<g>
		<circle cx="359.748" cy="362.799" r="10.449"/>
	</g>
</g>
<g>
	<g>
		<circle cx="381.91" cy="384.972" r="10.449"/>
	</g>
</g>
<g>
	<g>
		<path d="M345.861,220.996c0-12.964-10.547-23.51-23.51-23.51s-23.51,10.546-23.51,23.51c0,0.35,0.011,0.698,0.026,1.045h-0.026
			c0,25.063,20.39,45.453,45.453,45.453V251.82c-7.523,0-14.399-2.81-19.646-7.428C336.537,243.234,345.861,233.185,345.861,220.996
			z M314.514,220.996c0-4.322,3.515-7.837,7.837-7.837c4.322,0,7.837,3.515,7.837,7.837s-3.515,7.837-7.837,7.837
			C318.029,228.833,314.514,225.318,314.514,220.996z"/>
	</g>
</g>
<g>
	<g>
		<path d="M214.204,220.996c0-12.964-10.547-23.51-23.51-23.51s-23.51,10.546-23.51,23.51c0,12.189,9.325,22.239,21.214,23.396
			c-5.247,4.618-12.123,7.428-19.646,7.428v15.673c25.063,0,45.453-20.39,45.453-45.453h-0.026
			C214.194,221.694,214.204,221.346,214.204,220.996z M190.694,228.833c-4.322,0-7.837-3.515-7.837-7.837s3.515-7.837,7.837-7.837
			c4.322,0,7.837,3.515,7.837,7.837S195.016,228.833,190.694,228.833z"/>
	</g>
</g>
<g>
	<g>
		<path d="M326.531,430.498c0,36.298-29.531,65.829-65.829,65.829h-8.359c-36.298,0-65.829-29.531-65.829-65.829h-15.673
			c0,44.94,36.561,81.502,81.502,81.502h8.359c44.941,0,81.502-36.562,81.502-81.502H326.531z"/>
	</g>
</g>
<g>
</g>
<g>
</g>
<g>
</g>
<g>
</g>
<g>
</g>
<g>
</g>
<g>
</g>
<g>
</g>
<g>
</g>
<g>
</g>
<g>
</g>
<g>
</g>
<g>
</g>
<g>
</g>
<g>
</g>
</svg>
