<?xml version="1.0" encoding="iso-8859-1"?>
<!-- Generator: Adobe Illustrator 19.0.0, SVG Export Plug-In . SVG Version: 6.00 Build 0)  -->
<svg version="1.1" id="Layer_1" xmlns="http://www.w3.org/2000/svg" xmlns:xlink="http://www.w3.org/1999/xlink" x="0px" y="0px"
	 viewBox="0 0 512 512" style="enable-background:new 0 0 512 512;" xml:space="preserve">
<g>
	<g>
		<path d="M387.344,151.82h52.425l-31.411-47.117H376.24l-44.119-46.07h-58.844v15.706h52.14l6.016,6.282h-46.639v15.706h61.679
			l8.021,8.376h-18.658v15.706h64.116l10.47,15.706H198.675v15.706h49.472v74.863h15.706V151.82h106.635
			c-3.145,8.264-6.01,16.611-8.594,25.029h-56.741v15.706h52.259c-1.006,3.827-1.944,7.667-2.836,11.517h-33.91v15.706h30.593
			c-11.798,62.009-8.971,126.337,8.721,187.519h-25.713v15.706h64.64l-10.47,15.706H197.105v15.706h199.737l31.411-47.117h-51.891
			C351.044,323.467,354.923,233.187,387.344,151.82z"/>
	</g>
</g>
<g>
	<g>
		<polygon points="357.606,462.082 325.379,496.294 187.664,496.294 179.753,487.918 226.238,487.918 226.238,472.213 
			164.922,472.213 155.382,462.111 143.963,472.893 180.894,512 332.16,512 369.037,472.85 		"/>
	</g>
</g>
<g>
	<g>
		<path d="M275.371,0c-14.722,0-26.699,11.977-26.699,26.699v54.446h15.706V26.699c0-6.062,4.932-10.994,10.994-10.994
			c6.062,0,10.994,4.932,10.994,10.994v13.611h15.706V26.699C302.07,11.977,290.092,0,275.371,0z"/>
	</g>
</g>
<g>
	<g>
		<path d="M262.652,254.231l-6.128-7.645l-6.127,7.645c-4.464,5.568-43.607,55.135-43.607,80.297
			c0,18.884,10.479,35.906,27.347,44.422l7.078-14.021c-11.547-5.829-18.72-17.478-18.72-30.401
			c0-12.986,18.904-42.434,34.029-62.565c15.124,20.13,34.029,49.578,34.029,62.565c0,13.13-7.682,25.225-19.57,30.815l6.683,14.212
			c17.369-8.166,28.593-25.841,28.593-45.028C306.259,309.365,267.116,259.799,262.652,254.231z"/>
	</g>
</g>
<g>
	<g>
		<path d="M314.896,120.409v-15.706H156.845l28.721-30.364h53.158V58.634h-59.922l-43.576,46.07h-31.585L72.231,151.82h53.472
			c32.42,81.367,36.3,171.648,10.982,255.477H82.701l31.411,47.117h62.051v-15.706h-53.645l-10.47-15.706h201.278v-15.706h-49.472
			v-62.299h-15.706v62.299h-95.079c24.274-83.941,20.569-173.813-10.509-255.477h35.176v-15.706h-76.158l10.47-15.706H314.896z"/>
	</g>
</g>
<g>
	<g>
		<rect x="293.516" y="204.078" width="19.388" height="15.706"/>
	</g>
</g>
<g>
	<g>
		<rect x="233.992" y="472.213" width="19.39" height="15.706"/>
	</g>
</g>
<g>
</g>
<g>
</g>
<g>
</g>
<g>
</g>
<g>
</g>
<g>
</g>
<g>
</g>
<g>
</g>
<g>
</g>
<g>
</g>
<g>
</g>
<g>
</g>
<g>
</g>
<g>
</g>
<g>
</g>
</svg>
