<?xml version="1.0" encoding="iso-8859-1"?>
<!-- Generator: Adobe Illustrator 19.0.0, SVG Export Plug-In . SVG Version: 6.00 Build 0)  -->
<svg version="1.1" id="Layer_1" xmlns="http://www.w3.org/2000/svg" xmlns:xlink="http://www.w3.org/1999/xlink" x="0px" y="0px"
	 viewBox="0 0 512 512" style="enable-background:new 0 0 512 512;" xml:space="preserve">
<g>
	<g>
		<path d="M337.419,278.181v38.622c0,4.317-3.511,7.829-7.829,7.829s-7.829-3.511-7.829-7.829v-18.789h-15.657v18.789
			c0,12.951,10.535,23.486,23.486,23.486s23.486-10.535,23.486-23.486v-38.622H337.419z"/>
	</g>
</g>
<g>
	<g>
		<path d="M256,0c-76.839,0-139.352,62.513-139.352,139.352c0,34.08,12.416,66.828,34.968,92.312v66.35h15.658v-111.69h-15.658
			v19.408c-10.966-17.226-17.51-36.94-18.986-57.453c14.503,11.775,31.648,23.953,62.412,23.953c22.97,0,38.347-6.789,50.702-15.13
			c-2.505,12.259-7.62,24.484-20.669,37.532c-9.722,9.722-18.728,14.749-26.486,17.614v-10.266h-15.657v75.156h15.657v-10.795
			c10.646,4.809,21.88,8.254,33.403,10.264v30.802h15.658v-28.964c2.777,0.167,5.56,0.259,8.351,0.259
			c2.451,0,4.887-0.066,7.307-0.191v165.639h15.658V276.8c9.396-1.565,18.475-4.07,27.14-7.42v18.195h15.657v-25.395
			c43.766-23.526,73.59-69.757,73.59-122.829C395.352,62.513,332.839,0,256,0z M350.897,60.106
			c16.174,19.337,26.561,43.67,28.472,70.315c-14.501-11.774-31.645-23.95-62.405-23.95c-22.972,0-38.349,6.791-50.704,15.132
			c2.505-12.261,7.619-24.487,20.669-37.538c19.569-19.569,37.286-21.3,56.043-23.133C345.565,60.678,348.22,60.414,350.897,60.106z
			 M195.042,156.575c-27.677,0-41.43-11.305-55.991-23.271c-2.026-1.666-4.117-3.359-6.242-5.046
			c2.37-26.534,13.145-50.685,29.65-69.755c1.931,18.563,5.462,39.271,27.188,60.995c16.242,16.242,31.916,22.314,46.551,25.152
			C225.756,151.547,213.495,156.575,195.042,156.575z M200.718,108.426c-19.57-19.57-21.303-37.289-23.135-56.047
			c-0.254-2.594-0.518-5.248-0.826-7.927c19.337-16.174,43.67-26.56,70.314-28.471c-11.774,14.502-23.951,31.645-23.951,62.406
			c0,22.974,6.792,38.352,15.136,50.708C225.994,126.591,213.768,121.477,200.718,108.426z M238.777,78.388
			c0-27.675,11.304-41.428,23.271-55.987c1.665-2.025,3.358-4.116,5.044-6.24c26.534,2.37,50.685,13.145,69.755,29.649
			c-18.561,1.93-39.267,5.462-60.99,27.185c-16.243,16.243-22.315,31.918-25.153,46.554
			C243.806,109.106,238.777,96.844,238.777,78.388z M249.952,256.299c-1.663,2.023-3.359,4.114-5.044,6.238
			c-16.189-1.455-31.968-6.068-46.319-13.594V228.7c14.055-4.157,26.13-11.567,37.557-22.995
			c16.242-16.242,22.314-31.916,25.152-46.551c6.897,10.44,11.925,22.701,11.925,41.155
			C273.223,227.985,261.92,241.738,249.952,256.299z M264.928,262.72c11.776-14.503,23.953-31.647,23.953-62.411
			c0-22.967-6.788-38.343-15.128-50.698c12.26,2.505,24.485,7.62,37.534,20.669c19.569,19.569,21.3,37.286,23.133,56.043
			c0.254,2.593,0.518,5.247,0.826,7.925C315.908,250.424,291.574,260.811,264.928,262.72z M349.542,220.199
			c-1.93-18.561-5.462-39.267-27.185-60.989c-16.243-16.243-31.918-22.315-46.554-25.153c10.441-6.899,22.703-11.928,41.159-11.928
			c27.674,0,41.428,11.304,55.987,23.271c2.025,1.665,4.116,3.358,6.241,5.044C376.822,176.978,366.046,201.129,349.542,220.199z"/>
	</g>
</g>
<g>
	<g>
		<polygon points="263.307,465.028 263.307,496.343 247.649,496.343 247.649,328.285 231.992,328.285 231.992,512 278.964,512 
			278.964,465.028 		"/>
	</g>
</g>
<g>
	<g>
		<path d="M182.932,288.62v38.622c0,4.317-3.511,7.829-7.829,7.829s-7.829-3.511-7.829-7.829v-18.789h-15.658v18.789
			c0,12.951,10.535,23.486,23.486,23.486s23.486-10.535,23.486-23.486V288.62H182.932z"/>
	</g>
</g>
<g>
</g>
<g>
</g>
<g>
</g>
<g>
</g>
<g>
</g>
<g>
</g>
<g>
</g>
<g>
</g>
<g>
</g>
<g>
</g>
<g>
</g>
<g>
</g>
<g>
</g>
<g>
</g>
<g>
</g>
</svg>
