<?xml version="1.0" encoding="iso-8859-1"?>
<!-- Generator: Adobe Illustrator 19.0.0, SVG Export Plug-In . SVG Version: 6.00 Build 0)  -->
<svg version="1.1" id="Layer_1" xmlns="http://www.w3.org/2000/svg" xmlns:xlink="http://www.w3.org/1999/xlink" x="0px" y="0px"
	 viewBox="0 0 512 512" style="enable-background:new 0 0 512 512;" xml:space="preserve">
<g>
	<g>
		<polygon points="294.651,77.503 256.4,0 218.149,77.503 130.951,33.69 192.761,228.097 207.693,223.349 157.156,64.394 
			225.217,98.591 256.4,35.407 287.583,98.591 355.645,64.394 305.106,223.349 320.04,228.097 381.849,33.69 		"/>
	</g>
</g>
<g>
	<g>
		<polygon points="511.857,268.514 434.352,230.263 478.166,143.065 337.72,187.718 342.468,202.651 447.463,169.269 
			413.266,237.331 476.451,268.514 413.266,299.697 447.463,367.759 288.508,317.222 283.76,332.155 478.166,393.963 
			434.352,306.765 		"/>
	</g>
</g>
<g>
	<g>
		<polygon points="228.239,332.155 223.491,317.222 64.536,367.759 98.734,299.697 35.548,268.514 98.734,237.331 64.536,169.269 
			168.481,202.318 173.229,187.384 33.834,143.065 77.647,230.263 0.143,268.514 77.647,306.765 33.834,393.963 		"/>
	</g>
</g>
<g>
	<g>
		<path d="M263.313,464.99v23.505c0,4.321-3.514,7.835-7.835,7.835c-4.321,0-7.835-3.514-7.835-7.835V359.48h-15.67v129.015
			c0,12.96,10.545,23.505,23.505,23.505s23.505-10.545,23.505-23.505V464.99H263.313z"/>
	</g>
</g>
<g>
	<g>
		<rect x="263.316" y="300.976" width="15.67" height="143.118"/>
	</g>
</g>
<g>
	<g>
		<rect x="231.976" y="300.976" width="15.67" height="37.608"/>
	</g>
</g>
<g>
	<g>
		<polygon points="304.941,127.195 264.235,173.824 264.235,96.227 248.565,96.227 248.565,143.386 198.553,99.726 188.248,111.532 
			248.565,164.188 248.565,211.139 264.235,211.139 264.235,197.652 316.747,137.501 		"/>
	</g>
</g>
<g>
	<g>
		<rect x="248.565" y="59.66" width="15.67" height="26.116"/>
	</g>
</g>
<g>
	<g>
		<rect x="60.652" y="260.443" width="26.116" height="15.67"/>
	</g>
</g>
<g>
	<g>
		<polygon points="212.625,260.44 199.377,260.477 139.182,207.929 128.877,219.734 175.624,260.543 97.713,260.76 97.755,276.43 
			144.903,276.299 101.409,326.122 113.214,336.428 165.756,276.241 212.668,276.11 		"/>
	</g>
</g>
<g>
	<g>
		<rect x="425.76" y="260.443" width="26.116" height="15.67"/>
	</g>
</g>
<g>
	<g>
		<polygon points="415.31,260.44 337.538,260.44 384.167,219.734 373.861,207.929 313.708,260.44 300.398,260.44 300.398,276.11 
			347.173,276.11 399.829,336.428 411.635,326.122 367.976,276.11 415.31,276.11 		"/>
	</g>
</g>
<g>
</g>
<g>
</g>
<g>
</g>
<g>
</g>
<g>
</g>
<g>
</g>
<g>
</g>
<g>
</g>
<g>
</g>
<g>
</g>
<g>
</g>
<g>
</g>
<g>
</g>
<g>
</g>
<g>
</g>
</svg>
