<?xml version="1.0" encoding="iso-8859-1"?>
<!-- Generator: Adobe Illustrator 19.0.0, SVG Export Plug-In . SVG Version: 6.00 Build 0)  -->
<svg version="1.1" id="Layer_1" xmlns="http://www.w3.org/2000/svg" xmlns:xlink="http://www.w3.org/1999/xlink" x="0px" y="0px"
	 viewBox="0 0 512 512" style="enable-background:new 0 0 512 512;" xml:space="preserve">
<g>
	<g>
		<path d="M222.57,89.576l3.114,15.363c10.082-2.044,20.458-3.08,30.839-3.08V86.183C245.099,86.183,233.676,87.325,222.57,89.576z"
			/>
	</g>
</g>
<g>
	<g>
		<path d="M205.801,110.384l-5.15-14.806c-37.861,13.168-70.003,39.476-90.505,74.079l1.858,1.101h-2.8
			c-5.699,14.342-9.485,18.128-23.827,23.827v14.567c2.623,1.042,4.89,2.02,6.883,3.011c-3.826,14.305-5.765,29.09-5.765,44.047
			h15.675c0-10.674,1.112-21.243,3.26-31.583c1.257,2.33,2.464,5.06,3.773,8.352h14.567c5.699-14.342,9.485-18.128,23.827-23.827
			v-14.568c-12.924-5.135-17.276-8.722-22.182-19.875C144.088,144.736,172.51,121.962,205.801,110.384z M127.319,201.868
			c-4.415,2.985-7.846,6.415-10.831,10.831c-2.985-4.415-6.416-7.846-10.831-10.831c4.415-2.985,7.846-6.417,10.831-10.831
			C119.473,195.453,122.905,198.883,127.319,201.868z"/>
	</g>
</g>
<g>
	<g>
		<path d="M491.48,317.866c0.489-4.106,0.742-8.252,0.742-12.4c0-57.203-46.537-103.742-103.741-103.742
			c-35.16,0-68.128,18.074-87.158,47.468c-0.009,0-0.018,0-0.026,0c-39.36,0-71.781,30.22-75.314,68.674h-19.621v15.675h229.114
			c-6.171,14.271-14.025,27.727-23.458,40.179c-5.484-5.113-9.117-11.807-13.404-22.591h-14.567
			c-8.108,20.403-13.874,26.17-34.277,34.277v14.567c10.623,4.222,17.273,7.813,22.357,13.16
			c-7.77,5.736-15.928,10.863-24.417,15.365c-13.984-5.603-17.757-9.458-23.397-23.654h-14.568
			c-5.7,14.343-9.486,18.128-23.827,23.827v14.567c3.565,1.416,6.476,2.715,8.928,4.086c-12.564,2.503-25.4,3.783-38.325,3.783
			c-39.416,0-77.716-11.939-109.943-33.963h100.538v-15.675h-14.545c-3.672-30.777-29.732-54.78-61.388-55.176
			c-15.721-23.782-42.606-38.369-71.259-38.369c-47.062,0-85.35,38.288-85.35,85.349c0,2.739,0.14,5.476,0.4,8.197H0.491v15.675
			h120.248c37.924,32.024,86.029,49.639,135.784,49.639c17.079,0,34.023-2.051,50.46-6.094c0.906,1.87,1.808,3.971,2.763,6.375
			h14.567c2.619-6.591,4.835-10.949,7.857-14.292c17.26-6.645,33.522-15.52,48.477-26.453c1.118,2.377,2.235,4.998,3.401,7.93
			h14.567c8.108-20.402,13.874-26.169,34.277-34.277v-14.565c-2.799-1.112-5.313-2.18-7.605-3.248
			c11.197-14.971,20.293-31.269,27.142-48.617h59.082v-15.675H491.48z M30.747,401.467c-0.318-2.713-0.497-5.452-0.497-8.196
			c0-38.418,31.256-69.673,69.674-69.673c24.678,0,47.749,13.257,60.211,34.6l2.437,4.173l4.823-0.303
			c1.152-0.072,2.103-0.107,2.993-0.107c23.359,0,42.782,17.143,46.369,39.506H30.747z M317.03,446.786
			c-2.986-4.417-6.416-7.847-10.832-10.832c4.415-2.985,7.846-6.415,10.832-10.832c2.985,4.416,6.417,7.847,10.831,10.832
			C323.446,438.939,320.015,442.371,317.03,446.786z M391.331,412.956c-5.22-9.008-11.257-15.046-20.267-20.267
			c9.007-5.219,15.047-11.258,20.267-20.266c5.219,9.008,11.259,15.047,20.267,20.266
			C402.588,397.91,396.551,403.948,391.331,412.956z M475.662,317.866h-233.92c3.468-29.794,28.845-52.999,59.554-52.999
			c1.137,0,2.35,0.043,3.82,0.136l4.823,0.303l2.437-4.173c15.752-26.976,44.914-43.734,76.105-43.734
			c48.559,0,88.066,39.506,88.066,88.067C476.546,309.623,476.237,313.773,475.662,317.866z"/>
	</g>
</g>
<g>
	<g>
		<path d="M427.248,0h-14.567c-5.7,14.343-9.486,18.128-23.827,23.827v14.567c14.342,5.7,18.127,9.485,23.827,23.827h14.567
			c5.699-14.341,9.484-18.127,23.827-23.827V23.827C436.732,18.128,432.946,14.342,427.248,0z M419.965,41.941
			c-2.985-4.415-6.418-7.847-10.832-10.832c4.415-2.985,7.846-6.414,10.832-10.832c2.985,4.416,6.416,7.847,10.832,10.832
			C426.379,34.095,422.949,37.526,419.965,41.941z"/>
	</g>
</g>
<g>
	<g>
		<path d="M474.901,67.3h-14.567c-5.699,14.342-9.485,18.128-23.827,23.827v14.568c14.342,5.699,18.128,9.485,23.827,23.827h14.567
			c5.699-14.342,9.485-18.128,23.827-23.827V91.126C484.386,85.428,480.6,81.642,474.901,67.3z M467.618,109.241
			c-2.985-4.415-6.417-7.846-10.831-10.831c4.414-2.986,7.845-6.416,10.831-10.831c2.985,4.415,6.417,7.846,10.831,10.831
			C474.034,101.395,470.603,104.827,467.618,109.241z"/>
	</g>
</g>
<g>
	<g>
		<path d="M425.561,130.661c2.732-1.344,5.803-2.671,9.315-4.067v-14.567c-20.403-8.108-26.17-13.874-34.277-34.277h-14.567
			c-1.396,3.514-2.724,6.586-4.068,9.319c-36.103-26.776-80.303-41.432-125.442-41.432c-33.542,0-65.606,7.655-95.302,22.752
			c-26.37,13.406-49.971,32.571-68.621,55.649c-8.559-4.358-11.906-9.069-16.48-20.581H61.552
			c-5.7,14.343-9.486,18.128-23.827,23.827v14.567c14.342,5.7,18.127,9.485,23.827,23.827h4.794
			c-4.35,9.122-8.035,18.545-11.027,28.245c-1.977-3.514-3.84-7.665-5.847-12.715H34.903c-8.108,20.402-13.874,26.169-34.277,34.277
			v14.567c20.403,8.109,26.17,13.876,34.277,34.278h11.219c0.525,13.759,2.362,27.42,5.52,40.716l15.251-3.623
			c-3.497-14.722-5.269-29.934-5.269-45.213c0-4.573,0.17-9.182,0.487-13.739c4.991-4.946,11.51-8.395,21.636-12.419v-14.566
			c-6.729-2.674-11.86-5.096-16.014-7.87c6.008-23.447,16.244-45.297,30.454-65.051c0.57-0.235,1.152-0.472,1.758-0.713v-4.008
			l1.095,0.829c17.803-23.512,41.069-42.984,67.283-56.31c27.475-13.968,57.148-21.051,88.198-21.051
			c41.948,0,83.017,13.677,116.504,38.649c-4.944,4.757-11.388,8.14-21.269,12.067v14.567c20.402,8.108,26.169,13.874,34.277,34.277
			h14.567c3.928-9.886,7.311-16.331,12.071-21.276c15.646,20.949,27.092,45.128,33.236,70.393l15.232-3.705
			C454.543,179.158,442.293,153.193,425.561,130.661z M42.187,243.036c-5.22-9.009-11.258-15.047-20.267-20.267
			c9.009-5.22,15.047-11.258,20.267-20.267c5.219,9.007,11.258,15.047,20.267,20.267C53.446,227.987,47.407,234.028,42.187,243.036z
			 M68.835,145.4c-2.985-4.415-6.418-7.847-10.832-10.832c4.415-2.985,7.846-6.415,10.832-10.832
			c2.985,4.416,6.417,7.847,10.832,10.832C75.25,137.554,71.82,140.985,68.835,145.4z M393.317,139.578
			c-5.22-9.009-11.258-15.047-20.267-20.267c9.008-5.22,15.046-11.257,20.267-20.267c5.219,9.008,11.258,15.048,20.267,20.267
			C404.576,124.53,398.537,130.57,393.317,139.578z"/>
	</g>
</g>
<g>
	<g>
		<path d="M371.966,449.78h-14.567c-5.699,14.342-9.485,18.128-23.827,23.827v14.567c14.342,5.699,18.128,9.485,23.827,23.827
			h14.567c5.699-14.342,9.485-18.128,23.827-23.827v-14.567C381.451,467.908,377.665,464.122,371.966,449.78z M364.683,491.721
			c-2.985-4.415-6.417-7.846-10.831-10.831c4.415-2.985,7.846-6.417,10.831-10.831c2.985,4.415,6.416,7.846,10.831,10.831
			C371.098,483.875,367.668,487.307,364.683,491.721z"/>
	</g>
</g>
<g>
	<g>
		<path d="M386.154,227.851c-0.798-0.001-1.595,0.013-2.387,0.038l0.496,15.667c0.627-0.02,1.257-0.03,1.89-0.03
			c6.277,0,12.442,1.017,18.325,3.021l5.056-14.838C402.022,229.148,394.155,227.851,386.154,227.851z"/>
	</g>
</g>
<g>
	<g>
		<path d="M427.12,240.538l-8.874,12.922c15.452,10.61,24.676,28.119,24.676,46.833h15.675
			C458.598,276.412,446.829,254.073,427.12,240.538z"/>
	</g>
</g>
<g>
	<g>
		<path d="M98.938,335.487c-5.966,0-11.833,0.969-17.438,2.878l5.056,14.838c4.373-1.49,9.027-2.167,13.66-2.02l0.504-15.667
			C100.128,335.498,99.533,335.487,98.938,335.487z"/>
	</g>
</g>
<g>
	<g>
		<path d="M68.382,344.953c-14.701,10.095-23.478,26.756-23.478,44.569H60.58c0-12.647,6.234-24.478,16.674-31.648L68.382,344.953z"
			/>
	</g>
</g>
<g>
</g>
<g>
</g>
<g>
</g>
<g>
</g>
<g>
</g>
<g>
</g>
<g>
</g>
<g>
</g>
<g>
</g>
<g>
</g>
<g>
</g>
<g>
</g>
<g>
</g>
<g>
</g>
<g>
</g>
</svg>
