<?xml version="1.0" encoding="iso-8859-1"?>
<!-- Generator: Adobe Illustrator 19.0.0, SVG Export Plug-In . SVG Version: 6.00 Build 0)  -->
<svg version="1.1" id="Layer_1" xmlns="http://www.w3.org/2000/svg" xmlns:xlink="http://www.w3.org/1999/xlink" x="0px" y="0px"
	 viewBox="0 0 512 512" style="enable-background:new 0 0 512 512;" xml:space="preserve">
<g>
	<g>
		<path d="M256,0C155.46,0,73.665,81.795,73.665,182.335v147.331C73.665,430.205,155.46,512,256,512s182.335-81.795,182.335-182.335
			V182.335C438.335,81.795,356.54,0,256,0z M125.95,78.238h51.718l-11.585,11.585l11.082,11.082l69.102-69.102L235.186,20.72
			l-41.843,41.843h-53.107c30.003-29.01,70.833-46.89,115.764-46.89c21.359,0,41.789,4.044,60.573,11.397l-97.533,97.534h-65.574
			l13.25-13.25l-11.082-11.082l-24.334,24.334H99.653C105.918,107.691,114.858,92.067,125.95,78.238z M89.339,329.665V326.4h52.115
			L95.02,372.834C91.322,359.059,89.339,344.591,89.339,329.665z M388.361,430.816l-17.353-17.353l-11.083,11.082l18.296,18.296
			c-10.581,11.417-22.729,21.358-36.109,29.466l-83.867-83.867h65.574l25.657,25.657l11.083-11.082l-14.574-14.574h65.963
			C406.155,403.766,398.165,418.019,388.361,430.816z M422.661,248.686h-28.473v15.673h28.473v65.306
			c0,14.901-1.977,29.347-5.663,43.102H204.991l46.367-46.367h81.18v-15.673h-65.507l29.815-29.815l-11.083-11.082L160.859,394.734
			l11.082,11.083l17.376-17.376h46.763l91.644,91.644c-21.736,10.405-46.06,16.241-71.724,16.241
			c-44.392,0-84.784-17.449-114.684-45.845h128.529v-15.673H142.95l18.543-18.543l-11.082-11.083l-26.277,26.277
			c-9.792-12.656-17.804-26.75-23.662-41.912L225.66,264.359h158.078v-15.673H280.294v-34.482H264.62v34.482h-17.763v-13.584
			h-15.674v13.584H103.706v15.673h99.789l-46.367,46.367H89.339V182.335c0-14.523,1.872-28.617,5.379-42.057h191.845v-15.674
			h-45.358l46.367-46.367h27.203V62.563h-11.529l28.606-28.606c14.703,7.547,28.138,17.222,39.913,28.606h-45.496v15.673h59.78
			c22.894,28.543,36.612,64.746,36.612,104.098V248.686z"/>
	</g>
</g>
<g>
	<g>
		<rect x="298.057" y="124.604" width="104.49" height="15.674"/>
	</g>
</g>
<g>
	<g>
		<rect x="342.988" y="310.721" width="66.873" height="15.673"/>
	</g>
</g>
<g>
	<g>
		<path d="M327.314,164.049v15.673h54.335v9.404h-90.906V204.8h13.503c3.036,17.124,18.018,30.171,35.999,30.171
			c17.981,0,32.962-13.048,35.999-30.171h21.079v-40.751H327.314z M340.245,219.298c-9.29,0-17.176-6.098-19.886-14.498h39.773
			C357.421,213.2,349.535,219.298,340.245,219.298z"/>
	</g>
</g>
<g>
	<g>
		<rect x="290.743" y="164.049" width="26.122" height="15.673"/>
	</g>
</g>
<g>
	<g>
		<path d="M130.873,189.127v-17.763H115.2V204.8h21.316c2.983,17.188,17.995,30.302,36.023,30.302
			c18.028,0,33.04-13.115,36.023-30.302h22.622v19.853h15.674v-35.527H130.873z M172.539,219.429
			c-9.339,0-17.265-6.16-19.935-14.629h39.868C189.804,213.269,181.878,219.429,172.539,219.429z"/>
	</g>
</g>
<g>
</g>
<g>
</g>
<g>
</g>
<g>
</g>
<g>
</g>
<g>
</g>
<g>
</g>
<g>
</g>
<g>
</g>
<g>
</g>
<g>
</g>
<g>
</g>
<g>
</g>
<g>
</g>
<g>
</g>
</svg>
