<?xml version="1.0" encoding="iso-8859-1"?>
<!-- Generator: Adobe Illustrator 19.0.0, SVG Export Plug-In . SVG Version: 6.00 Build 0)  -->
<svg version="1.1" id="Layer_1" xmlns="http://www.w3.org/2000/svg" xmlns:xlink="http://www.w3.org/1999/xlink" x="0px" y="0px"
	 viewBox="0 0 512 512" style="enable-background:new 0 0 512 512;" xml:space="preserve">
<g>
	<g>
		<circle cx="201.529" cy="209.314" r="19.331"/>
	</g>
</g>
<g>
	<g>
		<circle cx="311.244" cy="209.314" r="19.331"/>
	</g>
</g>
<g>
	<g>
		<path d="M409.338,48.514c-37.092,21.421-92.552,33.707-152.16,33.707c-60.524,0-117.841-12.859-153.324-34.396l-11.902-7.227
			V98.22h15.673V67.806c38.115,19.222,91.654,30.089,149.553,30.089c56.347,0,109.454-10.685,148.243-29.575V98.22h15.673V41.725
			L409.338,48.514z"/>
	</g>
</g>
<g>
	<g>
		<path d="M150.643,406.634l-8.721,13.025c7.021,4.7,14.564,8.633,22.42,11.688l5.681-14.608
			C163.233,414.098,156.713,410.698,150.643,406.634z"/>
	</g>
</g>
<g>
	<g>
		<path d="M150.645,362.75l-8.72,13.025c7.019,4.699,14.561,8.631,22.417,11.687l5.681-14.609
			C163.233,370.213,156.713,366.814,150.645,362.75z"/>
	</g>
</g>
<g>
	<g>
		<path d="M150.645,318.865l-8.719,13.025c7.02,4.699,14.562,8.631,22.415,11.686l5.682-14.609
			C163.235,326.328,156.715,322.928,150.645,318.865z"/>
	</g>
</g>
<g>
	<g>
		<rect x="262.269" y="317.649" width="26.122" height="15.673"/>
	</g>
</g>
<g>
	<g>
		<path d="M83.976,88.177L72.757,77.232C25.839,125.317,0,188.804,0,256c0,47.314,13.011,93.536,37.626,133.667l13.36-8.195
			C27.885,343.808,15.673,300.421,15.673,256C15.673,192.918,39.931,133.318,83.976,88.177z"/>
	</g>
</g>
<g>
	<g>
		<path d="M64.868,401.711l-12.457,9.513c6.018,7.88,12.563,15.493,19.457,22.628l11.272-10.89
			C76.666,416.26,70.518,409.111,64.868,401.711z"/>
	</g>
</g>
<g>
	<g>
		<path d="M440.132,78.148l-11.272,10.89c43.506,45.033,67.467,104.328,67.467,166.962c0,64.193-24.998,124.544-70.39,169.937
			c-45.393,45.391-105.744,70.39-169.937,70.39c-42.874,0-84.095-11.138-120.59-32.392h46.171l0.329,0.846
			c0.694-0.27,1.374-0.563,2.062-0.846h13.153c123.496,0,223.969-100.146,223.969-223.24V120.163H405.42v12.391
			c-13.24-6.894-27.994-10.488-43.377-10.488c-44.297,0-77.985,24.61-97.422,71.168c-3.21,7.69-5.773,15.355-7.818,22.628
			c-2.004-7.267-4.528-14.921-7.703-22.603c-19.253-46.575-53.085-71.194-97.838-71.194c-15.485,0-30.331,3.647-43.638,10.63
			v-11.488H91.951v342.727h14.709C150.357,495.38,201.947,512,256,512c68.38,0,132.668-26.628,181.019-74.981
			C485.371,388.667,512,324.38,512,256C512,189.281,486.476,126.118,440.132,78.148z M311.249,175.879
			c18.437,0,33.437,15,33.437,33.437c0,18.437-15,33.437-33.437,33.437c-18.437,0-33.437-15-33.437-33.437
			C277.812,190.88,292.812,175.879,311.249,175.879z M244.721,232.679c3.602,17.243,4.092,29.982,4.098,30.181l15.664,0.066
			c0.008-0.198,0.564-12.494,4.114-29.313c8.468,14.806,24.408,24.813,42.652,24.813c27.08,0,49.11-22.031,49.11-49.11
			c0-27.08-22.031-49.11-49.11-49.11c-2.487,0-4.931,0.189-7.32,0.548c15.499-15.289,34.924-23.013,58.114-23.013
			c15.719,0,30.628,4.496,43.377,13.019v89.933c0,27.177-5.277,53.146-14.849,76.955h-91.731v15.673h84.65
			c-1.778,3.54-3.646,7.028-5.617,10.449H275.853v15.673h92.011c-2.506,3.566-5.119,7.051-7.839,10.449h-63.274v15.673h49.385
			c-34.67,35.402-81.891,58.537-134.421,62.177c8.91-7.034,16.794-15.389,23.4-24.874c13.577-19.489,20.754-42.388,20.754-66.224
			c0-41.331-21.735-77.676-54.371-98.221c0.013,0,0.024,0.001,0.037,0.001C220.162,258.425,236.4,248,244.721,232.679z
			 M234.972,209.316c0,18.437-15,33.437-33.437,33.437c-18.437,0-33.437-15-33.437-33.437c0-18.437,15-33.437,33.437-33.437
			C219.973,175.879,234.972,190.88,234.972,209.316z M107.623,150.932c12.807-8.637,27.812-13.192,43.639-13.192
			c23.565,0,43.217,7.793,58.791,23.22c-2.769-0.487-5.612-0.754-8.519-0.754c-27.08,0-49.11,22.031-49.11,49.11
			c0,13.412,5.409,25.58,14.154,34.452c-8.573-2.027-17.509-3.105-26.693-3.105c-11.03,0-21.834,1.533-32.262,4.552V150.932z
			 M107.625,384.138c6.205,10.03,13.976,19.155,23.146,27.042l10.22-11.882c-17.7-15.227-29.355-35.776-33.366-58.466v-0.618
			c6.203,10.038,13.96,19.168,23.1,27.038l10.226-11.877c-17.617-15.169-29.303-35.732-33.326-58.375v-0.777
			c6.233,10.114,13.998,19.309,23.095,27.142l10.227-11.877c-15.388-13.252-26.419-30.966-31.565-50.424
			c9.814-3.134,20.039-4.725,30.505-4.725c55.312,0,100.31,44.999,100.31,100.31c0,20.615-6.205,40.417-17.941,57.266
			c-10.531,15.118-24.808,26.908-41.484,34.349h-73.147V384.138z"/>
	</g>
</g>
<g>
	<g>
		<path d="M256,0c-47.021,0-92.998,12.862-132.957,37.192l8.151,13.388C168.697,27.744,211.854,15.673,256,15.673
			c44.826,0,88.553,12.421,126.453,35.917l8.259-13.32C350.329,13.234,303.748,0,256,0z"/>
	</g>
</g>
<g>
	<g>
		<path d="M461.892,241.888l-15.638,1.057c0.292,4.315,0.44,8.707,0.44,13.055c0,43.487-14.254,84.438-41.221,118.428l12.279,9.741
			c29.188-36.788,44.616-81.107,44.616-128.168C462.367,251.301,462.207,246.553,461.892,241.888z"/>
	</g>
</g>
<g>
	<g>
		<path d="M456.003,204.953l-15.189,3.865c1.592,6.255,2.878,12.67,3.822,19.067l15.505-2.289
			C459.12,218.67,457.727,211.726,456.003,204.953z"/>
	</g>
</g>
<g>
</g>
<g>
</g>
<g>
</g>
<g>
</g>
<g>
</g>
<g>
</g>
<g>
</g>
<g>
</g>
<g>
</g>
<g>
</g>
<g>
</g>
<g>
</g>
<g>
</g>
<g>
</g>
<g>
</g>
</svg>
