<?xml version="1.0" encoding="iso-8859-1"?>
<!-- Generator: Adobe Illustrator 19.0.0, SVG Export Plug-In . SVG Version: 6.00 Build 0)  -->
<svg version="1.1" id="Layer_1" xmlns="http://www.w3.org/2000/svg" xmlns:xlink="http://www.w3.org/1999/xlink" x="0px" y="0px"
	 viewBox="0 0 512 512" style="enable-background:new 0 0 512 512;" xml:space="preserve">
<g>
	<g>
		<path d="M436.057,87.453c-48.195-34.7-112.14-53.81-180.057-53.81c-36.118,0-71.029,5.354-103.761,15.913l4.812,14.916
			c31.175-10.056,64.466-15.155,98.949-15.155c132.516,0,240.327,76.639,240.327,170.841c0,32.676-13.091,64.463-37.858,91.927
			l11.639,10.496C497.515,292.19,512,256.773,512,220.157C512,169.842,485.03,122.713,436.057,87.453z"/>
	</g>
</g>
<g>
	<g>
		<path d="M141.514,53.232c-7.311,2.662-14.535,5.616-21.471,8.781l6.509,14.259c6.562-2.995,13.401-5.791,20.323-8.311
			L141.514,53.232z"/>
	</g>
</g>
<g>
	<g>
		<path d="M341.714,379.776c-27.346,7.446-56.183,11.222-85.714,11.222c-132.516,0-240.327-76.639-240.327-170.841
			c0-52.152,33.022-100.823,90.598-133.535l-7.743-13.629C35.912,108.569,0,162.208,0,220.157
			c0,50.315,26.971,97.444,75.943,132.704c48.195,34.7,112.14,53.81,180.057,53.81c30.922,0,61.145-3.961,89.832-11.773
			L341.714,379.776z"/>
	</g>
</g>
<g>
	<g>
		<polygon points="435.2,316.29 435.2,440.518 348.268,353.585 337.183,364.669 450.873,478.357 450.873,316.29 		"/>
	</g>
</g>
<g>
	<g>
		<path d="M430.292,139.248c-20.056-23.058-48.319-41.712-81.736-53.946l-5.388,14.718c30.936,11.326,56.974,28.448,75.299,49.513
			c18.465,21.23,28.227,45.651,28.227,70.623h15.674C462.367,191.35,451.276,163.372,430.292,139.248z"/>
	</g>
</g>
<g>
	<g>
		<path d="M316.214,75.873l-3.394,15.303c6.856,1.52,13.665,3.339,20.241,5.408l4.704-14.951
			C330.759,79.429,323.508,77.491,316.214,75.873z"/>
	</g>
</g>
<g>
	<g>
		<path d="M90.402,285.805c-18.466-21.229-28.228-45.651-28.228-70.623H46.501c0,28.807,11.092,56.785,32.075,80.91
			c20.056,23.057,48.319,41.711,81.736,53.945l5.388-14.718C134.764,323.992,108.726,306.871,90.402,285.805z"/>
	</g>
</g>
<g>
	<g>
		<path d="M175.807,338.754l-4.704,14.951c7.006,2.204,14.257,4.142,21.551,5.759l3.394-15.302
			C189.193,342.642,182.383,340.823,175.807,338.754z"/>
	</g>
</g>
<g>
	<g>
		<path d="M151.046,230.27c-2.444-3.199-5.763-5.418-9.957-6.655c3.438-1.513,6.052-3.835,7.841-6.965
			c1.789-3.129,2.682-6.484,2.682-10.06c0-2.271-0.395-4.522-1.185-6.758c-0.792-2.235-1.91-4.232-3.355-5.985
			c-1.443-1.754-3.198-3.182-5.261-4.283c-2.065-1.099-4.369-1.651-6.914-1.651h-39.21v73.261h35.393
			c3.232,0,6.277-0.413,9.131-1.238c2.853-0.825,5.366-2.028,7.532-3.611c2.168-1.581,3.869-3.542,5.107-5.882
			c1.239-2.337,1.858-5.055,1.858-8.151C154.709,237.477,153.486,233.469,151.046,230.27z M109.926,200.089h19.605
			c2.271,0,4.179,0.824,5.727,2.476c1.549,1.651,2.321,3.887,2.321,6.707c0,2.889-0.842,5.16-2.528,6.81
			c-1.688,1.651-3.732,2.476-6.14,2.476h-18.986V200.089z M139.644,243.322c-2.541,6.181-8.666,5.778-14.198,5.778
			c-4.935,0-9.869,0-14.804,0c-0.238,0-0.476,0-0.716,0v-19.295h21.876c1.237,0,2.372,0.258,3.404,0.774s1.926,1.221,2.682,2.115
			c1.52,1.795,2.477,4.567,2.477,6.913C140.366,240.915,140.125,242.153,139.644,243.322z"/>
	</g>
</g>
<g>
	<g>
		<path d="M230.343,211.128c-1.721-4.471-4.127-8.462-7.223-11.969c-3.095-3.509-6.827-6.346-11.194-8.512
			c-4.37-2.168-9.201-3.251-14.497-3.251c-5.16,0-9.941,1.016-14.342,3.044c-4.403,2.03-8.205,4.764-11.403,8.202
			c-3.198,3.441-5.711,7.396-7.532,11.867c-1.824,4.472-2.736,9.149-2.736,14.033c0,4.679,0.86,9.253,2.581,13.725
			c1.717,4.471,4.143,8.445,7.273,11.918c3.128,3.474,6.879,6.26,11.247,8.357c4.368,2.099,9.235,3.147,14.6,3.147
			c5.159,0,9.939-1.015,14.342-3.045c4.401-2.028,8.185-4.746,11.349-8.152c3.164-3.404,5.639-7.325,7.43-11.763
			c1.787-4.437,2.682-9.096,2.682-13.981C232.921,220.14,232.059,215.601,230.343,211.128z M217.184,233.467
			c-2.8,8.812-10.336,15.632-19.965,15.632c-6.162,0.002-11.845-2.77-15.702-7.558c-5.491-6.818-6.867-17.728-4.264-25.924
			c2.825-8.897,10.423-15.528,19.966-15.529c5.787,0,11.996,2.901,15.632,7.428C218.619,214.7,219.94,224.799,217.184,233.467z"/>
	</g>
</g>
<g>
	<g>
		<path d="M308.347,211.129c-1.719-4.471-4.127-8.462-7.222-11.969c-3.097-3.509-6.829-6.346-11.196-8.512
			c-4.369-2.168-9.201-3.251-14.498-3.251c-5.16,0-9.941,1.016-14.342,3.044c-4.403,2.03-8.202,4.764-11.403,8.202
			c-3.198,3.441-5.709,7.396-7.532,11.867c-1.824,4.472-2.733,9.149-2.733,14.033c0,4.679,0.858,9.253,2.579,13.725
			c1.719,4.471,4.143,8.445,7.276,11.918c3.13,3.472,6.879,6.259,11.247,8.356c4.367,2.099,9.235,3.147,14.6,3.147
			c5.16,0,9.939-1.015,14.342-3.044c4.401-2.028,8.185-4.746,11.351-8.152c3.162-3.404,5.639-7.325,7.428-11.763
			c1.789-4.437,2.684-9.096,2.684-13.981C310.928,220.141,310.067,215.602,308.347,211.129z M295.193,233.47
			c-0.929,2.925-2.305,5.555-4.127,7.893c-3.835,4.918-9.616,7.74-15.84,7.74c-6.125,0-11.902-2.758-15.736-7.533
			c-5.739-7.15-6.965-17.348-4.23-25.952c2.811-8.842,10.329-15.528,19.967-15.528c5.932,0,11.818,2.681,15.633,7.428
			C296.631,214.699,297.946,224.804,295.193,233.47z"/>
	</g>
</g>
<g>
	<g>
		<path d="M386.354,211.13c-1.721-4.471-4.127-8.462-7.224-11.969c-3.095-3.509-6.826-6.346-11.194-8.512
			c-4.369-2.168-9.201-3.251-14.498-3.251c-5.16,0-9.941,1.016-14.342,3.044c-4.4,2.029-8.202,4.763-11.4,8.201
			c-3.197,3.441-5.711,7.396-7.532,11.867c-1.824,4.472-2.736,9.149-2.736,14.033c0,4.679,0.86,9.253,2.581,13.725
			c1.717,4.471,4.143,8.445,7.273,11.918c3.128,3.474,6.879,6.26,11.247,8.357c4.368,2.099,9.235,3.147,14.6,3.147
			c5.16,0,9.939-1.015,14.342-3.044c4.401-2.028,8.185-4.746,11.349-8.152c3.164-3.404,5.64-7.325,7.43-11.763
			c1.787-4.437,2.681-9.096,2.681-13.981C388.933,220.142,388.072,215.603,386.354,211.13z M362.366,246.986
			c-5.208,2.774-12.942,2.766-18.162,0.052c-8.239-4.284-12.33-13.504-12.33-22.495c0-3.026,0.465-6,1.393-8.924
			c1.7-5.355,5.653-10.718,10.783-13.413c2.874-1.512,6.036-2.207,9.184-2.17c5.941,0.07,11.83,2.749,15.631,7.481
			c3.564,4.44,5.727,11.349,5.727,17.026C374.592,233.449,370.455,242.677,362.366,246.986z"/>
	</g>
</g>
<g>
	<g>
		<rect x="401.209" y="187.193" width="13.827" height="46.435"/>
	</g>
</g>
<g>
	<g>
		<rect x="401.209" y="245.593" width="13.827" height="15.58"/>
	</g>
</g>
<g>
</g>
<g>
</g>
<g>
</g>
<g>
</g>
<g>
</g>
<g>
</g>
<g>
</g>
<g>
</g>
<g>
</g>
<g>
</g>
<g>
</g>
<g>
</g>
<g>
</g>
<g>
</g>
<g>
</g>
</svg>
