<?xml version="1.0" encoding="iso-8859-1"?>
<!-- Generator: Adobe Illustrator 19.0.0, SVG Export Plug-In . SVG Version: 6.00 Build 0)  -->
<svg version="1.1" id="Layer_1" xmlns="http://www.w3.org/2000/svg" xmlns:xlink="http://www.w3.org/1999/xlink" x="0px" y="0px"
	 viewBox="0 0 512 512" style="enable-background:new 0 0 512 512;" xml:space="preserve">
<g>
	<g>
		<polygon points="422.715,181.474 422.715,180.737 439.862,180.737 439.862,165.111 422.715,165.111 422.715,161.556 
			506.669,136.662 502.227,121.682 422.715,145.258 422.715,140.424 462.525,117.389 454.699,103.866 422.715,122.373 
			422.715,102.131 342.222,110.003 343.743,125.555 407.089,119.36 407.089,218.622 339.36,202.834 345.684,255.219 
			308.606,255.219 308.606,270.844 347.569,270.844 348.827,281.261 285.689,281.261 285.689,296.887 350.713,296.887 
			351.971,307.304 306.523,307.304 306.523,322.93 353.857,322.93 357.185,350.508 320.454,336.405 279.056,373.573 234.624,318.03 
			192.465,362.643 198.367,308.674 182.835,306.976 175.79,371.383 154.488,357.41 172.892,202.809 105.952,218.596 
			105.952,187.508 146.1,187.508 146.1,171.882 105.952,171.882 105.952,161.465 170.059,161.465 170.059,145.839 105.952,145.839 
			105.952,119.36 168.257,125.454 169.778,109.901 90.327,102.131 90.327,147.267 9.917,121.726 5.187,136.618 90.327,163.663 
			90.327,164.069 72.138,164.069 72.138,179.695 90.327,179.695 90.327,182.942 5.331,208.144 9.773,223.124 90.327,199.239 
			90.327,203.779 49.475,227.417 57.301,240.94 90.327,221.831 90.327,238.336 154.735,223.145 137.828,365.17 183.356,395.033 
			232.562,342.963 232.562,370.328 248.187,370.328 248.187,359.998 263.813,379.531 263.813,444.289 279.438,444.289 
			279.438,394.23 323.778,354.42 375.808,374.395 357.547,223.12 422.715,238.31 422.715,197.87 502.082,223.08 506.812,208.188 		
			"/>
	</g>
</g>
<g>
	<g>
		<path d="M334.141,70.655c-1.627-17.327-8.998-34.209-22.127-47.484h0.001l-0.313-0.315C296.962,8.117,277.365,0,256.521,0
			s-40.441,8.117-55.197,22.873l-0.264,0.266l-0.014,0.014c-6.022,6.085-10.813,12.937-14.416,20.233l-45.361-8.386l-2.841,15.365
			l42.668,7.888c-6.741,25.948,0.003,54.727,20.242,74.968c15.214,15.213,35.197,22.819,55.181,22.819
			c19.984,0,39.967-7.607,55.181-22.82c13.034-13.035,20.465-29.614,22.313-46.697l68.591,12.681l2.841-15.365L334.141,70.655z
			 M212.153,34.142l0.235-0.237c11.788-11.788,27.462-18.28,44.132-18.28s32.344,6.492,44.132,18.281l0.218,0.219l0.019,0.019
			c9.376,9.475,15.068,21.253,17.114,33.528L202.747,46.364C205.309,42.006,208.442,37.892,212.153,34.142z M300.653,122.171
			c-12.169,12.169-28.148,18.253-44.132,18.252c-15.981-0.002-31.967-6.086-44.132-18.252
			c-16.478-16.479-21.777-40.034-15.894-61.071l122.121,22.577C317.352,97.741,311.369,111.453,300.653,122.171z"/>
	</g>
</g>
<g>
	<g>
		<polygon points="263.813,465.123 263.813,496.374 248.187,496.374 248.187,391.162 232.562,391.162 232.562,512 279.438,512 
			279.438,465.123 		"/>
	</g>
</g>
<g>
	<g>
		<rect x="111.4" y="28.49" transform="matrix(0.1818 -0.9833 0.9833 0.1818 59.3151 149.0302)" width="15.625" height="20.763"/>
	</g>
</g>
<g>
	<g>
		<rect x="272.146" y="255.219" width="26.043" height="15.626"/>
	</g>
</g>
<g>
	<g>
		<circle cx="229.957" cy="89.066" r="11.459"/>
	</g>
</g>
<g>
	<g>
		<circle cx="283.084" cy="97.4" r="11.459"/>
	</g>
</g>
<g>
	<g>
		
			<rect x="12.734" y="243.08" transform="matrix(0.8655 -0.5009 0.5009 0.8655 -122.3816 46.0002)" width="23.469" height="15.625"/>
	</g>
</g>
<g>
	<g>
		<rect x="35.411" y="71.181" transform="matrix(0.4932 -0.8699 0.8699 0.4932 -68.9208 90.5144)" width="15.625" height="66.455"/>
	</g>
</g>
<g>
	<g>
		<rect x="1.302" y="164.069" width="60.419" height="15.626"/>
	</g>
</g>
<g>
	<g>
		<rect x="475.81" y="86.083" transform="matrix(0.8655 -0.5009 0.5009 0.8655 18.5405 256.8401)" width="23.469" height="15.625"/>
	</g>
</g>
<g>
	<g>
		
			<rect x="460.991" y="207.162" transform="matrix(0.4932 -0.8699 0.8699 0.4932 28.4678 529.644)" width="15.625" height="66.455"/>
	</g>
</g>
<g>
	<g>
		<rect x="450.279" y="165.111" width="60.419" height="15.626"/>
	</g>
</g>
<g>
	<g>
		
			<rect x="182.381" y="279.176" transform="matrix(0.1087 -0.9941 0.9941 0.1087 -113.3911 447.513)" width="20.96" height="15.626"/>
	</g>
</g>
<g>
</g>
<g>
</g>
<g>
</g>
<g>
</g>
<g>
</g>
<g>
</g>
<g>
</g>
<g>
</g>
<g>
</g>
<g>
</g>
<g>
</g>
<g>
</g>
<g>
</g>
<g>
</g>
<g>
</g>
</svg>
