<?xml version="1.0" encoding="iso-8859-1"?>
<!-- Generator: Adobe Illustrator 19.0.0, SVG Export Plug-In . SVG Version: 6.00 Build 0)  -->
<svg version="1.1" id="Layer_1" xmlns="http://www.w3.org/2000/svg" xmlns:xlink="http://www.w3.org/1999/xlink" x="0px" y="0px"
	 viewBox="0 0 512 512" style="enable-background:new 0 0 512 512;" xml:space="preserve">
<g>
	<g>
		<path d="M338.117,305.01v39.625c0,4.313-3.508,7.821-7.821,7.821s-7.821-3.508-7.821-7.821v-17.727h-15.642v17.727
			c0,12.938,10.526,23.462,23.462,23.462s23.462-10.525,23.462-23.462V305.01H338.117z"/>
	</g>
</g>
<g>
	<g>
		<polygon points="160.325,465.075 160.325,496.358 144.683,496.358 144.683,178.717 129.042,178.717 129.042,512 175.966,512 
			175.966,465.075 		"/>
	</g>
</g>
<g>
	<g>
		<path d="M388.538,85.511c-42.247-29.118-98.273-45.154-157.761-45.154c-18.58,0-36.969,1.593-54.81,4.711V23.462
			C175.967,10.525,165.443,0,152.505,0c-12.938,0-23.462,10.525-23.462,23.462V57.31c-4.955,1.759-9.833,3.648-14.599,5.664v-19.77
			L56.57,71.783V179.95l57.874-28.579v-12.893c4.775-1.814,9.649-3.519,14.599-5.107v24.493h15.642V23.462
			c0-4.313,3.508-7.821,7.821-7.821c4.313,0,7.821,3.508,7.821,7.821V444.22h15.642V122.215c15.508-2.478,31.409-3.901,47.446-4.233
			v50.425h15.642V91.242h-15.642v11.098c-16.015,0.318-31.909,1.677-47.446,4.046V60.957c7.537-1.391,15.184-2.493,22.912-3.299
			l-3.812,14.705l-15.932,14.058l10.349,11.729l11.436-10.091l8.46,11.063l12.425-9.501L210.562,74.92l4.806-18.537
			C220.483,56.128,225.622,56,230.777,56c104.303,0,191.006,52.035,206.534,119.81c-39.619-38.127-99.91-64.12-166.974-71.419
			V91.242h-15.642v98.02h15.642v-69.128c12.462,1.418,24.657,3.512,36.497,6.225v189.078h15.642V130.354
			c5.306,1.505,10.518,3.145,15.642,4.902v159.327h15.642V141.118c36.392,14.886,66.956,36.301,87.709,62.397l13.744,17.281
			l0.198-22.079l0.006-0.327c0.007-0.253,0.013-0.507,0.013-0.761C455.429,155.06,431.673,115.243,388.538,85.511z M98.801,141.649
			l-4.692,2.317v-21.44H78.467v29.165l-6.257,3.09V81.505l26.591-13.132V141.649z M129.042,116.983
			c-4.933,1.497-9.804,3.111-14.599,4.827V80.09c4.742-2.165,9.615-4.199,14.599-6.093V116.983z"/>
	</g>
</g>
<g>
	<g>
		<path d="M262.142,71.045l-1.337,15.584c6.807,0.584,13.645,1.407,20.324,2.444l2.401-15.456
			C276.499,72.525,269.303,71.66,262.142,71.045z"/>
	</g>
</g>
<g>
	<g>
		<path d="M294.232,75.476l-2.95,15.36c44.57,8.56,84.314,27.353,111.909,52.92l10.629-11.475
			C384.108,104.754,341.637,84.58,294.232,75.476z"/>
	</g>
</g>
<g>
	<g>
		<rect x="78.467" y="86.029" width="15.642" height="26.069"/>
	</g>
</g>
<g>
	<g>
		<path d="M254.695,200.733v17.727c0,4.313-3.508,7.821-7.821,7.821c-4.313,0-7.821-3.508-7.821-7.821v-39.625h-15.642v39.625
			c0,12.938,10.525,23.462,23.462,23.462c12.938,0,23.462-10.525,23.462-23.462v-17.727H254.695z"/>
	</g>
</g>
<g>
</g>
<g>
</g>
<g>
</g>
<g>
</g>
<g>
</g>
<g>
</g>
<g>
</g>
<g>
</g>
<g>
</g>
<g>
</g>
<g>
</g>
<g>
</g>
<g>
</g>
<g>
</g>
<g>
</g>
</svg>
