<?xml version="1.0" encoding="iso-8859-1"?>
<!-- Generator: Adobe Illustrator 19.0.0, SVG Export Plug-In . SVG Version: 6.00 Build 0)  -->
<svg version="1.1" id="Layer_1" xmlns="http://www.w3.org/2000/svg" xmlns:xlink="http://www.w3.org/1999/xlink" x="0px" y="0px"
	 viewBox="0 0 512 512" style="enable-background:new 0 0 512 512;" xml:space="preserve">
<g>
	<g>
		<path d="M255.478,0C164.732,0,90.906,73.826,90.906,164.571v220.996h15.673v-72.261l51.908-32.442l-15.061-31.199l17.363-14.884
			l-10.2-11.9l-26.523,22.733l14.196,29.406l-31.683,19.804V164.571c0-37.573,13.996-71.935,37.04-98.163l22.84,18.81l-8.011,25.034
			l18.258,23.126l12.302-9.712l-13.089-16.58l5.345-16.703h27.717V74.709h-30.625l-23.748-19.557
			c26.547-24.491,61.99-39.478,100.871-39.478c56.441,0,105.65,31.567,130.895,77.973l-44.534,44.534l9.261,35.191l-25.207,16.515
			l8.59,13.11l20.823-13.643l5.964,22.666l15.157-3.988l-17.139-65.133l34.198-34.199c7.014,17.262,10.889,36.122,10.889,55.873
			v220.996h15.673V164.571C420.049,73.826,346.223,0,255.478,0z"/>
	</g>
</g>
<g>
	<g>
		<polygon points="388.401,454.531 425.273,417.961 425.273,449.79 456.62,418.182 456.62,449.79 487.967,418.182 487.967,441.992 
			503.641,441.992 503.641,380.12 472.294,411.728 472.294,380.12 440.947,411.728 440.947,380.341 366.144,454.531 
			317.649,454.531 317.649,470.204 496.327,470.204 496.327,496.327 15.673,496.327 15.673,470.204 193.306,470.204 
			193.306,454.531 145.855,454.531 71.053,380.341 71.053,411.728 39.706,380.12 39.706,411.728 8.359,380.12 8.359,441.992 
			24.033,441.992 24.033,418.182 55.38,449.79 55.38,418.182 86.727,449.79 86.727,417.961 123.598,454.531 0,454.531 0,512 
			512,512 512,454.531 		"/>
	</g>
</g>
<g>
	<g>
		<path d="M256,333.845c-33.13,0-60.082,26.952-60.082,60.082c0,16.322,6.62,31.844,18.286,43.143v33.135h82.547v-32.137
			c12.332-11.371,19.331-27.25,19.331-44.141C316.082,360.797,289.13,333.845,256,333.845z M283.973,428.408l-2.895,2.352v23.77
			h-6.269v-14.629h-15.673v14.629h-6.269v-14.629h-15.673v14.629h-7.314v-24.525l-2.739-2.346
			c-9.881-8.463-15.547-20.758-15.547-33.734c0-24.487,19.921-44.408,44.408-44.408s44.408,19.921,44.408,44.408
			C300.408,407.356,294.418,419.924,283.973,428.408z"/>
	</g>
</g>
<g>
	<g>
		<circle cx="237.714" cy="399.151" r="15.673"/>
	</g>
</g>
<g>
	<g>
		<circle cx="274.286" cy="399.151" r="15.673"/>
	</g>
</g>
<g>
	<g>
		<polygon points="256,415.869 248.686,423.184 263.314,423.184 		"/>
	</g>
</g>
<g>
	<g>
		<path d="M277.943,138.971v-29.257h-47.02v29.257H200.62v47.02h30.302V256h47.02v-70.008h33.437v-47.02H277.943z M295.706,170.318
			h-33.437v70.008h-15.673v-70.008h-30.302v-15.673h30.302v-29.257h15.673v29.257h33.437V170.318z"/>
	</g>
</g>
<g>
	<g>
		<rect x="203.755" y="301.976" width="104.49" height="15.673"/>
	</g>
</g>
<g>
	<g>
		<rect x="226.743" y="275.853" width="94.041" height="15.673"/>
	</g>
</g>
<g>
	<g>
		<rect x="190.171" y="275.853" width="26.122" height="15.673"/>
	</g>
</g>
<g>
</g>
<g>
</g>
<g>
</g>
<g>
</g>
<g>
</g>
<g>
</g>
<g>
</g>
<g>
</g>
<g>
</g>
<g>
</g>
<g>
</g>
<g>
</g>
<g>
</g>
<g>
</g>
<g>
</g>
</svg>
