<?xml version="1.0" encoding="iso-8859-1"?>
<!-- Generator: Adobe Illustrator 19.0.0, SVG Export Plug-In . SVG Version: 6.00 Build 0)  -->
<svg version="1.1" id="Layer_1" xmlns="http://www.w3.org/2000/svg" xmlns:xlink="http://www.w3.org/1999/xlink" x="0px" y="0px"
	 viewBox="0 0 512 512" style="enable-background:new 0 0 512 512;" xml:space="preserve">
<g>
	<g>
		<polygon points="382.801,20.433 300.782,89.033 271.012,0.261 232.497,0.261 250.105,135.624 234.656,184.013 127.175,93.826 
			99.822,121.179 156.135,188.29 168.117,178.235 121.018,122.104 128.1,115.022 229.514,200.118 223.002,220.513 237.903,225.271 
			266.066,137.061 250.305,15.902 259.759,15.902 287.899,99.809 277.574,108.445 287.607,120.443 381.859,41.612 385.134,44.886 
			358.986,76.048 370.967,86.103 406.329,43.961 		"/>
	</g>
</g>
<g>
	<g>
		<polygon points="348.551,88.483 299.96,146.392 293.058,231.646 308.648,232.908 315.148,152.626 360.532,98.538 		"/>
	</g>
</g>
<g>
	<g>
		<rect x="224.717" y="423.104" width="15.642" height="26.069"/>
	</g>
</g>
<g>
	<g>
		<path d="M171.535,15.902c16.816,0,33.351,2.668,49.146,7.93l4.945-14.839c-17.391-5.796-35.59-8.733-54.09-8.733
			C77.238,0.261,0.521,76.977,0.521,171.275s76.717,171.014,171.014,171.014c0.91,0,1.819-0.007,2.725-0.022l-0.239-15.639
			c-0.827,0.013-1.656,0.02-2.487,0.02c-85.673,0-155.373-69.7-155.373-155.373S85.862,15.902,171.535,15.902z"/>
	</g>
</g>
<g>
	<g>
		<path d="M158.29,32.194l2.507,15.44c6.651-1.08,13.467-1.629,20.26-1.629V30.364C173.427,30.364,165.767,30.981,158.29,32.194z"/>
	</g>
</g>
<g>
	<g>
		<path d="M147.245,34.449c-40.498,9.975-74.302,37.236-92.742,74.792l14.041,6.894c16.398-33.394,46.447-57.632,82.443-66.498
			L147.245,34.449z"/>
	</g>
</g>
<g>
	<g>
		<path d="M512,483.585v-62.268l-31.283,31.545v-31.545l-31.283,31.545v-31.378l-74.922,74.614h-29.567l-26.056-56.392
			l-13.487-110.79l109.904-130.978l-27.424-27.425l-50.806,43.847c3.629-13.96,5.472-28.364,5.472-43.085
			c0-8.968-0.701-17.971-2.082-26.763l-15.452,2.43c1.257,7.99,1.893,16.176,1.893,24.333c0,22.169-4.575,43.547-13.573,63.577
			l-42.11,36.344l10.22,11.841l105.654-91.186l7.013,7.012L289.054,324.064l14.605,119.972l24.055,52.062h-31.045v-34.411h-15.642
			v34.411h-12.513v-55.267h-15.642v55.267h-12.513v-25.026h-15.642v25.026h-12.513v-32.326h-15.642v32.326h-31.06l23.991-52.068
			l14.618-121.394l24.25-72.606l-49.742-59.283l-11.981,10.055l44.115,52.575l-21.981,65.809l-14.513,120.531l-25.977,56.378h-9.749
			l-74.923-74.613v31.378l-31.283-31.545v31.545L1.043,421.317v62.268h15.642v-24.283l31.283,31.545v-31.545l31.283,31.545v-31.711
			l37.114,36.962H0v15.642h512v-15.642H396.678l37.114-36.962v31.711l31.283-31.545v31.545l31.283-31.545v24.283H512z"/>
	</g>
</g>
<g>
</g>
<g>
</g>
<g>
</g>
<g>
</g>
<g>
</g>
<g>
</g>
<g>
</g>
<g>
</g>
<g>
</g>
<g>
</g>
<g>
</g>
<g>
</g>
<g>
</g>
<g>
</g>
<g>
</g>
</svg>
