<?xml version="1.0" encoding="iso-8859-1"?>
<!-- Generator: Adobe Illustrator 19.0.0, SVG Export Plug-In . SVG Version: 6.00 Build 0)  -->
<svg version="1.1" id="Layer_1" xmlns="http://www.w3.org/2000/svg" xmlns:xlink="http://www.w3.org/1999/xlink" x="0px" y="0px"
	 viewBox="0 0 512 512" style="enable-background:new 0 0 512 512;" xml:space="preserve">
<g>
	<g>
		<rect x="251.82" y="156.735" width="26.122" height="15.673"/>
	</g>
</g>
<g>
	<g>
		<path d="M57.206,302.062L31.368,512h449.263l-43.726-355.265h-87.91V94.041c0-45.462-36.944-82.456-82.388-82.543
			C254.304,4.205,239.963,0,224.653,0c-45.517,0-82.547,37.03-82.547,82.547v74.188H75.093L60.624,274.286H42.84v15.673h36.571
			v-15.673h-2.996l12.539-101.878h53.151v30.302h15.673V82.547c0-36.874,29.999-66.873,66.873-66.873
			c4.286,0,8.473,0.421,12.537,1.195c-31.113,11.837-53.288,41.957-53.288,77.172v62.694h-13.584v15.673h71.053v-15.673h-41.796
			V94.041c0-35.478,27.776-64.579,62.721-66.731c17.632,12.054,29.23,32.315,29.23,55.237V202.71h15.673v-30.302h53.151
			l12.539,101.878h-1.951v15.673h34.463l20.148,169.256l-11.545,20.832l-21.906-177.992l-15.556,1.914l17.181,139.59h-99.062v15.673
			h100.99l1.415,11.494H273.763V486.4h125.232l1.221,9.927H49.088l2.893-23.51h82.81v-15.674h-80.88l18.851-153.166L57.206,302.062z
			 M333.322,156.735h-26.122V82.547c0-19.422-6.758-37.284-18.024-51.397c25.719,9.323,44.147,33.993,44.147,62.891V156.735z
			 M412.057,213.279l-15.564,1.854l7.042,59.153H388.68l-12.539-101.878h46.902l37.849,307.522l-19.768-22.475L412.057,213.279z
			 M435.093,474.329l19.348,21.997h-31.539L435.093,474.329z"/>
	</g>
</g>
<g>
	<g>
		<path d="M347.017,274.286l-42.953-42.952l-42.953,42.952H247.64v15.673h112.849v-15.673H347.017z M283.279,274.286l20.786-20.787
			l20.787,20.787H283.279z"/>
	</g>
</g>
<g>
	<g>
		<path d="M188.193,274.286l-42.953-42.952l-42.953,42.952H88.816v15.673H200.62v-15.673H188.193z M124.453,274.286l20.787-20.787
			l20.786,20.787H124.453z"/>
	</g>
</g>
<g>
	<g>
		<path d="M207.934,358.401v19.33h-16.718v-19.33h-66.071l4.873,11.009c16.568,37.426,53.714,61.61,94.634,61.61
			c3.942,0,7.933-0.228,11.861-0.676l6.948-0.793v-22.564h16.718v18.6l11.397-5.811c21.167-10.791,38.111-28.679,47.712-50.368
			l4.872-11.009L207.934,358.401z M275.853,398.862v-7.547h-48.065v23.976c-31.722,1.135-61.168-14.938-77.598-41.216h25.353v19.33
			h48.065v-19.33l75.498-0.001C293.043,383.75,285.129,392.186,275.853,398.862z"/>
	</g>
</g>
<g>
	<g>
		<rect x="258.089" y="443.559" width="26.122" height="15.673"/>
	</g>
</g>
<g>
</g>
<g>
</g>
<g>
</g>
<g>
</g>
<g>
</g>
<g>
</g>
<g>
</g>
<g>
</g>
<g>
</g>
<g>
</g>
<g>
</g>
<g>
</g>
<g>
</g>
<g>
</g>
<g>
</g>
</svg>
