<?xml version="1.0" encoding="iso-8859-1"?>
<!-- Generator: Adobe Illustrator 19.0.0, SVG Export Plug-In . SVG Version: 6.00 Build 0)  -->
<svg version="1.1" id="Layer_1" xmlns="http://www.w3.org/2000/svg" xmlns:xlink="http://www.w3.org/1999/xlink" x="0px" y="0px"
	 viewBox="0 0 512 512" style="enable-background:new 0 0 512 512;" xml:space="preserve">
<g>
	<g>
		<path d="M365.236,260.776l-37.35-37.351l87.562-87.561l13.36,13.359l26.233-91.818l-91.818,26.234l41.155,41.155l-98.628,98.629
			l59.486,59.487l66.953-66.953l-11.069-11.069L365.236,260.776z M393.102,91.381l39.15-11.185l-11.185,39.15L393.102,91.381z"/>
	</g>
</g>
<g>
	<g>
		<path d="M364.634,108.948l-75.61,75.612l-38.246-38.247l67.835-67.835l13.788,13.788l26.233-91.817l-91.818,26.233l40.729,40.729
			l-78.904,78.903l60.382,60.383l86.679-86.68L364.634,108.948z M296.695,34.425l39.149-11.185l-11.185,39.149L296.695,34.425z"/>
	</g>
</g>
<g>
	<g>
		<path d="M420.181,180.048l40.687,40.687l-92.044,92.044l-77.111-77.109L83.989,443.393l11.068,11.069l196.657-196.657
			l77.111,77.11l103.112-103.111l13.829,13.829L512,153.814L420.181,180.048z M478.023,215.753L450.06,187.79l39.149-11.187
			L478.023,215.753z"/>
	</g>
</g>
<g>
	<g>
		<polygon points="37.966,489.415 22.136,473.584 167.684,328.037 156.616,316.967 0,473.584 37.966,511.551 77.124,472.394 
			66.057,461.325 		"/>
	</g>
</g>
<g>
	<g>
		
			<rect x="50.121" y="225.8" transform="matrix(0.7071 -0.7071 0.7071 0.7071 -127.8726 158.5411)" width="154.638" height="15.653"/>
	</g>
</g>
<g>
	<g>
		<polygon points="278.866,62.634 267.799,51.564 176.637,142.727 221.382,187.473 159.841,249.014 170.909,260.084 232.45,198.541 
			253.747,219.837 174.549,299.034 185.616,310.103 275.883,219.837 198.772,142.727 		"/>
	</g>
</g>
<g>
	<g>
		
			<rect x="274.814" y="316.743" transform="matrix(0.7071 -0.7071 0.7071 0.7071 -141.343 307.9074)" width="52.384" height="15.653"/>
	</g>
</g>
<g>
	<g>
		
			<rect x="136.685" y="407.258" transform="matrix(0.7071 -0.7071 0.7071 0.7071 -231.8634 270.4014)" width="147.573" height="15.653"/>
	</g>
</g>
<g>
</g>
<g>
</g>
<g>
</g>
<g>
</g>
<g>
</g>
<g>
</g>
<g>
</g>
<g>
</g>
<g>
</g>
<g>
</g>
<g>
</g>
<g>
</g>
<g>
</g>
<g>
</g>
<g>
</g>
</svg>
