<?xml version="1.0" encoding="iso-8859-1"?>
<!-- Generator: Adobe Illustrator 19.0.0, SVG Export Plug-In . SVG Version: 6.00 Build 0)  -->
<svg version="1.1" id="Layer_1" xmlns="http://www.w3.org/2000/svg" xmlns:xlink="http://www.w3.org/1999/xlink" x="0px" y="0px"
	 viewBox="0 0 512 512" style="enable-background:new 0 0 512 512;" xml:space="preserve">
<g>
	<g>
		<path d="M297.6,458.297v21.287c0,9.249-7.525,16.774-16.773,16.774h-0.124c-9.97,0-18.083-8.111-18.083-18.082V337.82
			c0-9.447-7.686-17.134-17.134-17.134s-17.133,7.686-17.133,17.134v140.002c0,4.859-2.012,9.62-5.517,13.057
			c-3.375,3.312-7.703,5.104-12.321,4.998c-9.451-0.182-17.141-8.026-17.141-17.501l-0.236-124.371l-15.642,0.03l0.236,124.356
			c0,17.919,14.571,32.779,32.48,33.126c8.81,0.184,17.177-3.192,23.577-9.47c6.486-6.362,10.206-15.19,10.206-24.224V337.82
			c0-0.823,0.669-1.492,1.491-1.492c0.823,0,1.492,0.669,1.492,1.492v140.457c0,18.595,15.129,33.723,33.724,33.723h0.124
			c17.874,0,32.414-14.541,32.414-32.416v-21.287H297.6z"/>
	</g>
</g>
<g>
	<g>
		<polygon points="310.37,144.945 280.659,144.945 280.659,160.587 303.891,160.587 352.292,208.988 363.353,197.927 		"/>
	</g>
</g>
<g>
	<g>
		<path d="M192.902,226.09c-0.008-3.593-2.159-6.802-5.481-8.174c-3.322-1.37-7.109-0.615-9.651,1.925l-68.98,68.98
			c-3.301,3.302-7.695,5.121-12.368,5.121s-9.061-1.816-12.358-5.12c-6.82-6.821-6.82-17.919,0-24.739l54.053-54.052l-11.061-11.061
			l-54.053,54.053c-12.918,12.919-12.918,33.939-0.005,46.854c6.248,6.26,14.568,9.707,23.425,9.707
			c8.852,0,17.173-3.446,23.43-9.702l57.44-57.441l0.17,90.739l15.642-0.028L192.902,226.09z"/>
	</g>
</g>
<g>
	<g>
		<path d="M181.082,144.945l-37.461,37.459L97.897,136.68c10.92-13.303,16.572-29.304,7.721-38.156
			c-10.167-10.163-29.766-1.202-43.872,12.904c-14.107,14.108-23.069,33.707-12.904,43.872c3.032,3.031,6.903,4.362,11.218,4.362
			c8.224,0,18.06-4.836,26.762-11.937l72.093,72.094l11.061-11.061l-15.293-15.293l32.88-32.88h72.242v-15.642H181.082z
			 M81.654,131.338c-9.79,9.79-18.675,12.874-21.566,12.718c-0.14-2.891,2.932-11.78,12.718-21.566
			c9.786-9.786,18.657-12.879,21.565-12.718C94.511,112.662,91.44,121.552,81.654,131.338z"/>
	</g>
</g>
<g>
	<g>
		<path d="M246.247,0c-36.512,0-66.216,29.704-66.216,66.216s29.705,66.216,66.216,66.216c36.512,0,66.216-29.704,66.216-66.216
			S282.758,0,246.247,0z M246.247,15.642c12.127,0,23.267,4.294,31.99,11.436l-8.52,3.973l-3.197-6.855l-14.175,6.611l3.196,6.854
			l-11.386,5.309l-3.196-6.855l-14.175,6.611l3.196,6.854l-11.386,5.309l-3.196-6.855l-14.175,6.611l3.196,6.854l-8.73,4.071
			C196.038,37.981,218.577,15.642,246.247,15.642z M246.247,116.79c-22.486,0-41.584-14.755-48.141-35.089l12.922-6.025l3.197,6.855
			l14.175-6.611l-3.196-6.855l11.386-5.309l3.197,6.855L253.963,64l-3.196-6.854l11.386-5.309l3.196,6.855l14.175-6.611
			l-3.196-6.854l12.707-5.925c4.925,7.801,7.787,17.027,7.787,26.915C296.822,94.103,274.134,116.79,246.247,116.79z"/>
	</g>
</g>
<g>
	<g>
		<path d="M450.256,133.021c-14.107-14.106-33.708-23.066-43.872-12.904c-8.811,8.813-3.247,24.711,7.578,37.978l-72.096,72.096
			l11.061,11.061l15.815-15.815l38.643,38.641c3.306,3.313,5.126,7.708,5.126,12.375c0,4.668-1.821,9.062-5.12,12.368
			c-6.819,6.819-17.914,6.817-24.728,0l-69.927-69.925c-2.544-2.549-6.338-3.305-9.661-1.928c-3.326,1.375-5.475,4.59-5.475,8.191
			v35.791l-7.029-3.277l3.196-6.854l-14.175-6.611l-3.197,6.855l-11.386-5.309l3.196-6.854l-14.175-6.611l-3.197,6.855l-11.386-5.31
			l3.196-6.854l-14.175-6.611l-3.197,6.855l-18.474-8.614l-6.611,14.175l18.474,8.614l-3.196,6.854l14.175,6.611l3.196-6.855
			l11.386,5.31l-3.196,6.854l14.175,6.611l3.196-6.855l11.386,5.309l-3.196,6.854l14.175,6.611l3.196-6.855l13.639,6.36v85.199
			h15.642V241.523l58.36,58.36c12.917,12.915,33.932,12.916,46.855-0.005c6.252-6.265,9.697-14.584,9.697-23.425
			c0-8.84-3.444-17.158-9.702-23.43l-38.648-38.647L425,169.173c8.746,7.18,18.658,12.083,26.938,12.083
			c4.314,0,8.187-1.329,11.218-4.362C473.325,166.728,464.363,147.13,450.256,133.021z M430.348,152.93
			c-9.787-9.786-12.857-18.675-12.718-21.566c2.871-0.15,11.781,2.932,21.566,12.718c9.786,9.785,12.857,18.675,12.718,21.565
			C449.048,165.79,440.135,162.719,430.348,152.93z"/>
	</g>
</g>
<g>
	<g>
		<path d="M370.267,319.101c-6.848-6.849-14.571-12.173-21.745-14.995c-12.512-4.922-19.234-0.802-22.125,2.092
			c-2.893,2.893-7.014,9.614-2.093,22.127c2.037,5.177,5.391,10.637,9.668,15.852l-61.666,61.666l11.061,11.061l14.233-14.233
			v33.728h15.642v-49.371l31.775-31.775c8.746,7.18,18.658,12.083,26.938,12.083c4.314,0,8.186-1.33,11.218-4.362
			C393.337,352.808,384.374,333.209,370.267,319.101z M350.36,339.009c-9.787-9.786-12.857-18.676-12.718-21.565
			c2.928-0.112,11.781,2.933,21.565,12.718c9.786,9.785,12.857,18.675,12.718,21.566
			C369.067,351.865,360.147,348.798,350.36,339.009z"/>
	</g>
</g>
<g>
</g>
<g>
</g>
<g>
</g>
<g>
</g>
<g>
</g>
<g>
</g>
<g>
</g>
<g>
</g>
<g>
</g>
<g>
</g>
<g>
</g>
<g>
</g>
<g>
</g>
<g>
</g>
<g>
</g>
</svg>
