<?xml version="1.0" encoding="iso-8859-1"?>
<!-- Generator: Adobe Illustrator 19.0.0, SVG Export Plug-In . SVG Version: 6.00 Build 0)  -->
<svg version="1.1" id="Layer_1" xmlns="http://www.w3.org/2000/svg" xmlns:xlink="http://www.w3.org/1999/xlink" x="0px" y="0px"
	 viewBox="0 0 512 512" style="enable-background:new 0 0 512 512;" xml:space="preserve">
<g>
	<g>
		<path d="M383.012,298.132l-3.796,15.296c71.915,18.136,116.588,50.413,116.588,84.236c0,24.711-24.703,49.505-67.774,68.02
			c-45.823,19.699-106.917,30.548-172.03,30.548S129.792,485.384,83.97,465.685c-43.072-18.516-67.774-43.309-67.774-68.02
			c0-33.824,44.674-66.101,116.588-84.236l-3.795-15.296c-80.42,20.281-128.432,57.49-128.432,99.533
			c0,31.794,27.445,61.101,77.28,82.524C125.555,500.702,188.827,512,256,512s130.446-11.297,178.164-31.811
			c49.835-21.424,77.28-50.732,77.28-82.524C511.443,355.622,463.431,318.413,383.012,298.132z"/>
	</g>
</g>
<g>
	<g>
		<path d="M102.932,345.118c-10.214,4.161-19.133,8.756-26.512,13.658l8.606,13.165c6.514-4.328,14.51-8.435,23.766-12.205
			L102.932,345.118z"/>
	</g>
</g>
<g>
	<g>
		<path d="M65.719,397.792c0-5.403,2.652-10.948,7.884-16.48l-11.318-10.88c-8.098,8.563-12.205,17.768-12.205,27.36
			c0,12.501,7.235,30.927,41.704,47.712c24.644,12.001,58.388,20.899,97.58,25.732l1.899-15.651
			C118.518,446.615,65.719,422.309,65.719,397.792z"/>
	</g>
</g>
<g>
	<g>
		<path d="M395.465,389.538L255.869,0L116.272,389.538H91.265v15.768h92.793v31.01H327.94v-31.01h92.793v-15.768H395.465z
			 M312.3,366.412h-35.449v15.768H312.3v38.368H199.698v-92.504H312.3V366.412z M327.939,389.538v-36.792h26.065v-15.768h-26.065
			v-24.703H184.057v24.703h-26.065v15.768h26.065v36.792h-51.156l70.821-197.622h58.533v-15.768h-52.883l3.956-11.037h28.075
			v-15.768h-22.424l36.89-102.941l64.578,180.203h-57.149v15.768h62.8l3.956,11.037h-87.608v15.768h93.258l43.132,120.36H327.939z"
			/>
	</g>
</g>
<g>
	<g>
		<rect x="240.354" y="366.408" width="26.065" height="15.764"/>
	</g>
</g>
<g>
	<g>
		<rect x="226.8" y="226.603" width="26.065" height="15.764"/>
	</g>
</g>
<g>
	<g>
		<rect x="251.823" y="149.345" width="26.065" height="15.764"/>
	</g>
</g>
<g>
</g>
<g>
</g>
<g>
</g>
<g>
</g>
<g>
</g>
<g>
</g>
<g>
</g>
<g>
</g>
<g>
</g>
<g>
</g>
<g>
</g>
<g>
</g>
<g>
</g>
<g>
</g>
<g>
</g>
</svg>
