<?xml version="1.0" encoding="iso-8859-1"?>
<!-- Generator: Adobe Illustrator 19.0.0, SVG Export Plug-In . SVG Version: 6.00 Build 0)  -->
<svg version="1.1" id="Layer_1" xmlns="http://www.w3.org/2000/svg" xmlns:xlink="http://www.w3.org/1999/xlink" x="0px" y="0px"
	 viewBox="0 0 512 512" style="enable-background:new 0 0 512 512;" xml:space="preserve">
<g>
	<g>
		<path d="M103.672,469.159v18.808c0,4.322-3.515,7.837-7.837,7.837c-4.322,0-7.837-3.515-7.837-7.837v-38.661H72.325v38.661
			c0,12.963,10.547,23.51,23.51,23.51c12.963,0,23.51-10.547,23.51-23.51v-18.808H103.672z"/>
	</g>
</g>
<g>
	<g>
		<path d="M310.039,430.498c0,36.298-29.531,65.829-65.829,65.829h-8.359c-36.298,0-65.829-29.531-65.829-65.829h-15.674
			c0,44.941,36.561,81.502,81.502,81.502h8.359c44.941,0,81.502-36.561,81.502-81.502H310.039z"/>
	</g>
</g>
<g>
	<g>
		<path d="M281.304,436.767v18.808c0,4.322-3.515,7.837-7.837,7.837c-4.322,0-7.837-3.515-7.837-7.837v-38.661h-15.673v38.661
			c0,12.963,10.547,23.51,23.51,23.51c12.963,0,23.51-10.547,23.51-23.51v-18.808H281.304z"/>
	</g>
</g>
<g>
	<g>
		<path d="M271.9,332.8h-45.975v24.033h-16.718V332.8h-8.882c-21.03,0-38.139,17.109-38.139,38.139s17.109,38.139,38.139,38.139
			H271.9c3.244,0,6.395-0.41,9.404-1.176v18.416h15.673v-26.681c7.997-6.997,13.061-17.264,13.061-28.698
			C310.039,349.909,292.93,332.8,271.9,332.8z M271.9,393.404h-71.576c-12.387,0-22.465-10.078-22.465-22.465
			c0-10.022,6.596-18.53,15.673-21.416v22.984h48.065v-24.033H271.9c12.388,0,22.465,10.078,22.465,22.465
			S284.289,393.404,271.9,393.404z"/>
	</g>
</g>
<g>
	<g>
		<path d="M159.575,142.106c-4.111,0-8.132,0.373-12.053,1.051c10.54-5.337,22.44-8.365,35.041-8.365v-15.674
			c-51.567,0-93.518,41.952-93.518,93.518v7.837h20.487c3.778,24.221,24.779,42.816,50.043,42.816c5.492,0,10.777-0.89,15.732-2.514
			c-12.161,11.901-28.786,19.257-47.105,19.257v15.673c43.161,0,78.726-33.091,82.689-75.233h19.215v-7.837
			C230.105,173.746,198.466,142.106,159.575,142.106z M159.574,247.616c-16.593,0-30.513-11.618-34.082-27.142h68.165
			C190.087,235.997,176.167,247.616,159.574,247.616z M105.276,204.8c3.814-26.549,26.711-47.02,54.298-47.02
			c27.587,0,50.484,20.472,54.299,47.02H105.276z"/>
	</g>
</g>
<g>
	<g>
		<path d="M297.5,119.118v15.674c12.6,0,24.5,3.028,35.041,8.365c-3.919-0.678-7.942-1.051-12.053-1.051
			c-38.891,0-70.531,31.64-70.531,70.531v7.837h20.208c3.963,42.142,39.527,75.233,82.689,75.233v-15.673
			c-18.082,0-34.51-7.171-46.626-18.801c4.526,1.33,9.309,2.057,14.26,2.057c25.265,0,46.265-18.594,50.043-42.816h20.487v-7.837
			C391.019,161.07,349.067,119.118,297.5,119.118z M320.488,247.616c-16.593,0-30.513-11.617-34.082-27.142h68.165
			C351.002,235.997,337.081,247.616,320.488,247.616z M266.189,204.8c3.814-26.549,26.712-47.02,54.299-47.02
			s50.484,20.472,54.299,47.02H266.189z"/>
	</g>
</g>
<g>
	<g>
		<rect x="187.789" y="92.996" width="104.49" height="15.673"/>
	</g>
</g>
<g>
	<g>
		<rect x="210.777" y="66.873" width="94.041" height="15.673"/>
	</g>
</g>
<g>
	<g>
		<rect x="174.205" y="66.873" width="26.122" height="15.673"/>
	</g>
</g>
<g>
	<g>
		<path d="M95.534,392.772c-14.842-25.38-22.687-54.428-22.687-84.005v-90.384H57.174v90.384c0,25.151,5.211,49.946,15.151,72.793
			v56.252h15.673v-27.583c4.751,7.078,9.999,13.8,15.673,20.134v28.347h15.674v-12.821c8.625,7.565,17.961,14.336,27.895,20.176
			l7.943-13.513C130.571,438.087,109.944,417.414,95.534,392.772z"/>
	</g>
</g>
<g>
	<g>
		<rect x="57.174" y="181.812" width="15.673" height="26.122"/>
	</g>
</g>
<g>
	<g>
		<path d="M128.749,83.069c0-9.518-2.894-18.66-8.371-26.436l-12.474,8.786c-5.091-0.067-10.198,0.835-15.089,2.727
			c-10.049,3.888-17.983,11.456-22.34,21.312c-4.787,10.825-4.578,22.939,0.371,33.441c-0.994,1.418-1.849,2.934-2.558,4.538
			c-2.914,6.592-3.088,13.924-0.487,20.646c0.795,2.057,1.847,3.962,3.077,5.726c-1.807,0.557-3.688,0.954-5.631,1.168l1.721,15.579
			c23.307-2.577,40.883-22.22,40.883-45.691c0-1.063-0.038-2.126-0.111-3.19C120.663,113.276,128.749,98.683,128.749,83.069z
			 M95.892,110.393l-5.464,2.629l1.172,5.948c0.383,1.945,0.578,3.928,0.578,5.894c-0.001,7.904-3.026,15.142-8.028,20.564
			c-0.717-0.895-1.305-1.901-1.73-3.001c-1.09-2.817-1.018-5.89,0.204-8.653c0.667-1.507,1.651-2.834,2.926-3.941l5.227-4.54
			l-3.86-5.747c-4.761-7.085-5.547-15.965-2.105-23.753c2.664-6.026,7.515-10.653,13.66-13.03c4.708-1.824,9.745-2.151,14.555-1.006
			c0.019,0.437,0.05,0.871,0.05,1.311C113.077,94.644,106.331,105.37,95.892,110.393z"/>
	</g>
</g>
<g>
	<g>
		<path d="M457.504,214.938l-15.02,4.475c2.303,7.731,3.901,15.709,4.749,23.71l15.586-1.651
			C461.87,232.517,460.082,223.589,457.504,214.938z"/>
	</g>
</g>
<g>
	<g>
		<path d="M452.226,200.148c-14.122-33.775-40.185-60.903-73.387-76.386l-18.466-8.611l-6.625,14.204l18.466,8.611
			c11.912,5.555,22.792,12.791,32.368,21.411c1.041,7.567,1.588,15.279,1.588,22.957v126.433c0,29.577-7.845,58.625-22.688,84.006
			c-14.411,24.644-35.038,45.316-59.651,59.783l7.943,13.513c26.918-15.822,49.477-38.43,65.238-65.382
			c16.245-27.779,24.832-59.562,24.832-91.918V182.336c0-1.367-0.021-2.734-0.051-4.101c6.397,8.556,11.778,17.926,15.972,27.959
			L452.226,200.148z"/>
	</g>
</g>
<g>
	<g>
		<path d="M398.33,92.755C365.976,35.498,305.313,0,239.508,0c-38.288,0-74.782,11.68-105.777,33.813
			C106.22,25.809,76.889,26,49.181,34.638l4.663,14.963c31.217-9.729,64.741-7.471,94.399,6.359l18.466,8.611l6.625-14.204
			c0,0-20.366-9.481-21.321-9.903c26.239-16.257,56.209-24.791,87.495-24.791c54.32,0,104.804,26.469,135.867,70.147
			c-10.068-2.159-20.411-3.273-30.883-3.273h-20.376v15.674h20.376c32.725,0,64.065,12.122,88.243,34.129l10.551-11.59
			C429.982,108.65,414.739,99.22,398.33,92.755z"/>
	</g>
</g>
<g>
	<g>
		<path d="M99.492,301.453v15.673c18.726,0,33.959,15.234,33.959,33.959v64.784h15.673v-64.784
			C149.125,323.719,126.859,301.453,99.492,301.453z"/>
	</g>
</g>
<g>
	<g>
		<path d="M330.937,351.086v64.784h15.673v-64.784c0-18.726,15.234-33.959,33.959-33.959v-15.673
			C353.203,301.453,330.937,323.719,330.937,351.086z"/>
	</g>
</g>
<g>
	<g>
		<polygon points="246.3,304.588 246.3,264.882 230.627,264.882 230.627,320.261 266.153,320.261 266.153,304.588 		"/>
	</g>
</g>
<g>
	<g>
		<rect x="230.63" y="228.31" width="15.673" height="26.122"/>
	</g>
</g>
<g>
</g>
<g>
</g>
<g>
</g>
<g>
</g>
<g>
</g>
<g>
</g>
<g>
</g>
<g>
</g>
<g>
</g>
<g>
</g>
<g>
</g>
<g>
</g>
<g>
</g>
<g>
</g>
<g>
</g>
</svg>
