<?xml version="1.0" encoding="iso-8859-1"?>
<!-- Generator: Adobe Illustrator 19.0.0, SVG Export Plug-In . SVG Version: 6.00 Build 0)  -->
<svg version="1.1" id="Layer_1" xmlns="http://www.w3.org/2000/svg" xmlns:xlink="http://www.w3.org/1999/xlink" x="0px" y="0px"
	 viewBox="0 0 512.001 512.001" style="enable-background:new 0 0 512.001 512.001;" xml:space="preserve">
<g>
	<g>
		<path d="M179.033,421.826l-5.77-14.554c-44.028,17.456-82.091,49.009-107.577,89.07H0.783V512h163.882v-15.657H84.534
			C108.067,463.04,141.183,436.835,179.033,421.826z"/>
	</g>
</g>
<g>
	<g>
		<path d="M340.172,440.666l-8.637,13.06c7.034,4.652,13.679,9.995,19.749,15.88l10.898-11.243
			C355.418,451.806,348.012,445.852,340.172,440.666z"/>
	</g>
</g>
<g>
	<g>
		<path d="M279.488,417.317v-42.059H263.83v40.499c-2.432-0.118-4.867-0.195-7.307-0.195c-23.14,0-45.36,5.073-66.041,15.08
			l6.819,14.094c18.537-8.97,38.463-13.517,59.221-13.517c22.769,0,45.294,5.728,65.141,16.563l7.503-13.743
			C313.746,425.62,296.879,419.974,279.488,417.317z"/>
	</g>
</g>
<g>
	<g>
		<path d="M224.686,0c-12.951,0-23.486,10.536-23.486,23.486v75.156h15.657V23.486c0-4.317,3.511-7.829,7.829-7.829
			c4.317,0,7.829,3.511,7.829,7.829v27.14h-7.307v15.657h7.307v36.534h-7.307v15.657h7.307v74.112h15.657V23.486
			C248.172,10.536,237.636,0,224.686,0z"/>
	</g>
</g>
<g>
	<g>
		<path d="M296.188,29.749h-35.49v15.657h35.49c4.317,0,7.829,3.511,7.829,7.829c0,4.317-3.511,7.829-7.829,7.829h-42.797v15.658
			h10.438v26.096h-7.307v15.657h7.307v74.112h15.658V76.722h16.701c12.951,0,23.486-10.536,23.486-23.486
			C319.674,40.286,309.139,29.749,296.188,29.749z"/>
	</g>
</g>
<g>
	<g>
		<path d="M358.818,134.133h-35.49v15.658h35.49c4.317,0,7.829,3.511,7.829,7.829c0,4.317-3.511,7.829-7.829,7.829h-42.797v15.657
			h42.797c12.951,0,23.486-10.536,23.486-23.486C382.304,144.669,371.769,134.133,358.818,134.133z"/>
	</g>
</g>
<g>
	<g>
		<path d="M226.574,270.59c-5.233,3.431-11.299,5.243-17.546,5.243v15.657c9.305,0,18.339-2.699,26.129-7.806L226.574,270.59z"/>
	</g>
</g>
<g>
	<g>
		<path d="M216.857,195.835v-51.786c0-21.584-17.559-39.144-39.144-39.144h-7.829v162.353c0,32.5,26.44,58.94,58.94,58.94V310.54h0
			c-23.866,0-43.282-19.416-43.282-43.283V121.904c9.113,3.232,15.657,11.937,15.657,22.145v66.805h7.829
			c17.842,0,32.359,14.516,32.359,32.359c0,7.205-2.309,14.048-6.678,19.789l12.459,9.482c6.461-8.491,9.877-18.613,9.877-29.271
			C257.044,219.402,239.623,199.583,216.857,195.835z"/>
	</g>
</g>
<g>
	<g>
		<path d="M326.459,194.675v72.583c0,23.866-19.416,43.283-43.283,43.283v15.657c32.5,0,58.94-26.44,58.94-58.94v-72.583H326.459z"
			/>
	</g>
</g>
<g>
	<g>
		<path d="M371.32,104.905c3.196-2.583,5.243-6.531,5.243-10.96c0-7.783-6.309-14.092-14.092-14.092s-14.092,6.309-14.092,14.092
			c0,1.078,0.133,2.123,0.361,3.132h-18.628V81.419h-37.056v15.658h21.399v15.657h-29.749v15.657h10.438v16.179h-7.307v15.657h7.307
			v31.315h15.657v-63.152h19.311v-15.657h18.628c-0.23,1.008-0.361,2.053-0.361,3.132c0,7.783,6.309,14.092,14.092,14.092
			s14.092-6.309,14.092-14.092C376.563,111.436,374.515,107.489,371.32,104.905z"/>
	</g>
</g>
<g>
	<g>
		<rect x="189.717" y="329.329" width="15.657" height="81.419"/>
	</g>
</g>
<g>
	<g>
		<rect x="307.67" y="329.329" width="15.657" height="81.419"/>
	</g>
</g>
<g>
	<g>
		<path d="M447.36,496.344v-0.001c-25.708-40.413-64.156-72.117-108.663-89.498l-5.695,14.585
			c38.289,14.952,71.762,41.301,95.511,74.914H247.128v15.657h264.09v-15.657H447.36z"/>
	</g>
</g>
<g>
	<g>
		<rect x="210.594" y="496.343" width="26.096" height="15.657"/>
	</g>
</g>
<g>
	<g>
		<rect x="263.829" y="338.724" width="15.658" height="26.096"/>
	</g>
</g>
<g>
</g>
<g>
</g>
<g>
</g>
<g>
</g>
<g>
</g>
<g>
</g>
<g>
</g>
<g>
</g>
<g>
</g>
<g>
</g>
<g>
</g>
<g>
</g>
<g>
</g>
<g>
</g>
<g>
</g>
</svg>
