<svg id="Layer_3" enable-background="new 0 0 64 64" height="512" viewBox="0 0 64 64" width="512" xmlns="http://www.w3.org/2000/svg"><path d="m6 37h12c.552 0 1-.447 1-1v-12c0-.552-.448-1-1-1h-12c-.552 0-1 .448-1 1v12c0 .553.448 1 1 1zm1-12h10v10h-10z"/><path d="m8 53h2v4h-2z"/><path d="m6 45h12c.552 0 1-.447 1-1v-4c0-.553-.448-1-1-1h-12c-.552 0-1 .447-1 1v4c0 .553.448 1 1 1zm1-4h10v2h-10z"/><path d="m26 37h12c.552 0 1-.447 1-1v-12c0-.552-.448-1-1-1h-12c-.552 0-1 .448-1 1v12c0 .553.448 1 1 1zm1-12h10v10h-10z"/><path d="m28 53h2v4h-2z"/><path d="m39 40c0-.553-.448-1-1-1h-12c-.552 0-1 .447-1 1v4c0 .553.448 1 1 1h12c.552 0 1-.447 1-1zm-2 3h-10v-2h10z"/><path d="m62 19h-17v-2h3c.552 0 1-.448 1-1v-14c0-.552-.448-1-1-1h-32c-.552 0-1 .448-1 1v14c0 .552.448 1 1 1h3v2h-17c-.552 0-1 .448-1 1v42c0 .553.448 1 1 1h60c.552 0 1-.447 1-1v-42c0-.552-.448-1-1-1zm-25 42h-10v-12h10zm1-14h-12c-.552 0-1 .447-1 1v13h-2v-40h18v40h-2v-13c0-.553-.448-1-1-1zm-21-44h30v12h-30zm4 14h22v2h-22zm-18 4h18v40h-2v-13c0-.553-.448-1-1-1h-12c-.552 0-1 .447-1 1v13h-2zm14 40h-10v-12h10zm40 0h-10v-12h10zm4 0h-2v-13c0-.553-.448-1-1-1h-12c-.552 0-1 .447-1 1v13h-2v-40h18z"/><path d="m46 37h12c.552 0 1-.447 1-1v-12c0-.552-.448-1-1-1h-12c-.552 0-1 .448-1 1v12c0 .553.448 1 1 1zm1-12h10v10h-10z"/><path d="m48 53h2v4h-2z"/><path d="m46 45h12c.552 0 1-.447 1-1v-4c0-.553-.448-1-1-1h-12c-.552 0-1 .447-1 1v4c0 .553.448 1 1 1zm1-4h10v2h-10z"/><path d="m24 5c-1.654 0-3 1.346-3 3v5h2v-2h2v2h2v-5c0-1.654-1.346-3-3-3zm-1 4v-1c0-.551.449-1 1-1s1 .449 1 1v1z"/><path d="m29 7h2v6h2v-6h2v-2h-6z"/><path d="m42.23 5.027c-.456-.107-.917.111-1.125.526l-1.105 2.211-1.105-2.211c-.207-.415-.669-.632-1.125-.526-.451.106-.77.509-.77.973v7h2v-2.764l.105.211c.339.678 1.45.678 1.789 0l.106-.211v2.764h2v-7c0-.464-.319-.867-.77-.973z"/></svg>