<svg id="Layer_3" enable-background="new 0 0 64 64" height="512" viewBox="0 0 64 64" width="512" xmlns="http://www.w3.org/2000/svg"><path d="m14 5h26v2h-26z"/><path d="m59 55c-.74 0-1.424.215-2.019.567l-2.567-2.567 1.293-1.293c.391-.391.391-1.023 0-1.414l-2.327-2.327c2.334-2.669 3.62-6.043 3.62-9.622v-2.344c0-.404-.243-.769-.617-.924-.374-.154-.803-.07-1.09.217l-4.293 4.293v-14.126c1.224-1.099 2-2.688 2-4.46v-7c0-.552-.447-1-1-1h-12v-2h3c.553 0 1-.448 1-1v-8c0-.552-.447-1-1-1h-32c-.553 0-1 .448-1 1v8c0 .552.447 1 1 1h3v2h-12c-.553 0-1 .448-1 1v7c0 1.771.776 3.36 2 4.46v27.54h-1c-.553 0-1 .448-1 1v4c0 .552.447 1 1 1h31c0 2.206 1.794 4 4 4s4-1.794 4-4h11c.553 0 1-.448 1-1v-3.586l2.567 2.567c-.352.595-.567 1.279-.567 2.019 0 2.206 1.794 4 4 4s4-1.794 4-4-1.794-4-4-4zm-8-1.414-4.636-4.636c-2.84-2.84-4.632-6.447-5.183-10.354l12.405 12.404zm-6-14-4.293-4.293c-.285-.287-.715-.37-1.09-.217-.374.155-.617.52-.617.924 0 3.964 1.139 7.749 3.244 11h-13.244v-16h16zm-2.586 11.414 1.632-1.632c.295.336.584.677.904.996l1.636 1.636-1.586 1.586zm9.552-4.448-2.552-2.552 5.586-5.585c-.017 3.018-1.091 5.866-3.034 8.137zm-.966-25.552c0 2.206-1.794 4-4 4s-4-1.794-4-4v-6h8zm-10 0c0 2.206-1.794 4-4 4s-4-1.794-4-4v-6h8zm-28-6h8v6c0 2.206-1.794 4-4 4s-4-1.794-4-4zm10 0h8v6c0 2.206-1.794 4-4 4s-4-1.794-4-4zm-11-12h30v6h-30zm4 8h22v2h-22zm-13 4h8v6c0 2.206-1.794 4-4 4s-4-1.794-4-4zm30.556 42h-30.556v-2h29v-2h-7v-19c0-.552-.447-1-1-1h-16c-.553 0-1 .448-1 1v19h-2v-26.35c.627.222 1.298.35 2 .35 2.086 0 3.924-1.071 5-2.69 1.076 1.62 2.914 2.69 5 2.69s3.924-1.071 5-2.69c1.076 1.62 2.914 2.69 5 2.69s3.924-1.071 5-2.69c1.076 1.62 2.914 2.69 5 2.69s3.924-1.071 5-2.69c1.076 1.62 2.914 2.69 5 2.69.702 0 1.373-.128 2-.35v14.936l-1 1-1-1v-11.586c0-.552-.447-1-1-1h-18c-.553 0-1 .448-1 1v18c0 .552.447 1 1 1h13.586l-1.293 1.293c-.391.391-.391 1.023 0 1.414l1.293 1.293-2.567 2.567c-.595-.352-1.279-.567-2.019-.567-1.474 0-2.75.81-3.444 2zm-10.556-4h-14v-18h14zm14 8c-1.103 0-2-.897-2-2s.897-2 2-2 2 .897 2 2-.897 2-2 2zm14-4h-10.556c-.004-.006-.007-.013-.01-.019l2.566-2.567 1.293 1.293c.195.195.451.293.707.293s.512-.098.707-.293l2.293-2.293 2.293 2.293c.187.188.441.293.707.293zm8 4c-1.103 0-2-.897-2-2s.897-2 2-2 2 .897 2 2-.897 2-2 2z"/><path d="m11 41h2v6h-2z"/></svg>