<svg id="Layer_3" enable-background="new 0 0 64 64" height="512" viewBox="0 0 64 64" width="512" xmlns="http://www.w3.org/2000/svg"><path d="m56 36c0-1.654-1.346-3-3-3h-2.051c-.406-5.299-3.995-9.713-8.86-11.331.949-.686 1.716-1.603 2.225-2.669h3.686c1.654 0 3-1.346 3-3s-1.346-3-3-3h-3.685c-1.126-2.361-3.53-4-6.315-4s-5.188 1.639-6.315 4h-3.685c-1.654 0-3 1.346-3 3s1.346 3 3 3h3.685c.509 1.066 1.277 1.983 2.225 2.669-4.865 1.618-8.453 6.032-8.86 11.331h-8.05-3v-10h6c.553 0 1-.448 1-1v-20c0-.552-.447-1-1-1h-18c-.553 0-1 .448-1 1v20c0 .552.447 1 1 1h6v10h-3c-.553 0-1 .447-1 1v28c0 .553.447 1 1 1h12c.553 0 1-.447 1-1v-23h7v10c0 4.411 3.589 8 8 8v1c0 2.757 2.243 5 5 5s5-2.243 5-5v-1c4.411 0 8-3.589 8-8v-10h2c1.654 0 3-1.346 3-3zm-8-21c.552 0 1 .449 1 1s-.448 1-1 1h-3.08c.047-.328.08-.66.08-1s-.033-.672-.08-1zm-20 2c-.552 0-1-.449-1-1s.448-1 1-1h3.08c-.047.328-.08.66-.08 1s.033.672.08 1zm5-1c0-2.757 2.243-5 5-5s5 2.243 5 5-2.243 5-5 5-5-2.243-5-5zm5 7c5.728 0 10.442 4.402 10.949 10h-2.008c-.499-4.493-4.316-8-8.941-8s-8.442 3.507-8.941 8h-2.008c.507-5.598 5.221-10 10.949-10zm6.92 10h-13.84c.488-3.387 3.401-6 6.92-6s6.432 2.613 6.92 6zm-41.92-30h16v18h-16zm7 20h2v10h-2zm6 12v4h-10v-4zm-10 26v-20h10v20zm12-26h35c.552 0 1 .448 1 1s-.448 1-1 1h-35zm23 23c0 1.654-1.346 3-3 3s-3-1.346-3-3v-4c0-1.654 1.346-3 3-3s3 1.346 3 3zm8-9c0 3.309-2.691 6-6 6v-1c0-2.757-2.243-5-5-5s-5 2.243-5 5v1c-3.309 0-6-2.691-6-6v-10h22z"/><path d="m12 7h-4c-.553 0-1 .448-1 1v9h2v-4h3c1.654 0 3-1.346 3-3s-1.346-3-3-3zm0 4h-3v-2h3c.552 0 1 .449 1 1s-.448 1-1 1z"/><path d="m13 47h-4c-.553 0-1 .447-1 1v8c0 .553.447 1 1 1h4c.553 0 1-.447 1-1v-8c0-.553-.447-1-1-1zm-1 2v2h-2v-2zm-2 6v-2h2v2z"/><path d="m33 49c2.206 0 4-1.794 4-4s-1.794-4-4-4-4 1.794-4 4 1.794 4 4 4zm0-6c1.103 0 2 .897 2 2s-.897 2-2 2-2-.897-2-2 .897-2 2-2z"/><path d="m43 49c2.206 0 4-1.794 4-4s-1.794-4-4-4-4 1.794-4 4 1.794 4 4 4zm0-6c1.103 0 2 .897 2 2s-.897 2-2 2-2-.897-2-2 .897-2 2-2z"/><path d="m59 45c-2.206 0-4 1.794-4 4v13c0 .553.447 1 1 1h6c.553 0 1-.447 1-1v-13c0-2.206-1.794-4-4-4zm0 2c1.103 0 2 .897 2 2v8h-4v-8c0-1.103.897-2 2-2zm-2 14v-2h4v2z"/></svg>