<svg id="Layer_3" enable-background="new 0 0 64 64" height="512" viewBox="0 0 64 64" width="512" xmlns="http://www.w3.org/2000/svg"><path d="m62 27h-15v-2h1c.553 0 1-.447 1-1v-6c0-.553-.447-1-1-1h-1v-13c0-.553-.447-1-1-1h-12c-.553 0-1 .447-1 1v4.586l-4 4v-7.586c0-2.206-1.794-4-4-4s-4 1.794-4 4v6h-4v-5c0-.553-.447-1-1-1h-12c-.553 0-1 .447-1 1v11h-1c-.553 0-1 .447-1 1v6c0 .553.447 1 1 1h1v16c0 4.411 3.589 8 8 8h16v13c0 .553.447 1 1 1h18 16c.553 0 1-.447 1-1v-16-10-8c0-.553-.447-1-1-1zm-6 13c-1.654 0-3 1.346-3 3v1c0 .552-.448 1-1 1s-1-.448-1-1v-7h10v9c0 .552-.448 1-1 1s-1-.448-1-1v-3c0-1.654-1.346-3-3-3zm5-5h-18v-1c0-.553-.447-1-1-1h-3v-4h22zm-56-4h4v4h-4zm10-6v4h-4v-4zm23 2c-.553 0-1 .447-1 1v1h-2v-4h4v2zm3 10h-8v-2h8zm-18-6h4v4h-4zm-2 4h-4v-4h4zm6 2v4h-4v-4zm2 0h2v.586l-2 2zm3-4c-.553 0-1 .447-1 1v1h-2v-4h4v2zm3 0v-2h2v2zm-2-4h-4v-4h4zm-6 0h-4v-4h4zm-6 0h-4v-4h4zm-6 2v4h-4v-4zm-10 6h4v4h-4zm6 0h4v4h-4zm6 0h4v4h-4zm4 6v4h-4v-4zm2 0h4v4h-4zm14 6v6h-8v-6zm-8-2v-4h8v4zm1.414-6 2-2h7.172l-2 2zm14.586-14h-4v-2h4zm-10-22h10v12h-7.586l3.293-3.293c.391-.391.391-1.023 0-1.414l-5-5c-.195-.195-.451-.293-.707-.293zm0 4.414 3.586 3.586-4 4h-5.586v-1.586zm-10-6.414c1.103 0 2 .897 2 2v12h-4v-12c0-1.103.897-2 2-2zm-4 14h-10v-4h10zm-16-10h10v4h-5c-.553 0-1 .447-1 1v5h-4zm-2 12h44v4h-44zm6 6v4h-4v-4zm-3.65 18h3.65v3.65c-1.7-.604-3.046-1.95-3.65-3.65zm5.65 0h4v4h-4zm18 18v-4h8v4zm16 0h-6v-18.586l3-3 3 3zm-2-23.414v-.586h6v7c0 1.654 1.346 3 3 3s3-1.346 3-3v-1c0-.552.448-1 1-1s1 .448 1 1v3c0 1.654 1.346 3 3 3 .352 0 .686-.072 1-.184v4.184h-14v-11c0-.266-.105-.52-.293-.707zm4 23.414v-6h14v6z"/></svg>