<svg id="Layer_3" enable-background="new 0 0 64 64" height="512" viewBox="0 0 64 64" width="512" xmlns="http://www.w3.org/2000/svg"><path d="m51 31h2v8h-2z"/><path d="m55 31h2v8h-2z"/><path d="m51 49h2v8h-2z"/><path d="m55 49h2v8h-2z"/><path d="m62 7h-19c-3.157 0-6.09 1.494-7.977 4h-1.023c-1.654 0-3 1.346-3 3v6c0 1.654 1.346 3 3 3h1.023c.976 1.296 2.228 2.316 3.653 3-1.425.684-2.677 1.704-3.653 3h-1.023c-1.654 0-3 1.346-3 3v6c0 1.654 1.346 3 3 3h1.023c.976 1.296 2.228 2.316 3.653 3-1.425.684-2.677 1.704-3.653 3h-1.023c-1.654 0-3 1.346-3 3v6c0 1.654 1.346 3 3 3h1.023c1.887 2.506 4.82 4 7.977 4h19c.552 0 1-.448 1-1v-54c0-.552-.448-1-1-1zm-28 6h4.586l-5.586 5.586v-4.586c0-.551.449-1 1-1zm-.459 7.874 7.873-7.874h1.586c.997 0 1.899.38 2.6.986l-7.014 7.014h-4.586c-.168 0-.32-.053-.459-.126zm13.459-3.874c0 2.206-1.794 4-4 4h-1.586l5.339-5.339c.15.421.247.867.247 1.339zm-9.284 6h5.284c3.309 0 6-2.691 6-6s-2.691-6-6-6h-5.284c1.444-1.273 3.311-2 5.284-2h18v16h-18c-1.973 0-3.84-.727-5.284-2zm-3.716 8h4.586l-5.586 5.586v-4.586c0-.551.449-1 1-1zm-.459 7.874 7.873-7.874h1.586c.997 0 1.899.38 2.6.986l-7.014 7.014h-4.586c-.168 0-.32-.053-.459-.126zm13.459-3.874c0 2.206-1.794 4-4 4h-1.586l5.339-5.339c.15.421.247.867.247 1.339zm-9.284 6h5.284c3.309 0 6-2.691 6-6s-2.691-6-6-6h-5.284c1.444-1.273 3.312-2 5.284-2h18v16h-18c-1.973 0-3.84-.727-5.284-2zm-3.716 8h4.586l-5.586 5.586v-4.586c0-.551.449-1 1-1zm-.459 7.874 7.873-7.874h1.586c.997 0 1.899.38 2.6.986l-7.014 7.014h-4.586c-.168 0-.32-.053-.459-.126zm13.459-3.874c0 2.206-1.794 4-4 4h-1.586l5.339-5.339c.15.421.247.867.247 1.339zm-4 8c-1.973 0-3.84-.727-5.284-2h5.284c3.309 0 6-2.691 6-6s-2.691-6-6-6h-5.284c1.444-1.273 3.312-2 5.284-2h18v16z"/><path d="m51 13h2v8h-2z"/><path d="m55 13h2v8h-2z"/><path d="m23 33h-2v-15c0-.552-.448-1-1-1h-10c-.552 0-1 .448-1 1v15h-2c-3.309 0-6 2.691-6 6v19c0 2.757 2.243 5 5 5h18c2.757 0 5-2.243 5-5v-19c0-3.309-2.691-6-6-6zm-12-14h8v14h-8zm-4 16h16c2.206 0 4 1.794 4 4h-24c0-2.206 1.794-4 4-4zm20 6v14h-24v-14zm-3 20h-18c-1.654 0-3-1.346-3-3v-1h24v1c0 1.654-1.346 3-3 3z"/><path d="m7 43h16v2h-16z"/><path d="m7 51h16v2h-16z"/><path d="m9 47h12v2h-12z"/><path d="m30.316 5.051c-1.582-.527-2.84-1.786-3.367-3.367-.137-.409-.518-.684-.949-.684s-.812.275-.949.684c-.527 1.582-1.786 2.84-3.367 3.367-.409.137-.684.518-.684.949s.275.812.684.949c1.582.527 2.84 1.786 3.367 3.367.137.409.518.684.949.684s.812-.275.949-.684c.527-1.582 1.786-2.84 3.367-3.367.409-.137.684-.518.684-.949s-.275-.812-.684-.949zm-4.316 2.753c-.492-.701-1.103-1.312-1.804-1.804.701-.492 1.312-1.103 1.804-1.804.492.701 1.103 1.312 1.804 1.804-.701.492-1.312 1.103-1.804 1.804z"/><path d="m1.684 12.949c1.582.527 2.84 1.786 3.367 3.367.137.409.518.684.949.684s.812-.275.949-.684c.527-1.582 1.786-2.84 3.367-3.367.409-.137.684-.518.684-.949s-.275-.812-.684-.949c-1.582-.527-2.84-1.786-3.367-3.367-.137-.409-.518-.684-.949-.684s-.812.275-.949.684c-.527 1.582-1.786 2.84-3.367 3.367-.409.137-.684.518-.684.949s.275.812.684.949zm4.316-2.753c.492.701 1.103 1.312 1.804 1.804-.701.492-1.312 1.103-1.804 1.804-.492-.701-1.103-1.312-1.804-1.804.701-.492 1.312-1.103 1.804-1.804z"/></svg>