<svg id="Layer_3" enable-background="new 0 0 64 64" height="512" viewBox="0 0 64 64" width="512" xmlns="http://www.w3.org/2000/svg"><path d="m62 43h-1v-7c0-.553-.447-1-1-1h-30c-.553 0-1 .447-1 1v7h-19c-.553 0-1 .447-1 1v14c0 .553.447 1 1 1h1v3c0 .553.447 1 1 1h4c.553 0 1-.447 1-1v-3h38v3c0 .553.447 1 1 1h4c.553 0 1-.447 1-1v-3h1c.553 0 1-.447 1-1v-14c0-.553-.447-1-1-1zm-3-6v2h-28v-2zm-28 4h28v2h-28zm-16 20h-2v-2h2zm44 0h-2v-2h2zm2-4h-50v-12h50z"/><path d="m14 55h24c.553 0 1-.447 1-1v-6c0-.553-.447-1-1-1h-24c-.553 0-1 .447-1 1v6c0 .553.447 1 1 1zm1-6h22v4h-22z"/><path d="m45 55c2.206 0 4-1.794 4-4s-1.794-4-4-4-4 1.794-4 4 1.794 4 4 4zm0-6c1.103 0 2 .897 2 2s-.897 2-2 2-2-.897-2-2 .897-2 2-2z"/><path d="m55 55c2.206 0 4-1.794 4-4s-1.794-4-4-4-4 1.794-4 4 1.794 4 4 4zm0-6c1.103 0 2 .897 2 2s-.897 2-2 2-2-.897-2-2 .897-2 2-2z"/><path d="m16 13h-10c-.553 0-1 .448-1 1v4c0 .552.447 1 1 1h10c.553 0 1-.448 1-1v-4c0-.552-.447-1-1-1zm-1 4h-8v-2h8z"/><path d="m16.026 39c.914 1.207 2.348 2 3.974 2 2.757 0 5-2.243 5-5 0-1.627-.793-3.061-2-3.974v-5.026h3c.553 0 1-.448 1-1v-3h13c.553 0 1-.448 1-1v-1h5c.553 0 1-.448 1-1v-16c0-.552-.447-1-1-1h-5v-1c0-.552-.447-1-1-1h-36c-1.654 0-3 1.346-3 3v16c0 1.654 1.346 3 3 3h9v3c0 .552.447 1 1 1h3v5.026c-.369.279-.695.606-.974.974h-9.026v-2c0-.552-.447-1-1-1h-4c-.553 0-1 .448-1 1v10c0 .553.447 1 1 1h4c.553 0 1-.447 1-1v-2zm-11.026 1h-2v-8h2zm15-1c-1.654 0-3-1.346-3-3s1.346-3 3-3 3 1.346 3 3-1.346 3-3 3zm25-34v14h-4v-14zm-41-2h35v4h-36v-3c0-.551.448-1 1-1zm-1 17v-11h36v12h-35c-.552 0-1-.449-1-1zm12 3h10v2h-10zm4 4h2v4.101c-.323-.066-.658-.101-1-.101s-.677.035-1 .101zm-3.899 8c-.066.323-.101.658-.101 1s.035.677.101 1h-8.101v-2z"/></svg>