<svg id="Layer_3" enable-background="new 0 0 64 64" height="512" viewBox="0 0 64 64" width="512" xmlns="http://www.w3.org/2000/svg"><path d="m60 21h-5.586l-5.707-5.707c-.391-.391-1.023-.391-1.414 0l-4.293 4.293v-5.586c0-.553-.448-1-1-1h-15c-.552 0-1 .447-1 1v5.586l-.293-.293c-.391-.391-1.023-.391-1.414 0l-3 3c-.391.391-.391 1.023 0 1.414l1.293 1.293h-4.586c-.552 0-1 .447-1 1v20c0 .553.448 1 1 1h31v2h-29c-1.654 0-3 1.346-3 3s1.346 3 3 3h2.026c-.635.838-1.026 1.87-1.026 3 0 2.757 2.243 5 5 5s5-2.243 5-5c0-1.13-.391-2.162-1.026-3h12.051c-.634.838-1.025 1.87-1.025 3 0 2.757 2.243 5 5 5s5-2.243 5-5c0-1.13-.391-2.162-1.026-3h2.026c1.654 0 3-1.346 3-3v-25h5c1.654 0 3-1.346 3-3s-1.346-3-3-3zm-12-3.586 3.586 3.586h-1.586c-.552 0-1 .447-1 1v3h-8.586zm-7-2.414v2h-13v-2zm-13 4h13v2.586l-3.414 3.414h-6.172l-3.414-3.414zm-4.586 4 1.586-1.586 3.586 3.586h-3.172zm25.586 4v2h-30v-2zm-24 4v14h-2v-14zm2 0h2v14h-2zm4 0h2v14h-2zm4 0h2v14h-2zm4 0h2v14h-2zm4 0h2v14h-2zm-24 0h2v14h-2zm28 14v-14h2v14zm-18 13c0 1.654-1.346 3-3 3s-3-1.346-3-3 1.346-3 3-3 3 1.346 3 3zm20 0c0 1.654-1.346 3-3 3s-3-1.346-3-3 1.346-3 3-3 3 1.346 3 3zm11-33h-6c-.552 0-1 .447-1 1v26c0 .552-.449 1-1 1h-32c-.551 0-1-.448-1-1s.449-1 1-1h30c.552 0 1-.447 1-1v-4-20-3h9c.551 0 1 .448 1 1s-.449 1-1 1z"/><path d="m23 12c0-6.065-4.935-11-11-11s-11 4.935-11 11 4.935 11 11 11 11-4.935 11-11zm-11 9c-4.962 0-9-4.037-9-9s4.038-9 9-9 9 4.037 9 9-4.038 9-9 9z"/><path d="m6.343 11h11.314v2h-11.314z" transform="matrix(.707 -.707 .707 .707 -4.971 12)"/><path d="m9.5 11c.827 0 1.5-.673 1.5-1.5s-.673-1.5-1.5-1.5-1.5.673-1.5 1.5.673 1.5 1.5 1.5z"/><path d="m14.5 13c-.827 0-1.5.673-1.5 1.5s.673 1.5 1.5 1.5 1.5-.673 1.5-1.5-.673-1.5-1.5-1.5z"/><path d="m53.684 12.948c1.582.528 2.841 1.787 3.368 3.368.136.409.517.684.948.684s.812-.275.949-.684c.527-1.581 1.786-2.84 3.368-3.368.408-.136.683-.517.683-.948s-.275-.812-.684-.948c-1.582-.528-2.841-1.787-3.368-3.368-.136-.409-.517-.684-.948-.684s-.812.275-.949.684c-.527 1.581-1.786 2.84-3.368 3.368-.408.136-.683.517-.683.948s.275.812.684.948zm4.316-2.752c.492.7 1.104 1.312 1.804 1.804-.701.492-1.312 1.104-1.804 1.804-.492-.7-1.104-1.312-1.804-1.804.7-.492 1.312-1.104 1.804-1.804z"/><path d="m10.316 41.052c-1.582-.528-2.841-1.787-3.368-3.368-.136-.409-.517-.684-.948-.684s-.812.275-.949.684c-.527 1.581-1.786 2.84-3.368 3.368-.408.136-.683.517-.683.948s.275.812.684.948c1.582.528 2.841 1.787 3.368 3.368.136.409.517.684.948.684s.812-.275.949-.684c.527-1.581 1.786-2.84 3.368-3.368.408-.136.683-.517.683-.948s-.275-.812-.684-.948zm-4.316 2.752c-.492-.7-1.104-1.312-1.804-1.804.7-.492 1.312-1.104 1.804-1.804.492.7 1.104 1.312 1.804 1.804-.7.492-1.312 1.104-1.804 1.804z"/></svg>