<svg id="Layer_3" enable-background="new 0 0 64 64" height="512" viewBox="0 0 64 64" width="512" xmlns="http://www.w3.org/2000/svg"><path d="m46 17h-28c-3.859 0-7 3.14-7 7v8c0 .552.447 1 1 1h40c.553 0 1-.448 1-1v-8c0-3.86-3.141-7-7-7zm-33 7c0-2.757 2.243-5 5-5h13v12h-18zm38 7h-18v-12h13c2.757 0 5 2.243 5 5z"/><path d="m11 39c-2.206 0-4 1.794-4 4s1.794 4 4 4 4-1.794 4-4-1.794-4-4-4zm0 6c-1.103 0-2-.897-2-2s.897-2 2-2 2 .897 2 2-.897 2-2 2z"/><path d="m49 43c0 2.206 1.794 4 4 4s4-1.794 4-4-1.794-4-4-4-4 1.794-4 4zm6 0c0 1.103-.897 2-2 2s-2-.897-2-2 .897-2 2-2 2 .897 2 2z"/><path d="m16.172 24h5.657v2h-5.657z" transform="matrix(.707 -.707 .707 .707 -12.113 20.757)"/><path d="m22.172 24h5.657v2h-5.657z" transform="matrix(.707 -.707 .707 .707 -10.355 25)"/><path d="m36.172 24h5.657v2h-5.657z" transform="matrix(.707 -.707 .707 .707 -6.255 34.9)"/><path d="m42.172 24h5.657v2h-5.657z" transform="matrix(.707 -.707 .707 .707 -4.498 39.142)"/><path d="m60 24h-3c0-6.065-4.935-11-11-11h-28c-6.065 0-11 4.935-11 11h-3c-1.654 0-3 1.346-3 3v4c0 1.654 1.346 3 3 3h3v1.35c-2.327.826-4 3.043-4 5.65v8h-1c-.553 0-1 .448-1 1v6c0 .552.447 1 1 1h3v3c0 1.654 1.346 3 3 3h6c1.654 0 3-1.346 3-3v-3h30v3c0 1.654 1.346 3 3 3h6c1.654 0 3-1.346 3-3v-3h3c.553 0 1-.448 1-1v-6c0-.552-.447-1-1-1h-1v-8c0-2.607-1.673-4.824-4-5.65v-1.35h3c1.654 0 3-1.346 3-3v-4c0-1.654-1.346-3-3-3zm-56 8c-.552 0-1-.449-1-1v-4c0-.551.448-1 1-1h3v6zm-1 19h21v4h-21zm42-6h-26v-2h26zm-26 2h26v2h-26zm19 4v4h-12v-4zm-23 9c0 .551-.448 1-1 1h-6c-.552 0-1-.449-1-1v-3h8zm42 0c0 .551-.448 1-1 1h-6c-.552 0-1-.449-1-1v-3h8zm4-5h-21v-4h21zm-2-14v8h-12v-7c0-.552-.447-1-1-1h-28c-.553 0-1 .448-1 1v7h-12v-8c0-2.206 1.794-4 4-4h46c2.206 0 4 1.794 4 4zm-50-6v-11c0-4.962 4.037-9 9-9h28c4.963 0 9 4.038 9 9v11zm52-4c0 .551-.448 1-1 1h-3v-6h3c.552 0 1 .449 1 1z"/><path d="m27.684 6.949c1.581.527 2.84 1.786 3.368 3.368.136.408.517.683.948.683s.812-.275.948-.684c.528-1.582 1.787-2.841 3.368-3.368.409-.136.684-.517.684-.948s-.275-.812-.684-.949c-1.581-.527-2.84-1.786-3.368-3.368-.136-.408-.517-.683-.948-.683s-.812.275-.948.684c-.528 1.582-1.787 2.841-3.368 3.368-.409.136-.684.517-.684.948s.275.812.684.949zm4.316-2.753c.492.7 1.104 1.312 1.804 1.804-.7.492-1.312 1.104-1.804 1.804-.492-.7-1.104-1.312-1.804-1.804.7-.492 1.312-1.104 1.804-1.804z"/><path d="m1.684 10.949c1.581.527 2.84 1.786 3.368 3.368.136.408.517.683.948.683s.812-.275.948-.684c.528-1.582 1.787-2.841 3.368-3.368.409-.136.684-.517.684-.948s-.275-.812-.684-.949c-1.581-.527-2.84-1.786-3.368-3.368-.136-.408-.517-.683-.948-.683s-.812.275-.948.684c-.529 1.582-1.787 2.84-3.368 3.367-.409.137-.684.518-.684.949s.275.812.684.949zm4.316-2.753c.492.7 1.104 1.312 1.804 1.804-.7.492-1.312 1.104-1.804 1.804-.492-.7-1.104-1.312-1.804-1.804.7-.492 1.312-1.104 1.804-1.804z"/><path d="m53.684 10.949c1.581.527 2.84 1.786 3.368 3.368.136.408.517.683.948.683s.812-.275.948-.684c.528-1.582 1.787-2.841 3.368-3.368.409-.136.684-.517.684-.948s-.275-.812-.684-.949c-1.581-.527-2.84-1.786-3.368-3.368-.136-.408-.517-.683-.948-.683s-.812.275-.948.684c-.528 1.582-1.787 2.841-3.368 3.368-.409.136-.684.517-.684.948s.275.812.684.949zm4.316-2.753c.492.701 1.104 1.312 1.804 1.804-.7.492-1.312 1.104-1.804 1.804-.492-.701-1.104-1.312-1.804-1.804.7-.492 1.312-1.104 1.804-1.804z"/></svg>