<svg id="Layer_3" enable-background="new 0 0 64 64" height="512" viewBox="0 0 64 64" width="512" xmlns="http://www.w3.org/2000/svg"><path d="m62 35.121c.553 0 1-.447 1-1v-4c0-.553-.447-1-1-1h-1v-5c0-.553-.447-1-1-1h-9v-2h7c.553 0 1-.447 1-1v-14c0-.553-.447-1-1-1h-20c-.553 0-1 .447-1 1v14c0 .553.447 1 1 1h7v2h-9c-.553 0-1 .447-1 1v5h-7v-5c0-1.635-.637-3.172-1.793-4.328s-2.693-1.793-4.328-1.793h-1.879v-1.468c2.928-1.19 5-4.061 5-7.411 0-4.411-3.589-8-8-8s-8 3.589-8 8c0 3.35 2.072 6.221 5 7.411v1.468h-1.879c-1.635 0-3.172.637-4.328 1.793s-1.793 2.693-1.793 4.328v5h-4c-.553 0-1 .447-1 1v4c0 .553.447 1 1 1h1v21.879h-1c-.553 0-1 .447-1 1v4c0 .553.447 1 1 1h60c.553 0 1-.447 1-1v-4c0-.553-.447-1-1-1h-1v-21.879zm-5-28v2h-18v-2zm-18 4h18v8h-18zm8 10h2v2h-2zm-10 4h22v4h-22zm-12.207-3.914c.767.768 1.207 1.829 1.207 2.914v5h-8v-7.707l1.414-1.414h2.465c1.085 0 2.146.44 2.914 1.207zm-1.799-12.207h-.873c-1.085 0-2.146-.44-2.914-1.207-.767-.768-1.207-1.829-1.207-2.914v-1.668c2.794.472 4.935 2.876 4.994 5.789zm-6.994-5.789v1.667c0 1.085-.44 2.146-1.207 2.914-.768.768-1.829 1.208-2.914 1.208h-.873c.059-2.913 2.2-5.317 4.994-5.789zm-4.694 7.789h.573c1.635 0 3.172-.637 4.328-1.793.301-.301.565-.628.793-.976.228.347.492.675.793.976 1.156 1.156 2.693 1.793 4.328 1.793h.573c-.791 2.39-3.042 4.121-5.694 4.121s-4.904-1.731-5.694-4.121zm5.694 6.121c.339 0 .672-.028 1-.069v1.534l-1 1-1-1v-1.534c.328.041.661.069 1 .069zm-9 7c0-1.085.44-2.146 1.207-2.914.768-.767 1.829-1.207 2.914-1.207h2.465l1.414 1.414v7.707h-8zm-5 7h58v2h-58zm58 29.879h-58v-2h58zm-2-4h-54v-21.879h54z"/><path d="m20 22h4v2h-4z"/><path d="m20 55c4.963 0 9-4.037 9-9s-4.037-9-9-9-9 4.037-9 9 4.037 9 9 9zm7-9c0 3.519-2.614 6.432-6 6.92v-2.104c1.161-.414 2-1.514 2-2.816 0-1.654-1.346-3-3-3-.552 0-1-.448-1-1s.448-1 1-1h3v-2h-2v-1.92c3.386.488 6 3.401 6 6.92zm-8-6.92v2.104c-1.161.414-2 1.514-2 2.816 0 1.654 1.346 3 3 3 .552 0 1 .448 1 1s-.448 1-1 1h-3v2h2v1.92c-3.386-.488-6-3.401-6-6.92s2.614-6.432 6-6.92z"/><path d="m44 55c4.963 0 9-4.037 9-9s-4.037-9-9-9-9 4.037-9 9 4.037 9 9 9zm7-9c0 3.519-2.614 6.432-6 6.92v-2.104c1.161-.414 2-1.514 2-2.816 0-1.654-1.346-3-3-3-.552 0-1-.448-1-1s.448-1 1-1h3v-2h-2v-1.92c3.386.488 6 3.401 6 6.92zm-8-6.92v2.104c-1.161.414-2 1.514-2 2.816 0 1.654 1.346 3 3 3 .552 0 1 .448 1 1s-.448 1-1 1h-3v2h2v1.92c-3.386-.488-6-3.401-6-6.92s2.614-6.432 6-6.92z"/></svg>