<svg id="Layer_3" enable-background="new 0 0 64 64" height="512" viewBox="0 0 64 64" width="512" xmlns="http://www.w3.org/2000/svg"><path d="m62 1h-60c-.553 0-1 .448-1 1v32c0 .552.447 1 1 1h60c.553 0 1-.448 1-1v-32c0-.552-.447-1-1-1zm-1 32h-58v-30h58z"/><path d="m56 37c-3.859 0-7 3.14-7 7v3.08c-.328-.047-.66-.08-1-.08s-.672.033-1 .08v-3.08c0-3.86-3.141-7-7-7s-7 3.14-7 7v3.08c-.328-.047-.66-.08-1-.08s-.672.033-1 .08v-3.08c0-3.86-3.141-7-7-7s-7 3.14-7 7v3.08c-.328-.047-.66-.08-1-.08s-.672.033-1 .08v-3.08c0-3.86-3.141-7-7-7s-7 3.14-7 7v8c0 .552.447 1 1 1h7.08c-.047.328-.08.66-.08 1v8c0 .552.447 1 1 1h12c.553 0 1-.448 1-1v-8c0-.34-.033-.672-.08-1h2.16c-.047.328-.08.66-.08 1v8c0 .552.447 1 1 1h12c.553 0 1-.448 1-1v-8c0-.34-.033-.672-.08-1h2.16c-.047.328-.08.66-.08 1v8c0 .552.447 1 1 1h12c.553 0 1-.448 1-1v-8c0-.34-.033-.672-.08-1h7.08c.553 0 1-.448 1-1v-8c0-3.86-3.141-7-7-7zm-53 14v-7c0-2.757 2.243-5 5-5s5 2.243 5 5v3.685c-1.45.692-2.623 1.865-3.315 3.315zm18 10h-10v-7c0-2.757 2.243-5 5-5s5 2.243 5 5zm1.315-10c-.692-1.45-1.865-2.623-3.315-3.315v-3.685c0-2.757 2.243-5 5-5s5 2.243 5 5v3.685c-1.45.692-2.623 1.865-3.315 3.315zm14.685 10h-10v-7c0-2.757 2.243-5 5-5s5 2.243 5 5zm1.315-10c-.692-1.45-1.865-2.623-3.315-3.315v-3.685c0-2.757 2.243-5 5-5s5 2.243 5 5v3.685c-1.45.692-2.623 1.865-3.315 3.315zm14.685 10h-10v-7c0-2.757 2.243-5 5-5s5 2.243 5 5zm8-10h-6.685c-.692-1.45-1.865-2.623-3.315-3.315v-3.685c0-2.757 2.243-5 5-5s5 2.243 5 5z"/><path d="m37.515 17.143-10-6c-.309-.186-.694-.19-1.008-.013s-.507.51-.507.87v12c0 .36.193.693.507.87.153.087.323.13.493.13.178 0 .356-.047.515-.143l10-6c.3-.18.485-.506.485-.857s-.185-.677-.485-.857zm-9.515 5.091v-8.468l7.057 4.234z"/><path d="m6 31h52c.553 0 1-.448 1-1v-24c0-.552-.447-1-1-1h-52c-.553 0-1 .448-1 1v24c0 .552.447 1 1 1zm1-24h50v22h-50z"/></svg>