<svg id="Layer_3" enable-background="new 0 0 64 64" height="512" viewBox="0 0 64 64" width="512" xmlns="http://www.w3.org/2000/svg"><path d="m44 25c-2.473 0-4.831.489-7 1.353v-5.66l7.352-2.757c.292-.11.517-.35.606-.649.09-.299.034-.623-.149-.876l-8-11-.015.011c-.031-.042-.049-.092-.087-.13l-1.172-1.171c-2.013-2.013-4.688-3.121-7.535-3.121-.553 0-1 .448-1 1v1c0 2.206-1.794 4-4 4s-4-1.794-4-4v-1c0-.552-.447-1-1-1-2.847 0-5.522 1.108-7.535 3.122l-1.172 1.171c-.037.037-.056.087-.087.13l-.015-.011-8 11c-.184.253-.239.577-.149.876s.314.539.606.649l7.352 2.756v2.307h-3c-.553 0-1 .448-1 1v24c0 .552.447 1 1 1h10c.553 0 1-.448 1-1v-10c0-.551.448-1 1-1s1 .449 1 1v10c0 .552.447 1 1 1h5.69c2.203 8.055 9.566 14 18.31 14 10.477 0 19-8.523 19-19s-8.523-19-19-19zm-7-6.443v-9.482l5.418 7.45zm-33.418-2.032 5.418-7.45v9.481zm7.418-10.11.879-.879c1.396-1.397 3.187-2.258 5.121-2.479.031 3.282 2.711 5.943 6 5.943s5.969-2.661 6-5.943c1.934.221 3.725 1.082 5.121 2.479l.879.879v20.858c-1.463.79-2.799 1.778-4 2.909v-6.182c0-.552-.447-1-1-1h-19zm18 18.585v2h-22v-2zm-22 22v-2h8v2zm11-12c-1.654 0-3 1.346-3 3v5h-8v-14h22v3.381c-2.305 2.968-3.74 6.63-3.949 10.619h-4.051v-5c0-1.654-1.346-3-3-3zm3 12v-2h4.051c.036.677.105 1.344.21 2zm23 14c-9.374 0-17-7.626-17-17s7.626-17 17-17 17 7.626 17 17-7.626 17-17 17z"/><path d="m42 41c0-2.206-1.794-4-4-4s-4 1.794-4 4 1.794 4 4 4 4-1.794 4-4zm-4 2c-1.103 0-2-.897-2-2s.897-2 2-2 2 .897 2 2-.897 2-2 2z"/><path d="m50 43c-2.206 0-4 1.794-4 4s1.794 4 4 4 4-1.794 4-4-1.794-4-4-4zm0 6c-1.103 0-2-.897-2-2s.897-2 2-2 2 .897 2 2-.897 2-2 2z"/><path d="m34.151 43h19.698v2.001h-19.698z" transform="matrix(.406 -.914 .914 .406 -14.078 66.338)"/><path d="m49.684 18.949c1.581.527 2.84 1.786 3.368 3.368.136.408.517.683.948.683s.812-.275.948-.684c.528-1.582 1.787-2.841 3.368-3.368.409-.136.684-.517.684-.948s-.275-.812-.684-.949c-1.581-.527-2.84-1.786-3.368-3.368-.136-.408-.517-.683-.948-.683s-.812.275-.948.684c-.528 1.582-1.787 2.841-3.368 3.368-.409.136-.684.517-.684.948s.275.812.684.949zm4.316-2.753c.492.701 1.104 1.312 1.804 1.804-.7.492-1.312 1.104-1.804 1.804-.492-.701-1.104-1.312-1.804-1.804.7-.492 1.312-1.104 1.804-1.804z"/><path d="m20.316 55.051c-1.581-.527-2.84-1.786-3.368-3.368-.136-.408-.517-.683-.948-.683s-.812.275-.948.684c-.528 1.582-1.787 2.841-3.368 3.368-.409.136-.684.517-.684.948s.275.812.684.949c1.581.527 2.84 1.786 3.368 3.368.136.408.517.683.948.683s.812-.275.948-.684c.528-1.582 1.787-2.841 3.368-3.368.409-.136.684-.517.684-.948s-.275-.812-.684-.949zm-4.316 2.753c-.492-.701-1.104-1.312-1.804-1.804.7-.492 1.312-1.104 1.804-1.804.492.701 1.104 1.312 1.804 1.804-.7.492-1.312 1.104-1.804 1.804z"/></svg>