<svg id="Layer_3" enable-background="new 0 0 64 64" height="512" viewBox="0 0 64 64" width="512" xmlns="http://www.w3.org/2000/svg"><path d="m57 31h-2v-1c0-.553-.447-1-1-1h-19.261l.21-4h1.051c.553 0 1-.447 1-1v-6c0-.553-.447-1-1-1h-1v-5c0-.553-.447-1-1-1h-3v-9c0-.553-.447-1-1-1h-4c-.553 0-1 .447-1 1v9h-21c-.553 0-1 .447-1 1v5h-1c-.553 0-1 .447-1 1v6c0 .553.447 1 1 1h1.051l1.95 37.053c.028.531.467.947.999.947h26 22c.266 0 .52-.105.707-.293l3.707-3.707h1.586c.553 0 1-.447 1-1v-4c0-.553-.447-1-1-1h-6.026c.442-.584.773-1.257.924-2h2.102c3.309 0 6-2.691 6-6v-8c0-3.309-2.691-6-6-6zm-2 6h2v8h-2zm-2-4h-20v-2h20zm-26-30h2v8h-2zm-22 10h28v4h-28zm-2 6h32v4h-32zm29.946 6-.21 4h-.736c-.553 0-1 .447-1 1v1h-25.63l-.316-6zm-17.946 10c-1.654 0-3 1.346-3 3v6c0 .552-.448 1-1 1s-1-.448-1-1v-11h10v7c0 .552-.448 1-1 1s-1-.448-1-1v-2c0-1.654-1.346-3-3-3zm-8.472 18h16.472v-2h-16.577l-.947-18h2.524v11c0 1.654 1.346 3 3 3s3-1.346 3-3v-6c0-.552.448-1 1-1s1 .448 1 1v2c0 1.654 1.346 3 3 3s3-1.346 3-3v-7h9v17c0 1.13.391 2.162 1.026 3h-6.026c-.553 0-1 .447-1 1v4c0 .553.447 1 1 1h1.586l2 2h-22.637zm47.058 8h-21.172l-2-2h25.172zm5.414-4h-32v-2h9 14 9zm-23-4c-1.654 0-3-1.346-3-3v-15h20v15c0 1.654-1.346 3-3 3zm25-8c0 2.206-1.794 4-4 4h-2v-2h2c1.103 0 2-.897 2-2v-8c0-1.103-.897-2-2-2h-2v-2h2c2.206 0 4 1.794 4 4z"/><path d="m49 37h2v8h-2z"/><path d="m49 47h2v2h-2z"/><path d="m53.684 22.948c1.581.527 2.841 1.787 3.368 3.368.136.409.517.684.948.684s.812-.275.948-.684c.527-1.581 1.787-2.841 3.368-3.368.409-.136.684-.517.684-.948s-.275-.812-.684-.948c-1.581-.527-2.841-1.787-3.368-3.368-.136-.409-.517-.684-.948-.684s-.812.275-.948.684c-.527 1.581-1.787 2.841-3.368 3.368-.409.136-.684.517-.684.948s.275.812.684.948zm4.316-2.753c.492.701 1.104 1.312 1.805 1.805-.701.492-1.312 1.104-1.805 1.805-.492-.701-1.104-1.312-1.805-1.805.701-.492 1.313-1.104 1.805-1.805z"/><path d="m39.684 12.948c1.581.527 2.841 1.787 3.368 3.368.136.409.517.684.948.684s.812-.275.948-.684c.527-1.581 1.787-2.841 3.368-3.368.409-.136.684-.517.684-.948s-.275-.812-.684-.948c-1.581-.527-2.841-1.787-3.368-3.368-.136-.409-.517-.684-.948-.684s-.812.275-.948.684c-.527 1.581-1.787 2.841-3.368 3.368-.409.136-.684.517-.684.948s.275.812.684.948zm4.316-2.753c.492.701 1.104 1.312 1.805 1.805-.701.492-1.312 1.104-1.805 1.805-.492-.701-1.104-1.312-1.805-1.805.701-.492 1.313-1.104 1.805-1.805z"/></svg>