<svg id="Layer_3" enable-background="new 0 0 64 64" height="512" viewBox="0 0 64 64" width="512" xmlns="http://www.w3.org/2000/svg"><path d="m28 25h-26c-.552 0-1 .448-1 1v36c0 .552.448 1 1 1h26c.552 0 1-.448 1-1v-36c0-.552-.448-1-1-1zm-25 2h11v34h-11zm24 34h-11v-34h11z"/><path d="m62 25h-26c-.552 0-1 .448-1 1v36c0 .552.448 1 1 1h26c.552 0 1-.448 1-1v-36c0-.552-.448-1-1-1zm-7 21h-12v-15h12zm-12 2h12v7h-12zm12.697-19h-13.394l-3-2h19.395zm-14.697 1.535v16.051l-4 4v-22.718zm-4 22.879 4-4v6.172l-4 4zm5.414 3.586h13.172l4 4h-21.172zm14.586-1.414v-6.172l4 4v6.172zm0-9v-16.051l4-2.667v22.717z"/><path d="m31 41h2v2h-2z"/><path d="m31 45h2v2h-2z"/><path d="m4 23h22c.552 0 1-.448 1-1v-6c0-.552-.448-1-1-1h-22c-.552 0-1 .448-1 1v6c0 .552.448 1 1 1zm1-6h20v4h-20z"/><path d="m38 23h22c.552 0 1-.448 1-1v-6c0-.552-.448-1-1-1h-22c-.552 0-1 .448-1 1v6c0 .552.448 1 1 1zm1-6h20v4h-20z"/><path d="m10 8h2v4c0 .552.448 1 1 1h4c.552 0 1-.448 1-1v-4h2c.404 0 .769-.244.924-.617.155-.374.069-.804-.217-1.09l-5-5c-.391-.391-1.023-.391-1.414 0l-5 5c-.286.286-.372.716-.217 1.09.155.373.52.617.924.617zm5-4.586 2.586 2.586h-.586c-.552 0-1 .448-1 1v4h-2v-4c0-.552-.448-1-1-1h-.586z"/><path d="m48.293 12.707c.195.195.451.293.707.293s.512-.098.707-.293l5-5c.286-.286.372-.716.217-1.09-.155-.373-.52-.617-.924-.617h-2v-4c0-.552-.448-1-1-1h-4c-.552 0-1 .448-1 1v4h-2c-.404 0-.769.244-.924.617-.155.374-.069.804.217 1.09zm-1.293-4.707c.552 0 1-.448 1-1v-4h2v4c0 .552.448 1 1 1h.586l-2.586 2.586-2.586-2.586z"/></svg>