<svg id="Layer_3" enable-background="new 0 0 64 64" height="512" viewBox="0 0 64 64" width="512" xmlns="http://www.w3.org/2000/svg"><path d="m62 21h-5v-3c0-1.85-1.022-3.451-2.52-4.315.328-.481.52-1.061.52-1.685 0-1.654-1.346-3-3-3s-3 1.346-3 3c0 .624.192 1.204.52 1.685-1.498.864-2.52 2.465-2.52 4.315v3h-2c-.266 0-.52.105-.707.293l-8.293 8.293-16.293-16.293c-.187-.188-.441-.293-.707-.293h-2v-3c0-1.85-1.022-3.451-2.52-4.315.328-.481.52-1.061.52-1.685 0-1.654-1.346-3-3-3s-3 1.346-3 3c0 .624.192 1.204.52 1.685-1.498.864-2.52 2.465-2.52 4.315v3h-5c-.553 0-1 .448-1 1v12c0 .552.447 1 1 1h1v3c0 .552.447 1 1 1h1v18h-3c-.553 0-1 .448-1 1v12c0 .552.447 1 1 1h18c.266 0 .52-.105.707-.293l27.707-27.707h2.586v3c0 .552.447 1 1 1h1v23c0 .552.447 1 1 1h4c.553 0 1-.448 1-1v-23h1c.553 0 1-.448 1-1v-3h1c.553 0 1-.448 1-1v-12c0-.552-.447-1-1-1zm-11-9c0-.551.448-1 1-1s1 .449 1 1-.448 1-1 1-1-.449-1-1zm-2 6c0-1.654 1.346-3 3-3s3 1.346 3 3v3h-6zm-14.414 13-6.086 6.086-11.793-11.793c-.187-.188-.441-.293-.707-.293h-9v-10h11.586zm-22.586 0c.553 0 1-.448 1-1v-3h2.586l11.5 11.5-10.5 10.5h-5.586v-18zm-1-27c0-.551.448-1 1-1s1 .449 1 1-.448 1-1 1-1-.449-1-1zm-2 6c0-1.654 1.346-3 3-3s3 1.346 3 3v3h-6zm-6 5h2v10h-2zm8 12v2h-6v-2zm-4 4h2v18h-2zm-4 20h2v10h-2zm45-18c-.266 0-.52.105-.707.293l-27.707 27.707h-12.586v-10h10c.266 0 .52-.105.707-.293l27.707-27.707h11.586v10zm7 28v-2h2v2zm2-4h-2v-18h2zm2-20h-6v-2h6zm2-4h-2v-10h2z"/><path d="m45 46h-5v2h2.586l-6.293 6.293 1.414 1.414 6.293-6.293v2.586h2v-5c0-.552-.447-1-1-1z"/><path d="m32 20v2h5c.553 0 1-.448 1-1v-5h-2v2.586l-6.293-6.293-1.414 1.414 6.293 6.293z"/></svg>