<svg id="Layer_3" enable-background="new 0 0 64 64" height="512" viewBox="0 0 64 64" width="512" xmlns="http://www.w3.org/2000/svg"><path d="m60.277 53.567c.469-.768.723-1.653.723-2.567 0-2.415-1.721-4.436-4.001-4.899.001-.035.001-.068.001-.101 0-2.757-2.243-5-5-5-.362 0-.723.041-1.077.122-.416-2.34-2.465-4.122-4.923-4.122-.566 0-1.124.1-1.664.298-.914-.832-2.094-1.298-3.336-1.298s-2.422.466-3.336 1.298c-.54-.198-1.098-.298-1.664-.298-1.604 0-3.024.767-3.94 1.945l.886-15.945h1.054c.552 0 1-.448 1-1v-6c0-.552-.448-1-1-1h-1v-3c0-.552-.448-1-1-1h-3v-9c0-.552-.448-1-1-1h-4c-.552 0-1 .448-1 1v9h-19c-.552 0-1 .448-1 1v3h-1c-.552 0-1 .448-1 1v6c0 .552.448 1 1 1h1.054l1.948 35.056c.029.529.467.944.998.944h13.101c.465 2.279 2.484 4 4.899 4 .482 0 .957-.076 1.415-.211.166.124.362.211.585.211h30c.221 0 .415-.086.581-.208.457.135.933.208 1.419.208 2.757 0 5-2.243 5-5 0-1.901-1.098-3.596-2.723-4.433zm-35.277-50.567h2v8h-2zm-20 10h19 4 3v2h-26zm-2 4h30v4h-30zm27.943 6-.333 6h-25.22l-.333-6zm-15.943 10c-1.654 0-3 1.346-3 3v6c0 .552-.449 1-1 1s-1-.448-1-1v-11h10v7c0 .552-.449 1-1 1s-1-.448-1-1v-2c0-1.654-1.346-3-3-3zm-9.498-2h2.498v11c0 1.654 1.346 3 3 3s3-1.346 3-3v-6c0-.552.449-1 1-1s1 .448 1 1v2c0 1.654 1.346 3 3 3s3-1.346 3-3v-7h8.498l-.556 10.006c-2.729.032-4.942 2.257-4.942 4.994 0 .033 0 .066.001.101-1.606.327-2.92 1.434-3.565 2.899h-14.935zm13.613 26h-12.169l-.333-6h14.387c0 .914.254 1.799.723 2.567-1.332.686-2.299 1.953-2.608 3.433zm35.885 4h-28v-2c0-7.72 6.28-14 14-14s14 6.28 14 14zm3 0c-.345 0-.681-.065-1-.178v-1.822c0-8.822-7.178-16-16-16s-16 7.178-16 16v1.806c-.322.114-.655.194-1 .194-1.654 0-3-1.346-3-3 0-1.479 1.111-2.748 2.585-2.954.392-.055.714-.335.823-.715.109-.381-.017-.789-.32-1.043-.691-.578-1.088-1.412-1.088-2.288 0-1.654 1.346-3 2.938-3.003.034.005.134.016.168.017.318.023.621-.125.819-.373.199-.247.268-.574.187-.881-.076-.293-.112-.534-.112-.76 0-1.654 1.346-3 3-3 .538 0 1.057.148 1.541.442.332.2.747.178 1.07-.037s.49-.61.433-.994c-.021-.136-.044-.27-.044-.411 0-1.654 1.346-3 3-3 .482 0 .96.128 1.421.379.423.229.953.127 1.257-.25.579-.718 1.426-1.129 2.322-1.129s1.743.411 2.322 1.129c.304.376.832.48 1.257.25.461-.251.939-.379 1.421-.379 1.654 0 3 1.346 3 3 0 .141-.023.275-.048.439-.057.384.113.766.436.98s.74.224 1.072.022c.483-.293 1.002-.441 1.54-.441 1.654 0 3 1.346 3 3 0 .226-.036.467-.113.76-.081.307-.012.634.187.881.198.248.506.394.819.373.058-.002.113-.009.107-.014 1.654 0 3 1.346 3 3 0 .876-.397 1.71-1.088 2.288-.304.254-.429.662-.32 1.043.109.38.432.66.823.715 1.474.206 2.585 1.475 2.585 2.954 0 1.654-1.346 3-3 3z"/><path d="m53.684 32.949c1.582.527 2.84 1.786 3.367 3.368.137.408.518.683.949.683s.812-.275.949-.684c.527-1.582 1.786-2.841 3.367-3.368.409-.136.684-.517.684-.948s-.275-.812-.684-.949c-1.582-.527-2.84-1.786-3.367-3.367-.137-.409-.518-.684-.949-.684s-.812.275-.949.684c-.527 1.582-1.786 2.84-3.367 3.367-.409.137-.684.518-.684.949s.275.812.684.949zm4.316-2.753c.492.701 1.103 1.312 1.804 1.804-.701.492-1.312 1.104-1.804 1.804-.492-.7-1.103-1.312-1.804-1.804.701-.492 1.312-1.103 1.804-1.804z"/><path d="m39.684 12.949c1.582.527 2.84 1.786 3.367 3.367.137.409.518.684.949.684s.812-.275.949-.684c.527-1.582 1.786-2.84 3.367-3.367.409-.137.684-.518.684-.949s-.275-.812-.684-.949c-1.582-.527-2.84-1.786-3.367-3.367-.137-.409-.518-.684-.949-.684s-.812.275-.949.684c-.527 1.582-1.786 2.84-3.367 3.367-.409.137-.684.518-.684.949s.275.812.684.949zm4.316-2.753c.492.701 1.103 1.312 1.804 1.804-.701.492-1.312 1.103-1.804 1.804-.492-.701-1.103-1.312-1.804-1.804.701-.492 1.312-1.103 1.804-1.804z"/></svg>