<svg id="Layer_3" enable-background="new 0 0 64 64" height="512" viewBox="0 0 64 64" width="512" xmlns="http://www.w3.org/2000/svg"><path d="m58.707 25.293-2-2c-.187-.188-.442-.293-.707-.293h-2c-.265 0-.52.105-.707.293l-2 2c-.188.187-.293.441-.293.707v9h-2c-.265 0-.52.105-.707.293l-7 7c-.188.187-.293.441-.293.707v12h-1c-.552 0-1 .447-1 1v6c0 .553.448 1 1 1h14c.552 0 1-.447 1-1v-6c0-.553-.448-1-1-1h-1v-3.586l5.707-5.707c.188-.187.293-.441.293-.707v-19c0-.266-.105-.52-.293-.707zm-5.707 35.707h-12v-4h12zm4-16.414-5.707 5.707c-.188.187-.293.441-.293.707v4h-8v-11.586l6.414-6.414h1.172l1.414 1.414v1.172l-3.707 3.707 1.414 1.414 4-4c.188-.187.293-.441.293-.707v-2c0-.266-.105-.52-.293-.707l-.707-.707v-10.172l1.414-1.414h1.172l1.414 1.414z"/><path d="m24 55h-1v-12c0-.266-.105-.52-.293-.707l-7-7c-.187-.188-.442-.293-.707-.293h-2v-9c0-.266-.105-.52-.293-.707l-2-2c-.187-.188-.442-.293-.707-.293h-2c-.265 0-.52.105-.707.293l-2 2c-.188.187-.293.441-.293.707v19c0 .266.105.52.293.707l5.707 5.707v3.586h-1c-.552 0-1 .447-1 1v6c0 .553.448 1 1 1h14c.552 0 1-.447 1-1v-6c0-.553-.448-1-1-1zm-11.293-4.707-5.707-5.707v-18.172l1.414-1.414h1.172l1.414 1.414v10.172l-.707.707c-.188.187-.293.441-.293.707v2c0 .266.105.52.293.707l4 4 1.414-1.414-3.707-3.707v-1.172l1.414-1.414h1.172l6.414 6.414v11.586h-8v-4c0-.266-.105-.52-.293-.707zm10.293 10.707h-12v-4h12z"/><path d="m16 33h32c.552 0 1-.447 1-1v-20c0-.553-.448-1-1-1h-8.858l7.133-2.038c.307-.088.554-.317.664-.617s.071-.634-.106-.899l-4-6c-.166-.249-.436-.411-.733-.44-.3-.025-.594.076-.806.288l-9.294 9.292-9.293-9.293c-.212-.212-.506-.312-.806-.288-.298.029-.567.191-.733.44l-4 6c-.177.266-.217.6-.106.899.11.3.357.529.664.617l7.132 2.039h-8.858c-.552 0-1 .447-1 1v20c0 .553.448 1 1 1zm1-8h12v6h-12zm16-12v18h-2v-18zm2 8h12v2h-12zm-6 2h-12v-2h12zm6 8v-6h12v6zm12-12h-12v-6h12zm-5.155-15.431 2.563 3.846-8.972 2.563zm-19.69 0 6.409 6.409-8.972-2.563zm6.845 9.431v6h-12v-6z"/></svg>