<svg id="Layer_3" enable-background="new 0 0 64 64" height="512" viewBox="0 0 64 64" width="512" xmlns="http://www.w3.org/2000/svg"><path d="m62 1h-60c-.552 0-1 .448-1 1v60c0 .552.448 1 1 1h60c.552 0 1-.448 1-1v-60c0-.552-.448-1-1-1zm-43.895 10.447.777 1.553h-3.764l.777-1.553c.069-.138.105-.292.105-.447v-4h2v4c0 .155.036.309.105.447zm-3.105 3.553h4v4h-4zm42 6v10h-2v-5c0-.552-.448-1-1-1h-3v-1c0-.552-.448-1-1-1h-4c-.552 0-1 .448-1 1v1h-3c-.552 0-1 .448-1 1v5h-2v-7c0-.552-.448-1-1-1h-4c-.552 0-1 .448-1 1v1h-2v-1c0-.552-.448-1-1-1h-4c-.552 0-1 .448-1 1v7h-2v-7c0-.552-.448-1-1-1h-8c-.552 0-1 .448-1 1v1h-3c-.552 0-1 .448-1 1v5h-2v-10zm-28.895-9.553.777 1.553h-3.764l.777-1.553c.069-.138.105-.292.105-.447v-4h2v4c0 .155.036.309.105.447zm-3.105 3.553h4v4h-4zm13.105-3.553.777 1.553h-3.764l.777-1.553c.069-.138.105-.292.105-.447v-4h2v4c0 .155.036.309.105.447zm-3.105 3.553h4v4h-4zm13.105-3.553.777 1.553h-3.764l.777-1.553c.069-.138.105-.292.105-.447v-4h2v4c0 .155.036.309.105.447zm-3.105 3.553h4v4h-4zm12 34h-4v-5c0-.552-.448-1-1-1h-1.184c.112-.314.184-.648.184-1 0-1.383-.945-2.539-2.22-2.884.139-.346.22-.721.22-1.116 0-1.654-1.346-3-3-3-.771 0-1.468.301-2 .78-.532-.48-1.229-.78-2-.78-1.654 0-3 1.346-3 3 0 .395.081.77.22 1.116-1.275.345-2.22 1.501-2.22 2.884 0 .352.072.686.184 1h-1.184c-.552 0-1 .448-1 1v5h-6v-5c0-.552-.448-1-1-1h-1.184c.112-.314.184-.648.184-1 0-1.383-.945-2.539-2.22-2.884.139-.346.22-.721.22-1.116 0-1.654-1.346-3-3-3-.771 0-1.468.301-2 .78-.532-.48-1.229-.78-2-.78-1.654 0-3 1.346-3 3 0 .395.081.77.22 1.116-1.275.345-2.22 1.501-2.22 2.884 0 .352.072.686.184 1h-1.184c-.552 0-1 .448-1 1v5h-4v-16h50zm-18-7c0-.551.449-1 1-1s1 .449 1 1-.449 1-1 1-1-.449-1-1zm9 1c-.551 0-1-.449-1-1s.449-1 1-1 1 .449 1 1-.449 1-1 1zm-5-1c0-.551.449-1 1-1s1 .449 1 1-.449 1-1 1-1-.449-1-1zm3-3c-.551 0-1-.449-1-1s.449-1 1-1 1 .449 1 1-.449 1-1 1zm-4 0c-.551 0-1-.449-1-1s.449-1 1-1 1 .449 1 1-.449 1-1 1zm9 6v4h-14v-4zm-36-3c0-.551.449-1 1-1s1 .449 1 1-.449 1-1 1-1-.449-1-1zm9 1c-.551 0-1-.449-1-1s.449-1 1-1 1 .449 1 1-.449 1-1 1zm-5-1c0-.551.449-1 1-1s1 .449 1 1-.449 1-1 1-1-.449-1-1zm3-3c-.551 0-1-.449-1-1s.449-1 1-1 1 .449 1 1-.449 1-1 1zm-4 0c-.551 0-1-.449-1-1s.449-1 1-1 1 .449 1 1-.449 1-1 1zm9 6v4h-14v-4zm-6-14h-2v-6h2zm-4 0h-2v-6h2zm-4 0h-2v-4h2zm18-4h2v4h-2zm6 4h-2v-6h2zm-8 0h-2v-6h2zm22-4h2v4h-2zm-2 4h-2v-6h2zm-4 0h-2v-4h2zm-38 20h50v10h-50zm50-32h-6v-6c0-.155-.036-.309-.105-.447l-.895-1.789v-4.764c0-.552-.448-1-1-1h-4c-.552 0-1 .448-1 1v4.764l-.895 1.789c-.069.138-.105.292-.105.447v6h-2v-6c0-.155-.036-.309-.105-.447l-.895-1.789v-4.764c0-.552-.448-1-1-1h-4c-.552 0-1 .448-1 1v4.764l-.895 1.789c-.069.138-.105.292-.105.447v6h-2v-6c0-.155-.036-.309-.105-.447l-.895-1.789v-4.764c0-.552-.448-1-1-1h-4c-.552 0-1 .448-1 1v4.764l-.895 1.789c-.069.138-.105.292-.105.447v6h-2v-6c0-.155-.036-.309-.105-.447l-.895-1.789v-4.764c0-.552-.448-1-1-1h-4c-.552 0-1 .448-1 1v4.764l-.895 1.789c-.069.138-.105.292-.105.447v6h-6v-16h50zm-54-16h2v58h-2zm58 58h-2v-58h2z"/><path d="m44 53h-24c-.552 0-1 .448-1 1v4c0 .552.448 1 1 1h24c.552 0 1-.448 1-1v-4c0-.552-.448-1-1-1zm-1 4h-22v-2h22z"/></svg>