<svg id="Layer_3" enable-background="new 0 0 64 64" height="512" viewBox="0 0 64 64" width="512" xmlns="http://www.w3.org/2000/svg"><path d="m42.252 20.948 6.795 21.354c.132.416.517.698.953.698s.821-.282.953-.697l6.795-21.354c2.956-.371 5.252-2.894 5.252-5.949 0-2.57-1.651-4.837-4.024-5.666-.342-4.653-4.237-8.334-8.976-8.334s-8.634 3.681-8.976 8.334c-2.373.829-4.024 3.096-4.024 5.666 0 3.055 2.296 5.578 5.252 5.948zm7.748 17.754-5.684-17.865c.784-.176 1.528-.492 2.184-.967 2.03 1.468 4.97 1.468 7 0 .656.474 1.4.79 2.184.967zm-7.797-27.622c.466-.094.802-.504.802-.98l-.005-.1c0-3.86 3.14-7 7-7s7 3.14 7 6.977c-.002.024-.005.099-.005.124 0 .476.335.886.802.98 1.856.374 3.203 2.023 3.203 3.919 0 2.206-1.794 4-4 4-1.051 0-2.045-.408-2.799-1.149-.195-.191-.448-.286-.701-.286s-.506.095-.701.286c-1.509 1.482-4.09 1.482-5.599 0-.39-.382-1.012-.382-1.401 0-.754.741-1.748 1.149-2.799 1.149-2.206 0-4-1.794-4-4 0-1.896 1.347-3.545 3.203-3.92z"/><path d="m34 45h-24c-.552 0-1 .447-1 1v12c0 .553.448 1 1 1h24c.552 0 1-.447 1-1v-12c0-.553-.448-1-1-1zm-1 12h-22v-10h22z"/><path d="m13 49h18v2h-18z"/><path d="m15 53h14v2h-14z"/><path d="m60 49h-17v-19c0-.552-.448-1-1-1h-40c-.552 0-1 .448-1 1v32c0 .553.448 1 1 1h40 14c1.654 0 3-1.346 3-3s-1.346-3-3-3h-2c-.551 0-1-.448-1-1s.449-1 1-1h6c1.654 0 3-1.346 3-3s-1.346-3-3-3zm-23-12h-6v-2h6zm-8 0h-6v-2h6zm-8 0h-6v-2h6zm-8 0h-6v-2h6zm28 2v2h-38v-2zm0-8v6h-2v-3c0-.553-.448-1-1-1h-32c-.552 0-1 .447-1 1v3h-2v-6zm-38 30v-18h38v18zm57-8h-6c-1.654 0-3 1.346-3 3s1.346 3 3 3h2c.551 0 1 .448 1 1s-.449 1-1 1h-13v-10h17c.551 0 1 .448 1 1s-.449 1-1 1z"/><path d="m1.684 10.949c1.582.527 2.84 1.786 3.367 3.367.137.409.518.684.949.684s.812-.275.949-.684c.527-1.582 1.786-2.84 3.367-3.367.409-.137.684-.518.684-.949s-.275-.812-.684-.949c-1.582-.527-2.84-1.786-3.367-3.367-.137-.409-.518-.684-.949-.684s-.812.275-.949.684c-.527 1.582-1.786 2.84-3.367 3.367-.409.137-.684.518-.684.949s.275.812.684.949zm4.316-2.753c.492.701 1.103 1.312 1.804 1.804-.701.492-1.312 1.103-1.804 1.804-.492-.701-1.103-1.312-1.804-1.804.701-.492 1.312-1.103 1.804-1.804z"/><path d="m21.684 20.949c1.582.527 2.84 1.786 3.367 3.367.137.409.518.684.949.684s.812-.275.949-.684c.527-1.582 1.786-2.84 3.367-3.367.409-.137.684-.518.684-.949s-.275-.812-.684-.949c-1.582-.527-2.84-1.786-3.367-3.367-.137-.409-.518-.684-.949-.684s-.812.275-.949.684c-.527 1.582-1.786 2.84-3.367 3.367-.409.137-.684.518-.684.949s.275.812.684.949zm4.316-2.753c.492.701 1.103 1.312 1.804 1.804-.701.492-1.312 1.103-1.804 1.804-.492-.701-1.103-1.312-1.804-1.804.701-.492 1.312-1.103 1.804-1.804z"/></svg>