<svg id="Layer_3" enable-background="new 0 0 64 64" height="512" viewBox="0 0 64 64" width="512" xmlns="http://www.w3.org/2000/svg"><path d="m62 35h-10v-3c0-.553-.448-1-1-1h-20c-.552 0-1 .447-1 1v3h-2v-1.879c0-1.636-.637-3.173-1.793-4.328-1.157-1.156-2.694-1.793-4.328-1.793h-1.879v-1.589c2.928-1.19 5-4.061 5-7.411 0-4.411-3.589-8-8-8s-8 3.589-8 8c0 3.35 2.072 6.221 5 7.411v1.589h-1.879c-1.634 0-3.171.637-4.328 1.793-1.156 1.155-1.793 2.692-1.793 4.328v1.879h-4c-.552 0-1 .447-1 1v6c0 .553.448 1 1 1h1v19c0 .553.448 1 1 1h56c.552 0 1-.447 1-1v-19h1c.552 0 1-.447 1-1v-6c0-.553-.448-1-1-1zm-30-2h18v2h-18zm-9-15h-.879c-1.084 0-2.146-.44-2.914-1.207-.778-.778-1.207-1.813-1.207-2.914v-1.789c2.833.479 5 2.943 5 5.91zm-7-5.91v1.789c0 1.102-.429 2.136-1.207 2.914-.768.767-1.83 1.207-2.914 1.207h-.879c0-2.967 2.167-5.431 5-5.91zm-4.65 7.91h.529c1.634 0 3.171-.637 4.328-1.793.301-.301.565-.628.793-.975.228.347.492.675.793.975 1.157 1.156 2.694 1.793 4.328 1.793h.529c-.826 2.327-3.043 4-5.65 4s-4.824-1.673-5.65-4zm5.65 6c.339 0 .672-.028 1-.069v1.655l-1 1-1-1v-1.655c.328.041.661.069 1 .069zm-9 7.121c0-1.102.429-2.136 1.207-2.914.768-.767 1.83-1.207 2.914-1.207h2.465l1.707 1.707c.195.195.451.293.707.293s.512-.098.707-.293l1.707-1.707h2.465c1.084 0 2.146.44 2.914 1.207.778.778 1.207 1.813 1.207 2.914v1.879h-18zm51 27.879h-54v-18h54zm2-20h-58v-4h4 20 34z"/><path d="m60 1h-28c-1.654 0-3 1.346-3 3v16c0 1.654 1.346 3 3 3h9v5c0 .404.244.77.617.924.124.052.254.076.383.076.26 0 .516-.102.707-.293l5.707-5.707h11.586c1.654 0 3-1.346 3-3v-16c0-1.654-1.346-3-3-3zm1 19c0 .552-.449 1-1 1h-12c-.265 0-.52.105-.707.293l-4.293 4.293v-3.586c0-.553-.448-1-1-1h-10c-.551 0-1-.448-1-1v-16c0-.552.449-1 1-1h28c.551 0 1 .448 1 1z"/><path d="m58 5h-24c-.552 0-1 .447-1 1v4c0 .553.448 1 1 1h24c.552 0 1-.447 1-1v-4c0-.553-.448-1-1-1zm-1 4h-22v-2h22z"/><path d="m33 13h26v2h-26z"/><path d="m33 17h26v2h-26z"/><path d="m14 57h36c.552 0 1-.447 1-1v-9c0-.553-.448-1-1-1h-36c-.552 0-1 .447-1 1v9c0 .553.448 1 1 1zm1-9h34v7h-34z"/></svg>