<svg id="Layer_3" enable-background="new 0 0 64 64" height="512" viewBox="0 0 64 64" width="512" xmlns="http://www.w3.org/2000/svg"><path d="m32 1c-17.093 0-31 13.906-31 31s13.907 31 31 31 31-13.906 31-31-13.907-31-31-31zm0 60c-15.991 0-29-13.01-29-29s13.009-29 29-29 29 13.01 29 29-13.009 29-29 29z"/><path d="m32 5c-6.392 0-12.595 2.279-17.467 6.419-.213.181-.34.442-.352.721s.094.551.292.748l36.639 36.639c.188.188.442.293.707.293.014 0 .027 0 .041-.001.279-.011.541-.139.722-.352 4.139-4.872 6.418-11.075 6.418-17.467 0-14.888-12.112-27-27-27zm3.426 26.011-.011-.011h.012zm.228-2.011h-2.239l-2-2h4.466zm-6.239-4-2-2h10.585v2zm6.585-4h-10.585l-2-2h12.585zm4.193 14.778c1.299.669 2.36 1.731 3.03 3.03zm11.55 11.55-5.765-5.765c-.223-4.614-3.928-8.318-8.541-8.541l-.203-.203.659-5.819h1.107c.552 0 1-.447 1-1v-4c0-.553-.448-1-1-1h-1v-3c0-.553-.448-1-1-1h-15.585l-4.743-4.743c4.371-3.398 9.773-5.257 15.328-5.257 13.785 0 25 11.215 25 25 0 5.555-1.86 10.956-5.257 15.328z"/><path d="m12.888 14.474c-.198-.198-.464-.308-.748-.292-.279.011-.541.139-.722.352-4.139 4.871-6.418 11.074-6.418 17.466 0 14.888 12.112 27 27 27 6.392 0 12.595-2.279 17.467-6.419.213-.181.34-.442.352-.721s-.094-.551-.292-.748zm15.112 31.526v1h-6.087l-.182-2h4.269v-2h-4.451l-1.091-12h6.127l4.353 4.353c-1.855 1.695-2.938 4.102-2.938 6.647 0 .553.448 1 1 1h1v2h-1c-.552 0-1 .447-1 1zm-10-23h.585l2 2h-2.585zm4.585 4 2 2h-4.308l-.182-2zm16 16 2 2h-8.585v-2zm-8.513-2c.236-1.632 1.047-3.131 2.283-4.231l4.23 4.231zm-.072 6h12.585l1.345 1.345c-.141.38-.501.655-.93.655h-12c-.551 0-1-.448-1-1zm2 10c-13.785 0-25-11.215-25-25 0-5.555 1.86-10.956 5.257-15.328l4.398 4.398c-.381.141-.655.5-.655.93v4c0 .553.448 1 1 1h1.087l1.917 21.091c.047.514.479.909.996.909h7.184c.414 1.161 1.514 2 2.816 2h12c.976 0 1.837-.476 2.385-1.2l1.944 1.944c-4.372 3.397-9.774 5.256-15.329 5.256z"/></svg>