<svg id="Layer_3" enable-background="new 0 0 64 64" height="512" viewBox="0 0 64 64" width="512" xmlns="http://www.w3.org/2000/svg"><path d="m60 35h-28c-1.654 0-3 1.346-3 3v9h-21c-2.757 0-5 2.243-5 5v5h-1c-.552 0-1 .447-1 1v4c0 .553.448 1 1 1h52c.552 0 1-.447 1-1v-3h5c1.654 0 3-1.346 3-3v-18c0-1.654-1.346-3-3-3zm-28 2h28c.551 0 1 .448 1 1v1h-30v-1c0-.552.449-1 1-1zm29 4v2h-30v-2zm-14 16h-38v-4h38zm-42-5c0-1.654 1.346-3 3-3h21v2h-20c-1.103 0-2 .897-2 2v4h-2zm48 9h-50v-2h50zm7-4h-6-5v-4c0-1.103-.897-2-2-2h-16v-6h30v11c0 .552-.449 1-1 1z"/><path d="m58 49h-6c-.552 0-1 .447-1 1v4c0 .553.448 1 1 1h6c.552 0 1-.447 1-1v-4c0-.553-.448-1-1-1zm-1 4h-4v-2h4z"/><path d="m14 29h36c1.654 0 3-1.346 3-3v-22c0-1.654-1.346-3-3-3h-36c-1.654 0-3 1.346-3 3v22c0 1.654 1.346 3 3 3zm36-2h-36c-.551 0-1-.448-1-1v-13h38v13c0 .552-.449 1-1 1zm-37-16v-4h38v4zm1-8h36c.551 0 1 .448 1 1v1h-38v-1c0-.552.449-1 1-1z"/><path d="m45 17c-.705 0-1.393.19-2 .546-.607-.356-1.295-.546-2-.546-2.206 0-4 1.794-4 4s1.794 4 4 4c.705 0 1.393-.19 2-.546.607.356 1.295.546 2 .546 2.206 0 4-1.794 4-4s-1.794-4-4-4zm0 6c-.621 0-1.066-.283-1.331-.521-.19-.171-.43-.257-.669-.257s-.479.086-.669.257c-.265.238-.71.521-1.331.521-1.103 0-2-.897-2-2s.897-2 2-2c.621 0 1.066.283 1.331.521.38.342.958.342 1.338 0 .265-.238.71-.521 1.331-.521 1.103 0 2 .897 2 2s-.897 2-2 2z"/><path d="m28 17h-12c-.552 0-1 .447-1 1v6c0 .553.448 1 1 1h12c.552 0 1-.447 1-1v-6c0-.553-.448-1-1-1zm-5 2v4h-2v-4zm-6 0h2v4h-2zm10 4h-2v-4h2z"/><path d="m10 45h17v-2h-17c-.551 0-1-.448-1-1s.449-1 1-1h13v-2h-13c-1.654 0-3 1.346-3 3s1.346 3 3 3z"/><path d="m25 39h2v2h-2z"/></svg>