<svg id="Layer_3" enable-background="new 0 0 64 64" height="512" viewBox="0 0 64 64" width="512" xmlns="http://www.w3.org/2000/svg"><path d="m62 57h-17v-12.666l.201.267c.189.252.485.399.799.399s.61-.147.799-.398l13.115-17.417c3.64-5.112 4.101-11.483 1.234-17.044-2.907-5.639-8.711-9.141-15.148-9.141s-12.241 3.502-15.147 9.14c-2.124 4.12-2.417 8.684-.942 12.86h-25.911c-.552 0-1 .448-1 1v33h-1c-.552 0-1 .448-1 1v4c0 .552.448 1 1 1h60c.552 0 1-.448 1-1v-4c0-.552-.448-1-1-1zm-29.37-45.944c2.6-5.044 7.599-8.056 13.37-8.056s10.77 3.012 13.37 8.056c2.517 4.882 2.111 10.478-1.07 14.946l-12.3 16.335-1-1.328v-.009h-.007l-11.278-14.976c-3.196-4.49-3.602-10.086-1.085-14.968zm-27.63 27.944v-8h8v8zm10-8h8v8h-8zm10 0h8v8h-8zm10 .054 5.983 7.946h-5.983zm-4.229-6.054c.384.755.823 1.493 1.331 2.206l1.351 1.794h-28.453v-4zm-25.771 16h37.489l.511.678v15.322h-2v-9c0-.552-.448-1-1-1h-12c-.552 0-1 .448-1 1v9h-6v-9c0-.552-.448-1-1-1h-12c-.552 0-1 .448-1 1v9h-2zm24 16v-8h4v8zm6-8h4v8h-4zm-26 8v-8h4v8zm6-8h4v8h-4zm46 12h-58v-2h58z"/><path d="m7 43h14v2h-14z"/><path d="m27 43h14v2h-14z"/><path d="m46 31c7.168 0 13-5.832 13-13s-5.832-13-13-13-13 5.832-13 13 5.832 13 13 13zm0-24c6.065 0 11 4.935 11 11s-4.935 11-11 11-11-4.935-11-11 4.935-11 11-11z"/><path d="m40 25h12c.287 0 .56-.123.75-.338s.278-.501.243-.786l-1-8c-.063-.501-.489-.876-.993-.876h-1v-2c0-2.206-1.794-4-4-4s-4 1.794-4 4v2h-1c-.504 0-.93.375-.992.876l-1 8c-.036.285.053.571.243.786.189.215.462.338.749.338zm4-12c0-1.103.897-2 2-2s2 .897 2 2v2h-4zm-2.117 4h8.234l.75 6h-9.734z"/><path d="m7.684 10.949c1.582.527 2.84 1.786 3.367 3.367.137.409.518.684.949.684s.812-.275.949-.684c.527-1.582 1.786-2.84 3.367-3.367.409-.137.684-.518.684-.949s-.275-.812-.684-.949c-1.582-.527-2.84-1.786-3.367-3.367-.137-.409-.518-.684-.949-.684s-.812.275-.949.684c-.527 1.582-1.786 2.84-3.367 3.367-.409.137-.684.518-.684.949s.275.812.684.949zm4.316-2.753c.492.701 1.103 1.312 1.804 1.804-.701.492-1.312 1.103-1.804 1.804-.492-.701-1.103-1.312-1.804-1.804.701-.492 1.312-1.103 1.804-1.804z"/><path d="m62.316 49.051c-1.582-.527-2.84-1.786-3.367-3.367-.137-.409-.518-.684-.949-.684s-.812.275-.949.684c-.527 1.582-1.786 2.84-3.367 3.367-.409.137-.684.518-.684.949s.275.812.684.949c1.582.527 2.84 1.786 3.367 3.367.137.409.518.684.949.684s.812-.275.949-.684c.527-1.582 1.786-2.84 3.367-3.367.409-.137.684-.518.684-.949s-.275-.812-.684-.949zm-4.316 2.753c-.492-.701-1.103-1.312-1.804-1.804.701-.492 1.312-1.103 1.804-1.804.492.701 1.103 1.312 1.804 1.804-.701.492-1.312 1.103-1.804 1.804z"/></svg>