<svg id="Layer_3" enable-background="new 0 0 64 64" height="512" viewBox="0 0 64 64" width="512" xmlns="http://www.w3.org/2000/svg"><path d="m30 17h-28c-.553 0-1 .448-1 1v44c0 .553.447 1 1 1h28c.553 0 1-.447 1-1v-44c0-.552-.447-1-1-1zm-1 44h-26v-42h26z"/><path d="m62 17h-28c-.553 0-1 .448-1 1v44c0 .553.447 1 1 1h28c.553 0 1-.447 1-1v-44c0-.552-.447-1-1-1zm-1 44h-26v-42h26z"/><path d="m13 15h38c.553 0 1-.448 1-1v-12c0-.552-.447-1-1-1h-38c-.553 0-1 .448-1 1v12c0 .552.447 1 1 1zm1-12h36v10h-36z"/><path d="m9 42.816v13.184c0 1.654 1.346 3 3 3s3-1.346 3-3v-8c0-.552.448-1 1-1s1 .448 1 1v8c0 1.654 1.346 3 3 3s3-1.346 3-3v-13.184c1.161-.414 2-1.514 2-2.816v-6c0-2.757-2.243-5-5-5h-.026c.635-.838 1.026-1.87 1.026-3 0-2.757-2.243-5-5-5s-5 2.243-5 5c0 1.13.391 2.162 1.026 3h-.026c-2.757 0-5 2.243-5 5v6c0 1.302.839 2.402 2 2.816zm4-16.816c0-1.654 1.346-3 3-3s3 1.346 3 3-1.346 3-3 3-3-1.346-3-3zm-4 8c0-1.654 1.346-3 3-3h8c1.654 0 3 1.346 3 3v6c0 .552-.448 1-1 1s-1-.448-1-1v-5h-2v5c0 1.302.839 2.402 2 2.816v13.184c0 .552-.448 1-1 1s-1-.448-1-1v-8c0-1.654-1.346-3-3-3s-3 1.346-3 3v8c0 .552-.448 1-1 1s-1-.448-1-1v-13.184c1.161-.414 2-1.514 2-2.816v-5h-2v5c0 .552-.448 1-1 1s-1-.448-1-1z"/><path d="m41.666 42.966-2.624 8.747c-.091.303-.033.631.155.884.19.254.487.403.803.403h3v3c0 1.654 1.346 3 3 3 .771 0 1.468-.301 2-.78.532.48 1.229.78 2 .78 1.654 0 3-1.346 3-3v-3h3c.316 0 .613-.149.803-.403.188-.253.246-.581.155-.884l-2.624-8.747c1.496-.168 2.666-1.426 2.666-2.966v-6c0-2.757-2.243-5-5-5h-.026c.635-.838 1.026-1.87 1.026-3 0-2.757-2.243-5-5-5s-5 2.243-5 5c0 1.13.391 2.162 1.026 3h-.026c-2.757 0-5 2.243-5 5v6c0 1.54 1.17 2.798 2.666 2.966zm4.334 14.034c-.552 0-1-.448-1-1v-3h2v3c0 .552-.448 1-1 1zm5-1c0 .552-.448 1-1 1s-1-.448-1-1v-3h2zm-6-30c0-1.654 1.346-3 3-3s3 1.346 3 3-1.346 3-3 3-3-1.346-3-3zm-4 8c0-1.654 1.346-3 3-3h8c1.654 0 3 1.346 3 3v6c0 .552-.448 1-1 1s-1-.448-1-1v-5h-2v5c0 .916.422 1.728 1.071 2.278l-.029.009 2.614 8.713h-13.312l2.614-8.713-.029-.009c.649-.55 1.071-1.362 1.071-2.278v-5h-2v5c0 .552-.448 1-1 1s-1-.448-1-1z"/><path d="m16 5h32v2h-32z"/><path d="m18 9h28v2h-28z"/></svg>