<svg id="Layer_3" enable-background="new 0 0 64 64" height="512" viewBox="0 0 64 64" width="512" xmlns="http://www.w3.org/2000/svg"><path d="m45 44c0 1.654-1.346 3-3 3s-3-1.346-3-3v-1h-2v1c0 2.757 2.243 5 5 5s5-2.243 5-5v-1h-2z"/><path d="m60 33h-11v-6.051c.331.026.662.051 1 .051 7.168 0 13-5.832 13-13s-5.832-13-13-13c-5.4 0-10.039 3.311-12 8.008v-.008h-36c-.553 0-1 .447-1 1v10c0 .553.447 1 1 1h3v35c0 .553.447 1 1 1h13 12.45l-.446 4.909c-.025.28.068.558.258.766.189.207.457.325.738.325h20c.281 0 .549-.118.738-.325.189-.208.283-.485.258-.766l-.446-4.909h9.45c.281 0 .549-.118.738-.325.189-.208.283-.485.258-.766l-2-22c-.047-.514-.478-.909-.996-.909zm-13-4h-19v-8h11.063c1.793 2.791 4.618 4.848 7.937 5.637zm3-26c6.065 0 11 4.935 11 11s-4.935 11-11 11-11-4.935-11-11 4.935-11 11-11zm-47 8h34.363c-.229.965-.363 1.966-.363 3 0 1.771.359 3.46 1.003 5h-32.003-3zm23 10v8h-19v-8zm-19 10h40v2h-3c-.518 0-.949.395-.996.909l-.463 5.091h-8.541c-.352 0-.654.191-.832.469-1.648-1.554-3.839-2.469-6.168-2.469-4.963 0-9 4.037-9 9v9h-11zm13 24v-9c0-3.859 3.141-7 7-7 2.343 0 4.509 1.184 5.804 3.111l-1.172 12.889zm13.095 6 1.759-19.349.021-.012c-.005-.01-.012-.018-.018-.027l.056-.612h14.174l1.818 20zm19.273-6-1.096-12.057c.24.035.483.057.728.057 2.757 0 5-2.243 5-5v-1h-2v1c0 1.654-1.346 3-3 3-.316 0-.623-.065-.919-.161l-.085-.93c-.047-.514-.478-.909-.996-.909h-.806c-.114-.322-.194-.655-.194-1v-1h-2v1c0 .338.045.671.112 1h-2.562l.364-4h14.174l1.818 20z"/><path d="m37.757 54h8.485v2h-8.485z" transform="matrix(.707 -.707 .707 .707 -26.589 45.808)"/><path d="m39.5 54c.827 0 1.5-.673 1.5-1.5s-.673-1.5-1.5-1.5-1.5.673-1.5 1.5.673 1.5 1.5 1.5z"/><path d="m44.5 56c-.827 0-1.5.673-1.5 1.5s.673 1.5 1.5 1.5 1.5-.673 1.5-1.5-.673-1.5-1.5-1.5z"/><path d="m50 23c4.963 0 9-4.037 9-9s-4.037-9-9-9-9 4.037-9 9 4.037 9 9 9zm7-9c0 3.519-2.614 6.432-6 6.92v-2.104c1.161-.414 2-1.514 2-2.816 0-1.654-1.346-3-3-3-.552 0-1-.448-1-1s.448-1 1-1h3v-2h-2v-1.92c3.386.488 6 3.401 6 6.92zm-8-6.92v2.104c-1.161.414-2 1.514-2 2.816 0 1.654 1.346 3 3 3 .552 0 1 .448 1 1s-.448 1-1 1h-3v2h2v1.92c-3.386-.488-6-3.401-6-6.92s2.614-6.432 6-6.92z"/></svg>