<svg id="Layer_3" enable-background="new 0 0 64 64" height="512" viewBox="0 0 64 64" width="512" xmlns="http://www.w3.org/2000/svg"><path d="m62 51h-1.556c.344-.591.556-1.268.556-2 0-1.201-.542-2.266-1.382-3 .84-.734 1.382-1.799 1.382-3 0-1.744-1.128-3.214-2.687-3.761.433-.639.687-1.41.687-2.239 0-1.474-.81-2.75-2-3.444v-7.556c0-.553-.447-1-1-1h-8v-2.093c1.172-.207 2.274-.767 3.121-1.614l.289-.289c1.67-1.67 2.59-3.891 2.59-6.253 0-2-.688-3.962-1.938-5.524l-6.281-7.852c-.267-.331-.713-.46-1.112-.318-.4.14-.669.518-.669.943v5.281c0 .763-.364 1.492-.975 1.95-1.894 1.421-3.025 3.682-3.025 6.05 0 2.021.786 3.92 2.215 5.348l.664.664c.847.847 1.949 1.407 3.121 1.614v2.093h-8c-.553 0-1 .447-1 1v7h-2v-1c0-4.625-3.507-8.442-8-8.941v-7.059c0-.553-.447-1-1-1h-5v-6h6v3c0 .553.447 1 1 1h6c.553 0 1-.447 1-1v-6c0-2.757-2.243-5-5-5h-17c-2.206 0-4 1.794-4 4s1.794 4 4 4h2v6h-5c-.553 0-1 .447-1 1v7.059c-4.493.499-8 4.316-8 8.941v2 8 10 6c0 2.757 2.243 5 5 5h24 8c.553 0 1-.447 1-1v-3h10v3c0 .553.447 1 1 1h8c.553 0 1-.447 1-1v-3h3c.553 0 1-.447 1-1v-6c0-.553-.447-1-1-1zm-18.371-31.785c-1.051-1.051-1.629-2.447-1.629-3.934 0-1.741.832-3.405 2.226-4.45 1.111-.834 1.774-2.161 1.774-3.55v-2.43l4.5 5.626c.968 1.209 1.5 2.727 1.5 4.274 0 1.828-.712 3.547-2.004 4.839l-.289.289c-.713.713-1.699 1.121-2.707 1.121s-1.994-.408-2.707-1.121zm15.371 29.785c0 1.103-.897 2-2 2h-26c-1.103 0-2-.897-2-2s.897-2 2-2h26c1.103 0 2 .897 2 2zm-56 2v-6.184c.314.112.648.184 1 .184 1.654 0 3-1.346 3-3v-2c0-.552.448-1 1-1s1 .448 1 1v6c0 1.654 1.346 3 3 3s3-1.346 3-3v-4c0-.552.448-1 1-1s1 .448 1 1v2c0 1.654 1.346 3 3 3s3-1.346 3-3v-9h6.556c-.344.591-.556 1.268-.556 2 0 .829.254 1.6.687 2.239-1.559.547-2.687 2.017-2.687 3.761 0 1.201.542 2.266 1.382 3-.84.734-1.382 1.799-1.382 3 0 .732.212 1.409.556 2h-1.556zm13-12c-1.654 0-3 1.346-3 3v4c0 .552-.448 1-1 1s-1-.448-1-1v-6c0-1.654-1.346-3-3-3s-3 1.346-3 3v2c0 .552-.448 1-1 1s-1-.448-1-1v-7h18v9c0 .552-.448 1-1 1s-1-.448-1-1v-2c0-1.654-1.346-3-3-3zm41-2c0 1.103-.897 2-2 2h-22c-1.103 0-2-.897-2-2s.897-2 2-2h1 21c1.103 0 2 .897 2 2zm2 6c0 1.103-.897 2-2 2h-26c-1.103 0-2-.897-2-2s.897-2 2-2h2 22 2c1.103 0 2 .897 2 2zm-20-16h16v6h-16zm-14-4h-2v-6h2zm-9-6h1v6h-2v-6zm3 0h1 1v6h-2zm-8-12c0-1.103.897-2 2-2h17c1.654 0 3 1.346 3 3v5h-4v-3c0-.553-.447-1-1-1h-8-4-3c-1.103 0-2-.897-2-2zm6 4h2v6h-2zm-6 8h2v6h-2zm-1 8h16c3.859 0 7 3.141 7 7v1h-30v-1c0-3.859 3.141-7 7-7zm-7 33v-5h22v5c0 .553.447 1 1 1h3v2h-23c-1.654 0-3-1.346-3-3zm34 3h-6v-2h6zm20 0h-6v-2h6zm4-4h-34v-4h4 26 4z"/></svg>