<svg id="Layer_3" enable-background="new 0 0 64 64" height="512" viewBox="0 0 64 64" width="512" xmlns="http://www.w3.org/2000/svg"><path d="m62.852 34.476-8-13-.016.01c-.041-.066-.073-.137-.129-.193-2.49-2.49-5.719-3.962-9.19-4.236l-4.665-7.581-.016.01c-.041-.066-.073-.137-.129-.193-2.769-2.769-6.449-4.293-10.364-4.293h-.343c-.553 0-1 .448-1 1v3c0 2.206-1.794 4-4 4s-4-1.794-4-4v-3c0-.552-.447-1-1-1h-.343c-3.915 0-7.596 1.524-10.364 4.293-.056.056-.088.127-.129.193l-.016-.01-8 13c-.156.254-.191.565-.095.848.098.283.315.507.595.612l7.352 2.757v19.307c0 .552.447 1 1 1h13v11c0 .552.447 1 1 1h30c.553 0 1-.448 1-1v-19.307l7.352-2.757c.279-.105.497-.33.595-.612.096-.282.061-.594-.095-.848zm-9.852 18.524h-28v-30.577c2.195-2.061 5.001-3.254 8-3.407v1.984c0 3.309 2.691 6 6 6s6-2.691 6-6v-1.983c2.999.152 5.805 1.346 8 3.407zm-30-16.443-5.512-2.067 5.512-8.957zm18-12.113v-10.911l2.308 3.75c-.189.182-.308.434-.308.717v3c0 1.474-.81 2.75-2 3.444zm-22-17.427v1.983c0 3.309 2.691 6 6 6s6-2.691 6-6v-1.983c2.999.152 5.805 1.346 8 3.407v14.576c-2.206 0-4-1.794-4-4v-3c0-.552-.447-1-1-1h-.343c-3.915 0-7.596 1.524-10.364 4.293-.056.056-.088.127-.129.193l-.016-.01-8 13c-.156.254-.191.565-.095.848.098.283.315.507.595.612l7.352 2.757v2.307h-12v-30.577c2.195-2.061 5.001-3.254 8-3.406zm-15.512 15.473 5.512-8.957v11.024zm7.512 22.51v-2h12v2zm14 12v-2h28v2zm30-20.443v-11.024l5.512 8.957z"/><path d="m43 32v8c0 .552.447 1 1 1h6c.553 0 1-.448 1-1v-8c0-.552-.447-1-1-1h-6c-.553 0-1 .448-1 1zm2 1h4v6h-4z"/></svg>