<svg id="Layer_3" enable-background="new 0 0 64 64" height="512" viewBox="0 0 64 64" width="512" xmlns="http://www.w3.org/2000/svg"><path d="m62 1h-32c-.552 0-1 .447-1 1v23h-27c-.552 0-1 .447-1 1v36c0 .553.448 1 1 1h32c3.86 0 7-3.141 7-7v-15h21c.552 0 1-.447 1-1v-38c0-.553-.448-1-1-1zm-13 16h-14v-2h14zm1-4h-16c-.552 0-1 .447-1 1v3h-2v-6h22v6h-2v-3c0-.553-.448-1-1-1zm-1-4h-14v-2h14zm6-2h2v28h-2zm-2-4v6h-2v-3c0-.553-.448-1-1-1h-16c-.552 0-1 .447-1 1v3h-2v-6zm-20 44h-30v-6h30zm0 2v2h-30v-2zm0-10h-30v-2h30zm6 17c0 2.757-2.243 5-5 5h-31v-8h31c.552 0 1-.447 1-1v-16c0-.553-.448-1-1-1h-31v-8h31c2.757 0 5 2.243 5 5zm2-23h2v2h-2zm0 4h3c.552 0 1-.447 1-1v-4c0-.553-.448-1-1-1h-3.08c-.488-3.386-3.401-6-6.92-6h-3v-6h22v20h-12zm20 2h-6v-2h3c.552 0 1-.447 1-1v-30c0-.553-.448-1-1-1h-3v-2h6z"/><path d="m14 21c4.962 0 9-4.037 9-9s-4.038-9-9-9-9 4.037-9 9 4.038 9 9 9zm7-9c0 3.519-2.613 6.432-6 6.92v-2.104c1.161-.414 2-1.514 2-2.816 0-1.654-1.346-3-3-3-.551 0-1-.448-1-1s.449-1 1-1h3v-2h-2v-1.92c3.387.488 6 3.401 6 6.92zm-8-6.92v2.104c-1.161.414-2 1.514-2 2.816 0 1.654 1.346 3 3 3 .551 0 1 .448 1 1s-.449 1-1 1h-3v2h2v1.92c-3.387-.488-6-3.401-6-6.92s2.613-6.432 6-6.92z"/><path d="m54 45c-4.962 0-9 4.037-9 9s4.038 9 9 9 9-4.037 9-9-4.038-9-9-9zm-7 9c0-3.519 2.613-6.432 6-6.92v2.104c-1.161.414-2 1.514-2 2.816 0 1.654 1.346 3 3 3 .551 0 1 .448 1 1s-.449 1-1 1h-3v2h2v1.92c-3.387-.488-6-3.401-6-6.92zm8 6.92v-2.104c1.161-.414 2-1.514 2-2.816 0-1.654-1.346-3-3-3-.551 0-1-.448-1-1s.449-1 1-1h3v-2h-2v-1.92c3.387.488 6 3.401 6 6.92s-2.613 6.432-6 6.92z"/></svg>